<svg width="16" height="28" viewBox="0 0 16 28" fill="none" xmlns="http://www.w3.org/2000/svg">
<path d="M15.325 0.675458C15.1129 0.461428 14.8605 0.291549 14.5824 0.175618C14.3043 0.0596874 14.0061 0 13.7048 0C13.4036 0 13.1053 0.0596874 12.8273 0.175618C12.5492 0.291549 12.2968 0.461428 12.0847 0.675458L0.674992 12.093C0.46111 12.3053 0.291347 12.5578 0.175496 12.8361C0.0596457 13.1144 0 13.4128 0 13.7143C0 14.0157 0.0596457 14.3142 0.175496 14.5925C0.291347 14.8707 0.46111 15.1233 0.674992 15.3356L12.0847 26.7531C12.2968 26.9671 12.5492 27.137 12.8273 27.253C13.1053 27.3689 13.4036 27.4286 13.7048 27.4286C14.0061 27.4286 14.3043 27.3689 14.5824 27.253C14.8605 27.137 15.1129 26.9671 15.325 26.7531C15.5389 26.5408 15.7087 26.2883 15.8245 26.01C15.9404 25.7317 16 25.4333 16 25.1318C16 24.8304 15.9404 24.5319 15.8245 24.2536C15.7087 23.9754 15.5389 23.7228 15.325 23.5105L5.51269 13.7143L15.325 3.91804C15.5389 3.70576 15.7087 3.4532 15.8245 3.17493C15.9404 2.89667 16 2.5982 16 2.29675C16 1.9953 15.9404 1.69683 15.8245 1.41856C15.7087 1.1403 15.5389 0.887739 15.325 0.675458Z" fill="black"/>
</svg>
