<svg width="136" height="134" viewBox="0 0 136 134" fill="none" xmlns="http://www.w3.org/2000/svg">
<mask id="mask0_205_303" style="mask-type:luminance" maskUnits="userSpaceOnUse" x="0" y="0" width="101" height="134">
<path d="M0 0H100.388V134H0V0Z" fill="white"/>
</mask>
<g mask="url(#mask0_205_303)">
<path d="M13.7581 0.42516C8.92009 1.41949 4.33014 4.8712 2.15682 9.18754C0.0378374 13.3219 0.172488 9.2922 0.172488 66.9678C0.172488 112.716 0.226821 118.732 0.607152 120.509C1.69381 125.638 5.03647 129.822 9.81777 132.125C13.7841 134.007 11.8824 133.929 50.1635 133.929C88.5509 133.929 86.5146 134.007 90.6439 132.072C95.0449 130.004 99.2025 125.01 99.2025 121.817C99.2025 120.693 99.0939 120.457 98.1962 119.647C97.3269 118.889 96.9725 118.757 95.8315 118.757C94.1212 118.757 93.3322 119.36 92.2999 121.478C91.3502 123.387 89.5029 125.167 87.3556 126.263L85.8886 126.996H14.7077L13.1581 126.291C11.1477 125.401 9.02876 123.36 8.1051 121.426L7.37278 119.933V13.9999L8.07911 12.5619C9.13978 10.4162 10.7698 8.79618 12.8864 7.80185L14.7077 6.93722L37.3126 6.85985L59.9434 6.80752V13.5835C59.9434 20.8282 60.1868 23.4426 61.0561 26.1639C62.4971 30.5303 65.6484 34.1413 69.7234 36.0503C73.9613 38.039 76.678 38.4577 86.2429 38.4577H93.3606V45.6774C93.3606 51.8754 93.4149 52.9994 93.7952 53.6274C94.4189 54.6218 95.5339 55.1974 96.8922 55.1974C97.8702 55.1974 98.1962 55.0404 99.0939 54.1781L100.152 53.1564V42.328C100.152 31.577 100.152 31.4473 99.5545 30.7397C98.5765 29.5383 67.7414 1.00082 66.8721 0.477493C66.0831 0.0337996 64.8617 0.00649535 40.7899 0.0337996C20.2497 0.0337996 15.1967 0.111162 13.7581 0.42516ZM81.7876 23.2856L90.6699 31.5247L89.6376 31.6566C89.0683 31.734 86.2146 31.7863 83.309 31.7613C79.234 31.734 77.5757 31.6316 76.1087 31.263C71.3274 30.1139 68.5564 27.602 67.4154 23.4176C67.1154 22.239 67.0067 20.4096 67.0067 15.7519V9.63351L69.9407 12.3275C71.5707 13.8179 76.8953 18.7599 81.7876 23.2856Z" fill="black"/>
</g>
<path d="M122.84 44.3169C122.159 44.6036 117.269 49.3636 117.269 49.7573C117.269 49.8346 120.229 52.6333 123.844 55.9826L130.418 62.1033L133.08 59.357C135.905 56.4786 136.368 55.589 135.771 54.2033C135.499 53.6026 127.619 46.0416 125.854 44.7082C125.013 44.0803 123.761 43.9233 122.84 44.3169Z" fill="black"/>
<path d="M26.8783 52.7133C25.0594 53.471 24.379 55.7986 25.4397 57.4983C26.498 59.173 25.6027 59.1207 50.1635 59.1207C74.37 59.1207 73.6354 59.173 74.8307 57.6826C75.2654 57.1593 75.4307 56.5836 75.4307 55.7213C75.4307 54.256 74.722 53.2366 73.3637 52.686C72.0054 52.1376 28.1563 52.1649 26.8783 52.7133Z" fill="black"/>
<path d="M102.734 64.1423L92.6825 74.2927L90.8612 81.9561C89.0942 89.3054 88.8225 90.9278 89.4225 90.8754C89.5832 90.8481 93.3321 89.9061 97.7874 88.7821L105.885 86.7161L115.937 76.568C121.453 70.9957 125.963 66.3403 125.963 66.2357C125.963 66.0514 117.213 57.8646 114.144 55.1729L112.786 53.9692L102.734 64.1423ZM98.4678 83.0027L101.565 85.9834L99.2828 86.5864C92.4368 88.3634 91.4305 88.6001 91.3502 88.4431C91.2675 88.3384 91.7305 86.0631 92.3542 83.3941L93.4692 78.5044L94.4188 79.262C94.9645 79.6807 96.7835 81.3531 98.4678 83.0027Z" fill="black"/>
<path d="M26.9349 74.2927C25.2483 74.9457 24.4073 77.3007 25.2766 78.8684C26.2806 80.675 24.9766 80.5704 48.5335 80.5704H69.7776L70.6753 79.7057C72.3313 78.1107 72.114 75.6784 70.2123 74.5543C69.343 74.031 68.9083 74.031 48.3965 74.056C36.8779 74.056 27.2326 74.1607 26.9349 74.2927Z" fill="black"/>
<path d="M78.6906 91.0575C73.5006 91.6855 69.0713 94.6935 66.9523 99.0621C63.6664 105.759 67.1153 112.56 74.7503 114.441C76.8693 114.965 81.7876 114.965 84.6932 114.416C85.9429 114.18 90.6439 112.846 95.1275 111.433C107.433 107.563 112.812 106.202 115.991 106.202C117.621 106.202 117.621 106.202 119.062 107.954C121.127 110.519 125.148 109.001 125.148 105.706C125.148 103.404 123.163 101.442 119.986 100.527C118.002 99.9518 113.083 99.9768 109.526 100.58C105.233 101.285 99.2025 102.855 91.9195 105.156C84.6672 107.431 82.0852 108.034 79.3426 108.034C76.7606 108.034 75.2653 107.59 74.044 106.464C73.092 105.602 72.9856 105.365 72.9856 104.216C73.0116 100.894 75.7283 98.4615 80.1292 97.8585C82.2766 97.5718 82.9002 97.2578 83.5806 96.1838C84.6129 94.5888 84.0956 92.3658 82.5199 91.5034C81.4876 90.9278 80.6466 90.8231 78.6906 91.0575Z" fill="black"/>
<path d="M26.5806 96.1066C24.9766 96.9439 24.4332 99.0873 25.4396 100.632C26.4979 102.307 26.2546 102.28 40.3268 102.28H53.0691L53.9927 101.677C55.0794 100.971 55.7857 99.3489 55.4881 98.2249C55.3794 97.8336 54.8904 97.1009 54.373 96.6026L53.4777 95.7402H40.3268C30.1665 95.7675 27.0696 95.8449 26.5806 96.1066Z" fill="black"/>
</svg>
