<svg width="200" height="200" viewBox="0 0 200 200" fill="none" xmlns="http://www.w3.org/2000/svg">
<path fill-rule="evenodd" clip-rule="evenodd" d="M47.0891 103.274H21.446C19.7192 103.274 18.3145 101.875 18.3145 100.156V74.6961C18.3145 72.9768 19.7192 71.5782 21.446 71.5782H47.0891C48.8249 71.5782 50.2296 72.9768 50.2296 74.6961V100.156C50.2296 101.875 48.8249 103.274 47.0891 103.274ZM24.5865 97.0471H43.9575V77.8051H24.5865V97.0471Z" fill="#2969BD"/>
<path fill-rule="evenodd" clip-rule="evenodd" d="M90.9145 103.274H65.2714C63.5356 103.274 62.1309 101.875 62.1309 100.156V74.6961C62.1309 72.9768 63.5356 71.5782 65.2714 71.5782H90.9145C92.6413 71.5782 94.046 72.9768 94.046 74.6961V100.156C94.046 101.875 92.6413 103.274 90.9145 103.274ZM68.4029 97.0471H87.7739V77.8051H68.4029V97.0471Z" fill="#2969BD"/>
<path fill-rule="evenodd" clip-rule="evenodd" d="M134.729 103.274H109.086C107.35 103.274 105.945 101.875 105.945 100.156V74.6961C105.945 72.9768 107.35 71.5782 109.086 71.5782H134.729C136.456 71.5782 137.86 72.9768 137.86 74.6961V100.156C137.86 101.875 136.456 103.274 134.729 103.274ZM112.217 97.0471H131.588V77.8051H112.217V97.0471Z" fill="#2969BD"/>
<path fill-rule="evenodd" clip-rule="evenodd" d="M178.545 103.274H152.902C151.175 103.274 149.771 101.875 149.771 100.156V74.6961C149.771 72.9768 151.175 71.5782 152.902 71.5782H178.545C180.281 71.5782 181.677 72.9768 181.677 74.6961V100.156C181.677 101.875 180.281 103.274 178.545 103.274ZM156.043 97.0471H175.414V77.8051H156.043V97.0471Z" fill="#2969BD"/>
<path fill-rule="evenodd" clip-rule="evenodd" d="M47.0891 142.55H21.446C19.7192 142.55 18.3145 141.161 18.3145 139.441V113.973C18.3145 112.253 19.7192 110.855 21.446 110.855H47.0891C48.8249 110.855 50.2296 112.253 50.2296 113.973V139.441C50.2296 141.161 48.8249 142.55 47.0891 142.55ZM24.5865 136.324H43.9575V117.082H24.5865V136.324Z" fill="#2969BD"/>
<path fill-rule="evenodd" clip-rule="evenodd" d="M90.9145 142.55H65.2714C63.5356 142.55 62.1309 141.161 62.1309 139.441V113.973C62.1309 112.253 63.5356 110.855 65.2714 110.855H90.9145C92.6413 110.855 94.046 112.253 94.046 113.973V139.441C94.046 141.161 92.6413 142.55 90.9145 142.55ZM68.4029 136.324H87.7739V117.082H68.4029V136.324Z" fill="#2969BD"/>
<path fill-rule="evenodd" clip-rule="evenodd" d="M134.729 142.55H109.086C107.35 142.55 105.945 141.161 105.945 139.441V113.973C105.945 112.253 107.35 110.855 109.086 110.855H134.729C136.456 110.855 137.86 112.253 137.86 113.973V139.441C137.86 141.161 136.456 142.55 134.729 142.55ZM112.217 136.324H131.588V117.082H112.217V136.324Z" fill="#2969BD"/>
<path fill-rule="evenodd" clip-rule="evenodd" d="M178.545 142.55H152.902C151.175 142.55 149.771 141.161 149.771 139.441V113.973C149.771 112.253 151.175 110.855 152.902 110.855H178.545C180.281 110.855 181.677 112.253 181.677 113.973V139.441C181.677 141.161 180.281 142.55 178.545 142.55ZM156.043 136.324H175.414V117.082H156.043V136.324Z" fill="#2969BD"/>
<path fill-rule="evenodd" clip-rule="evenodd" d="M47.0891 181.827H21.446C19.7192 181.827 18.3145 180.437 18.3145 178.718V153.249C18.3145 151.53 19.7192 150.14 21.446 150.14H47.0891C48.8249 150.14 50.2296 151.53 50.2296 153.249V178.718C50.2296 180.437 48.8249 181.827 47.0891 181.827ZM24.5865 175.609H43.9575V156.367H24.5865V175.609Z" fill="#2969BD"/>
<path fill-rule="evenodd" clip-rule="evenodd" d="M90.9145 181.827H65.2714C63.5356 181.827 62.1309 180.437 62.1309 178.718V153.249C62.1309 151.53 63.5356 150.14 65.2714 150.14H90.9145C92.6413 150.14 94.046 151.53 94.046 153.249V178.718C94.046 180.437 92.6413 181.827 90.9145 181.827ZM68.4029 175.609H87.7739V156.367H68.4029V175.609Z" fill="#2969BD"/>
<path fill-rule="evenodd" clip-rule="evenodd" d="M134.729 181.827H109.086C107.35 181.827 105.945 180.437 105.945 178.718V153.249C105.945 151.53 107.35 150.14 109.086 150.14H134.729C136.456 150.14 137.86 151.53 137.86 153.249V178.718C137.86 180.437 136.456 181.827 134.729 181.827ZM112.217 175.609H131.588V156.367H112.217V175.609Z" fill="#2969BD"/>
<path fill-rule="evenodd" clip-rule="evenodd" d="M178.545 181.827H152.902C151.175 181.827 149.771 180.437 149.771 178.718V153.249C149.771 151.53 151.175 150.14 152.902 150.14H178.545C180.281 150.14 181.677 151.53 181.677 153.249V178.718C181.677 180.437 180.281 181.827 178.545 181.827ZM156.043 175.609H175.414V156.367H156.043V175.609Z" fill="#2969BD"/>
<mask id="mask0_350_515" style="mask-type:luminance" maskUnits="userSpaceOnUse" x="0" y="53" width="200" height="147">
<path d="M0 53.2002H200V200H0V53.2002Z" fill="white"/>
</mask>
<g mask="url(#mask0_350_515)">
<path fill-rule="evenodd" clip-rule="evenodd" d="M189.022 200.018H10.9694C4.92104 200.018 0 195.136 0 189.123V56.5052C0 54.7859 1.40473 53.3873 3.14052 53.3873H196.859C198.586 53.3873 200 54.7859 200 56.5052V189.123C200 195.136 195.07 200.018 189.022 200.018ZM6.27209 59.6142V189.123C6.27209 191.697 8.37471 193.791 10.9694 193.791H189.022C191.616 193.791 193.728 191.697 193.728 189.123V59.6142H6.27209Z" fill="#2969BD"/>
<path fill-rule="evenodd" clip-rule="evenodd" d="M32.4137 172.206C31.5816 172.206 30.7853 171.877 30.2037 171.289L27.6 168.705C26.3742 167.494 26.3742 165.516 27.6 164.304C28.8258 163.084 30.8032 163.084 32.0289 164.304L32.4137 164.688L37.1558 159.975C38.3816 158.764 40.3679 158.764 41.5937 159.975C42.8194 161.195 42.8194 163.164 41.5937 164.376L34.6326 171.289C34.0421 171.877 33.2458 172.206 32.4137 172.206Z" fill="#2969BD"/>
</g>
<mask id="mask1_350_515" style="mask-type:luminance" maskUnits="userSpaceOnUse" x="0" y="18" width="200" height="42">
<path d="M0 18.6095H200V59.6856H0V18.6095Z" fill="white"/>
</mask>
<g mask="url(#mask1_350_515)">
<path fill-rule="evenodd" clip-rule="evenodd" d="M196.859 59.6144H3.14052C1.40473 59.6144 0 58.2247 0 56.5054V30.4397C0 24.097 5.19841 18.9302 11.5868 18.9302H31.1994C32.9352 18.9302 34.331 20.3288 34.331 22.0481C34.331 23.7674 32.9352 25.1571 31.1994 25.1571H11.5868C8.66103 25.1571 6.27209 27.5267 6.27209 30.4397V53.3875H193.728V30.4397C193.728 27.5267 191.339 25.1571 188.404 25.1571H168.792C167.065 25.1571 165.66 23.7674 165.66 22.0481C165.66 20.3288 167.065 18.9302 168.792 18.9302H188.404C194.793 18.9302 200 24.097 200 30.4397V56.5054C200 58.2247 198.586 59.6144 196.859 59.6144Z" fill="#2969BD"/>
<path fill-rule="evenodd" clip-rule="evenodd" d="M154.141 25.6559H107.082C106.322 25.6559 105.704 24.129 105.704 22.24C105.704 20.351 106.322 18.8143 107.082 18.8143H154.141C154.901 18.8143 155.523 20.351 155.523 22.24C155.523 24.129 154.901 25.6559 154.141 25.6559Z" fill="#2969BD"/>
</g>
<path fill-rule="evenodd" clip-rule="evenodd" d="M92.2974 25.6559H45.2382C44.4784 25.6559 43.8604 24.129 43.8604 22.24C43.8604 20.351 44.4784 18.8143 45.2382 18.8143H92.2974C93.0572 18.8143 93.6792 20.351 93.6792 22.24C93.6792 24.129 93.0572 25.6559 92.2974 25.6559Z" fill="#2969BD"/>
<mask id="mask2_350_515" style="mask-type:luminance" maskUnits="userSpaceOnUse" x="26" y="0" width="26" height="44">
<path d="M26.1084 0.775024H51.3041V43.3299H26.1084V0.775024Z" fill="white"/>
</mask>
<g mask="url(#mask2_350_515)">
<path fill-rule="evenodd" clip-rule="evenodd" d="M38.8589 43.3121C32.9089 43.3121 28.0684 38.5106 28.0684 32.5954V11.5006C28.0684 5.5855 32.9089 0.775024 38.8589 0.775024C44.8178 0.775024 49.6583 5.5855 49.6583 11.5006V32.5954C49.6583 38.5016 44.8178 43.3121 38.8589 43.3121ZM38.8589 7.00192C36.3625 7.00192 34.3315 9.0152 34.3315 11.5006V32.5954C34.3315 35.072 36.3625 37.0941 38.8589 37.0941C41.3552 37.0941 43.3862 35.072 43.3862 32.5954V11.5006C43.3862 9.0152 41.3552 7.00192 38.8589 7.00192Z" fill="#2969BD"/>
</g>
<mask id="mask3_350_515" style="mask-type:luminance" maskUnits="userSpaceOnUse" x="149" y="0" width="24" height="44">
<path d="M149.797 0.775024H172.702V43.3299H149.797V0.775024Z" fill="white"/>
</mask>
<g mask="url(#mask3_350_515)">
<path fill-rule="evenodd" clip-rule="evenodd" d="M161.133 43.3121C155.183 43.3121 150.343 38.5106 150.343 32.5954V11.5006C150.343 5.5855 155.183 0.775024 161.133 0.775024C167.083 0.775024 171.933 5.5855 171.933 11.5006V32.5954C171.933 38.5016 167.092 43.3121 161.133 43.3121ZM161.133 7.00192C158.637 7.00192 156.615 9.0152 156.615 11.5006V32.5954C156.615 35.072 158.637 37.0941 161.133 37.0941C163.63 37.0941 165.661 35.072 165.661 32.5954V11.5006C165.661 9.0152 163.63 7.00192 161.133 7.00192Z" fill="#2969BD"/>
</g>
<path fill-rule="evenodd" clip-rule="evenodd" d="M119.724 133.277C118.892 133.277 118.096 132.947 117.514 132.36L114.911 129.776C113.685 128.565 113.685 126.587 114.911 125.375C116.136 124.155 118.114 124.155 119.339 125.375L119.724 125.758L124.466 121.046C125.692 119.834 127.678 119.834 128.904 121.046C130.13 122.266 130.13 124.235 128.904 125.447L121.943 132.36C121.353 132.947 120.556 133.277 119.724 133.277Z" fill="#2969BD"/>
<mask id="mask4_350_515" style="mask-type:luminance" maskUnits="userSpaceOnUse" x="86" y="0" width="27" height="43">
<path d="M86.8066 0H112.002V42.5549H86.8066V0Z" fill="white"/>
</mask>
<g mask="url(#mask4_350_515)">
<path fill-rule="evenodd" clip-rule="evenodd" d="M99.5571 42.5371C93.6071 42.5371 88.7666 37.7355 88.7666 31.8204V10.7256C88.7666 4.81048 93.6071 0 99.5571 0C105.516 0 110.357 4.81048 110.357 10.7256V31.8204C110.357 37.7266 105.516 42.5371 99.5571 42.5371ZM99.5571 6.2269C97.0608 6.2269 95.0297 8.24017 95.0297 10.7256V31.8204C95.0297 34.2969 97.0608 36.3191 99.5571 36.3191C102.053 36.3191 104.084 34.2969 104.084 31.8204V10.7256C104.084 8.24017 102.053 6.2269 99.5571 6.2269Z" fill="#2969BD"/>
</g>
<path fill-rule="evenodd" clip-rule="evenodd" d="M120.026 172.206C119.194 172.206 118.398 171.877 117.816 171.289L115.212 168.705C113.987 167.494 113.987 165.516 115.212 164.304C116.438 163.084 118.415 163.084 119.641 164.304L120.026 164.688L124.768 159.975C125.994 158.764 127.98 158.764 129.206 159.975C130.432 161.195 130.432 163.164 129.206 164.376L122.245 171.289C121.654 171.877 120.858 172.206 120.026 172.206Z" fill="#2969BD"/>
<path fill-rule="evenodd" clip-rule="evenodd" d="M75.3609 93.5282C74.5288 93.5282 73.7325 93.1986 73.1509 92.6106L70.5473 90.0272C69.3215 88.8157 69.3215 86.838 70.5473 85.6265C71.7731 84.4061 73.7504 84.4061 74.9762 85.6265L75.3609 86.0096L80.103 81.2971C81.3288 80.0855 83.3151 80.0855 84.5409 81.2971C85.7667 82.5175 85.7667 84.4862 84.5409 85.6978L77.5799 92.6106C76.9894 93.1986 76.193 93.5282 75.3609 93.5282Z" fill="#2969BD"/>
</svg>
