<svg width="200" height="220" viewBox="0 0 200 220" fill="none" xmlns="http://www.w3.org/2000/svg">
<mask id="mask0_349_330" style="mask-type:luminance" maskUnits="userSpaceOnUse" x="0" y="21" width="24" height="124">
<path d="M0 21.3254H23.0094V144.453H0V21.3254Z" fill="white"/>
</mask>
<g mask="url(#mask0_349_330)">
<path d="M10.0841 31.572L21.3701 29.3389V22.2961L8.72057 24.8728C3.59213 25.9034 -0.00120177 31.0566 1.02792 36.2099L21.3701 143.758V106.998L7.69145 35.0074C7.51993 33.4615 8.54905 31.9155 10.0841 31.572Z" fill="#2969BD"/>
</g>
<mask id="mask1_349_330" style="mask-type:luminance" maskUnits="userSpaceOnUse" x="176" y="21" width="25" height="124">
<path d="M176.691 21.3254H200.001V144.453H176.691V21.3254Z" fill="white"/>
</mask>
<g mask="url(#mask1_349_330)">
<path d="M191.287 24.8728L178.638 22.2961V29.3389L189.915 31.572C191.459 31.9155 192.479 33.4615 192.308 35.0074L178.638 106.998V143.758L198.98 36.2099C200 31.0566 196.416 25.9034 191.287 24.8728Z" fill="#2969BD"/>
</g>
<mask id="mask2_349_330" style="mask-type:luminance" maskUnits="userSpaceOnUse" x="27" y="0" width="146" height="220">
<path d="M27.4004 0H172.3V220H27.4004V0Z" fill="white"/>
</mask>
<g mask="url(#mask2_349_330)">
<path d="M171.795 173.14V10.2719C171.795 4.60334 167.181 0.137207 161.538 0.137207H38.4639C32.8209 0.137207 28.207 4.77511 28.207 10.2719V209.736C28.207 215.405 32.8209 219.871 38.4639 219.871C38.4639 219.871 127.011 219.871 127.354 219.871C128.212 219.871 129.232 219.527 129.918 218.84L152.653 194.096L170.774 175.545C171.46 175.029 171.795 174.17 171.795 173.14ZM130.776 207.847V178.637C130.776 176.919 132.139 175.373 133.674 175.373H160.517L130.776 207.847ZM164.96 168.502H133.674C128.374 168.502 123.932 172.968 123.932 178.637V213.172H38.4639C36.5858 213.172 35.0421 211.626 35.0421 209.908V10.2719C35.0421 8.55415 36.5858 7.00818 38.4639 7.00818H144.446V34.1485L139.146 31.4001C138.125 30.8848 137.096 30.8848 136.067 31.4001L130.776 34.1485V19.0324C130.776 17.1429 129.232 15.5969 127.354 15.5969C125.476 15.5969 123.932 17.1429 123.932 19.0324V39.6453C123.932 40.8563 124.618 41.887 125.647 42.5741C126.668 43.2612 127.868 43.2612 128.889 42.7458L137.611 38.2711L146.324 42.7458C146.839 42.9176 147.353 43.0894 147.868 43.0894C148.554 43.0894 149.06 42.9176 149.574 42.5741C150.603 41.887 151.281 40.8563 151.281 39.6453V7.00818H161.538C163.425 7.00818 164.96 8.55415 164.96 10.2719V168.502Z" fill="#2969BD"/>
</g>
<path d="M151.28 125.55H48.7197C46.8415 125.55 45.2979 127.096 45.2979 128.985C45.2979 130.875 46.8415 132.421 48.7197 132.421H151.28C153.167 132.421 154.702 130.875 154.702 128.985C154.702 127.096 153.167 125.55 151.28 125.55Z" fill="#2969BD"/>
<path d="M151.28 139.292H48.7197C46.8415 139.292 45.2979 140.838 45.2979 142.727C45.2979 144.625 46.8415 146.171 48.7197 146.171H151.28C153.167 146.171 154.702 144.625 154.702 142.727C154.702 140.838 153.167 139.292 151.28 139.292Z" fill="#2969BD"/>
<path d="M151.28 98.0659H48.7197C46.8415 98.0659 45.2979 99.6119 45.2979 101.501C45.2979 103.391 46.8415 104.937 48.7197 104.937H151.28C153.167 104.937 154.702 103.391 154.702 101.501C154.702 99.6119 153.167 98.0659 151.28 98.0659Z" fill="#2969BD"/>
<path d="M151.28 111.808H48.7197C46.8415 111.808 45.2979 113.354 45.2979 115.243C45.2979 117.133 46.8415 118.679 48.7197 118.679H151.28C153.167 118.679 154.702 117.133 154.702 115.243C154.702 113.354 153.167 111.808 151.28 111.808Z" fill="#2969BD"/>
<path d="M151.28 84.3154H48.7197C46.8415 84.3154 45.2979 85.8614 45.2979 87.7509C45.2979 89.6404 46.8415 91.1864 48.7197 91.1864H151.28C153.167 91.1864 154.702 89.6404 154.702 87.7509C154.702 85.8614 153.167 84.3154 151.28 84.3154Z" fill="#2969BD"/>
<path d="M151.28 56.8313H48.7197C46.8415 56.8313 45.2979 58.3773 45.2979 60.2668C45.2979 62.1563 46.8415 63.7023 48.7197 63.7023H151.28C153.167 63.7023 154.702 62.1563 154.702 60.2668C154.702 58.3773 153.167 56.8313 151.28 56.8313Z" fill="#2969BD"/>
<path d="M151.28 70.5735H48.7197C46.8415 70.5735 45.2979 72.1195 45.2979 74.009C45.2979 75.8985 46.8415 77.4445 48.7197 77.4445H151.28C153.167 77.4445 154.702 75.8985 154.702 74.009C154.702 72.1195 153.167 70.5735 151.28 70.5735Z" fill="#2969BD"/>
<path d="M105.132 153.042H48.7197C46.8415 153.042 45.2979 154.588 45.2979 156.477C45.2979 158.367 46.8415 159.913 48.7197 159.913H105.132C107.011 159.913 108.546 158.367 108.546 156.477C108.546 154.588 107.011 153.042 105.132 153.042Z" fill="#2969BD"/>
<path d="M48.7197 49.9603H105.132C107.011 49.9603 108.546 48.4144 108.546 46.5248C108.546 44.6353 107.011 43.0894 105.132 43.0894H48.7197C46.8415 43.0894 45.2979 44.6353 45.2979 46.5248C45.2979 48.4144 46.8415 49.9603 48.7197 49.9603Z" fill="#2969BD"/>
<path d="M105.132 166.784H48.7197C46.8415 166.784 45.2979 168.33 45.2979 170.22C45.2979 172.109 46.8415 173.655 48.7197 173.655H105.132C107.011 173.655 108.546 172.109 108.546 170.22C108.546 168.33 107.011 166.784 105.132 166.784Z" fill="#2969BD"/>
</svg>
