<svg width="180" height="160" viewBox="0 0 180 160" fill="none" xmlns="http://www.w3.org/2000/svg">
<mask id="mask0_195_334" style="mask-type:luminance" maskUnits="userSpaceOnUse" x="14" y="0" width="80" height="143">
<path d="M14.1006 0H93.6083V142.721H14.1006V0Z" fill="white"/>
</mask>
<g mask="url(#mask0_195_334)">
<path d="M89.8811 141.165H17.4028C16.6781 141.165 16.0673 140.882 15.56 140.304C15.0528 139.726 14.7939 139.018 14.7939 138.204V2.97214C14.7939 2.15833 15.0528 1.45069 15.56 0.87277C16.0673 0.294855 16.6781 0 17.4028 0H73.1513C74.4144 0 75.6774 0.153324 76.9197 0.436385C78.162 0.719445 79.3732 1.13224 80.5431 1.68657C81.7129 2.2409 82.831 2.92496 83.887 3.72696C84.9429 4.52897 85.9161 5.44891 86.8167 6.47501C87.7174 7.48931 88.5145 8.60976 89.2185 9.81276C89.9328 11.0158 90.5229 12.2777 91.0095 13.6223C91.4961 14.955 91.8688 16.3349 92.1172 17.7503C92.3657 19.1773 92.4899 20.6044 92.4899 22.0551V138.204C92.4899 139.018 92.2311 139.726 91.7238 140.304C91.2166 140.882 90.6058 141.165 89.8811 141.165ZM20.0013 135.232H87.2826V22.0551C87.2826 20.9937 87.1894 19.944 87.0031 18.9179C86.8271 17.88 86.5579 16.8657 86.1956 15.8868C85.8436 14.9196 85.4088 13.9879 84.8912 13.1033C84.3735 12.2306 83.7938 11.4168 83.1312 10.6619C82.479 9.91891 81.7647 9.24664 80.9986 8.65693C80.2221 8.07902 79.4146 7.58366 78.5554 7.17087C77.6961 6.76986 76.8162 6.46322 75.9051 6.25092C74.9941 6.05042 74.0727 5.94427 73.1513 5.94427H20.0013V135.232Z" fill="#2969BD"/>
</g>
<path d="M89.6426 18.8354C89.8082 19.8969 89.8807 20.9701 89.8807 22.0552V24.7679H89.9739V22.0552C89.9739 20.9701 90.0567 19.8969 90.212 18.8354H89.6426Z" fill="#2969BD"/>
<mask id="mask1_195_334" style="mask-type:luminance" maskUnits="userSpaceOnUse" x="0" y="15" width="180" height="145">
<path d="M0 15.9104H180V160H0V15.9104Z" fill="white"/>
</mask>
<g mask="url(#mask1_195_334)">
<path d="M170.456 18.8354H162.463V24.7679H170.456C171.015 24.7679 171.563 24.8976 172.081 25.1453C172.598 25.393 173.064 25.735 173.458 26.195C173.862 26.6432 174.162 27.1739 174.379 27.7636C174.597 28.3533 174.7 28.9784 174.71 29.6153V149.208C174.7 149.857 174.597 150.47 174.379 151.06C174.162 151.662 173.862 152.181 173.458 152.64C173.064 153.089 172.598 153.442 172.081 153.69C171.563 153.938 171.015 154.056 170.456 154.056H9.54564C8.9866 154.056 8.44827 153.938 7.92029 153.69C7.40266 153.442 6.94714 153.089 6.5434 152.64C6.15 152.181 5.83942 151.662 5.62202 151.06C5.40461 150.47 5.30109 149.857 5.30109 149.208V29.6153C5.30109 28.9784 5.40461 28.3533 5.62202 27.7636C5.83942 27.1739 6.15 26.6432 6.5434 26.195C6.94714 25.735 7.40266 25.393 7.92029 25.1453C8.44827 24.8976 8.9866 24.7679 9.54564 24.7679H17.4032V18.8354H9.54564C8.29298 18.8354 7.09208 19.1067 5.9326 19.661C4.77311 20.2036 3.7482 20.982 2.86824 21.9963C1.97791 23.0106 1.29465 24.1782 0.808077 25.4991C0.33186 26.8201 0.09375 28.1882 0.09375 29.6153V149.208C0.09375 150.635 0.33186 152.015 0.808077 153.336C1.29465 154.657 1.97791 155.825 2.86824 156.827C3.7482 157.842 4.77311 158.62 5.9326 159.174C7.09208 159.717 8.29298 159.988 9.55599 160H170.456C171.708 159.988 172.919 159.717 174.069 159.174C175.228 158.62 176.253 157.842 177.143 156.827C178.023 155.825 178.706 154.657 179.193 153.336C179.669 152.015 179.918 150.635 179.918 149.208V29.6153C179.918 28.1882 179.669 26.8201 179.193 25.4991C178.706 24.1782 178.023 23.0106 177.143 21.9963C176.253 20.982 175.228 20.2036 174.069 19.661C172.909 19.1067 171.708 18.8354 170.456 18.8354Z" fill="#2969BD"/>
</g>
<mask id="mask2_195_334" style="mask-type:luminance" maskUnits="userSpaceOnUse" x="85" y="0" width="81" height="143">
<path d="M85.6582 0H165.166V142.721H85.6582V0Z" fill="white"/>
</mask>
<g mask="url(#mask2_195_334)">
<path d="M162.465 141.165H89.9764C89.2621 141.165 88.6409 140.882 88.1337 140.304C87.6264 139.726 87.3779 139.018 87.3779 138.204V22.0551C87.3779 20.6044 87.5022 19.1773 87.7506 17.7503C87.9991 16.3349 88.3614 14.955 88.848 13.6223C89.3346 12.2777 89.935 11.0158 90.639 9.81276C91.343 8.60976 92.1505 7.48931 93.0408 6.47501C93.9415 5.44891 94.9146 4.52897 95.9706 3.72696C97.0265 2.92496 98.1446 2.2409 99.3144 1.68657C100.495 1.13224 101.696 0.719445 102.948 0.436385C104.19 0.153324 105.443 0 106.717 0H162.465C163.179 0 163.801 0.294855 164.308 0.87277C164.815 1.45069 165.074 2.15833 165.074 2.97214V138.204C165.074 139.018 164.815 139.726 164.308 140.304C163.801 140.882 163.179 141.165 162.465 141.165ZM92.5853 135.232H159.856V5.94427H106.717C105.785 5.94427 104.874 6.05042 103.963 6.25092C103.052 6.46322 102.172 6.76986 101.312 7.17087C100.453 7.58366 99.6354 8.07902 98.8693 8.65693C98.0928 9.24664 97.3785 9.91891 96.7263 10.6619C96.0741 11.4168 95.484 12.2306 94.9664 13.1033C94.4487 13.9879 94.0139 14.9196 93.6619 15.8868C93.3099 16.8657 93.0408 17.88 92.8544 18.9179C92.6784 19.944 92.5853 20.9937 92.5853 22.0551V135.232Z" fill="#2969BD"/>
</g>
<path d="M70.7698 35.5477H36.5131C35.7885 35.5477 35.1777 35.2529 34.6704 34.675C34.1528 34.0971 33.9043 33.3894 33.9043 32.5756C33.9043 31.75 34.1528 31.0542 34.6704 30.4762C35.1777 29.8983 35.7885 29.6035 36.5131 29.6035H70.7698C71.4944 29.6035 72.1052 29.8983 72.6125 30.4762C73.1198 31.0542 73.3786 31.75 73.3786 32.5756C73.3786 33.3894 73.1198 34.0971 72.6125 34.675C72.1052 35.2529 71.4944 35.5477 70.7698 35.5477Z" fill="#2969BD"/>
<path d="M70.7698 55.5861H36.5131C35.7885 55.5861 35.1777 55.303 34.6704 54.7133C34.1528 54.1354 33.9043 53.4395 33.9043 52.614C33.9043 51.8002 34.1528 51.0925 34.6704 50.5146C35.1777 49.9367 35.7885 49.6536 36.5131 49.6536H70.7698C71.4944 49.6536 72.1052 49.9367 72.6125 50.5146C73.1198 51.0925 73.3786 51.8002 73.3786 52.614C73.3786 53.4395 73.1198 54.1354 72.6125 54.7133C72.1052 55.303 71.4944 55.5861 70.7698 55.5861Z" fill="#2969BD"/>
<path d="M70.7698 75.6362H36.5131C35.7885 75.6362 35.1777 75.3413 34.6704 74.7634C34.1528 74.1855 33.9043 73.4778 33.9043 72.664C33.9043 71.8384 34.1528 71.1426 34.6704 70.5647C35.1777 69.9868 35.7885 69.6919 36.5131 69.6919H70.7698C71.4944 69.6919 72.1052 69.9868 72.6125 70.5647C73.1198 71.1426 73.3786 71.8384 73.3786 72.664C73.3786 73.4778 73.1198 74.1855 72.6125 74.7634C72.1052 75.3413 71.4944 75.6362 70.7698 75.6362Z" fill="#2969BD"/>
<path d="M70.7698 95.6746H36.5131C35.7885 95.6746 35.1777 95.3915 34.6704 94.8018C34.1528 94.2239 33.9043 93.528 33.9043 92.7024C33.9043 91.8886 34.1528 91.1928 34.6704 90.6031C35.1777 90.0251 35.7885 89.7421 36.5131 89.7421H70.7698C71.4944 89.7421 72.1052 90.0251 72.6125 90.6031C73.1198 91.1928 73.3786 91.8886 73.3786 92.7024C73.3786 93.528 73.1198 94.2239 72.6125 94.8018C72.1052 95.3915 71.4944 95.6746 70.7698 95.6746Z" fill="#2969BD"/>
<path d="M70.7698 115.725H36.5131C35.7885 115.725 35.1777 115.43 34.6704 114.852C34.1528 114.274 33.9043 113.578 33.9043 112.753C33.9043 111.939 34.1528 111.231 34.6704 110.653C35.1777 110.075 35.7885 109.78 36.5131 109.78H70.7698C71.4944 109.78 72.1052 110.075 72.6125 110.653C73.1198 111.231 73.3786 111.939 73.3786 112.753C73.3786 113.578 73.1198 114.274 72.6125 114.852C72.1052 115.43 71.4944 115.725 70.7698 115.725Z" fill="#2969BD"/>
<path d="M143.351 35.5477H109.084C108.37 35.5477 107.749 35.2529 107.242 34.675C106.734 34.0971 106.476 33.3894 106.476 32.5756C106.476 31.75 106.734 31.0542 107.242 30.4762C107.749 29.8983 108.37 29.6035 109.084 29.6035H143.351C144.066 29.6035 144.687 29.8983 145.194 30.4762C145.701 31.0542 145.96 31.75 145.96 32.5756C145.96 33.3894 145.701 34.0971 145.194 34.675C144.687 35.2529 144.066 35.5477 143.351 35.5477Z" fill="#2969BD"/>
<path d="M143.351 55.5861H109.084C108.37 55.5861 107.749 55.303 107.242 54.7133C106.734 54.1354 106.476 53.4395 106.476 52.614C106.476 51.8002 106.734 51.0925 107.242 50.5146C107.749 49.9367 108.37 49.6536 109.084 49.6536H143.351C144.066 49.6536 144.687 49.9367 145.194 50.5146C145.701 51.0925 145.96 51.8002 145.96 52.614C145.96 53.4395 145.701 54.1354 145.194 54.7133C144.687 55.303 144.066 55.5861 143.351 55.5861Z" fill="#2969BD"/>
<path d="M143.351 75.6362H109.084C108.37 75.6362 107.749 75.3413 107.242 74.7634C106.734 74.1855 106.476 73.4778 106.476 72.664C106.476 71.8384 106.734 71.1426 107.242 70.5647C107.749 69.9868 108.37 69.6919 109.084 69.6919H143.351C144.066 69.6919 144.687 69.9868 145.194 70.5647C145.701 71.1426 145.96 71.8384 145.96 72.664C145.96 73.4778 145.701 74.1855 145.194 74.7634C144.687 75.3413 144.066 75.6362 143.351 75.6362Z" fill="#2969BD"/>
<path d="M143.351 95.6746H109.084C108.37 95.6746 107.749 95.3915 107.242 94.8018C106.734 94.2239 106.476 93.528 106.476 92.7024C106.476 91.8886 106.734 91.1928 107.242 90.6031C107.749 90.0251 108.37 89.7421 109.084 89.7421H143.351C144.066 89.7421 144.687 90.0251 145.194 90.6031C145.701 91.1928 145.96 91.8886 145.96 92.7024C145.96 93.528 145.701 94.2239 145.194 94.8018C144.687 95.3915 144.066 95.6746 143.351 95.6746Z" fill="#2969BD"/>
<path d="M143.351 115.725H109.084C108.37 115.725 107.749 115.43 107.242 114.852C106.734 114.274 106.476 113.578 106.476 112.753C106.476 111.939 106.734 111.231 107.242 110.653C107.749 110.075 108.37 109.78 109.084 109.78H143.351C144.066 109.78 144.687 110.075 145.194 110.653C145.701 111.231 145.96 111.939 145.96 112.753C145.96 113.578 145.701 114.274 145.194 114.852C144.687 115.43 144.066 115.725 143.351 115.725Z" fill="#2969BD"/>
</svg>
