<svg width="175" height="191" viewBox="0 0 175 191" fill="none" xmlns="http://www.w3.org/2000/svg">
<mask id="mask0_234_567" style="mask-type:luminance" maskUnits="userSpaceOnUse" x="0" y="0" width="175" height="191">
<path d="M0 0H174.815V190.442H0V0Z" fill="white"/>
</mask>
<g mask="url(#mask0_234_567)">
<path fill-rule="evenodd" clip-rule="evenodd" d="M87.0232 0.449219C86.37 0.449219 85.7745 0.634615 85.2366 1.00541L1.19103 58.2346C0.605116 58.6346 0.201695 59.1713 -0.0384342 59.8446C-0.278566 60.5179 -0.288172 61.2009 -0.0864602 61.8937C0.115249 62.5768 0.499457 63.133 1.06617 63.5721C1.63287 64.0014 2.26682 64.2161 2.968 64.2161H11.0076V76.0717C11.0076 76.5108 11.094 76.9207 11.2573 77.3207C11.4206 77.7208 11.6511 78.0818 11.9585 78.3843C12.2562 78.6868 12.602 78.921 12.9958 79.0869C13.3897 79.2528 13.8027 79.3308 14.2253 79.3308H17.5295V134.482H14.2253C13.8027 134.482 13.3897 134.569 12.9958 134.735C12.602 134.901 12.2466 135.135 11.9489 135.448C11.6415 135.75 11.411 136.111 11.2477 136.511C11.0844 136.911 11.0076 137.331 11.0076 137.77V149.606H9.65322C9.23059 149.596 8.81757 149.684 8.42376 149.85C8.02994 150.006 7.68416 150.25 7.38639 150.553C7.07903 150.855 6.8485 151.206 6.68521 151.606C6.51232 152.007 6.43548 152.426 6.43548 152.855V166.624H2.91997C2.49734 166.624 2.08432 166.711 1.70011 166.877C1.3063 167.043 0.960508 167.277 0.662746 167.58C0.355379 167.892 0.124854 168.243 -0.0384342 168.643C-0.201725 169.034 -0.278564 169.453 -0.278564 169.883V186.91C-0.278564 187.339 -0.201725 187.759 -0.0384342 188.159C0.124854 188.559 0.355379 188.91 0.653141 189.223C0.950901 189.535 1.29669 189.769 1.6905 189.935C2.08432 190.101 2.49734 190.189 2.91997 190.189H170.656C171.088 190.189 171.491 190.101 171.885 189.935C172.279 189.769 172.625 189.535 172.923 189.223C173.23 188.91 173.46 188.559 173.624 188.159C173.777 187.759 173.864 187.339 173.854 186.91V169.883C173.854 169.453 173.777 169.034 173.614 168.643C173.451 168.243 173.22 167.892 172.923 167.58C172.625 167.277 172.279 167.043 171.885 166.877C171.491 166.711 171.088 166.624 170.656 166.624H167.15V152.855C167.15 152.426 167.063 152.016 166.9 151.616C166.737 151.216 166.506 150.865 166.209 150.562C165.911 150.25 165.565 150.016 165.171 149.85C164.777 149.684 164.374 149.606 163.951 149.606H163.029V137.77C163.029 137.341 162.943 136.921 162.789 136.511C162.626 136.111 162.395 135.76 162.088 135.448C161.79 135.145 161.444 134.901 161.051 134.735C160.657 134.569 160.244 134.491 159.821 134.482H156.498V79.3308H159.821C160.244 79.3308 160.657 79.2528 161.041 79.0869C161.435 78.921 161.781 78.6868 162.078 78.3746C162.386 78.0721 162.616 77.7208 162.779 77.3207C162.943 76.9207 163.02 76.5108 163.029 76.0717V64.2161H171.059C171.77 64.2161 172.404 64.0014 172.98 63.5818C173.547 63.1525 173.931 62.5963 174.142 61.9035C174.344 61.2107 174.335 60.5276 174.094 59.8544C173.864 59.1713 173.451 58.6346 172.865 58.2346L88.8194 1.00541C88.2719 0.634615 87.6764 0.449219 87.0232 0.449219ZM87.0136 7.66995L160.484 57.6784H13.5625L87.0136 7.66995ZM86.6774 22.2578C79.5984 22.4432 73.8545 28.4052 73.8545 35.6552C73.8545 43.0223 79.7713 49.0525 87.0136 49.0525C94.2463 49.0525 100.202 43.0223 100.202 35.6552C100.202 28.2881 94.2463 22.2578 87.0136 22.2578C86.8983 22.2578 86.7927 22.2578 86.6774 22.2578ZM87.0136 28.7955C90.7788 28.7955 93.7757 31.8301 93.7757 35.6552C93.7757 39.4802 90.7788 42.5149 87.0136 42.5149C83.2387 42.5149 80.2803 39.4802 80.2803 35.6552C80.2803 31.8301 83.2387 28.7955 87.0136 28.7955ZM17.4334 64.2161H39.4294V72.7931H17.4334V64.2161ZM45.8553 64.2161H69.609V76.0717C69.609 76.5108 69.6954 76.9207 69.8587 77.3207C70.022 77.7208 70.2525 78.0721 70.5503 78.3746C70.8576 78.6868 71.2034 78.921 71.5876 79.0869C71.9814 79.2528 72.3945 79.3308 72.8171 79.3308H76.1309V134.482H72.8171C72.3945 134.491 71.9814 134.569 71.5876 134.735C71.1938 134.901 70.848 135.145 70.5407 135.448C70.2429 135.76 70.0124 136.111 69.8491 136.511C69.6858 136.921 69.609 137.341 69.609 137.77V149.606H45.8553V137.77C45.8553 137.341 45.7784 136.921 45.6151 136.521C45.4518 136.121 45.2213 135.76 44.9236 135.457C44.6258 135.145 44.28 134.911 43.8862 134.745C43.4924 134.569 43.0794 134.491 42.6567 134.482H39.3429V79.3308H42.6567C43.0794 79.3308 43.4924 79.243 43.8766 79.0771C44.2704 78.9112 44.6162 78.6771 44.914 78.3746C45.2117 78.0721 45.4422 77.7208 45.6055 77.3207C45.7688 76.9207 45.8553 76.5108 45.8553 76.0717V64.2161ZM76.0156 64.2161H98.0116V72.7931H76.0156V64.2161ZM104.437 64.2161H128.201V76.0717C128.201 76.5108 128.287 76.9207 128.45 77.3207C128.604 77.7208 128.844 78.0721 129.142 78.3746C129.44 78.6771 129.786 78.9112 130.179 79.0771C130.564 79.243 130.977 79.3308 131.399 79.3308H134.713V134.482H131.399C130.977 134.491 130.564 134.569 130.17 134.745C129.776 134.911 129.43 135.145 129.132 135.457C128.835 135.76 128.604 136.121 128.441 136.521C128.278 136.921 128.201 137.341 128.201 137.77V149.606H104.437V137.77C104.437 137.341 104.361 136.921 104.197 136.521C104.034 136.121 103.804 135.76 103.506 135.457C103.208 135.145 102.862 134.911 102.468 134.745C102.075 134.569 101.662 134.491 101.239 134.482H97.9155V79.3308H101.239C101.662 79.3308 102.065 79.243 102.459 79.0771C102.853 78.9112 103.198 78.6771 103.496 78.3746C103.794 78.0721 104.024 77.7208 104.188 77.3207C104.351 76.9207 104.437 76.5108 104.437 76.0717V64.2161ZM134.627 64.2161H156.594V72.7931H134.627V64.2161ZM23.9554 79.3308H32.917V134.482H23.9554V79.3308ZM82.5568 79.3308H91.4992V134.482H82.5568V79.3308ZM141.139 79.3308H150.081V134.482H141.139V79.3308ZM17.4334 141.029H39.4294V149.606H17.4334V141.029ZM76.0156 141.029H98.0116V149.606H76.0156V141.029ZM134.627 141.029H156.594V149.606H134.627V141.029ZM12.8518 156.144H160.724V166.624H12.8518V156.144ZM6.14732 173.171H167.438V183.651H6.14732V173.171Z" fill="#052A65"/>
</g>
</svg>
