<svg width="200" height="200" viewBox="0 0 200 200" fill="none" xmlns="http://www.w3.org/2000/svg">
<path d="M100.005 133.34C118.379 133.34 133.34 118.379 133.34 100.005C133.34 81.6208 118.379 66.6702 100.005 66.6702C81.6208 66.6702 66.6702 81.6208 66.6702 100.005C66.6702 118.379 81.6208 133.34 100.005 133.34ZM100.005 73.3372C114.702 73.3372 126.673 85.2977 126.673 100.005C126.673 114.702 114.702 126.673 100.005 126.673C85.2977 126.673 73.3372 114.702 73.3372 100.005C73.3372 85.2977 85.2977 73.3372 100.005 73.3372Z" fill="#2969BD"/>
<path d="M69.3646 50.5046C68.7412 49.8812 67.8959 49.5326 67.0084 49.5326C66.1209 49.5326 65.2756 49.8812 64.6522 50.5046L50.5046 64.6522C49.8812 65.2756 49.5326 66.1209 49.5326 67.0084C49.5326 67.8854 49.8812 68.7412 50.5046 69.3646L56.5271 75.3765C54.4985 78.9478 52.9242 82.7303 51.8359 86.6714H43.341C41.492 86.6714 40.0022 88.1611 40.0022 89.9996V110.001C40.0022 111.839 41.492 113.339 43.341 113.339H51.8253C52.9242 117.281 54.4879 121.063 56.5166 124.634L50.5046 130.646C49.8812 131.27 49.522 132.115 49.522 133.002C49.522 133.89 49.8812 134.735 50.5046 135.359L64.6417 149.506C65.9518 150.806 68.0544 150.806 69.3646 149.506L75.3765 143.494C78.9478 145.523 82.7303 147.097 86.6714 148.175V156.67C86.6714 158.508 88.1611 159.998 89.9996 159.998H110.001C111.85 159.998 113.339 158.508 113.339 156.67V148.175C117.27 147.087 121.053 145.512 124.624 143.484L130.646 149.496C131.27 150.13 132.115 150.478 133.002 150.478C133.89 150.478 134.735 150.13 135.359 149.496L149.506 135.359C150.13 134.725 150.478 133.879 150.478 133.002C150.478 132.115 150.13 131.27 149.506 130.646L143.484 124.624C145.512 121.053 147.087 117.27 148.175 113.339H156.67C158.508 113.339 159.998 111.839 159.998 110.001V89.9996C159.998 88.1611 158.508 86.6714 156.67 86.6714H148.175C147.087 82.7303 145.512 78.9478 143.484 75.3765L149.506 69.3646C150.13 68.7306 150.478 67.8854 150.478 66.9978C150.478 66.1209 150.13 65.265 149.506 64.6417L135.359 50.5046C134.059 49.1944 131.946 49.1944 130.646 50.5046L124.634 56.5166C121.063 54.4879 117.281 52.9136 113.339 51.8253V43.341C113.339 41.492 111.85 40.0022 110.001 40.0022H89.9996C88.1611 40.0022 86.6714 41.492 86.6714 43.341V51.8253C82.7303 52.9242 78.9478 54.4879 75.3765 56.5271L69.3646 50.5046ZM90.7181 57.6894C92.2501 57.3618 93.3384 55.9988 93.3384 54.4351V46.6692H106.672V54.4351C106.672 55.9988 107.761 57.3513 109.293 57.6894C114.28 58.7882 119.013 60.7429 123.345 63.5217C124.655 64.3669 126.388 64.1873 127.498 63.0779L133.002 57.5731L142.427 67.0084L136.933 72.5026C135.824 73.612 135.633 75.3448 136.479 76.6655C139.257 80.9975 141.223 85.7204 142.311 90.7181C142.649 92.2501 144.001 93.3384 145.565 93.3384H153.331V106.672H145.565C144.001 106.672 142.649 107.761 142.311 109.293C141.223 114.269 139.257 119.003 136.468 123.335C135.623 124.655 135.813 126.388 136.922 127.487L142.427 133.002L133.002 142.427L127.498 136.922C126.388 135.813 124.655 135.633 123.335 136.468C119.003 139.257 114.269 141.223 109.293 142.311C107.761 142.649 106.672 144.001 106.672 145.565V153.331H93.3384V145.565C93.3384 144.001 92.2501 142.649 90.7181 142.311C85.7204 141.223 80.9975 139.257 76.6655 136.479C75.3448 135.633 73.612 135.813 72.5026 136.933L67.0084 142.427L57.5731 133.002L63.0779 127.498C64.1873 126.388 64.3775 124.666 63.5217 123.345C60.7534 119.013 58.7882 114.28 57.6894 109.282C57.3513 107.761 55.9988 106.672 54.4351 106.672H46.6692V93.3384H54.4351C55.9988 93.3384 57.3513 92.2501 57.6894 90.7181C58.7882 85.731 60.7534 81.0081 63.5322 76.6655C64.3775 75.3448 64.1873 73.6226 63.0779 72.5132L57.5731 67.0084L67.0084 57.5731L72.5132 63.0779C73.6226 64.1979 75.3554 64.3775 76.6655 63.5322C81.0081 60.7429 85.731 58.7882 90.7181 57.6894Z" fill="#2969BD"/>
<mask id="mask0_363_318" style="mask-type:luminance" maskUnits="userSpaceOnUse" x="88" y="0" width="25" height="21">
<path d="M88.0659 0H112.41V20.466H88.0659V0Z" fill="white"/>
</mask>
<g mask="url(#mask0_363_318)">
<path d="M100.005 20.0011C105.52 20.0011 110 15.5212 110 10.0058C110 4.49047 105.52 0 100.005 0C94.4897 0 89.9993 4.49047 89.9993 10.0058C89.9993 15.5212 94.4897 20.0011 100.005 20.0011ZM100.005 6.66702C101.844 6.66702 103.333 8.16737 103.333 10.0058C103.333 11.8443 101.844 13.334 100.005 13.334C98.1666 13.334 96.6663 11.8443 96.6663 10.0058C96.6663 8.16737 98.1666 6.66702 100.005 6.66702Z" fill="#2969BD"/>
</g>
<mask id="mask1_363_318" style="mask-type:luminance" maskUnits="userSpaceOnUse" x="88" y="177" width="25" height="24">
<path d="M88.0659 177.347H112.41V200H88.0659V177.347Z" fill="white"/>
</mask>
<g mask="url(#mask1_363_318)">
<path d="M100.005 179.999C94.4897 179.999 89.9993 184.49 89.9993 190.005C89.9993 195.51 94.4897 200 100.005 200C105.52 200 110 195.51 110 190.005C110 184.49 105.52 179.999 100.005 179.999ZM100.005 193.333C98.1666 193.333 96.6663 191.844 96.6663 190.005C96.6663 188.167 98.1666 186.666 100.005 186.666C101.844 186.666 103.333 188.167 103.333 190.005C103.333 191.844 101.844 193.333 100.005 193.333Z" fill="#2969BD"/>
</g>
<mask id="mask2_363_318" style="mask-type:luminance" maskUnits="userSpaceOnUse" x="177" y="88" width="23" height="25">
<path d="M177.326 88.0872H200V112.431H177.326V88.0872Z" fill="white"/>
</mask>
<g mask="url(#mask2_363_318)">
<path d="M190.005 89.9993C184.489 89.9993 179.999 94.4897 179.999 100.005C179.999 105.52 184.489 110 190.005 110C195.509 110 200 105.52 200 100.005C200 94.4897 195.509 89.9993 190.005 89.9993ZM190.005 103.333C188.166 103.333 186.666 101.844 186.666 100.005C186.666 98.1666 188.166 96.6663 190.005 96.6663C191.843 96.6663 193.333 98.1666 193.333 100.005C193.333 101.844 191.843 103.333 190.005 103.333Z" fill="#2969BD"/>
</g>
<mask id="mask3_363_318" style="mask-type:luminance" maskUnits="userSpaceOnUse" x="0" y="88" width="21" height="25">
<path d="M0 88.0872H20.4448V112.431H0V88.0872Z" fill="white"/>
</mask>
<g mask="url(#mask3_363_318)">
<path d="M10.0058 110C15.5212 110 20.0011 105.52 20.0011 100.005C20.0011 94.4897 15.5212 89.9993 10.0058 89.9993C4.49047 89.9993 0 94.4897 0 100.005C0 105.52 4.49047 110 10.0058 110ZM10.0058 96.6663C11.8443 96.6663 13.3341 98.1666 13.3341 100.005C13.3341 101.844 11.8443 103.333 10.0058 103.333C8.16737 103.333 6.66702 101.844 6.66702 100.005C6.66702 98.1666 8.16737 96.6663 10.0058 96.6663Z" fill="#2969BD"/>
</g>
<path d="M57.9111 24.2802L60.1722 31.0529C60.5314 32.1517 61.4401 32.9759 62.5706 33.2506C62.8242 33.3034 63.0778 33.3351 63.3314 33.3351C64.2083 33.3351 65.0642 32.997 65.6875 32.363L82.3604 15.6902C83.2479 14.8027 83.5649 13.4819 83.1634 12.288C82.7619 11.0835 81.7264 10.2171 80.4691 10.0375L57.1398 6.70926C55.9776 6.54021 54.847 6.98397 54.1074 7.8715C53.3678 8.75903 53.1354 9.96353 53.5052 11.0624L55.7768 17.8668C31.1057 31.2008 13.4185 55.2169 8.27295 82.7197L14.8237 83.9453C19.5361 58.7881 35.5327 36.769 57.9111 24.2802ZM72.9357 15.6902L64.8 23.8364L61.5352 14.0631L72.9357 15.6902Z" fill="#2969BD"/>
<path d="M191.737 117.28L185.187 116.055C180.464 141.233 164.456 163.263 142.089 175.72L139.828 168.947C139.458 167.848 138.56 167.024 137.429 166.76C136.309 166.485 135.126 166.823 134.302 167.648L117.639 184.31C116.741 185.208 116.435 186.529 116.836 187.723C117.227 188.916 118.273 189.783 119.52 189.963L142.86 193.301C143.018 193.322 143.177 193.333 143.335 193.333C144.318 193.333 145.258 192.9 145.892 192.139C146.643 191.252 146.864 190.047 146.495 188.948L144.234 182.133C168.894 168.831 186.581 144.815 191.737 117.28ZM127.075 184.31L135.21 176.174L138.465 185.937L127.075 184.31Z" fill="#2969BD"/>
<path d="M175.72 57.9114L168.947 60.1725C167.848 60.5423 167.024 61.451 166.76 62.5709C166.496 63.6909 166.823 64.8743 167.648 65.6879L184.31 82.3607C184.944 82.9947 185.8 83.3328 186.666 83.3328C187.015 83.3328 187.374 83.2799 187.723 83.1637C188.916 82.7622 189.783 81.7268 189.973 80.48L193.301 57.1401C193.46 55.999 193.027 54.8473 192.139 54.1183C191.241 53.3681 190.036 53.1568 188.948 53.5055L182.133 55.7771C168.863 31.1271 144.847 13.4399 117.28 8.2627L116.055 14.8135C141.265 19.547 163.294 35.5542 175.72 57.9114ZM184.31 72.936L176.174 64.7898L185.937 61.5355L184.31 72.936Z" fill="#2969BD"/>
<path d="M33.2503 137.44C33.5144 136.309 33.1763 135.126 32.3627 134.313L15.6899 117.65C14.8024 116.752 13.4816 116.435 12.2877 116.837C11.0832 117.238 10.2168 118.284 10.0372 119.531L6.6984 142.86C6.53991 144.001 6.98368 145.153 7.8712 145.893C8.47346 146.4 9.23419 146.664 10.0055 146.664C10.3542 146.664 10.7134 146.611 11.0515 146.495L17.8665 144.234C31.1582 168.916 55.1743 186.603 82.7194 191.748L83.945 185.187C58.7456 180.485 36.7264 164.488 24.2799 142.089L31.0526 139.828C32.1514 139.469 32.9861 138.56 33.2503 137.44ZM15.6899 127.075L23.8256 135.211L14.0628 138.465L15.6899 127.075Z" fill="#2969BD"/>
</svg>
