<svg width="236" height="256" viewBox="0 0 236 256" fill="none" xmlns="http://www.w3.org/2000/svg">
<path d="M143.5 26.1606C143.5 39.6859 131.733 50.8212 117 50.8212C102.267 50.8212 90.5 39.6859 90.5 26.1606C90.5 12.6353 102.267 1.5 117 1.5C131.733 1.5 143.5 12.6353 143.5 26.1606Z" stroke="#052A65" stroke-width="3"/>
<path d="M1.5 77.5475C1.5 91.0728 13.2668 102.208 28 102.208C42.7332 102.208 54.5 91.0728 54.5 77.5475C54.5 64.0223 42.7332 52.887 28 52.887C13.2668 52.887 1.5 64.0223 1.5 77.5475Z" stroke="#052A65" stroke-width="3"/>
<path d="M234.405 77.5475C234.405 91.0728 222.638 102.208 207.905 102.208C193.172 102.208 181.405 91.0728 181.405 77.5475C181.405 64.0223 193.172 52.887 207.905 52.887C222.638 52.887 234.405 64.0223 234.405 77.5475Z" stroke="#052A65" stroke-width="3"/>
<path d="M136.526 12.1083H125.537C125.159 12.1083 124.851 12.4184 124.851 12.7981V24.5365H121.251L117.978 12.7032V10.0328C117.978 9.65309 117.676 9.34302 117.292 9.34302H104.931C104.553 9.34302 104.245 9.65309 104.245 10.0328V12.7032L100.972 24.5365H96.686C96.3084 24.5365 96 24.8466 96 25.2262V40.4197C96 40.8057 96.3084 41.1094 96.686 41.1094H136.526C136.904 41.1094 137.212 40.8057 137.212 40.4197V12.7981C137.212 12.4184 136.904 12.1083 136.526 12.1083ZM105.617 10.7288H116.606V12.1083H105.617V10.7288ZM105.453 13.4878H116.77L119.822 24.5365H102.401L105.453 13.4878ZM120.729 39.7299H101.495V36.9709H120.729V39.7299ZM124.851 39.7299H122.101V36.2812C122.101 35.8952 121.792 35.5851 121.415 35.5851H100.809C100.431 35.5851 100.122 35.8952 100.122 36.2812V39.7299H97.3721V25.916H124.851V39.7299ZM135.84 39.7299H126.223V13.4878H135.84V39.7299Z" fill="#052A65" stroke="#052A65"/>
<path d="M100.808 32.136H104.931C105.308 32.136 105.617 31.826 105.617 31.4463V28.681C105.617 28.3013 105.308 27.9912 104.931 27.9912H100.808C100.43 27.9912 100.122 28.3013 100.122 28.681V31.4463C100.122 31.826 100.43 32.136 100.808 32.136ZM101.494 29.3707H104.245V30.7502H101.494V29.3707Z" fill="#052A65" stroke="#052A65"/>
<path d="M109.053 32.136H113.175C113.553 32.136 113.861 31.826 113.861 31.4463V28.681C113.861 28.3013 113.553 27.9912 113.175 27.9912H109.053C108.669 27.9912 108.367 28.3013 108.367 28.681V31.4463C108.367 31.826 108.669 32.136 109.053 32.136ZM109.739 29.3707H112.483V30.7502H109.739V29.3707Z" fill="#052A65" stroke="#052A65"/>
<path d="M117.292 32.136H121.415C121.793 32.136 122.101 31.826 122.101 31.4463V28.681C122.101 28.3013 121.793 27.9912 121.415 27.9912H117.292C116.915 27.9912 116.606 28.3013 116.606 28.681V31.4463C116.606 31.826 116.915 32.136 117.292 32.136ZM117.979 29.3707H120.729V30.7502H117.979V29.3707Z" fill="#052A65" stroke="#052A65"/>
<path d="M128.282 15.5571H129.66V37.6607H128.282V15.5571Z" fill="#052A65" stroke="#052A65"/>
<path d="M132.403 15.5571H133.782V37.6607H132.403V15.5571Z" fill="#052A65" stroke="#052A65"/>
<path d="M143.5 229.839C143.5 216.314 131.733 205.179 117 205.179C102.267 205.179 90.5 216.314 90.5 229.839C90.5 243.365 102.267 254.5 117 254.5C131.733 254.5 143.5 243.365 143.5 229.839Z" stroke="#052A65" stroke-width="3"/>
<path d="M1.5 178.452C1.5 164.927 13.2668 153.792 28 153.792C42.7332 153.792 54.5 164.927 54.5 178.452C54.5 191.978 42.7332 203.113 28 203.113C13.2668 203.113 1.5 191.978 1.5 178.452Z" stroke="#052A65" stroke-width="3"/>
<path d="M234.405 178.452C234.405 164.927 222.638 153.792 207.905 153.792C193.172 153.792 181.405 164.927 181.405 178.452C181.405 191.978 193.172 203.113 207.905 203.113C222.638 203.113 234.405 191.978 234.405 178.452Z" stroke="#052A65" stroke-width="3"/>
<line y1="-1.5" x2="19.9128" y2="-1.5" transform="matrix(0.899184 0.437571 0.48692 -0.873446 166 157.593)" stroke="#052A65" stroke-width="3"/>
<line y1="-1.5" x2="18.9524" y2="-1.5" transform="matrix(-0.893841 0.448384 0.498249 0.867034 68.9404 157.809)" stroke="#052A65" stroke-width="3"/>
<path d="M42.0498 169.095L39.4639 165.832C39.1271 165.405 38.5017 165.232 37.9364 165.405L23.9605 169.613L18.0189 164.023C16.9124 163.088 15.445 162.569 13.8694 162.569C12.3058 162.569 10.8265 163.088 9.71993 164.023C8.6134 164.968 8 166.208 8 167.54C8 168.861 8.6134 170.111 9.76804 171.087L16.3351 176.067L11.3436 187.868C11.1512 188.346 11.3557 188.885 11.8608 189.169L15.7216 191.344C16.2869 191.659 17.0447 191.568 17.4777 191.121L25.2354 183.02L32.8127 188.508L31.6581 193.479C31.5859 193.763 31.6581 194.068 31.8505 194.312L34.4845 197.585C34.7251 197.89 35.134 198.073 35.567 198.073C36.012 198.073 36.421 197.88 36.6615 197.575L41.7612 191.1L49.4227 186.791C49.7835 186.587 50 186.242 50 185.866C50 185.5 49.7835 185.154 49.4227 184.941L45.4777 182.725C45.189 182.562 44.8402 182.501 44.5034 182.562L38.6821 183.548L32.1873 177.135L41.7852 170.579C42.3024 170.213 42.4227 169.572 42.0498 169.095ZM29.4931 176.128C29.2165 176.322 29.0361 176.596 29.012 176.891C28.9759 177.196 29.0842 177.49 29.3247 177.714L37.1907 185.48C37.5034 185.784 37.9845 185.927 38.4536 185.845L44.4794 184.829L46.3316 185.866L40.0893 189.383C39.945 189.464 39.8247 189.566 39.7285 189.687L35.555 194.973L34.3402 193.448L35.543 188.305C35.6271 187.909 35.4708 187.502 35.11 187.248L25.921 180.591C25.6443 180.397 25.2955 180.296 24.9467 180.326C24.5979 180.357 24.2732 180.499 24.0447 180.733L16.1787 188.935L14.1701 187.797L19.1014 176.108C19.2818 175.681 19.1375 175.214 18.7405 174.909L11.5842 169.471C10.3093 168.404 10.3093 166.666 11.5842 165.598C12.8471 164.521 14.9038 164.521 16.1186 165.547L22.6014 171.656C22.9622 171.992 23.5275 172.114 24.0206 171.961L37.8522 167.784L39.1993 169.491L29.4931 176.128Z" fill="#052A65"/>
<path d="M199.116 66.5223C198.998 66.3265 198.749 66.2061 198.466 66.2061H190.586C190.192 66.2061 189.87 66.452 189.87 66.7531V76.0637C189.87 76.3699 190.192 76.6108 190.586 76.6108H204.199C204.449 76.6108 204.678 76.5155 204.803 76.3599C204.941 76.1992 204.954 76.0035 204.849 75.8328L199.116 66.5223ZM191.302 75.5166V67.3002H198.013L203.07 75.5166H191.302Z" fill="#052A65" stroke="#052A65"/>
<path d="M229.284 88.6617V80.4453C229.284 80.1442 228.962 79.8982 228.568 79.8982H226.421V71.6818C226.421 71.3807 226.099 71.1348 225.699 71.1348H223.551V62.9183C223.551 62.6172 223.23 62.3713 222.836 62.3713H212.086V60.73H210.654V88.6617H209.216V77.7099C209.216 77.6246 209.19 77.5392 209.144 77.4639L200.541 64.3187C200.423 64.133 200.173 64.0125 199.904 64.0125H187.716C187.322 64.0125 187 64.2585 187 64.5596V89.2139C187 91.0258 188.931 92.4964 191.301 92.4964C193.429 92.4964 195.195 91.3119 195.537 89.7609H200.685C201.027 91.3119 202.793 92.4964 204.921 92.4964C207.049 92.4964 208.809 91.3119 209.157 89.7609H230V88.6617H229.284ZM191.301 91.4022C189.719 91.4022 188.432 90.4185 188.432 89.2139C188.432 88.0042 189.719 87.0205 191.301 87.0205C192.884 87.0205 194.164 88.0042 194.164 89.2139C194.164 90.4185 192.884 91.4022 191.301 91.4022ZM204.921 91.4022C203.338 91.4022 202.051 90.4185 202.051 89.2139C202.051 88.0042 203.338 87.0205 204.921 87.0205C206.497 87.0205 207.784 88.0042 207.784 89.2139C207.784 90.4185 206.497 91.4022 204.921 91.4022ZM207.784 86.7695C207.022 86.2475 206.018 85.9263 204.921 85.9263C202.793 85.9263 201.027 87.1108 200.685 88.6617H195.537C195.195 87.1108 193.429 85.9263 191.301 85.9263C190.198 85.9263 189.193 86.2475 188.432 86.7695V65.1117H199.457L207.784 77.8354V86.7695ZM212.086 63.4654H216.387V65.6588H217.818V63.4654H222.12V71.1348H212.086V63.4654ZM212.086 72.2289H217.818V74.4223H219.25V72.2289H224.983V79.8982H212.086V72.2289ZM227.853 88.6617H212.086V80.9975H219.25V83.1858H220.682V80.9975H227.853V88.6617Z" fill="#052A65" stroke="#052A65"/>
<path d="M191.301 88.3909C190.71 88.3909 190.224 88.7573 190.224 89.214C190.224 89.6657 190.71 90.0321 191.301 90.0321C191.892 90.0321 192.378 89.6657 192.378 89.214C192.378 88.7573 191.892 88.3909 191.301 88.3909Z" fill="#052A65" stroke="#052A65"/>
<path d="M204.921 88.3909C204.323 88.3909 203.844 88.7573 203.844 89.214C203.844 89.6657 204.323 90.0321 204.921 90.0321C205.512 90.0321 205.991 89.6657 205.991 89.214C205.991 88.7573 205.512 88.3909 204.921 88.3909Z" fill="#052A65" stroke="#052A65"/>
<path d="M28.6289 62.67V69.6981H26.3711V67.4179C26.3711 66.7932 25.8763 66.283 25.2474 66.283H18.4948V64.9398C19.8041 64.4713 20.7526 63.2218 20.7526 61.7433C20.7526 59.8587 19.2371 58.3282 17.3711 58.3282C15.5155 58.3282 14 59.8587 14 61.7433C14 63.2218 14.9381 64.4713 16.2474 64.9398V67.4179C16.2474 68.053 16.7526 68.5528 17.3711 68.5528H24.1237V69.6981C23.5052 69.6981 23 70.1979 23 70.833V73.1029H17.3711V71.9679C17.3711 71.3432 16.866 70.833 16.2474 70.833H11.5361C11.0722 69.5107 9.83505 68.5528 8.37113 68.5528C6.51546 68.5528 5 70.0834 5 71.9679C5 73.8421 6.51546 75.3727 8.37113 75.3727C9.83505 75.3727 11.0722 74.4252 11.5361 73.1029H15.1237V74.2378C15.1237 74.8625 15.6289 75.3727 16.2474 75.3727H23V77.6425H14C13.3711 77.6425 12.8763 78.1527 12.8763 78.7878V83.5357C11.567 84.0042 10.6186 85.2537 10.6186 86.7426C10.6186 88.6168 12.134 90.1474 14 90.1474C15.8557 90.1474 17.3711 88.6168 17.3711 86.7426C17.3711 85.2537 16.433 84.0042 15.1237 83.5357V79.9227H23V81.0576C23 81.6824 23.5052 82.1926 24.1237 82.1926H25.2474V85.5973H23C22.3814 85.5973 21.8763 86.1075 21.8763 86.7426V91.4905C20.567 91.959 19.6186 93.2085 19.6186 94.6974C19.6186 96.5716 21.134 98.1021 23 98.1021C24.8557 98.1021 26.3711 96.5716 26.3711 94.6974C26.3711 93.2085 25.433 91.959 24.1237 91.4905V87.8775H26.3711C27 87.8775 27.4948 87.3673 27.4948 86.7426V82.1926H32V85.5973C32 86.2324 32.5052 86.7426 33.1237 86.7426H38.7526V89.2207C37.4433 89.6892 36.5052 90.9387 36.5052 92.4172C36.5052 94.3018 38.0103 95.8323 39.8763 95.8323C41.732 95.8323 43.2474 94.3018 43.2474 92.4172C43.2474 90.9387 42.3093 89.6892 41 89.2207V85.5973C41 84.9726 40.4948 84.4624 39.8763 84.4624H34.2474V82.1926C34.8763 82.1926 35.3711 81.6824 35.3711 81.0576V78.7878H43.4536C43.9278 80.0997 45.1649 81.0576 46.6289 81.0576C48.4845 81.0576 50 79.5271 50 77.6425C50 75.7683 48.4845 74.2378 46.6289 74.2378C45.1649 74.2378 43.9278 75.1957 43.4536 76.5076H35.3711V73.1029H38.7526C39.3711 73.1029 39.8763 72.5927 39.8763 71.9679V67.2096C41.1856 66.7411 42.1237 65.4917 42.1237 64.0131C42.1237 62.1286 40.6082 60.598 38.7526 60.598C36.8866 60.598 35.3711 62.1286 35.3711 64.0131C35.3711 65.4917 36.3196 66.7411 37.6289 67.2096V70.833H35.3711C35.3711 70.1979 34.8763 69.6981 34.2474 69.6981H30.8763V62.67C32.1856 62.191 33.1237 60.9416 33.1237 59.4631C33.1237 57.5889 31.6082 56.0583 29.7526 56.0583C27.8866 56.0583 26.3711 57.5889 26.3711 59.4631C26.3711 60.9416 27.3196 62.191 28.6289 62.67ZM17.3711 60.598C17.9897 60.598 18.4948 61.1082 18.4948 61.7433C18.4948 62.368 17.9897 62.8782 17.3711 62.8782C16.7526 62.8782 16.2474 62.368 16.2474 61.7433C16.2474 61.1082 16.7526 60.598 17.3711 60.598ZM8.37113 73.1029C7.75258 73.1029 7.24742 72.5927 7.24742 71.9679C7.24742 71.3432 7.75258 70.833 8.37113 70.833C8.98969 70.833 9.49485 71.3432 9.49485 71.9679C9.49485 72.5927 8.98969 73.1029 8.37113 73.1029ZM14 87.8775C13.3814 87.8775 12.8763 87.3673 12.8763 86.7426C12.8763 86.1075 13.3814 85.5973 14 85.5973C14.6186 85.5973 15.1237 86.1075 15.1237 86.7426C15.1237 87.3673 14.6186 87.8775 14 87.8775ZM23 95.8323C22.3814 95.8323 21.8763 95.3221 21.8763 94.6974C21.8763 94.0623 22.3814 93.5521 23 93.5521C23.6186 93.5521 24.1237 94.0623 24.1237 94.6974C24.1237 95.3221 23.6186 95.8323 23 95.8323ZM39.8763 93.5521C39.2577 93.5521 38.7526 93.0419 38.7526 92.4172C38.7526 91.7925 39.2577 91.2823 39.8763 91.2823C40.4948 91.2823 41 91.7925 41 92.4172C41 93.0419 40.4948 93.5521 39.8763 93.5521ZM46.6289 76.5076C47.2474 76.5076 47.7526 77.0178 47.7526 77.6425C47.7526 78.2776 47.2474 78.7878 46.6289 78.7878C46.0103 78.7878 45.5052 78.2776 45.5052 77.6425C45.5052 77.0178 46.0103 76.5076 46.6289 76.5076ZM38.7526 62.8782C39.3711 62.8782 39.8763 63.3884 39.8763 64.0131C39.8763 64.6379 39.3711 65.1481 38.7526 65.1481C38.134 65.1481 37.6289 64.6379 37.6289 64.0131C37.6289 63.3884 38.134 62.8782 38.7526 62.8782ZM33.1237 79.9227H25.2474V71.9679H33.1237V79.9227ZM29.7526 58.3282C30.3711 58.3282 30.8763 58.8384 30.8763 59.4631C30.8763 60.0878 30.3711 60.598 29.7526 60.598C29.1237 60.598 28.6289 60.0878 28.6289 59.4631C28.6289 58.8384 29.1237 58.3282 29.7526 58.3282Z" fill="#052A65"/>
<path d="M101.651 233.972H100.964C100.585 233.972 100.276 234.206 100.276 234.492V235.011C100.276 235.302 100.585 235.531 100.964 235.531H101.651C102.036 235.531 102.339 235.302 102.339 235.011V234.492C102.339 234.206 102.036 233.972 101.651 233.972Z" fill="#052A65"/>
<path d="M134.029 240.217H133.335C132.957 240.217 132.647 240.446 132.647 240.736V241.256C132.647 241.542 132.957 241.776 133.335 241.776H134.029C134.408 241.776 134.717 241.542 134.717 241.256V240.736C134.717 240.446 134.408 240.217 134.029 240.217Z" fill="#052A65"/>
<path d="M129.887 240.217H129.199C128.814 240.217 128.505 240.446 128.505 240.736V241.256C128.505 241.542 128.814 241.776 129.199 241.776H129.887C130.265 241.776 130.575 241.542 130.575 241.256V240.736C130.575 240.446 130.265 240.217 129.887 240.217Z" fill="#052A65"/>
<path d="M125.758 240.217H125.071C124.686 240.217 124.383 240.446 124.383 240.736V241.256C124.383 241.542 124.686 241.776 125.071 241.776H125.758C126.137 241.776 126.446 241.542 126.446 241.256V240.736C126.446 240.446 126.137 240.217 125.758 240.217Z" fill="#052A65"/>
<path d="M121.626 240.217H120.938C120.56 240.217 120.25 240.446 120.25 240.736V241.256C120.25 241.542 120.56 241.776 120.938 241.776H121.626C122.005 241.776 122.314 241.542 122.314 241.256V240.736C122.314 240.446 122.005 240.217 121.626 240.217Z" fill="#052A65"/>
<mask id="mask0_238_395" style="mask-type:luminance" maskUnits="userSpaceOnUse" x="104" y="212" width="35" height="32">
<path d="M104.08 212.088H138.003V243.854H104.08V212.088Z" fill="white"/>
</mask>
<g mask="url(#mask0_238_395)">
<path d="M137.46 218.366V216.283C137.46 215.997 137.15 215.763 136.772 215.763H131.263V213.16C131.263 213.008 131.168 212.86 131.011 212.76C130.853 212.665 130.645 212.622 130.443 212.65L109.096 215.773V215.782C108.78 215.83 108.541 216.03 108.541 216.283V218.366C108.541 218.652 108.843 218.885 109.228 218.885V222.527H107.846C107.468 222.527 107.159 222.761 107.159 223.047V224.606H105.783C105.404 224.606 105.095 224.839 105.095 225.13V229.291C105.095 229.577 105.404 229.811 105.783 229.811H114.049C114.428 229.811 114.737 229.577 114.737 229.291V225.13C114.737 224.839 114.428 224.606 114.049 224.606H112.667V223.047C112.667 222.761 112.364 222.527 111.98 222.527H110.604V218.885H123.571L119.653 238.134H118.176C117.797 238.134 117.488 238.368 117.488 238.654V243.335C117.488 243.625 117.797 243.854 118.176 243.854H136.772C137.15 243.854 137.46 243.625 137.46 243.335V238.654C137.46 238.368 137.15 238.134 136.772 238.134H135.295L131.377 218.885H136.772C137.15 218.885 137.46 218.652 137.46 218.366ZM129.888 213.794V215.763H116.409L129.888 213.794ZM113.355 225.65V228.772H106.471V225.65H113.355ZM111.292 223.566V224.606H108.541V223.566H111.292ZM123.54 225.912L131.017 228.738L122.379 231.594L123.54 225.912ZM129.61 222.051L123.88 224.215L124.644 220.482L129.61 222.051ZM124.858 219.424L124.966 218.885H129.982L130.455 221.188L124.858 219.424ZM136.084 239.173V242.815H118.87V239.173H136.084ZM133.901 238.134H121.047L122.057 233.172L133.85 237.857L133.901 238.134ZM133.585 236.58L123.211 232.457L132.147 229.501L133.585 236.58ZM131.812 227.876L124.537 225.13L130.777 222.77L131.812 227.876ZM136.084 217.846H109.916V216.802H136.084V217.846Z" fill="#052A65"/>
</g>
<mask id="mask1_238_395" style="mask-type:luminance" maskUnits="userSpaceOnUse" x="96" y="231" width="21" height="13">
<path d="M96 231.613H117V243.854H96V231.613Z" fill="white"/>
</mask>
<g mask="url(#mask1_238_395)">
<path d="M115.534 236.818C115.408 236.666 115.187 236.575 114.948 236.575H105.098V232.409C105.098 232.123 104.788 231.889 104.41 231.889H98.2133C97.8283 231.889 97.5192 232.123 97.5192 232.409V236.575H96.8314C96.5979 236.575 96.377 236.666 96.2508 236.814C96.1246 236.961 96.112 237.152 96.2067 237.309L99.5573 242.801C99.4942 242.806 99.4311 242.815 99.3554 242.815C98.8064 242.815 98.5666 242.658 98.2006 242.419C97.7526 242.133 97.2036 241.776 96.1436 241.776V242.815C96.6925 242.815 96.9323 242.972 97.3046 243.211C97.7463 243.497 98.2953 243.854 99.3554 243.854C100.415 243.854 100.964 243.497 101.412 243.211C101.778 242.972 102.018 242.815 102.567 242.815C103.116 242.815 103.356 242.972 103.722 243.211C104.17 243.497 104.719 243.854 105.779 243.854C106.839 243.854 107.388 243.497 107.836 243.211C108.202 242.972 108.442 242.815 108.991 242.815C109.546 242.815 109.786 242.972 110.152 243.211C110.6 243.497 111.149 243.854 112.209 243.854C113.269 243.854 113.824 243.497 114.266 243.211C114.632 242.972 114.878 242.815 115.427 242.815V241.776C114.367 241.776 113.818 242.133 113.37 242.419C113.004 242.658 112.758 242.815 112.209 242.815C112.146 242.815 112.102 242.806 112.045 242.801L115.572 237.319C115.673 237.162 115.661 236.971 115.534 236.818ZM98.9011 232.933H103.722V236.575H98.9011V232.933ZM110.846 242.291C110.43 242.033 109.9 241.776 108.991 241.776C107.937 241.776 107.382 242.133 106.94 242.419C106.568 242.658 106.328 242.815 105.779 242.815C105.23 242.815 104.99 242.658 104.624 242.419C104.176 242.133 103.627 241.776 102.567 241.776C101.69 241.776 101.16 242.024 100.756 242.272L97.9104 237.614H113.85L110.846 242.291Z" fill="#052A65"/>
</g>
<path d="M208.066 177.185H205.489C205.489 179.173 207.227 180.797 209.355 180.797V178.389C208.646 178.389 208.066 177.847 208.066 177.185Z" fill="#052A65"/>
<path d="M202.899 179.594H200.322C200.322 182.919 203.218 185.615 206.777 185.615V183.206C204.637 183.206 202.899 181.582 202.899 179.594Z" fill="#052A65"/>
<path d="M204.199 188.034C200.641 188.034 197.744 185.327 197.744 182.002H195.167C195.167 186.653 199.21 190.442 204.199 190.442V188.034Z" fill="#052A65"/>
<path d="M192.577 184.41H190C190 190.398 195.214 195.27 201.61 195.27V192.851C196.633 192.851 192.577 189.072 192.577 184.41Z" fill="#052A65"/>
<path d="M229.619 180.388L222.69 173.914C222.206 173.461 221.354 173.461 220.87 173.914L219.439 175.251L217.997 173.903C218.245 173.439 218.387 172.909 218.387 172.357C218.387 170.357 216.649 168.744 214.521 168.744C213.918 168.744 213.362 168.877 212.853 169.098L211.423 167.761L212.853 166.424C213.35 165.949 213.35 165.187 212.853 164.723L205.913 158.237C205.44 157.784 204.577 157.784 204.093 158.237L199.411 162.612C198.902 163.087 198.902 163.85 199.411 164.325L206.339 170.799C206.587 171.02 206.906 171.152 207.249 171.152C207.592 171.152 207.923 171.02 208.172 170.799L209.59 169.462L211.033 170.81C210.796 171.274 210.643 171.804 210.643 172.357C210.643 174.345 212.381 175.969 214.521 175.969C215.112 175.969 215.667 175.837 216.176 175.605L217.618 176.953L216.188 178.289C215.679 178.764 215.679 179.527 216.188 179.991L223.116 186.476C223.352 186.697 223.683 186.829 224.026 186.829C224.369 186.829 224.7 186.697 224.937 186.476L229.619 182.09C230.127 181.626 230.127 180.864 229.619 180.388ZM207.249 168.236L202.142 163.474L205.003 160.801L210.111 165.573L207.249 168.236ZM213.22 172.357C213.22 171.694 213.799 171.152 214.521 171.152C215.23 171.152 215.809 171.694 215.809 172.357C215.809 173.02 215.23 173.561 214.521 173.561C213.799 173.561 213.22 173.02 213.22 172.357ZM224.026 183.913L218.919 179.14L221.78 176.478L226.888 181.239L224.026 183.913Z" fill="#052A65"/>
<line y1="-1.5" x2="19.9128" y2="-1.5" transform="matrix(0.899184 -0.437571 0.48692 0.873446 166 98.4067)" stroke="#052A65" stroke-width="3"/>
<line y1="-1.5" x2="18.9524" y2="-1.5" transform="matrix(-0.893841 -0.448384 0.498249 -0.867034 68.9404 98.1914)" stroke="#052A65" stroke-width="3"/>
<path d="M177.99 126.993V126.963C177.99 109.208 170.261 93.264 157.987 82.2994L157.927 82.2495C157.775 82.086 157.606 81.9401 157.422 81.8145L157.412 81.8095C146.511 72.2375 132.492 66.9718 117.985 67.0001C102.826 67.0001 88.9874 72.6299 78.4383 81.9195L78.5033 81.8645C78.3762 81.9609 78.2589 82.0698 78.1533 82.1895C71.8115 87.8052 66.7353 94.7094 63.2609 102.435C59.7865 110.161 57.9933 118.536 58 127.008C58 144.757 65.7194 160.701 77.9833 171.671L78.0433 171.721C78.2022 171.901 78.3798 172.063 78.5733 172.206L78.5833 172.211C89.4816 181.768 103.49 187.026 117.985 187C132.548 187.022 146.616 181.716 157.537 172.081L157.472 172.136C163.923 166.526 169.095 159.596 172.637 151.815C176.178 144.033 178.007 135.582 178 127.033V126.998L177.99 126.993ZM155.682 166.016C152.71 163.612 149.514 161.499 146.138 159.706L145.813 159.546C148.877 150.711 150.722 140.527 150.897 129.932V129.852H172.2C171.482 143.559 165.583 156.48 155.697 166.001L155.682 166.016ZM120.855 158.491C127.269 158.836 133.264 160.246 138.793 162.541L138.433 162.411C134.004 172.511 127.769 179.45 120.855 180.975V158.491ZM120.855 152.771V129.852H145.193C145 139.343 143.354 148.749 140.313 157.741L140.508 157.086C134.301 154.535 127.699 153.077 120.995 152.776L120.86 152.771H120.855ZM120.855 124.133V101.214C127.74 100.899 134.518 99.3921 140.888 96.7588L140.493 96.9038C143.268 104.998 144.973 114.328 145.193 124.028V124.133H120.855ZM120.855 95.4939V73.0199C127.769 74.5448 134.004 81.4545 138.433 91.584C133.264 93.734 127.269 95.1389 121 95.4889L120.855 95.4939ZM135.124 75.4947C141.015 77.4598 146.525 80.4228 151.412 84.2544L151.297 84.1644C149.082 85.9043 146.598 87.5442 143.978 88.9692L143.698 89.1092C141.581 84.113 138.67 79.4919 135.079 75.4247L135.124 75.4797V75.4947ZM115.125 73.0349V95.4939C108.958 95.1793 102.891 93.8095 97.1867 91.444L97.5467 91.574C101.996 81.4745 108.221 74.5398 115.135 73.0149L115.125 73.0349ZM92.2872 89.0942C89.577 87.636 86.9947 85.9518 84.5678 84.0594L84.6878 84.1494C89.433 80.4303 94.7705 77.5367 100.476 75.5897L100.856 75.4747C97.3588 79.4317 94.5089 83.9169 92.4121 88.7642L92.2872 89.0942ZM115.135 101.209V124.128H90.7973C91.0173 114.323 92.7221 104.993 95.6919 96.2438L95.4969 96.8988C101.702 99.4461 108.3 100.902 115 101.204L115.135 101.209ZM115.135 129.847V152.766C108.25 153.081 101.472 154.588 95.1019 157.221L95.4969 157.076C92.7221 148.987 91.0173 139.652 90.7973 129.952V129.847H115.135ZM115.135 158.486V180.96C108.221 179.435 101.986 172.526 97.5567 162.396C102.726 160.246 108.721 158.846 114.99 158.496L115.135 158.486ZM100.886 178.485C94.9967 176.526 89.4871 173.57 84.5978 169.746L84.7178 169.836C86.9326 168.096 89.4174 166.456 92.0372 165.031L92.3171 164.891C94.4164 169.889 97.327 174.506 100.931 178.555L100.886 178.505V178.485ZM143.703 164.886C146.603 166.461 149.087 168.096 151.422 169.921L151.302 169.831C146.557 173.55 141.219 176.443 135.514 178.39L135.134 178.505C138.631 174.55 141.481 170.067 143.578 165.221L143.703 164.896V164.886ZM172.2 124.133H150.897C150.744 113.788 148.959 103.532 145.608 93.7439L145.813 94.4339C149.344 92.5743 152.688 90.3775 155.797 87.8742L155.677 87.9642C165.542 97.4489 171.444 110.322 172.19 123.988L172.195 124.128L172.2 124.133ZM80.3082 87.9692C83.1879 90.3091 86.4226 92.454 89.8524 94.2789L90.1773 94.4389C87.1126 103.274 85.2677 113.458 85.0928 124.053V124.133H63.7845C64.5029 110.426 70.4022 97.5048 80.2882 87.9842L80.3082 87.9692ZM63.7895 129.852H85.0928C85.246 140.197 87.0312 150.453 90.3823 160.241L90.1773 159.551C86.4226 161.546 83.1929 163.691 80.1932 166.111L80.3132 166.021C70.4477 156.536 64.5463 143.663 63.7995 129.997L63.7945 129.857L63.7895 129.852Z" fill="#052A65"/>
<line x1="117.5" y1="71.9417" x2="117.5" y2="51.3869" stroke="#052A65" stroke-width="3"/>
<line y1="-1.5" x2="20.5547" y2="-1.5" transform="matrix(0 1 1 0 119 184.058)" stroke="#052A65" stroke-width="3"/>
</svg>
