<svg width="221" height="221" viewBox="0 0 221 221" fill="none" xmlns="http://www.w3.org/2000/svg">
<path d="M184.989 49.5296C184.855 49.289 184.572 49.141 184.252 49.141H175.319C174.872 49.141 174.508 49.4432 174.508 49.8133V61.2549C174.508 61.6311 174.872 61.9272 175.319 61.9272H190.751C191.034 61.9272 191.295 61.81 191.436 61.6188C191.592 61.4214 191.607 61.1809 191.488 60.9711L184.989 49.5296ZM176.13 60.5826V50.4856H183.739L189.471 60.5826H176.13Z" fill="#2969BD" stroke="#2969BD" stroke-width="0.5"/>
<path d="M219.189 76.7365V66.6395C219.189 66.2694 218.824 65.9672 218.377 65.9672H215.943V55.8702C215.943 55.5002 215.578 55.1979 215.124 55.1979H212.69V45.101C212.69 44.7309 212.325 44.4287 211.878 44.4287H199.692V42.4117H198.069V76.7365H196.438V63.278C196.438 63.1731 196.409 63.0682 196.357 62.9757L186.604 46.8218C186.47 46.5936 186.188 46.4456 185.882 46.4456H172.066C171.619 46.4456 171.254 46.7478 171.254 47.1179V77.4149C171.254 79.6416 173.443 81.4488 176.13 81.4488C178.542 81.4488 180.545 79.9931 180.932 78.0872H186.768C187.155 79.9931 189.158 81.4488 191.57 81.4488C193.982 81.4488 195.977 79.9931 196.371 78.0872H220V76.7365H219.189ZM176.13 80.1042C174.336 80.1042 172.877 78.8952 172.877 77.4149C172.877 75.9285 174.336 74.7195 176.13 74.7195C177.924 74.7195 179.376 75.9285 179.376 77.4149C179.376 78.8952 177.924 80.1042 176.13 80.1042ZM191.57 80.1042C189.776 80.1042 188.317 78.8952 188.317 77.4149C188.317 75.9285 189.776 74.7195 191.57 74.7195C193.357 74.7195 194.816 75.9285 194.816 77.4149C194.816 78.8952 193.357 80.1042 191.57 80.1042ZM194.816 74.4111C193.952 73.7697 192.813 73.3749 191.57 73.3749C189.158 73.3749 187.155 74.8306 186.768 76.7365H180.932C180.545 74.8306 178.542 73.3749 176.13 73.3749C174.88 73.3749 173.741 73.7697 172.877 74.4111V47.7964H185.376L194.816 63.4322V74.4111ZM199.692 45.7733H204.568V48.4687H206.191V45.7733H211.067V55.1979H199.692V45.7733ZM199.692 56.5425H206.191V59.2379H207.814V56.5425H214.312V65.9672H199.692V56.5425ZM217.566 76.7365H199.692V67.318H207.814V70.0072H209.436V67.318H217.566V76.7365Z" fill="#2969BD" stroke="#2969BD" stroke-width="0.5"/>
<path d="M176.13 76.4034C175.46 76.4034 174.909 76.8537 174.909 77.415C174.909 77.9701 175.46 78.4204 176.13 78.4204C176.8 78.4204 177.351 77.9701 177.351 77.415C177.351 76.8537 176.8 76.4034 176.13 76.4034Z" fill="#2969BD" stroke="#2969BD" stroke-width="0.5"/>
<path d="M191.57 76.4034C190.893 76.4034 190.349 76.8537 190.349 77.415C190.349 77.9701 190.893 78.4204 191.57 78.4204C192.24 78.4204 192.783 77.9701 192.783 77.415C192.783 76.8537 192.24 76.4034 191.57 76.4034Z" fill="#2969BD" stroke="#2969BD" stroke-width="0.5"/>
<path d="M24.6943 49.9842V57.6293H22.3347V55.1489C22.3347 54.4693 21.8176 53.9143 21.1603 53.9143H14.1033V52.4533C15.4716 51.9436 16.4628 50.5845 16.4628 48.9762C16.4628 46.9261 14.879 45.2612 12.9289 45.2612C10.9896 45.2612 9.4058 46.9261 9.4058 48.9762C9.4058 50.5845 10.3862 51.9436 11.7546 52.4533V55.1489C11.7546 55.8398 12.2825 56.3834 12.9289 56.3834H19.986V57.6293C19.3395 57.6293 18.8116 58.173 18.8116 58.8638V61.3329H12.9289V60.0984C12.9289 59.4188 12.401 58.8638 11.7546 58.8638H6.83078C6.34595 57.4254 5.05306 56.3834 3.52313 56.3834C1.58379 56.3834 0 58.0484 0 60.0984C0 62.1371 1.58379 63.802 3.52313 63.802C5.05306 63.802 6.34595 62.7713 6.83078 61.3329H10.5802V62.5675C10.5802 63.247 11.1081 63.802 11.7546 63.802H18.8116V66.2711H9.4058C8.74857 66.2711 8.23142 66.8261 8.23142 67.517V72.6817C6.86311 73.1914 5.87189 74.5505 5.87189 76.1701C5.87189 78.2088 7.45568 79.8738 9.4058 79.8738C11.3451 79.8738 12.9289 78.2088 12.9289 76.1701C12.9289 74.5505 11.9485 73.1914 10.5802 72.6817V68.7515H18.8116V69.9861C18.8116 70.6656 19.3395 71.2206 19.986 71.2206H21.1603V74.9242H18.8116C18.1651 74.9242 17.6372 75.4792 17.6372 76.1701V81.3348C16.2689 81.8445 15.2777 83.2036 15.2777 84.8233C15.2777 86.862 16.8615 88.5269 18.8116 88.5269C20.7509 88.5269 22.3347 86.862 22.3347 84.8233C22.3347 83.2036 21.3543 81.8445 19.986 81.3348V77.4047H22.3347C22.9919 77.4047 23.5091 76.8497 23.5091 76.1701V71.2206H28.2174V74.9242C28.2174 75.6151 28.7453 76.1701 29.3918 76.1701H35.2744V78.8657C33.9061 79.3754 32.9257 80.7345 32.9257 82.3428C32.9257 84.3929 34.4987 86.0578 36.4488 86.0578C38.3881 86.0578 39.9719 84.3929 39.9719 82.3428C39.9719 80.7345 38.9915 79.3754 37.6232 78.8657V74.9242C37.6232 74.2447 37.0953 73.6897 36.4488 73.6897H30.5661V71.2206C31.2234 71.2206 31.7405 70.6656 31.7405 69.9861V67.517H40.1874C40.683 68.9441 41.9759 69.9861 43.5058 69.9861C45.4452 69.9861 47.029 68.3211 47.029 66.2711C47.029 64.2324 45.4452 62.5675 43.5058 62.5675C41.9759 62.5675 40.683 63.6095 40.1874 65.0366H31.7405V61.3329H35.2744C35.9209 61.3329 36.4488 60.778 36.4488 60.0984V54.9224C37.8171 54.4127 38.7976 53.0536 38.7976 51.4453C38.7976 49.3952 37.2138 47.7303 35.2744 47.7303C33.3243 47.7303 31.7405 49.3952 31.7405 51.4453C31.7405 53.0536 32.7317 54.4127 34.1001 54.9224V58.8638H31.7405C31.7405 58.173 31.2234 57.6293 30.5661 57.6293H27.043V49.9842C28.4113 49.4632 29.3918 48.1041 29.3918 46.4957C29.3918 44.4571 27.808 42.7921 25.8686 42.7921C23.9185 42.7921 22.3347 44.4571 22.3347 46.4957C22.3347 48.1041 23.3259 49.4632 24.6943 49.9842ZM12.9289 47.7303C13.5754 47.7303 14.1033 48.2853 14.1033 48.9762C14.1033 49.6557 13.5754 50.2107 12.9289 50.2107C12.2825 50.2107 11.7546 49.6557 11.7546 48.9762C11.7546 48.2853 12.2825 47.7303 12.9289 47.7303ZM3.52313 61.3329C2.87669 61.3329 2.34876 60.778 2.34876 60.0984C2.34876 59.4188 2.87669 58.8638 3.52313 58.8638C4.16958 58.8638 4.69751 59.4188 4.69751 60.0984C4.69751 60.778 4.16958 61.3329 3.52313 61.3329ZM9.4058 77.4047C8.75935 77.4047 8.23142 76.8497 8.23142 76.1701C8.23142 75.4792 8.75935 74.9242 9.4058 74.9242C10.0522 74.9242 10.5802 75.4792 10.5802 76.1701C10.5802 76.8497 10.0522 77.4047 9.4058 77.4047ZM18.8116 86.0578C18.1651 86.0578 17.6372 85.5028 17.6372 84.8233C17.6372 84.1324 18.1651 83.5774 18.8116 83.5774C19.458 83.5774 19.986 84.1324 19.986 84.8233C19.986 85.5028 19.458 86.0578 18.8116 86.0578ZM36.4488 83.5774C35.8024 83.5774 35.2744 83.0224 35.2744 82.3428C35.2744 81.6633 35.8024 81.1083 36.4488 81.1083C37.0953 81.1083 37.6232 81.6633 37.6232 82.3428C37.6232 83.0224 37.0953 83.5774 36.4488 83.5774ZM43.5058 65.0366C44.1523 65.0366 44.6802 65.5915 44.6802 66.2711C44.6802 66.962 44.1523 67.517 43.5058 67.517C42.8594 67.517 42.3315 66.962 42.3315 66.2711C42.3315 65.5915 42.8594 65.0366 43.5058 65.0366ZM35.2744 50.2107C35.9209 50.2107 36.4488 50.7657 36.4488 51.4453C36.4488 52.1248 35.9209 52.6798 35.2744 52.6798C34.628 52.6798 34.1001 52.1248 34.1001 51.4453C34.1001 50.7657 34.628 50.2107 35.2744 50.2107ZM29.3918 68.7515H21.1603V60.0984H29.3918V68.7515ZM25.8686 45.2612C26.5151 45.2612 27.043 45.8162 27.043 46.4957C27.043 47.1753 26.5151 47.7303 25.8686 47.7303C25.2114 47.7303 24.6943 47.1753 24.6943 46.4957C24.6943 45.8162 25.2114 45.2612 25.8686 45.2612Z" fill="#2969BD"/>
<path d="M43.2114 140.366L40.414 136.525C40.0497 136.023 39.3731 135.819 38.7616 136.023L23.6427 140.976L17.2152 134.395C16.0182 133.295 14.4308 132.685 12.7264 132.685C11.0349 132.685 9.43456 133.295 8.23754 134.395C7.04052 135.508 6.37695 136.968 6.37695 138.535C6.37695 140.091 7.04052 141.562 8.28959 142.711L15.3936 148.573L9.99404 162.464C9.78586 163.027 10.0071 163.661 10.5535 163.996L14.7301 166.556C15.3416 166.927 16.1613 166.819 16.6297 166.293L25.0219 156.757L33.2189 163.218L31.9698 169.069C31.8917 169.404 31.9698 169.763 32.178 170.05L35.0274 173.902C35.2876 174.261 35.73 174.477 36.1984 174.477C36.6798 174.477 37.1222 174.249 37.3824 173.89L42.8991 166.269L51.1872 161.196C51.5775 160.957 51.8117 160.55 51.8117 160.107C51.8117 159.677 51.5775 159.27 51.1872 159.019L46.9196 156.41C46.6073 156.219 46.23 156.147 45.8657 156.219L39.5683 157.379L32.5423 149.83L42.9251 142.113C43.4846 141.682 43.6147 140.928 43.2114 140.366ZM29.6278 148.645C29.3285 148.873 29.1334 149.196 29.1074 149.543C29.0683 149.902 29.1854 150.249 29.4456 150.512L37.9549 159.653C38.2932 160.012 38.8136 160.179 39.3211 160.083L45.8396 158.887L47.8433 160.107L41.0906 164.247C40.9344 164.343 40.8043 164.462 40.7002 164.606L36.1854 170.828L34.8713 169.033L36.1724 162.979C36.2635 162.512 36.0943 162.034 35.704 161.734L25.7635 153.898C25.4642 153.67 25.0869 153.551 24.7096 153.587C24.3323 153.623 23.981 153.79 23.7338 154.065L15.2245 163.721L13.0517 162.381L18.3862 148.621C18.5814 148.119 18.4252 147.568 17.9959 147.21L10.2543 140.808C8.87508 139.552 8.87508 137.506 10.2543 136.25C11.6204 134.982 13.8453 134.982 15.1594 136.19L22.1724 143.381C22.5628 143.776 23.1743 143.919 23.7077 143.74L38.6705 138.822L40.1278 140.832L29.6278 148.645Z" fill="#2969BD"/>
<path d="M90.7925 208.118H90.0386C89.6236 208.118 89.2847 208.422 89.2847 208.795V209.473C89.2847 209.852 89.6236 210.15 90.0386 210.15H90.7925C91.2144 210.15 91.5464 209.852 91.5464 209.473V208.795C91.5464 208.422 91.2144 208.118 90.7925 208.118Z" fill="#2969BD"/>
<path d="M126.275 216.259H125.514C125.099 216.259 124.76 216.557 124.76 216.936V217.613C124.76 217.986 125.099 218.291 125.514 218.291H126.275C126.69 218.291 127.029 217.986 127.029 217.613V216.936C127.029 216.557 126.69 216.259 126.275 216.259Z" fill="#2969BD"/>
<path d="M121.745 216.259H120.991C120.569 216.259 120.23 216.557 120.23 216.936V217.613C120.23 217.986 120.569 218.291 120.991 218.291H121.745C122.16 218.291 122.498 217.986 122.498 217.613V216.936C122.498 216.557 122.16 216.259 121.745 216.259Z" fill="#2969BD"/>
<path d="M117.214 216.259H116.46C116.038 216.259 115.706 216.557 115.706 216.936V217.613C115.706 217.986 116.038 218.291 116.46 218.291H117.214C117.629 218.291 117.968 217.986 117.968 217.613V216.936C117.968 216.557 117.629 216.259 117.214 216.259Z" fill="#2969BD"/>
<path d="M112.683 216.259H111.929C111.514 216.259 111.176 216.557 111.176 216.936V217.613C111.176 217.986 111.514 218.291 111.929 218.291H112.683C113.098 218.291 113.437 217.986 113.437 217.613V216.936C113.437 216.557 113.098 216.259 112.683 216.259Z" fill="#2969BD"/>
<mask id="mask0_221_407" style="mask-type:luminance" maskUnits="userSpaceOnUse" x="93" y="179" width="38" height="42">
<path d="M93.4485 179.588H130.633V221H93.4485V179.588Z" fill="white"/>
</mask>
<g mask="url(#mask0_221_407)">
<path d="M130.045 187.772V185.057C130.045 184.684 129.706 184.379 129.291 184.379H123.253V180.986C123.253 180.788 123.149 180.595 122.976 180.465C122.803 180.34 122.575 180.284 122.353 180.322L98.9541 184.392V184.404C98.6082 184.466 98.3454 184.727 98.3454 185.057V187.772C98.3454 188.145 98.6774 188.45 99.0993 188.45V193.197H97.5845C97.1695 193.197 96.8306 193.502 96.8306 193.875V195.907H95.3228C94.9078 195.907 94.5688 196.211 94.5688 196.59V202.016C94.5688 202.388 94.9078 202.693 95.3228 202.693H104.384C104.799 202.693 105.138 202.388 105.138 202.016V196.59C105.138 196.211 104.799 195.907 104.384 195.907H102.869V193.875C102.869 193.502 102.537 193.197 102.115 193.197H100.607V188.45H114.821L110.526 213.543H108.907C108.492 213.543 108.153 213.847 108.153 214.22V220.323C108.153 220.702 108.492 221 108.907 221H129.291C129.706 221 130.045 220.702 130.045 220.323V214.22C130.045 213.847 129.706 213.543 129.291 213.543H127.672L123.377 188.45H129.291C129.706 188.45 130.045 188.145 130.045 187.772ZM121.745 181.813V184.379H106.971L121.745 181.813ZM103.623 197.268V201.338H96.0767V197.268H103.623ZM101.361 194.552V195.907H98.3454V194.552H101.361ZM114.786 197.61L122.983 201.295L113.514 205.017L114.786 197.61ZM121.44 192.576L115.16 195.397L115.997 190.532L121.44 192.576ZM116.232 189.152L116.35 188.45H121.848L122.367 191.451L116.232 189.152ZM128.537 214.898V219.645H109.668V214.898H128.537ZM126.144 213.543H112.054L113.161 207.074L126.088 213.183L126.144 213.543ZM125.798 211.517L114.427 206.142L124.221 202.289L125.798 211.517ZM123.854 200.17L115.879 196.59L122.72 193.514L123.854 200.17ZM128.537 187.095H99.8532V185.734H128.537V187.095Z" fill="#2969BD"/>
</g>
<mask id="mask1_221_407" style="mask-type:luminance" maskUnits="userSpaceOnUse" x="84" y="205" width="24" height="16">
<path d="M84.595 205.042H107.614V221H84.595V205.042Z" fill="white"/>
</mask>
<g mask="url(#mask1_221_407)">
<path d="M106.009 211.828C105.871 211.629 105.629 211.511 105.366 211.511H94.569V206.08C94.569 205.707 94.2301 205.402 93.8151 205.402H87.0228C86.6009 205.402 86.262 205.707 86.262 206.08V211.511H85.5081C85.2522 211.511 85.0101 211.629 84.8717 211.822C84.7334 212.014 84.7196 212.263 84.8233 212.468L88.4961 219.627C88.4269 219.633 88.3578 219.645 88.2748 219.645C87.673 219.645 87.4102 219.44 87.009 219.13C86.5179 218.757 85.9162 218.291 84.7542 218.291V219.645C85.3559 219.645 85.6187 219.85 86.0268 220.161C86.511 220.534 87.1128 221 88.2748 221C89.4368 221 90.0385 220.534 90.5296 220.161C90.9308 219.85 91.1936 219.645 91.7954 219.645C92.3971 219.645 92.66 219.85 93.0611 220.161C93.5522 220.534 94.154 221 95.316 221C96.478 221 97.0798 220.534 97.5709 220.161C97.972 219.85 98.2349 219.645 98.8366 219.645C99.4453 219.645 99.7081 219.85 100.109 220.161C100.6 220.534 101.202 221 102.364 221C103.526 221 104.135 220.534 104.619 220.161C105.02 219.85 105.29 219.645 105.892 219.645V218.291C104.73 218.291 104.128 218.757 103.637 219.13C103.236 219.44 102.966 219.645 102.364 219.645C102.295 219.645 102.247 219.633 102.184 219.627L106.051 212.48C106.161 212.275 106.148 212.027 106.009 211.828ZM87.7768 206.763H93.0611V211.511H87.7768V206.763ZM100.87 218.962C100.414 218.626 99.8326 218.291 98.8366 218.291C97.6815 218.291 97.0728 218.757 96.5887 219.13C96.1806 219.44 95.9178 219.645 95.316 219.645C94.7142 219.645 94.4514 219.44 94.0502 219.13C93.5591 218.757 92.9574 218.291 91.7954 218.291C90.834 218.291 90.253 218.614 89.8103 218.937L86.6908 212.866H104.162L100.87 218.962Z" fill="#2969BD"/>
</g>
<path d="M137.765 4.77581H121.879C121.333 4.77581 120.887 5.19919 120.887 5.71761V21.7454H115.683L110.951 5.588V1.94179C110.951 1.42338 110.515 1 109.96 1H92.0898C91.5438 1 91.098 1.42338 91.098 1.94179V5.588L86.3667 21.7454H80.1705C79.6245 21.7454 79.1787 22.1688 79.1787 22.6872V43.4326C79.1787 43.9596 79.6245 44.3743 80.1705 44.3743H137.765C138.311 44.3743 138.757 43.9596 138.757 43.4326V5.71761C138.757 5.19919 138.311 4.77581 137.765 4.77581ZM93.0815 2.89223H108.968V4.77581H93.0815V2.89223ZM92.8449 6.6594H109.204L113.617 21.7454H88.4321L92.8449 6.6594ZM114.927 42.4908H87.1219V38.7236H114.927V42.4908ZM120.887 42.4908H116.911V37.7818C116.911 37.2547 116.465 36.8314 115.919 36.8314H86.1301C85.5842 36.8314 85.1384 37.2547 85.1384 37.7818V42.4908H81.1622V23.629H120.887V42.4908ZM136.773 42.4908H122.871V6.6594H136.773V42.4908Z" fill="#2969BD" stroke="#2969BD" stroke-width="0.5"/>
<path d="M86.1302 32.122H92.0898C92.6357 32.122 93.0816 31.6987 93.0816 31.1803V27.4044C93.0816 26.886 92.6357 26.4626 92.0898 26.4626H86.1302C85.5843 26.4626 85.1384 26.886 85.1384 27.4044V31.1803C85.1384 31.6987 85.5843 32.122 86.1302 32.122ZM87.1219 28.3462H91.0981V30.2298H87.1219V28.3462Z" fill="#2969BD" stroke="#2969BD" stroke-width="0.5"/>
<path d="M98.0496 32.122H104.009C104.555 32.122 105.001 31.6987 105.001 31.1803V27.4044C105.001 26.886 104.555 26.4626 104.009 26.4626H98.0496C97.4946 26.4626 97.0579 26.886 97.0579 27.4044V31.1803C97.0579 31.6987 97.4946 32.122 98.0496 32.122ZM99.0414 28.3462H103.008V30.2298H99.0414V28.3462Z" fill="#2969BD" stroke="#2969BD" stroke-width="0.5"/>
<path d="M109.96 32.122H115.919C116.465 32.122 116.911 31.6987 116.911 31.1803V27.4044C116.911 26.886 116.465 26.4626 115.919 26.4626H109.96C109.414 26.4626 108.968 26.886 108.968 27.4044V31.1803C108.968 31.6987 109.414 32.122 109.96 32.122ZM110.952 28.3462H114.928V30.2298H110.952V28.3462Z" fill="#2969BD" stroke="#2969BD" stroke-width="0.5"/>
<path d="M125.846 9.48462H127.839V39.6652H125.846V9.48462Z" fill="#2969BD" stroke="#2969BD" stroke-width="0.5"/>
<path d="M131.806 9.48462H133.799V39.6652H131.806V9.48462Z" fill="#2969BD" stroke="#2969BD" stroke-width="0.5"/>
<path d="M190.562 157.043H187.421C187.421 159.522 189.539 161.546 192.132 161.546V158.544C191.268 158.544 190.562 157.869 190.562 157.043Z" fill="#2969BD"/>
<path d="M184.265 160.045H181.125C181.125 164.191 184.654 167.551 188.991 167.551V164.549C186.383 164.549 184.265 162.524 184.265 160.045Z" fill="#2969BD"/>
<path d="M185.85 170.567C181.513 170.567 177.983 167.193 177.983 163.048H174.843C174.843 168.846 179.77 173.57 185.85 173.57V170.567Z" fill="#2969BD"/>
<path d="M171.687 166.05H168.546C168.546 173.514 174.9 179.588 182.695 179.588V176.572C176.629 176.572 171.687 171.862 171.687 166.05Z" fill="#2969BD"/>
<path d="M216.827 161.037L208.384 152.966C207.793 152.402 206.756 152.402 206.165 152.966L204.422 154.633L202.664 152.952C202.967 152.374 203.14 151.713 203.14 151.024C203.14 148.532 201.022 146.521 198.428 146.521C197.693 146.521 197.016 146.686 196.397 146.962L194.653 145.295L196.397 143.629C197.002 143.036 197.002 142.086 196.397 141.508L187.939 133.423C187.363 132.859 186.311 132.859 185.72 133.423L180.015 138.877C179.395 139.469 179.395 140.42 180.015 141.012L188.458 149.082C188.76 149.358 189.149 149.523 189.567 149.523C189.985 149.523 190.388 149.358 190.691 149.082L192.42 147.416L194.178 149.096C193.89 149.675 193.702 150.336 193.702 151.024C193.702 153.503 195.82 155.528 198.428 155.528C199.149 155.528 199.826 155.363 200.445 155.073L202.203 156.754L200.46 158.42C199.84 159.012 199.84 159.963 200.46 160.541L208.903 168.625C209.191 168.901 209.594 169.066 210.012 169.066C210.43 169.066 210.833 168.901 211.122 168.625L216.827 163.158C217.447 162.579 217.447 161.629 216.827 161.037ZM189.567 145.887L183.343 139.951L186.83 136.619L193.054 142.568L189.567 145.887ZM196.843 151.024C196.843 150.198 197.549 149.523 198.428 149.523C199.293 149.523 199.999 150.198 199.999 151.024C199.999 151.851 199.293 152.525 198.428 152.525C197.549 152.525 196.843 151.851 196.843 151.024ZM210.012 165.43L203.788 159.48L207.275 156.161L213.499 162.097L210.012 165.43Z" fill="#2969BD"/>
<path d="M158.493 118.121L158.295 119.596L159.497 120.474L174.19 131.205C174.348 131.32 174.42 131.455 174.445 131.581C174.47 131.704 174.459 131.863 174.359 132.041L160.451 154.377L160.434 154.404L160.418 154.432C160.357 154.535 160.222 154.67 159.956 154.754C159.691 154.838 159.396 154.836 159.153 154.762L141.861 148.251L140.613 147.781L139.528 148.556C136.051 151.038 132.476 153.063 128.314 154.657L126.953 155.179L126.737 156.62L124.167 173.703C124.113 173.936 123.801 174.342 123.149 174.342H95.2871C94.6347 174.342 94.3226 173.936 94.2688 173.703L91.6994 156.62L91.4794 155.157L90.0913 154.646C85.9684 153.127 82.405 151.053 78.9084 148.556L77.8229 147.781L76.5746 148.251L59.2828 154.762C59.0401 154.836 58.7447 154.838 58.4803 154.754C58.2142 154.67 58.0789 154.535 58.0182 154.432L58.0019 154.404L57.985 154.377L44.0541 132.005L44.0475 131.994L44.0409 131.984C43.9444 131.832 43.9373 131.711 43.9591 131.609C43.9836 131.494 44.0618 131.34 44.2447 131.205C44.245 131.205 44.2453 131.205 44.2455 131.205L58.9393 120.474L60.1411 119.596L59.9425 118.121C59.6705 116.102 59.4772 114.157 59.4772 112.183C59.4772 110.205 59.671 108.193 59.945 106.031L60.1323 104.553L58.9217 103.685L44.2383 93.1555C44.06 93.0223 43.9833 92.8705 43.9591 92.757C43.9373 92.6549 43.9444 92.5332 44.0409 92.3816L44.0475 92.3712L44.0541 92.3606L57.985 69.9885L58.0019 69.9612L58.0182 69.9335C58.1879 69.6447 58.7395 69.3976 59.2241 69.5816L59.2312 69.5843L59.2384 69.587L76.5823 76.0529L77.8093 76.5104L78.884 75.7621C82.3968 73.3165 85.9661 71.2393 90.0913 69.7197L91.4794 69.2084L91.6994 67.7456L94.2688 50.6625C94.3226 50.4298 94.6346 50.0233 95.2871 50.0233L123.149 50.0233L123.155 50.0233C123.447 50.0226 123.705 50.119 123.888 50.2613C124.056 50.3922 124.138 50.5426 124.168 50.6706L126.737 67.7456L126.957 69.2084L128.345 69.7197C132.47 71.2393 136.039 73.3165 139.552 75.7621L140.627 76.5104L141.854 76.0529L159.198 69.587L159.205 69.5843L159.212 69.5816C159.696 69.3976 160.248 69.6447 160.418 69.9335L160.434 69.9612L160.451 69.9884L174.359 92.3247C174.459 92.5028 174.47 92.662 174.445 92.7848C174.42 92.9085 174.35 93.0415 174.197 93.1558C174.195 93.1575 174.193 93.1592 174.19 93.1609L159.514 103.685L158.304 104.553L158.491 106.031C158.765 108.193 158.959 110.205 158.959 112.183C158.959 114.157 158.765 116.102 158.493 118.121ZM90.2786 130.017C95.3312 134.708 102.147 137.314 109.218 137.314C116.289 137.314 123.105 134.708 128.157 130.017C133.216 125.321 136.097 118.911 136.097 112.183C136.097 105.455 133.216 99.0443 128.157 94.3482C123.105 89.6579 116.289 87.052 109.218 87.052C102.147 87.052 95.3312 89.6579 90.2786 94.3482C85.2197 99.0443 82.339 105.455 82.339 112.183C82.339 118.911 85.2197 125.321 90.2786 130.017Z" stroke="#2969BD" stroke-width="5"/>
</svg>
