<svg width="223" height="204" viewBox="0 0 223 204" fill="none" xmlns="http://www.w3.org/2000/svg">
<ellipse cx="121.312" cy="102" rx="99.6875" ry="100" fill="#052A65" stroke="#2969BD" stroke-width="3"/>
<rect x="102.978" y="62.9196" width="36.6667" height="36.7816" rx="4" stroke="#2969BD" stroke-width="2"/>
<path d="M174.746 98.616C174.173 98.6159 146.673 98.6213 146.1 98.6214C145.527 98.6215 146.107 89.901 145.525 81.3799C144.978 73.3856 143.821 65.5667 144.375 65.2883C145.521 64.7133 167.864 61.2611 168.437 61.8356C169.01 62.4101 171.876 69.3061 173.597 80.2255C175.317 91.1448 175.319 98.6162 174.746 98.616Z" stroke="#2969BD" stroke-width="2"/>
<path d="M67.8001 106.598C68.373 106.598 95.8727 106.598 96.4459 106.598C97.0191 106.598 96.4371 115.318 97.018 123.839C97.5629 131.834 98.7193 139.653 98.1647 139.931C97.0188 140.506 74.6751 143.954 74.1022 143.379C73.5292 142.805 70.6647 135.908 68.9459 124.988C67.2272 114.069 67.2272 106.597 67.8001 106.598Z" stroke="#2969BD" stroke-width="2"/>
<path d="M67.8001 98.6163C68.373 98.6165 95.8727 98.6381 96.4459 98.6386C97.0191 98.639 96.4439 89.9182 97.0313 81.3975C97.5824 73.4035 98.7449 65.5853 98.1904 65.3066C97.045 64.7308 74.704 61.2654 74.1306 61.8396C73.5572 62.4137 70.6873 69.308 68.9601 80.2264C67.2329 91.1447 67.2272 98.6161 67.8001 98.6163Z" stroke="#2969BD" stroke-width="2"/>
<path d="M175.165 106.598C174.592 106.598 147.092 106.598 146.519 106.598C145.946 106.598 146.528 115.318 145.947 123.839C145.402 131.833 144.246 139.653 144.8 139.931C145.946 140.506 168.29 143.954 168.863 143.379C169.436 142.805 172.3 135.908 174.019 124.988C175.738 114.069 175.738 106.597 175.165 106.598Z" stroke="#2969BD" stroke-width="2"/>
<path d="M34.2849 105.876C34.8426 105.298 59.4807 105.741 60.6387 105.734C61.1909 105.731 60.5268 114.675 61.8675 123.544C63.338 133.273 66.2274 143.61 66.5609 144.209C67.1984 145.355 51.7174 149.461 49.4167 150.048C48.2813 150.338 41.9362 140.313 38.4089 129.418C34.7886 118.235 34.0024 106.168 34.2849 105.876Z" stroke="#2969BD" stroke-width="2"/>
<path d="M208.643 99.1125C208.085 99.7045 183.447 99.2473 182.289 99.2536C181.737 99.2567 182.4 90.0847 181.058 80.9886C179.586 71.0113 176.696 60.4104 176.362 59.7956C175.724 58.6202 191.205 54.4119 193.506 53.8102C194.641 53.5132 200.987 63.7952 204.516 74.969C208.138 86.4372 208.925 98.8126 208.643 99.1125Z" stroke="#2969BD" stroke-width="2"/>
<path d="M35.4207 99.6552C35.9783 100.254 60.6165 99.7901 61.7745 99.7964C62.3267 99.7994 61.6642 90.5178 63.0066 81.3129C64.479 71.2162 67.3703 60.4884 67.7039 59.8662C68.3417 58.6767 52.8614 54.4191 50.5608 53.8103C49.4255 53.5099 43.0785 63.9152 39.5491 75.2228C35.9267 86.8284 35.1382 99.3518 35.4207 99.6552Z" stroke="#2969BD" stroke-width="2"/>
<path d="M208.382 106.023C207.821 105.448 183.186 106.023 182.028 106.023C181.476 106.023 182.187 114.963 180.894 123.839C179.475 133.576 176.641 143.927 176.311 144.529C175.68 145.678 191.182 149.701 193.486 150.275C194.623 150.559 200.914 140.5 204.384 129.586C207.944 118.385 208.666 106.314 208.382 106.023Z" stroke="#2969BD" stroke-width="2"/>
<path d="M106.558 57.747C107.705 58.3218 135.205 58.3218 136.35 57.747C137.495 57.1723 130.506 13.4942 120.881 13.4942C111.256 13.4942 105.411 57.1722 106.558 57.747Z" stroke="#2969BD" stroke-width="2"/>
<path d="M68.78 152.125C66.5511 150.883 54.8218 157.305 54.8218 157.305C52.0223 158.465 77.9756 180.111 80.2425 180.779C82.5093 181.447 83.1514 179.747 83.7331 179.196C84.0272 178.917 79.8128 172.853 76.2331 166.235C72.733 159.763 69.8819 152.739 68.78 152.125Z" stroke="#2969BD" stroke-width="2"/>
<path d="M77.8673 53.5944C77.0114 55.4627 92.8681 56.5497 100.903 56.8597C101.165 56.5794 101.955 46.2622 103.68 36.6424C105.605 25.905 108.457 15.7615 108.156 15.7938C92.7326 17.4508 78.9372 51.259 77.8673 53.5944Z" stroke="#2969BD" stroke-width="2"/>
<path d="M166.593 150.851C167.509 149.011 151.697 147.402 143.676 146.828C143.405 147.099 142.278 157.385 140.239 166.942C137.963 177.611 134.78 187.655 135.082 187.632C150.551 186.484 165.447 153.149 166.593 150.851Z" stroke="#2969BD" stroke-width="2"/>
<path d="M172.885 52.4383C175.139 53.6342 186.735 46.9732 186.735 46.9732C189.51 45.7565 163.122 24.6465 160.842 24.0251C158.562 23.4036 157.955 25.1158 157.384 25.6789C157.096 25.9636 161.433 31.9403 165.146 38.484C168.778 44.8823 171.771 51.8471 172.885 52.4383Z" stroke="#2969BD" stroke-width="2"/>
<path d="M76.0509 150.851C75.1342 149.012 90.9467 147.402 98.9676 146.828C99.2382 147.099 100.366 157.385 102.405 166.942C104.681 177.611 107.863 187.655 107.561 187.632C92.0923 186.485 77.1967 153.149 76.0509 150.851Z" stroke="#2969BD" stroke-width="2"/>
<path d="M165.527 53.2678C166.403 55.1268 150.559 56.3835 142.527 56.7795C142.263 56.502 141.363 46.1939 139.536 36.5931C137.496 25.8768 134.537 15.7644 134.839 15.7936C150.279 17.2854 164.433 50.944 165.527 53.2678Z" stroke="#2969BD" stroke-width="2"/>
<path d="M68.6034 52.5747C66.3259 53.7241 54.8676 46.8274 54.8676 46.8274C52.1176 45.5542 78.9296 24.9883 81.2218 24.4136C83.5139 23.8389 84.0864 25.5632 84.6451 26.1379C84.9276 26.4284 80.4701 32.3151 76.6243 38.7815C72.8639 45.1042 69.7294 52.0064 68.6034 52.5747Z" stroke="#2969BD" stroke-width="2"/>
<path d="M174.032 151.811C176.288 150.62 187.871 157.304 187.871 157.304C190.644 158.527 164.213 179.583 161.932 180.2C159.651 180.817 159.047 179.104 158.478 178.539C158.19 178.254 162.539 172.286 166.265 165.75C169.909 159.359 172.917 152.4 174.032 151.811Z" stroke="#2969BD" stroke-width="2"/>
<path d="M136.209 145.678C135.062 145.103 107.562 145.103 106.417 145.678C105.272 146.253 112.261 189.931 121.886 189.931C131.511 189.931 137.355 146.253 136.209 145.678Z" stroke="#2969BD" stroke-width="2"/>
<rect x="102.978" y="104.299" width="36.6667" height="36.7816" rx="4" stroke="#2969BD" stroke-width="2"/>
<path d="M101.039 33.8257L109.501 39.737L132.77 26.3022L123.779 20.3909L101.039 33.8257Z" fill="#2969BD" stroke="#2969BD" stroke-opacity="0.85" stroke-width="2"/>
<path d="M88.3477 36.5127L97.338 41.8867V53.1719L106.857 47.798V35.9753L97.8669 31.1388L88.3477 36.5127Z" fill="#2969BD"/>
<path d="M97.338 41.8867L88.3477 36.5127V47.798L97.338 53.1719V41.8867Z" fill="#052A65"/>
<path d="M88.3477 36.5127L97.338 41.8867V53.1719M88.3477 36.5127L97.8669 31.1388L106.857 35.9753V47.798L97.338 53.1719M88.3477 36.5127V47.798L97.338 53.1719" stroke="#2969BD" stroke-opacity="0.85" stroke-width="2"/>
<path d="M64.0205 55.8588L72.482 61.7701L95.7513 48.3353L86.7609 42.424L64.0205 55.8588Z" fill="#2969BD" stroke="#2969BD" stroke-opacity="0.85" stroke-width="2"/>
<path d="M64.5915 184.184C7.29982 171.54 21.6253 144.529 21.6253 144.529C21.6253 144.529 27.9235 120.966 98.3896 106.023C98.3896 106.023 100.68 97.9769 108.132 98.5517C115.584 99.1265 116.726 103.451 116.726 107.747C116.726 112.044 114.549 116.943 108.132 116.943C101.715 116.943 99.3472 113.111 98.9652 111.195C28.4966 126.713 25.0591 147.402 25.0591 147.402C25.0591 147.402 16.4654 168.667 61.1527 180.736C61.1527 180.736 65.7373 184.759 64.5915 184.184Z" fill="#2969BD" stroke="#2969BD" stroke-opacity="0.8" stroke-linejoin="round"/>
<ellipse cx="107.563" cy="107.747" rx="5.72917" ry="5.74713" fill="white"/>
<path d="M52.7467 170.902C-13.7876 156.661 2.84895 126.235 2.84895 126.235C2.84895 126.235 10.1632 99.6936 91.9974 82.8625C91.9974 82.8625 94.6575 73.7995 103.312 74.4469C111.966 75.0944 113.292 79.9649 113.292 84.8045C113.292 89.6441 110.763 95.1622 103.312 95.1622C95.8597 95.1622 93.1095 90.8465 92.6658 88.6886C10.8288 106.167 6.83673 129.472 6.83673 129.472C6.83673 129.472 -3.14343 153.424 48.7532 167.018C48.7532 167.018 54.0774 171.55 52.7467 170.902Z" fill="#2969BD" stroke="#2969BD" stroke-opacity="0.8" stroke-linejoin="round"/>
<ellipse cx="102.65" cy="84.8048" rx="6.65343" ry="6.47351" fill="white"/>
<path d="M131.053 94.5288H154.542L168.292 80.7357V72.115H172.876V83.0345L161.417 94.5288H176.886L191.209 80.7357H201.521V85.3334H192.355L178.605 99.1265H170.011V117.517L174.594 122.69H171.73V126.138L164.855 119.241V99.1265H131.053V94.5288Z" fill="#052A65" stroke="#2969BD" stroke-opacity="0.8" stroke-linejoin="round"/>
<rect x="171.729" y="122.69" width="13.75" height="13.7931" rx="2" fill="#3D79C8"/>
<rect x="201.521" y="76.7126" width="13.75" height="13.7931" rx="2" fill="#3D79C8"/>
<rect x="163.709" y="58.3219" width="13.75" height="13.7931" rx="2" fill="#3D79C8"/>
<ellipse cx="125.323" cy="96.8276" rx="7.44792" ry="7.47126" fill="#3D79C8"/>
<ellipse cx="125.323" cy="96.8276" rx="4.01042" ry="4.02299" fill="white"/>
</svg>
