<svg width="42" height="38" viewBox="0 0 42 38" fill="none" xmlns="http://www.w3.org/2000/svg">
<path d="M41.8337 0.25L38.3545 3.72917L34.8962 0.25L31.417 3.72917L27.9378 0.25L24.4795 3.72917L21.0003 0.25L17.5212 3.72917L14.0628 0.25L10.5837 3.72917L7.10449 0.25L3.64616 3.72917L0.166992 0.25V33.5833C0.166992 35.875 2.04199 37.75 4.33366 37.75H37.667C39.9587 37.75 41.8337 35.875 41.8337 33.5833V0.25ZM18.917 33.5833H4.33366V21.0833H18.917V33.5833ZM37.667 33.5833H23.0837V29.4167H37.667V33.5833ZM37.667 25.25H23.0837V21.0833H37.667V25.25ZM37.667 16.9167H4.33366V10.6667H37.667V16.9167Z" fill="black"/>
</svg>
