<svg width="215" height="200" viewBox="0 0 215 200" fill="none" xmlns="http://www.w3.org/2000/svg">
<mask id="mask0_337_283" style="mask-type:luminance" maskUnits="userSpaceOnUse" x="30" y="93" width="23" height="23">
<path d="M30.6826 93.7088H34.7992V111.693H30.6826V93.7088ZM30.6826 111.693H52.8322V115.801H30.6826V111.693Z" fill="white"/>
</mask>
<g mask="url(#mask0_337_283)">
<path d="M30.6826 93.7088V115.801H52.8322V93.7088H30.6826Z" fill="white"/>
</g>
<mask id="mask1_337_283" style="mask-type:luminance" maskUnits="userSpaceOnUse" x="1" y="43" width="187" height="156">
<path d="M1.79102 43.8571H187.054V198.143H1.79102V43.8571Z" fill="white"/>
</mask>
<g mask="url(#mask1_337_283)">
<mask id="mask2_337_283" style="mask-type:luminance" maskUnits="userSpaceOnUse" x="1" y="43" width="187" height="155">
<path fill-rule="evenodd" clip-rule="evenodd" d="M15.5986 43.9069H173.237C180.837 43.9069 187.054 50.1062 187.054 57.6832V76.9284H1.78223V57.6832C1.78223 50.1062 7.99878 43.9069 15.5986 43.9069ZM32.74 94.738C43.2731 94.738 51.8063 103.244 51.8063 113.743C51.8063 124.241 43.2731 132.755 32.74 132.755C22.2152 132.755 13.682 124.241 13.682 113.743C13.682 103.244 22.2152 94.738 32.74 94.738ZM85.1056 190.79H98.7887V122.415H85.1056V190.79ZM108.114 190.79H121.797V138.283H108.114V190.79ZM131.121 190.79H144.805V145.088H131.121V190.79ZM154.129 190.79H167.812V156.424H154.129V190.79ZM116.672 122.672H174.179V126.78H116.672V122.672ZM116.672 107.427H174.179V111.535H116.672V107.427ZM116.672 92.1736H174.179V96.2816H116.672V92.1736ZM13.7403 143.552H51.8563V147.66H13.7403V143.552ZM13.7403 156.457H51.8563V160.565H13.7403V156.457ZM13.7403 169.362H51.8563V173.47H13.7403V169.362ZM13.7403 182.267H51.8563V186.375H13.7403V182.267ZM109.105 53.5254C105.289 53.5254 102.197 56.6126 102.197 60.4135C102.197 64.2227 105.289 67.3017 109.105 67.3017C112.922 67.3017 116.013 64.2227 116.013 60.4135C116.013 56.6126 112.922 53.5254 109.105 53.5254ZM137.288 53.5254C133.471 53.5254 130.38 56.6126 130.38 60.4135C130.38 64.2227 133.471 67.3017 137.288 67.3017C141.105 67.3017 144.196 64.2227 144.196 60.4135C144.196 56.6126 141.105 53.5254 137.288 53.5254ZM165.471 53.5254C161.654 53.5254 158.563 56.6126 158.563 60.4135C158.563 64.2227 161.654 67.3017 165.471 67.3017C169.287 67.3017 172.379 64.2227 172.379 60.4135C172.379 56.6126 169.287 53.5254 165.471 53.5254ZM72.6642 55.0939H21.7985C18.8569 55.0939 16.4569 57.4923 16.4569 60.4135C16.4569 63.3431 18.8569 65.7414 21.7985 65.7414H72.6642C75.5975 65.7414 78.0058 63.3431 78.0058 60.4135C78.0058 57.4923 75.5975 55.0939 72.6642 55.0939ZM187.054 81.0281V184.192C187.054 191.769 180.837 197.969 173.237 197.969H67.931V81.0281H187.054ZM63.8144 197.969H15.5986C7.99878 197.969 1.78223 191.769 1.78223 184.192V81.0281H63.8144V197.969Z" fill="white"/>
</mask>
<g mask="url(#mask2_337_283)">
<path d="M1.79102 43.9069V197.969H187.054V43.9069H1.79102Z" fill="white"/>
</g>
</g>
<rect x="13.5791" y="181.857" width="38.7368" height="5.14286" fill="#2969BD"/>
<rect x="13.5791" y="169" width="38.7368" height="5.14286" fill="#2969BD"/>
<rect x="13.5791" y="156.143" width="38.7368" height="5.14286" fill="#2969BD"/>
<rect x="13.5791" y="143.286" width="38.7368" height="5.14286" fill="#2969BD"/>
<path fill-rule="evenodd" clip-rule="evenodd" d="M30.4209 94.4286C20.9178 95.6614 13.5791 103.753 13.5791 113.552C13.5791 124.203 22.2506 132.837 32.9475 132.837C42.917 132.837 51.1272 125.337 52.1977 115.695H30.4209V94.4286ZM52.3156 113.662C52.3158 113.625 52.3159 113.588 52.3159 113.552C52.3159 113.515 52.3158 113.478 52.3156 113.442V113.662Z" fill="#2969BD"/>
<path fill-rule="evenodd" clip-rule="evenodd" d="M34.6307 112.429V94.5005C44.1146 95.3139 51.6449 102.933 52.2726 112.429H34.6307Z" fill="#2969BD"/>
<rect x="16.1055" y="55" width="62.3158" height="11.1429" rx="5.57143" fill="#2969BD"/>
<ellipse cx="109.158" cy="60.5714" rx="7.15789" ry="7.28571" fill="#2969BD"/>
<ellipse cx="137.79" cy="60.5714" rx="7.15789" ry="7.28571" fill="#2969BD"/>
<ellipse cx="165.579" cy="60.5714" rx="7.15789" ry="7.28571" fill="#2969BD"/>
<path d="M1.79004 81.5715H63.6848V198.143H67.8953V81.5715H187.053V76.8572H1.79004V81.5715Z" fill="#2969BD"/>
<rect x="116.317" y="91.8572" width="58.1053" height="5.14286" fill="#2969BD"/>
<rect x="116.317" y="107.286" width="58.1053" height="5.14286" fill="#2969BD"/>
<rect x="116.317" y="121.857" width="58.1053" height="5.14286" fill="#2969BD"/>
<rect x="84.3174" y="121.857" width="14.7368" height="69.4286" fill="#2969BD"/>
<rect x="107.896" y="138.143" width="14.3158" height="53.1429" fill="#2969BD"/>
<rect x="130.633" y="145" width="14.3158" height="46.2857" fill="#2969BD"/>
<rect x="153.37" y="156.143" width="14.3158" height="35.1429" fill="#2969BD"/>
<rect x="1.7373" y="44" width="185.263" height="154.286" rx="16" stroke="#2969BD" stroke-width="2"/>
<mask id="mask3_337_283" style="mask-type:luminance" maskUnits="userSpaceOnUse" x="57" y="50" width="23" height="23">
<path d="M57.6289 50.8517H61.7455V68.8355H57.6289V50.8517ZM57.6289 68.8355H79.7785V72.9435H57.6289V68.8355Z" fill="white"/>
</mask>
<g mask="url(#mask3_337_283)">
<path d="M57.6289 50.8517V72.9435H79.7785V50.8517H57.6289Z" fill="white"/>
</g>
<mask id="mask4_337_283" style="mask-type:luminance" maskUnits="userSpaceOnUse" x="28" y="1" width="186" height="155">
<path d="M28.7354 1H213.999V155.286H28.7354V1Z" fill="white"/>
</mask>
<g mask="url(#mask4_337_283)">
<mask id="mask5_337_283" style="mask-type:luminance" maskUnits="userSpaceOnUse" x="28" y="1" width="186" height="155">
<path fill-rule="evenodd" clip-rule="evenodd" d="M42.5439 1.0498H200.183C207.782 1.0498 213.999 7.24912 213.999 14.8261V34.0713H28.7275V14.8261C28.7275 7.24912 34.9441 1.0498 42.5439 1.0498ZM59.6853 51.8809C70.2184 51.8809 78.7516 60.3873 78.7516 70.8854C78.7516 81.3836 70.2184 89.8983 59.6853 89.8983C49.1605 89.8983 40.6273 81.3836 40.6273 70.8854C40.6273 60.3873 49.1605 51.8809 59.6853 51.8809ZM112.051 147.933H125.734V79.5578H112.051V147.933ZM135.059 147.933H148.742V95.4254H135.059V147.933ZM158.067 147.933H171.75V102.231H158.067V147.933ZM181.075 147.933H194.758V113.567H181.075V147.933ZM143.617 79.8151H201.124V83.9231H143.617V79.8151ZM143.617 64.5699H201.124V68.6779H143.617V64.5699ZM143.617 49.3165H201.124V53.4245H143.617V49.3165ZM40.6856 100.695H78.8016V104.803H40.6856V100.695ZM40.6856 113.6H78.8016V117.708H40.6856V113.6ZM40.6856 126.505H78.8016V130.613H40.6856V126.505ZM40.6856 139.41H78.8016V143.518H40.6856V139.41ZM136.051 10.6683C132.234 10.6683 129.142 13.7555 129.142 17.5564C129.142 21.3656 132.234 24.4445 136.051 24.4445C139.867 24.4445 142.959 21.3656 142.959 17.5564C142.959 13.7555 139.867 10.6683 136.051 10.6683ZM164.233 10.6683C160.417 10.6683 157.325 13.7555 157.325 17.5564C157.325 21.3656 160.417 24.4445 164.233 24.4445C168.05 24.4445 171.142 21.3656 171.142 17.5564C171.142 13.7555 168.05 10.6683 164.233 10.6683ZM192.416 10.6683C188.6 10.6683 185.508 13.7555 185.508 17.5564C185.508 21.3656 188.6 24.4445 192.416 24.4445C196.233 24.4445 199.324 21.3656 199.324 17.5564C199.324 13.7555 196.233 10.6683 192.416 10.6683ZM99.6095 12.2368H48.7438C45.8022 12.2368 43.4023 14.6352 43.4023 17.5564C43.4023 20.4859 45.8022 22.8843 48.7438 22.8843H99.6095C102.543 22.8843 104.951 20.4859 104.951 17.5564C104.951 14.6352 102.543 12.2368 99.6095 12.2368ZM213.999 38.171V141.335C213.999 148.912 207.782 155.111 200.183 155.111H94.8763V38.171H213.999ZM90.7597 155.111H42.5439C34.9441 155.111 28.7275 148.912 28.7275 141.335V38.171H90.7597V155.111Z" fill="white"/>
</mask>
<g mask="url(#mask5_337_283)">
<path d="M28.7354 1.0498V155.111H213.999V1.0498H28.7354Z" fill="white"/>
</g>
</g>
<rect x="40.5254" y="139" width="38.7368" height="5.14286" fill="#2969BD"/>
<rect x="40.5254" y="126.143" width="38.7368" height="5.14286" fill="#2969BD"/>
<rect x="40.5254" y="113.286" width="38.7368" height="5.14286" fill="#2969BD"/>
<rect x="40.5254" y="100.429" width="38.7368" height="5.14286" fill="#2969BD"/>
<path fill-rule="evenodd" clip-rule="evenodd" d="M58.21 51.4807C48.3015 52.3304 40.5254 60.6082 40.5254 70.6946C40.5254 81.3458 49.1969 89.9803 59.8938 89.9803C69.8072 89.9803 77.981 82.5643 79.1253 73H58.21V51.4807Z" fill="#2969BD"/>
<path fill-rule="evenodd" clip-rule="evenodd" d="M61.578 69.5714V51.6433C71.0618 52.4567 78.5922 60.0754 79.2199 69.5714H61.578Z" fill="#2969BD"/>
<rect x="43.0518" y="12.1429" width="62.3158" height="11.1429" rx="5.57143" fill="#2969BD"/>
<ellipse cx="136.104" cy="17.7143" rx="7.15789" ry="7.28571" fill="#2969BD"/>
<ellipse cx="164.736" cy="17.7143" rx="7.15789" ry="7.28571" fill="#2969BD"/>
<ellipse cx="192.525" cy="17.7143" rx="7.15789" ry="7.28571" fill="#2969BD"/>
<path d="M28.7363 38.7143H90.6311V155.286H94.8416V38.7143H213.999V34H28.7363V38.7143Z" fill="#2969BD"/>
<rect x="143.264" y="49" width="58.1053" height="5.14286" fill="#2969BD"/>
<rect x="143.264" y="64.4286" width="58.1053" height="5.14286" fill="#2969BD"/>
<rect x="143.264" y="79" width="58.1053" height="5.14286" fill="#2969BD"/>
<rect x="111.264" y="79" width="14.7368" height="69.4286" fill="#2969BD"/>
<rect x="134.843" y="95.2857" width="14.3158" height="53.1429" fill="#2969BD"/>
<rect x="157.579" y="102.143" width="14.3158" height="46.2857" fill="#2969BD"/>
<rect x="180.316" y="113.286" width="14.3158" height="35.1429" fill="#2969BD"/>
<rect x="28.7373" y="1" width="185.263" height="154.286" rx="16" stroke="#2969BD" stroke-width="2"/>
</svg>
