<svg width="214" height="199" viewBox="0 0 214 199" fill="none" xmlns="http://www.w3.org/2000/svg">
<mask id="mask0_337_283" style="mask-type:luminance" maskUnits="userSpaceOnUse" x="29" y="93" width="23" height="23">
<path d="M29.6826 93.7088H33.7992V111.693H29.6826V93.7088ZM29.6826 111.693H51.8322V115.801H29.6826V111.693Z" fill="white"/>
</mask>
<g mask="url(#mask0_337_283)">
<path d="M29.6826 93.7088V115.801H51.8322V93.7088H29.6826Z" fill="white"/>
</g>
<mask id="mask1_337_283" style="mask-type:luminance" maskUnits="userSpaceOnUse" x="0" y="43" width="187" height="156">
<path d="M0.791016 43.8571H186.054V198.143H0.791016V43.8571Z" fill="white"/>
</mask>
<g mask="url(#mask1_337_283)">
<mask id="mask2_337_283" style="mask-type:luminance" maskUnits="userSpaceOnUse" x="0" y="43" width="187" height="155">
<path fill-rule="evenodd" clip-rule="evenodd" d="M14.5986 43.9069H172.237C179.837 43.9069 186.054 50.1062 186.054 57.6832V76.9284H0.782227V57.6832C0.782227 50.1062 6.99878 43.9069 14.5986 43.9069ZM31.74 94.738C42.2731 94.738 50.8063 103.244 50.8063 113.743C50.8063 124.241 42.2731 132.755 31.74 132.755C21.2152 132.755 12.682 124.241 12.682 113.743C12.682 103.244 21.2152 94.738 31.74 94.738ZM84.1056 190.79H97.7887V122.415H84.1056V190.79ZM107.114 190.79H120.797V138.283H107.114V190.79ZM130.121 190.79H143.805V145.088H130.121V190.79ZM153.129 190.79H166.812V156.424H153.129V190.79ZM115.672 122.672H173.179V126.78H115.672V122.672ZM115.672 107.427H173.179V111.535H115.672V107.427ZM115.672 92.1736H173.179V96.2816H115.672V92.1736ZM12.7403 143.552H50.8563V147.66H12.7403V143.552ZM12.7403 156.457H50.8563V160.565H12.7403V156.457ZM12.7403 169.362H50.8563V173.47H12.7403V169.362ZM12.7403 182.267H50.8563V186.375H12.7403V182.267ZM108.105 53.5254C104.289 53.5254 101.197 56.6126 101.197 60.4135C101.197 64.2227 104.289 67.3017 108.105 67.3017C111.922 67.3017 115.013 64.2227 115.013 60.4135C115.013 56.6126 111.922 53.5254 108.105 53.5254ZM136.288 53.5254C132.471 53.5254 129.38 56.6126 129.38 60.4135C129.38 64.2227 132.471 67.3017 136.288 67.3017C140.105 67.3017 143.196 64.2227 143.196 60.4135C143.196 56.6126 140.105 53.5254 136.288 53.5254ZM164.471 53.5254C160.654 53.5254 157.563 56.6126 157.563 60.4135C157.563 64.2227 160.654 67.3017 164.471 67.3017C168.287 67.3017 171.379 64.2227 171.379 60.4135C171.379 56.6126 168.287 53.5254 164.471 53.5254ZM71.6642 55.0939H20.7985C17.8569 55.0939 15.4569 57.4923 15.4569 60.4135C15.4569 63.3431 17.8569 65.7414 20.7985 65.7414H71.6642C74.5975 65.7414 77.0058 63.3431 77.0058 60.4135C77.0058 57.4923 74.5975 55.0939 71.6642 55.0939ZM186.054 81.0281V184.192C186.054 191.769 179.837 197.969 172.237 197.969H66.931V81.0281H186.054ZM62.8144 197.969H14.5986C6.99878 197.969 0.782227 191.769 0.782227 184.192V81.0281H62.8144V197.969Z" fill="white"/>
</mask>
<g mask="url(#mask2_337_283)">
<path d="M0.791016 43.9069V197.969H186.054V43.9069H0.791016Z" fill="white"/>
</g>
</g>
<rect x="12.5791" y="181.857" width="38.7368" height="5.14286" fill="#2969BD"/>
<rect x="12.5791" y="169" width="38.7368" height="5.14286" fill="#2969BD"/>
<rect x="12.5791" y="156.143" width="38.7368" height="5.14286" fill="#2969BD"/>
<rect x="12.5791" y="143.286" width="38.7368" height="5.14286" fill="#2969BD"/>
<path fill-rule="evenodd" clip-rule="evenodd" d="M29.4209 94.4286C19.9178 95.6614 12.5791 103.753 12.5791 113.552C12.5791 124.203 21.2506 132.837 31.9475 132.837C41.917 132.837 50.1272 125.337 51.1977 115.695H29.4209V94.4286ZM51.3156 113.662C51.3158 113.625 51.3159 113.588 51.3159 113.552C51.3159 113.515 51.3158 113.478 51.3156 113.442V113.662Z" fill="#2969BD"/>
<path fill-rule="evenodd" clip-rule="evenodd" d="M33.6307 112.429V94.5005C43.1146 95.3139 50.6449 102.933 51.2726 112.429H33.6307Z" fill="#2969BD"/>
<rect x="15.1055" y="55" width="62.3158" height="11.1429" rx="5.57143" fill="#2969BD"/>
<ellipse cx="108.158" cy="60.5714" rx="7.15789" ry="7.28571" fill="#2969BD"/>
<ellipse cx="136.79" cy="60.5714" rx="7.15789" ry="7.28571" fill="#2969BD"/>
<ellipse cx="164.579" cy="60.5714" rx="7.15789" ry="7.28571" fill="#2969BD"/>
<path d="M0.790039 81.5715H62.6848V198.143H66.8953V81.5715H186.053V76.8572H0.790039V81.5715Z" fill="#2969BD"/>
<rect x="115.317" y="91.8572" width="58.1053" height="5.14286" fill="#2969BD"/>
<rect x="115.317" y="107.286" width="58.1053" height="5.14286" fill="#2969BD"/>
<rect x="115.317" y="121.857" width="58.1053" height="5.14286" fill="#2969BD"/>
<rect x="83.3174" y="121.857" width="14.7368" height="69.4286" fill="#2969BD"/>
<rect x="106.896" y="138.143" width="14.3158" height="53.1429" fill="#2969BD"/>
<rect x="129.633" y="145" width="14.3158" height="46.2857" fill="#2969BD"/>
<rect x="152.37" y="156.143" width="14.3158" height="35.1429" fill="#2969BD"/>
<mask id="mask3_337_283" style="mask-type:luminance" maskUnits="userSpaceOnUse" x="56" y="50" width="23" height="23">
<path d="M56.6289 50.8517H60.7455V68.8355H56.6289V50.8517ZM56.6289 68.8355H78.7785V72.9435H56.6289V68.8355Z" fill="white"/>
</mask>
<g mask="url(#mask3_337_283)">
<path d="M56.6289 50.8517V72.9435H78.7785V50.8517H56.6289Z" fill="white"/>
</g>
<mask id="mask4_337_283" style="mask-type:luminance" maskUnits="userSpaceOnUse" x="27" y="1" width="186" height="155">
<path d="M27.7354 1H212.999V155.286H27.7354V1Z" fill="white"/>
</mask>
<g mask="url(#mask4_337_283)">
<mask id="mask5_337_283" style="mask-type:luminance" maskUnits="userSpaceOnUse" x="27" y="1" width="186" height="155">
<path fill-rule="evenodd" clip-rule="evenodd" d="M41.5439 1.0498H199.183C206.782 1.0498 212.999 7.24912 212.999 14.8261V34.0713H27.7275V14.8261C27.7275 7.24912 33.9441 1.0498 41.5439 1.0498ZM58.6853 51.8809C69.2184 51.8809 77.7516 60.3873 77.7516 70.8854C77.7516 81.3836 69.2184 89.8983 58.6853 89.8983C48.1605 89.8983 39.6273 81.3836 39.6273 70.8854C39.6273 60.3873 48.1605 51.8809 58.6853 51.8809ZM111.051 147.933H124.734V79.5578H111.051V147.933ZM134.059 147.933H147.742V95.4254H134.059V147.933ZM157.067 147.933H170.75V102.231H157.067V147.933ZM180.075 147.933H193.758V113.567H180.075V147.933ZM142.617 79.8151H200.124V83.9231H142.617V79.8151ZM142.617 64.5699H200.124V68.6779H142.617V64.5699ZM142.617 49.3165H200.124V53.4245H142.617V49.3165ZM39.6856 100.695H77.8016V104.803H39.6856V100.695ZM39.6856 113.6H77.8016V117.708H39.6856V113.6ZM39.6856 126.505H77.8016V130.613H39.6856V126.505ZM39.6856 139.41H77.8016V143.518H39.6856V139.41ZM135.051 10.6683C131.234 10.6683 128.142 13.7555 128.142 17.5564C128.142 21.3656 131.234 24.4445 135.051 24.4445C138.867 24.4445 141.959 21.3656 141.959 17.5564C141.959 13.7555 138.867 10.6683 135.051 10.6683ZM163.233 10.6683C159.417 10.6683 156.325 13.7555 156.325 17.5564C156.325 21.3656 159.417 24.4445 163.233 24.4445C167.05 24.4445 170.142 21.3656 170.142 17.5564C170.142 13.7555 167.05 10.6683 163.233 10.6683ZM191.416 10.6683C187.6 10.6683 184.508 13.7555 184.508 17.5564C184.508 21.3656 187.6 24.4445 191.416 24.4445C195.233 24.4445 198.324 21.3656 198.324 17.5564C198.324 13.7555 195.233 10.6683 191.416 10.6683ZM98.6095 12.2368H47.7438C44.8022 12.2368 42.4023 14.6352 42.4023 17.5564C42.4023 20.4859 44.8022 22.8843 47.7438 22.8843H98.6095C101.543 22.8843 103.951 20.4859 103.951 17.5564C103.951 14.6352 101.543 12.2368 98.6095 12.2368ZM212.999 38.171V141.335C212.999 148.912 206.782 155.111 199.183 155.111H93.8763V38.171H212.999ZM89.7597 155.111H41.5439C33.9441 155.111 27.7275 148.912 27.7275 141.335V38.171H89.7597V155.111Z" fill="white"/>
</mask>
<g mask="url(#mask5_337_283)">
<path d="M27.7354 1.0498V155.111H212.999V1.0498H27.7354Z" fill="white"/>
</g>
</g>
<rect x="39.5254" y="139" width="38.7368" height="5.14286" fill="#2969BD"/>
<rect x="39.5254" y="126.143" width="38.7368" height="5.14286" fill="#2969BD"/>
<rect x="39.5254" y="113.286" width="38.7368" height="5.14286" fill="#2969BD"/>
<rect x="39.5254" y="100.429" width="38.7368" height="5.14286" fill="#2969BD"/>
<path fill-rule="evenodd" clip-rule="evenodd" d="M57.21 51.4807C47.3015 52.3304 39.5254 60.6082 39.5254 70.6946C39.5254 81.3458 48.1969 89.9803 58.8938 89.9803C68.8072 89.9803 76.981 82.5643 78.1253 73H57.21V51.4807Z" fill="#2969BD"/>
<path fill-rule="evenodd" clip-rule="evenodd" d="M60.578 69.5714V51.6433C70.0618 52.4567 77.5922 60.0754 78.2199 69.5714H60.578Z" fill="#2969BD"/>
<rect x="42.0518" y="12.1429" width="62.3158" height="11.1429" rx="5.57143" fill="#2969BD"/>
<ellipse cx="135.104" cy="17.7143" rx="7.15789" ry="7.28571" fill="#2969BD"/>
<ellipse cx="163.736" cy="17.7143" rx="7.15789" ry="7.28571" fill="#2969BD"/>
<ellipse cx="191.525" cy="17.7143" rx="7.15789" ry="7.28571" fill="#2969BD"/>
<path d="M27.7363 38.7143H89.6311V155.286H93.8416V38.7143H212.999V34H27.7363V38.7143Z" fill="#2969BD"/>
<rect x="142.264" y="49" width="58.1053" height="5.14286" fill="#2969BD"/>
<rect x="142.264" y="64.4286" width="58.1053" height="5.14286" fill="#2969BD"/>
<rect x="142.264" y="79" width="58.1053" height="5.14286" fill="#2969BD"/>
<rect x="110.264" y="79" width="14.7368" height="69.4286" fill="#2969BD"/>
<rect x="133.843" y="95.2857" width="14.3158" height="53.1429" fill="#2969BD"/>
<rect x="156.579" y="102.143" width="14.3158" height="46.2857" fill="#2969BD"/>
<rect x="179.316" y="113.286" width="14.3158" height="35.1429" fill="#2969BD"/>
<rect x="27.7373" y="1" width="185.263" height="154.286" rx="16" stroke="#2969BD" stroke-width="2"/>
</svg>
