<svg width="208" height="197" viewBox="0 0 208 197" fill="none" xmlns="http://www.w3.org/2000/svg">
<mask id="mask0_336_282" style="mask-type:luminance" maskUnits="userSpaceOnUse" x="28" y="93" width="22" height="23">
<path d="M28.0674 93.77H31.9691V111.518H28.0674V93.77ZM28.0674 111.518H49.0606V115.572H28.0674V111.518Z" fill="white"/>
</mask>
<g mask="url(#mask0_336_282)">
<path d="M28.0674 93.77V115.572H49.0606V93.77H28.0674Z" fill="#2969BD"/>
</g>
<mask id="mask1_336_282" style="mask-type:luminance" maskUnits="userSpaceOnUse" x="0" y="44" width="177" height="153">
<path d="M0.683594 44.5714H176.275V196.836H0.683594V44.5714Z" fill="white"/>
</mask>
<g mask="url(#mask1_336_282)">
<mask id="mask2_336_282" style="mask-type:luminance" maskUnits="userSpaceOnUse" x="0" y="44" width="177" height="153">
<path fill-rule="evenodd" clip-rule="evenodd" d="M13.7699 44.6206H163.179C170.382 44.6206 176.274 50.7387 176.274 58.2164V77.2095H0.674805V58.2164C0.674805 50.7387 6.5668 44.6206 13.7699 44.6206ZM30.0163 94.7857C39.9995 94.7857 48.0872 103.181 48.0872 113.541C48.0872 123.902 39.9995 132.305 30.0163 132.305C20.041 132.305 11.9533 123.902 11.9533 113.541C11.9533 103.181 20.041 94.7857 30.0163 94.7857ZM79.6481 189.579H92.6168V122.1H79.6481V189.579ZM101.455 189.579H114.424V137.76H101.455V189.579ZM123.262 189.579H136.23V144.476H123.262V189.579ZM145.068 189.579H158.037V155.664H145.068V189.579ZM109.566 122.354H164.071V126.408H109.566V122.354ZM109.566 107.309H164.071V111.363H109.566V107.309ZM109.566 92.255H164.071V96.3091H109.566V92.255ZM12.0086 142.961H48.1346V147.015H12.0086V142.961ZM12.0086 155.696H48.1346V159.751H12.0086V155.696ZM12.0086 168.432H48.1346V172.486H12.0086V168.432ZM12.0086 181.168H48.1346V185.222H12.0086V181.168ZM102.395 54.1131C98.7773 54.1131 95.8471 57.1598 95.8471 60.911C95.8471 64.6703 98.7773 67.7089 102.395 67.7089C106.012 67.7089 108.942 64.6703 108.942 60.911C108.942 57.1598 106.012 54.1131 102.395 54.1131ZM129.106 54.1131C125.489 54.1131 122.559 57.1598 122.559 60.911C122.559 64.6703 125.489 67.7089 129.106 67.7089C132.723 67.7089 135.654 64.6703 135.654 60.911C135.654 57.1598 132.723 54.1131 129.106 54.1131ZM155.818 54.1131C152.2 54.1131 149.27 57.1598 149.27 60.911C149.27 64.6703 152.2 67.7089 155.818 67.7089C159.435 67.7089 162.365 64.6703 162.365 60.911C162.365 57.1598 159.435 54.1131 155.818 54.1131ZM67.8562 55.661H19.6461C16.858 55.661 14.5834 58.028 14.5834 60.911C14.5834 63.8021 16.858 66.1691 19.6461 66.1691H67.8562C70.6363 66.1691 72.9189 63.8021 72.9189 60.911C72.9189 58.028 70.6363 55.661 67.8562 55.661ZM176.274 81.2555V183.068C176.274 190.546 170.382 196.664 163.179 196.664H63.3701V81.2555H176.274ZM59.4684 196.664H13.7699C6.5668 196.664 0.674805 190.546 0.674805 183.068V81.2555H59.4684V196.664Z" fill="white"/>
</mask>
<g mask="url(#mask2_336_282)">
<path d="M0.683594 44.6206V196.664H176.275V44.6206H0.683594Z" fill="#2969BD"/>
</g>
</g>
<rect x="11.8584" y="180.764" width="36.7145" height="5.07548" fill="white"/>
<rect x="11.8584" y="168.075" width="36.7145" height="5.07548" fill="white"/>
<rect x="11.8584" y="155.386" width="36.7145" height="5.07548" fill="white"/>
<rect x="11.8584" y="142.697" width="36.7145" height="5.07548" fill="white"/>
<path fill-rule="evenodd" clip-rule="evenodd" d="M27.8213 94.4803C18.8142 95.6968 11.8584 103.683 11.8584 113.353C11.8584 123.865 20.0772 132.386 30.2156 132.386C39.6646 132.386 47.4462 124.984 48.4608 115.468H27.8213V94.4803Z" fill="white"/>
<path fill-rule="evenodd" clip-rule="evenodd" d="M31.8135 112.244V94.5513C40.8018 95.3545 47.9385 102.873 48.5334 112.244H31.8135Z" fill="white"/>
<rect x="14.252" y="55.5683" width="59.0624" height="10.9969" rx="5.49844" fill="white"/>
<ellipse cx="102.446" cy="61.0667" rx="6.7842" ry="7.19027" fill="white"/>
<ellipse cx="129.583" cy="61.0667" rx="6.7842" ry="7.19027" fill="white"/>
<ellipse cx="155.922" cy="61.0667" rx="6.7842" ry="7.19027" fill="white"/>
<path d="M0.683594 81.7916H59.347V196.836H63.3377V81.7916H176.275V77.1391H0.683594V81.7916Z" fill="white"/>
<rect x="109.232" y="91.9426" width="55.0717" height="5.07548" fill="white"/>
<rect x="109.232" y="107.169" width="55.0717" height="5.07548" fill="white"/>
<rect x="109.232" y="121.55" width="55.0717" height="5.07548" fill="white"/>
<rect x="78.9023" y="121.55" width="13.9675" height="68.519" fill="white"/>
<rect x="101.25" y="137.622" width="13.5684" height="52.4467" fill="white"/>
<rect x="122.8" y="144.389" width="13.5684" height="45.6794" fill="white"/>
<rect x="144.35" y="155.386" width="13.5684" height="34.6825" fill="white"/>
<mask id="mask3_336_282" style="mask-type:luminance" maskUnits="userSpaceOnUse" x="58" y="49" width="22" height="23">
<path d="M58.793 49.1986H62.6946V66.9468H58.793V49.1986ZM58.793 66.9468H79.7862V71.001H58.793V66.9468Z" fill="white"/>
</mask>
<g mask="url(#mask3_336_282)">
<path d="M58.793 49.1986V71.001H79.7862V49.1986H58.793Z" fill="#2969BD"/>
</g>
<mask id="mask4_336_282" style="mask-type:luminance" maskUnits="userSpaceOnUse" x="31" y="0" width="177" height="153">
<path d="M31.4111 0H207.002V152.265H31.4111V0Z" fill="white"/>
</mask>
<g mask="url(#mask4_336_282)">
<mask id="mask5_336_282" style="mask-type:luminance" maskUnits="userSpaceOnUse" x="31" y="0" width="177" height="153">
<path fill-rule="evenodd" clip-rule="evenodd" d="M44.4984 0.0491333H193.907C201.11 0.0491333 207.002 6.16723 207.002 13.6449V32.638H31.4033V13.6449C31.4033 6.16723 37.2953 0.0491333 44.4984 0.0491333ZM60.7448 50.2143C70.7281 50.2143 78.8157 58.6093 78.8157 68.9699C78.8157 79.3305 70.7281 87.7337 60.7448 87.7337C50.7695 87.7337 42.6818 79.3305 42.6818 68.9699C42.6818 58.6093 50.7695 50.2143 60.7448 50.2143ZM110.377 145.008H123.345V77.5287H110.377V145.008ZM132.183 145.008H145.152V93.1884H132.183V145.008ZM153.99 145.008H166.959V99.9044H153.99V145.008ZM175.797 145.008H188.765V111.092H175.797V145.008ZM140.295 77.7826H194.8V81.8367H140.295V77.7826ZM140.295 62.7371H194.8V66.7913H140.295V62.7371ZM140.295 47.6835H194.8V51.7377H140.295V47.6835ZM42.7371 98.3892H78.8631V102.443H42.7371V98.3892ZM42.7371 111.125H78.8631V115.179H42.7371V111.125ZM42.7371 123.861H78.8631V127.915H42.7371V123.861ZM42.7371 136.597H78.8631V140.651H42.7371V136.597ZM133.123 9.54161C129.506 9.54161 126.576 12.5884 126.576 16.3395C126.576 20.0988 129.506 23.1374 133.123 23.1374C136.741 23.1374 139.671 20.0988 139.671 16.3395C139.671 12.5884 136.741 9.54161 133.123 9.54161ZM159.835 9.54161C156.217 9.54161 153.287 12.5884 153.287 16.3395C153.287 20.0988 156.217 23.1374 159.835 23.1374C163.452 23.1374 166.382 20.0988 166.382 16.3395C166.382 12.5884 163.452 9.54161 159.835 9.54161ZM186.546 9.54161C182.929 9.54161 179.999 12.5884 179.999 16.3395C179.999 20.0988 182.929 23.1374 186.546 23.1374C190.163 23.1374 193.094 20.0988 193.094 16.3395C193.094 12.5884 190.163 9.54161 186.546 9.54161ZM98.5847 11.0896H50.3746C47.5866 11.0896 45.3119 13.4565 45.3119 16.3395C45.3119 19.2306 47.5866 21.5976 50.3746 21.5976H98.5847C101.365 21.5976 103.647 19.2306 103.647 16.3395C103.647 13.4565 101.365 11.0896 98.5847 11.0896ZM207.002 36.684V138.497C207.002 145.974 201.11 152.092 193.907 152.092H94.0986V36.684H207.002ZM90.1969 152.092H44.4984C37.2953 152.092 31.4033 145.974 31.4033 138.497V36.684H90.1969V152.092Z" fill="white"/>
</mask>
<g mask="url(#mask5_336_282)">
<path d="M31.4111 0.0491333V152.092H207.002V0.0491333H31.4111Z" fill="#2969BD"/>
</g>
</g>
<rect x="42.585" y="136.192" width="36.7145" height="5.07548" fill="white"/>
<rect x="42.585" y="123.503" width="36.7145" height="5.07548" fill="white"/>
<rect x="42.585" y="110.815" width="36.7145" height="5.07548" fill="white"/>
<rect x="42.585" y="98.126" width="36.7145" height="5.07548" fill="white"/>
<path fill-rule="evenodd" clip-rule="evenodd" d="M59.3467 49.8195C49.9553 50.6578 42.585 58.8273 42.585 68.7816C42.585 79.2933 50.8038 87.8147 60.9422 87.8147C70.338 87.8147 78.0852 80.4959 79.1696 71.0568H59.3467V49.8195Z" fill="white"/>
<path fill-rule="evenodd" clip-rule="evenodd" d="M62.5381 67.6731V49.98C71.5264 50.7832 78.6631 58.3018 79.258 67.6731H62.5381Z" fill="white"/>
<rect x="44.9775" y="10.9969" width="59.0624" height="10.9969" rx="5.49844" fill="white"/>
<ellipse cx="133.172" cy="16.4953" rx="6.7842" ry="7.19027" fill="white"/>
<ellipse cx="160.309" cy="16.4953" rx="6.7842" ry="7.19027" fill="white"/>
<ellipse cx="186.647" cy="16.4953" rx="6.7842" ry="7.19027" fill="white"/>
<path d="M31.4102 37.2202H90.0735V152.265H94.0642V37.2202H207.001V32.5677H31.4102V37.2202Z" fill="white"/>
<rect x="139.958" y="47.3712" width="55.0717" height="5.07548" fill="white"/>
<rect x="139.958" y="62.5977" width="55.0717" height="5.07548" fill="white"/>
<rect x="139.958" y="76.9782" width="55.0717" height="5.07548" fill="white"/>
<rect x="109.628" y="76.9782" width="13.9675" height="68.519" fill="white"/>
<rect x="131.977" y="93.0506" width="13.5684" height="52.4467" fill="white"/>
<rect x="153.525" y="99.8179" width="13.5684" height="45.6794" fill="white"/>
<rect x="175.075" y="110.815" width="13.5684" height="34.6825" fill="white"/>
</svg>
