<svg width="200" height="200" viewBox="0 0 200 200" fill="none" xmlns="http://www.w3.org/2000/svg">
<mask id="mask0_133_1276" style="mask-type:luminance" maskUnits="userSpaceOnUse" x="0" y="0" width="200" height="200">
<path d="M0 0H200V200H0V0Z" fill="white"/>
</mask>
<g mask="url(#mask0_133_1276)">
<path d="M196.836 52.4853L183.957 50.6384C182.142 50.3814 180.89 48.695 181.147 46.8802C181.275 46.013 181.741 45.226 182.431 44.696L192.854 36.8746C194.315 35.7664 194.604 33.6946 193.512 32.2171L181.596 16.2852C180.488 14.8237 178.417 14.5185 176.955 15.6267L166.549 23.4481C165.087 24.5563 163.016 24.2672 161.908 22.8057C161.378 22.099 161.137 21.1997 161.265 20.3324L163.112 7.41985C163.369 5.60502 162.117 3.91868 160.302 3.64566L140.646 0.835087C138.847 0.578121 137.161 1.84689 136.904 3.64566L135.057 16.5582C134.8 18.373 133.13 19.6418 131.315 19.3848C130.448 19.2564 129.661 18.7906 129.131 18.0839L121.326 7.66075C120.234 6.18319 118.147 5.89411 116.685 6.98622L106.729 14.4704C102.232 13.9885 97.7035 13.9885 93.1909 14.4704C63.7064 17.8591 40.5973 41.4197 37.7228 71.035C37.6264 71.9665 37.5943 72.898 37.5461 73.8456H36.5505C34.9767 73.8456 33.6277 74.9538 33.3226 76.4956L31.0261 87.4006L21.8724 81.0728C20.5556 80.1573 18.773 80.3179 17.6489 81.4582L7.70831 91.4157C6.58417 92.5399 6.42358 94.3226 7.32289 95.6396L13.6181 104.81L2.72999 107.107C1.20438 107.444 0.128418 108.793 0.128418 110.351V123.633C0.128418 125.207 1.22044 126.556 2.74605 126.893L13.6341 129.174L7.33895 138.344C6.43964 139.677 6.60024 141.444 7.72437 142.584L17.665 152.542C18.7891 153.666 20.5716 153.826 21.8885 152.927L31.0261 146.599L33.3226 157.52C33.6438 159.062 34.9927 160.17 36.5665 160.17H49.7992C51.373 160.17 52.722 159.078 53.0431 157.536L55.3396 146.615L64.4772 152.927C65.7941 153.842 67.5766 153.682 68.7008 152.542L73.8397 147.37V156.83C73.8557 161.551 76.377 165.92 80.4721 168.265V186.718C80.4721 194.042 86.3979 199.984 93.7048 199.984H106.954C114.276 199.984 120.202 194.042 120.202 186.718V168.265C124.281 165.92 126.803 161.551 126.819 156.83V143.692C126.915 138.167 129.806 133.06 134.479 130.137C137.225 128.355 139.827 126.363 142.284 124.163L137.867 119.216C135.683 121.192 133.339 122.974 130.882 124.564C124.297 128.708 120.283 135.919 120.202 143.692V156.83C120.202 160.507 117.231 163.479 113.57 163.479H87.0884C83.427 163.479 80.456 160.507 80.456 156.83V143.419C80.3918 135.791 76.4252 128.724 69.9534 124.677C43.7128 108.151 35.7957 73.412 52.2884 47.1051C62.518 30.7877 80.3757 20.8463 99.6145 20.7821C99.5664 20.8945 99.5182 21.023 99.4861 21.1354C99.3576 22.0027 99.5985 22.9021 100.128 23.5927L107.933 34.0319C108.752 35.0919 108.832 36.5695 108.126 37.7097C107.451 38.8821 106.135 39.5085 104.818 39.3158L91.9383 37.4688C90.1236 37.2119 88.4374 38.4646 88.1965 40.2794L85.3862 60.0016C85.1132 61.8164 86.3818 63.5027 88.1805 63.7597L101.06 65.6066C102.875 65.8636 104.127 67.5499 103.87 69.3648C103.758 70.232 103.292 71.019 102.585 71.549L92.1792 79.3704C90.7178 80.4785 90.4127 82.5503 91.5208 84.0279L103.437 99.9598C104.529 101.421 106.616 101.726 108.078 100.618L118.484 92.7969C119.945 91.6887 122.017 91.9939 123.125 93.4714C123.639 94.162 123.864 95.0453 123.751 95.9126L121.905 108.825C121.648 110.64 122.9 112.326 124.715 112.583L144.387 115.41C144.532 115.426 144.692 115.442 144.853 115.442C146.491 115.442 147.904 114.221 148.129 112.583L149.976 99.6707C150.233 97.8719 151.903 96.6032 153.718 96.8601C154.585 96.9886 155.372 97.4544 155.902 98.161L163.706 108.584C164.798 110.062 166.886 110.351 168.347 109.259L184.23 97.2938C185.707 96.2017 185.996 94.1138 184.904 92.6523L177.084 82.2131C176.265 81.1531 176.2 79.6916 176.891 78.5352C177.549 77.3628 178.882 76.7204 180.199 76.9453L193.078 78.7922C194.893 79.0492 196.579 77.7804 196.836 75.9656L199.647 56.2595C199.904 54.4447 198.651 52.7583 196.836 52.4853ZM87.0884 170.112H113.586V176.745H87.0884V170.112ZM87.0884 183.394H113.586V186.718C113.586 190.38 110.615 193.351 106.954 193.351H93.7208C90.0594 193.351 87.0884 190.38 87.0884 186.718V183.394ZM60.7355 126.138C62.5341 127.632 64.4291 129.013 66.3883 130.282C69.5198 132.257 71.8644 135.261 73.0528 138.778L65.9547 145.876L59.0814 141.123C56.0623 139.051 51.9351 139.806 49.8634 142.825C49.3656 143.548 49.0123 144.367 48.8357 145.218L47.1013 153.521H39.2323L37.4979 145.234C36.7432 141.653 33.2262 139.356 29.6611 140.111C28.7939 140.287 27.991 140.641 27.2683 141.139L20.3789 145.876L14.3568 139.838L19.0942 132.948C21.1658 129.928 20.4111 125.801 17.3919 123.713C16.6693 123.215 15.8663 122.862 14.9991 122.685L6.74477 120.935V113.049L14.9991 111.314C18.5803 110.544 20.8607 107.026 20.1059 103.445C19.9293 102.594 19.576 101.775 19.0942 101.052L14.3568 94.1459L20.3789 88.1072L27.2683 92.8611C30.2874 94.949 34.3985 94.1781 36.4702 91.1587C36.968 90.436 37.3213 89.6169 37.4979 88.7657L38.0761 86.0033C38.606 89.8257 39.4893 93.5999 40.7098 97.2617C29.8056 98.5625 22.033 108.472 23.3338 119.393C24.6346 130.314 34.5109 138.119 45.4151 136.818C51.9672 136.031 57.7163 132.032 60.7355 126.138ZM55.5805 121.465C53.1234 128.355 45.5435 131.936 38.6703 129.463C31.797 126.973 28.2318 119.377 30.7049 112.487C32.5839 107.219 37.5782 103.718 43.1668 103.718H43.2953C46.3465 110.303 50.4898 116.309 55.5805 121.465ZM190.734 71.7256L181.131 70.3605C175.703 69.5735 170.676 73.3638 169.905 78.8083C169.52 81.4261 170.21 84.0761 171.784 86.196L177.598 93.9693L167.015 101.935L161.185 94.162C157.893 89.7615 151.678 88.8621 147.278 92.1705C145.174 93.7444 143.777 96.1053 143.408 98.7232L142.059 108.359L128.955 106.48L130.32 96.8601C131.106 91.4157 127.333 86.3727 121.905 85.5858C119.287 85.2164 116.637 85.8909 114.533 87.4809L106.777 93.3108L98.8276 82.6949L106.584 76.8489C110.968 73.5565 111.868 67.309 108.576 62.9085C106.986 60.8046 104.641 59.4073 102.023 59.0219L92.4201 57.6567L94.299 44.5193L103.902 45.8845C109.33 46.6714 114.373 42.8812 115.144 37.4367C115.513 34.8189 114.839 32.1689 113.265 30.0489L107.419 22.2596L118.018 14.2937L123.848 22.083C127.124 26.4675 133.355 27.3668 137.755 24.0745C139.859 22.4845 141.256 20.1236 141.625 17.5058L142.99 7.8856L156.094 9.76466L154.729 19.3848C153.959 24.8293 157.732 29.8723 163.16 30.6592C165.778 31.0286 168.412 30.3541 170.532 28.7641L178.288 22.9342L186.237 33.5501L178.481 39.38C174.081 42.6885 173.197 48.936 176.489 53.3204C178.063 55.4404 180.424 56.8377 183.025 57.207L192.629 58.5882L190.75 71.7256H190.734ZM142.508 31.5586C127.879 31.5586 116.027 43.4433 116.027 58.1225C116.027 72.7856 127.879 84.6703 142.508 84.6703C157.138 84.6703 169.006 72.7856 169.006 58.1225C168.99 43.4594 157.138 31.5747 142.508 31.5586ZM142.508 78.0374C131.54 78.0374 122.643 69.1239 122.643 58.1225C122.643 47.1211 131.54 38.2076 142.508 38.2076C153.493 38.2076 162.373 47.1211 162.373 58.1225C162.373 69.1239 153.477 78.0213 142.508 78.0374ZM97.029 146.872H103.645V156.83H97.029V146.872ZM85.8519 114.27C65.4087 106.272 55.3075 83.1606 63.3049 62.6676C66.3883 54.7337 71.9447 47.9884 79.1392 43.4594L75.6062 37.8382C53.9425 51.5217 47.4385 80.2216 61.0888 101.935C66.3722 110.335 74.209 116.839 83.4591 120.453C91.6332 123.585 97.029 131.454 97.029 140.239H103.645C103.661 128.724 96.5794 118.397 85.8519 114.27ZM163.257 123.633H186.43V130.282H163.257V123.633ZM157.829 146.101L162.068 141.01L181.933 157.601L177.694 162.692L157.829 146.101ZM143.392 150.197H150.008V173.436H143.392V150.197ZM3.50083 57.3355L29.9983 50.7026L31.6043 57.1428L5.10674 63.7757L3.50083 57.3355ZM9.0091 23.4321L12.8472 18.0358L36.0366 34.6261L32.1824 40.0224L9.0091 23.4321ZM37.3695 1.62205L43.7931 -0.0161133L50.57 26.5478L44.1464 28.1859L37.3695 1.62205Z" fill="#2969BD"/>
</g>
</svg>
