<svg width="200" height="200" viewBox="0 0 200 200" fill="none" xmlns="http://www.w3.org/2000/svg">
<mask id="mask0_363_317" style="mask-type:luminance" maskUnits="userSpaceOnUse" x="0" y="0" width="200" height="200">
<path d="M0 0H200V199.991H0V0Z" fill="white"/>
</mask>
<g mask="url(#mask0_363_317)">
<path d="M191.91 152.633C189.351 150.074 186.391 148.071 183.108 146.68C179.702 145.234 176.063 144.477 172.346 144.477C168.63 144.477 164.979 145.2 161.585 146.68C158.302 148.071 155.342 150.074 152.783 152.633C150.223 155.193 148.265 158.152 146.862 161.435C145.738 164.072 145.06 166.876 144.781 169.714H107.223C107.023 168.234 106.622 166.754 106.021 165.352C105.142 163.271 103.862 161.357 102.26 159.755C100.657 158.152 98.7765 156.873 96.6621 155.994C94.5031 155.07 92.1773 154.592 89.8181 154.592C87.4589 154.592 85.1441 155.07 82.9852 155.994C80.9042 156.873 79.0235 158.152 77.3765 159.755C75.7851 161.357 74.5054 163.271 73.6151 165.352C73.0253 166.754 72.6247 168.189 72.4244 169.714H38.5828C20.0985 169.714 5.05289 154.636 5.05289 136.12C5.05289 117.593 20.0985 102.516 38.5828 102.516H46.2948C46.4951 103.996 46.8958 105.476 47.4967 106.878C48.3758 108.959 49.6556 110.872 51.2581 112.475C52.8606 114.077 54.7413 115.357 56.8557 116.236C59.0146 117.159 61.3405 117.638 63.6997 117.638C66.0589 117.638 68.3847 117.159 70.5437 116.236C72.6247 115.357 74.5054 114.077 76.1413 112.475C77.7771 110.872 79.0235 108.959 79.9027 106.878C80.5036 105.476 80.9042 104.04 81.1045 102.516H117.539C117.739 103.996 118.14 105.476 118.741 106.878C119.62 108.959 120.9 110.872 122.502 112.475C124.105 114.077 125.985 115.357 128.1 116.236C130.259 117.159 132.585 117.638 134.944 117.638C137.303 117.638 139.629 117.159 141.788 116.236C143.869 115.357 145.738 114.077 147.385 112.475C148.988 110.872 150.268 108.959 151.147 106.878C151.748 105.476 152.148 104.04 152.349 102.516H161.463C166.66 102.516 171.701 101.481 176.464 99.4781C181.06 97.5197 185.189 94.7601 188.705 91.1994C192.222 87.6387 195.026 83.5216 196.951 78.9149C198.943 74.1635 199.989 69.0783 199.989 63.8819C199.989 58.6854 198.988 53.6002 196.951 48.8378C194.982 44.2422 192.222 40.1251 188.705 36.5643C185.189 33.0036 181.027 30.244 176.464 28.2856C171.701 26.2827 166.66 25.2367 161.463 25.2367H126.219C126.019 23.7568 125.618 22.2769 125.017 20.886C124.138 18.8051 122.858 16.8801 121.267 15.2778C119.665 13.6866 117.784 12.4069 115.658 11.5279C113.499 10.6043 111.185 10.1258 108.825 10.1258C106.466 10.1258 104.14 10.6043 101.981 11.5279C99.9004 12.4069 98.0197 13.6866 96.3839 15.2778C94.7814 16.8801 93.5016 18.8051 92.6224 20.886C92.0215 22.2769 91.6209 23.7234 91.4206 25.2367H55.2977C55.064 22.3993 54.3407 19.6063 53.2167 16.958C51.8145 13.6421 49.8225 10.6822 47.2964 8.16744C44.7368 5.60816 41.7767 3.60525 38.4938 2.20321C35.0551 0.723274 31.4161 0 27.6992 0C23.9823 0 20.3433 0.723274 16.938 2.20321C13.6552 3.60525 10.695 5.60816 8.13547 8.16744C5.57593 10.7267 3.61733 13.6866 2.21515 16.958C0.735064 20.363 0.0117188 24.0016 0.0117188 27.7626C0.0117188 31.5237 0.735065 35.1178 2.18176 38.5561C3.57281 41.8832 5.57593 44.843 8.10208 47.3578C10.6616 49.9171 13.6218 51.92 16.8935 53.3221C20.2988 54.7575 23.9378 55.5253 27.6547 55.5253C31.3827 55.5253 35.0217 54.802 38.4159 53.3221C41.6988 51.92 44.6589 49.9171 47.2185 47.3578C49.778 44.7985 51.7366 41.8387 53.1388 38.5561C54.2628 35.9189 54.9416 33.126 55.2198 30.2774H91.3427C91.543 31.7573 91.9436 33.2373 92.5445 34.6393C93.4237 36.7201 94.7035 38.6451 96.306 40.2363C97.8973 41.8387 99.778 43.1183 101.904 43.9974C104.062 44.9209 106.377 45.3994 108.748 45.3994C111.107 45.3994 113.421 44.9209 115.58 43.9974C117.661 43.1183 119.542 41.8387 121.178 40.2363C122.78 38.6451 124.06 36.7201 124.939 34.6393C125.54 33.2373 125.941 31.8018 126.141 30.2774H161.385C179.869 30.2774 194.904 45.366 194.904 63.8819C194.904 82.3977 179.869 97.4752 161.385 97.4752H152.26C152.059 95.9953 151.659 94.5153 151.069 93.1133C150.179 91.0436 148.899 89.1186 147.308 87.5163C145.705 85.9139 143.824 84.6343 141.699 83.7552C139.54 82.8428 137.225 82.3643 134.866 82.3643C132.507 82.3643 130.181 82.8428 128.022 83.7552C125.941 84.6343 124.06 85.9139 122.424 87.5163C120.822 89.1186 119.542 91.0436 118.663 93.1133C118.062 94.5153 117.661 95.9619 117.461 97.4752H81.0155C80.8263 95.9953 80.4257 94.5153 79.8248 93.1133C78.9456 91.0436 77.6658 89.1186 76.0634 87.5163C74.4609 85.9139 72.5802 84.6343 70.4658 83.7552C68.2957 82.8428 65.981 82.3643 63.6218 82.3643C61.2626 82.3643 58.9367 82.8428 56.7778 83.7552C54.6968 84.6343 52.8161 85.9139 51.1802 87.5163C49.5777 89.1186 48.2979 91.0436 47.4188 93.1133C46.8179 94.5153 46.4172 95.9619 46.2169 97.4752H38.5828C33.3747 97.4752 28.3336 98.5212 23.5817 100.513C18.9745 102.482 14.857 105.242 11.3405 108.803C7.81274 112.352 5.01951 116.481 3.09429 121.076C1.1023 125.839 0.0562324 130.913 0.0562324 136.12C0.0562324 141.317 1.05779 146.391 3.09429 151.153C5.05289 155.76 7.81274 159.877 11.3405 163.438C14.857 166.999 19.0191 169.758 23.5817 171.717C28.3336 173.72 33.3747 174.754 38.5828 174.754H72.4244C72.6247 176.234 73.0253 177.714 73.6151 179.116C74.5054 181.197 75.7851 183.111 77.3765 184.713C78.979 186.316 80.8597 187.595 82.9852 188.474C85.1441 189.398 87.4589 189.876 89.8181 189.876C92.1773 189.876 94.5031 189.398 96.6621 188.474C98.7431 187.595 100.624 186.316 102.26 184.713C103.862 183.111 105.142 181.197 106.021 179.116C106.622 177.714 107.023 176.279 107.223 174.754H144.781C145.026 177.592 145.738 180.396 146.862 183.033C148.265 186.349 150.268 189.309 152.783 191.835C155.309 194.35 158.302 196.397 161.585 197.788C164.979 199.234 168.63 199.991 172.346 199.991C176.063 199.991 179.702 199.268 183.108 197.788C186.391 196.397 189.351 194.394 191.91 191.835C194.47 189.275 196.428 186.316 197.831 183.033C199.266 179.595 199.989 175.989 199.989 172.24C199.989 168.479 199.266 164.873 197.831 161.435C196.462 158.152 194.47 155.159 191.91 152.633ZM27.6992 50.4846C15.2131 50.4846 5.01951 40.2809 5.01951 27.7626C5.01951 15.1999 15.2131 5.04067 27.6992 5.04067C40.1742 5.04067 50.379 15.2444 50.379 27.7626C50.379 40.2809 40.2187 50.4846 27.6992 50.4846ZM108.825 40.3587C101.904 40.3587 96.2614 34.7172 96.2614 27.7626C96.2614 20.7969 101.904 15.1665 108.825 15.1665C115.747 15.1665 121.378 20.7969 121.378 27.7626C121.378 34.7172 115.747 40.3587 108.825 40.3587ZM134.944 87.3939C141.866 87.3939 147.508 93.0354 147.508 100.001C147.508 106.956 141.866 112.597 134.944 112.597C128.022 112.597 122.38 106.956 122.38 100.001C122.38 93.0354 128.022 87.3939 134.944 87.3939ZM63.6997 87.3939C70.6216 87.3939 76.2637 93.0354 76.2637 100.001C76.2637 106.956 70.6216 112.597 63.6997 112.597C56.7778 112.597 51.1357 106.956 51.1357 100.001C51.1357 93.0354 56.7444 87.3939 63.6997 87.3939ZM89.8181 184.836C82.8962 184.836 77.2652 179.194 77.2652 172.24C77.2652 165.274 82.8962 159.632 89.8181 159.632C96.74 159.632 102.382 165.274 102.382 172.24C102.382 179.194 96.74 184.836 89.8181 184.836ZM172.346 194.95C159.86 194.95 149.667 184.758 149.667 172.24C149.667 159.71 159.827 149.518 172.346 149.518C184.821 149.518 195.026 159.71 195.026 172.24C195.026 184.791 184.821 194.95 172.346 194.95Z" fill="#2969BD"/>
</g>
<path d="M172.346 154.959C167.739 154.959 163.421 156.75 160.149 160.033C156.866 163.315 155.108 167.633 155.108 172.239C155.108 176.835 156.9 181.197 160.149 184.435C163.387 187.718 167.739 189.509 172.346 189.509C176.942 189.509 181.26 187.718 184.543 184.435C187.781 181.152 189.584 176.835 189.584 172.239C189.584 167.633 187.781 163.271 184.543 160.033C181.26 156.75 176.942 154.959 172.346 154.959ZM172.346 184.513C165.624 184.513 160.105 179.038 160.105 172.273C160.105 165.519 165.58 160.033 172.346 160.033C179.067 160.033 184.587 165.519 184.587 172.273C184.587 178.994 179.067 184.513 172.346 184.513Z" fill="#2969BD"/>
<path d="M178.622 172.24C178.622 173.075 178.466 173.876 178.143 174.655C177.832 175.423 177.375 176.113 176.786 176.702C176.196 177.292 175.517 177.748 174.749 178.071C173.981 178.394 173.18 178.55 172.345 178.55C171.511 178.55 170.709 178.394 169.942 178.071C169.174 177.748 168.495 177.292 167.905 176.702C167.315 176.113 166.859 175.423 166.536 174.655C166.225 173.876 166.069 173.075 166.069 172.24C166.069 171.394 166.225 170.593 166.536 169.814C166.859 169.046 167.315 168.356 167.905 167.766C168.495 167.176 169.174 166.72 169.942 166.397C170.709 166.075 171.511 165.919 172.345 165.919C173.18 165.919 173.981 166.075 174.749 166.397C175.517 166.72 176.196 167.176 176.786 167.766C177.375 168.356 177.832 169.046 178.143 169.814C178.466 170.593 178.622 171.394 178.622 172.24Z" fill="#2969BD"/>
<path d="M28.2559 22.6784H17.1831V32.8052H28.2559V37.6461L42.9788 27.7641L28.2559 17.8486V22.6784Z" fill="#2969BD"/>
</svg>
