<svg width="134" height="136" viewBox="0 0 134 136" fill="none" xmlns="http://www.w3.org/2000/svg">
<mask id="mask0_204_368" style="mask-type:luminance" maskUnits="userSpaceOnUse" x="0" y="91" width="46" height="45">
<path d="M0.333252 91.4971H45.278V136H0.333252V91.4971Z" fill="white"/>
</mask>
<g mask="url(#mask0_204_368)">
<path d="M2.00674 131.722C8.38865 134.573 15.6005 136 22.5365 136C29.4747 136 36.4107 134.573 43.0685 131.722C44.1789 131.151 44.7329 130.295 44.7329 129.155C44.7329 121.169 40.0155 113.751 32.8036 110.901L31.4151 110.33C32.8036 108.334 33.6358 106.05 33.6358 103.483C33.6358 97.2092 28.6402 92.0752 22.5365 92.0752C16.4327 92.0752 11.4394 97.2092 11.4394 103.483C11.4394 106.05 12.2716 108.334 13.6602 110.33L12.2716 110.901C5.05747 113.751 0.342285 121.169 0.342285 129.155C0.342285 130.295 0.896342 131.437 2.00674 131.722ZM22.5365 97.7802C25.5895 97.7802 28.0862 100.347 28.0862 103.483C28.0862 106.621 25.5895 109.188 22.5365 109.188C19.4857 109.188 16.9891 106.621 16.9891 103.483C16.9891 100.347 19.4857 97.7802 22.5365 97.7802ZM14.4924 116.035L17.5431 114.893H27.5321L30.5828 116.035C35.3003 118.031 38.351 122.308 38.9074 127.157C28.3643 131.437 16.4327 131.437 5.89197 127.157C6.7242 122.308 9.77493 118.031 14.4924 116.035Z" fill="black"/>
</g>
<mask id="mask1_204_368" style="mask-type:luminance" maskUnits="userSpaceOnUse" x="0" y="0" width="46" height="45">
<path d="M0.333252 0.802246H45.278V44.7715H0.333252V0.802246Z" fill="white"/>
</mask>
<g mask="url(#mask1_204_368)">
<path d="M2.00674 40.4495C8.38865 43.302 15.6005 44.7271 22.5365 44.7271C29.4747 44.7271 36.4107 43.302 43.0685 40.4495C44.1789 39.8785 44.7329 39.022 44.7329 37.8825C44.7329 29.8959 40.0155 22.4803 32.8036 19.6278L31.4151 19.0569C32.8036 17.0608 33.6358 14.7793 33.6358 12.2123C33.6358 5.93628 28.6402 0.802246 22.5365 0.802246C16.4327 0.802246 11.4394 5.93628 11.4394 12.2123C11.4394 14.7793 12.2716 17.0608 13.6602 19.0569L12.2716 19.6278C5.05747 22.4803 0.342285 29.8959 0.342285 37.8825C0.342285 39.022 0.896342 40.164 2.00674 40.4495ZM22.5365 6.50725C25.5895 6.50725 28.0862 9.07427 28.0862 12.2123C28.0862 15.3502 25.5895 17.9173 22.5365 17.9173C19.4857 17.9173 16.9891 15.3502 16.9891 12.2123C16.9891 9.07427 19.4857 6.50725 22.5365 6.50725ZM14.4924 24.7619L17.5431 23.6199H27.5321L30.5828 24.7619C35.3003 26.7579 38.351 31.0378 38.9074 35.8864C28.3643 40.164 16.4327 40.164 5.89197 35.8864C6.7242 31.0378 9.77493 26.7579 14.4924 24.7619Z" fill="black"/>
</g>
<mask id="mask2_204_368" style="mask-type:luminance" maskUnits="userSpaceOnUse" x="89" y="0" width="45" height="45">
<path d="M89.0552 0.802246H134V44.7715H89.0552V0.802246Z" fill="white"/>
</mask>
<g mask="url(#mask2_204_368)">
<path d="M121.585 19.6278L120.199 19.0569C121.585 17.0608 122.417 14.7793 122.417 12.2123C122.417 5.93628 117.424 0.802246 111.32 0.802246C105.216 0.802246 100.223 5.93628 100.223 12.2123C100.223 14.7793 101.055 17.0608 102.442 19.0569L101.055 19.6278C93.8412 22.4803 89.1238 29.8959 89.1238 37.8825C89.1238 39.022 89.6801 40.164 90.7882 40.4495C97.1701 43.302 104.384 44.7271 111.32 44.7271C118.256 44.7271 125.192 43.302 131.85 40.4495C132.96 39.8785 133.514 39.022 133.514 37.8825C133.514 29.8959 128.799 22.4803 121.585 19.6278ZM111.32 6.50725C114.371 6.50725 116.868 9.07427 116.868 12.2123C116.868 15.3502 114.371 17.9173 111.32 17.9173C108.267 17.9173 105.771 15.3502 105.771 12.2123C105.771 9.07427 108.267 6.50725 111.32 6.50725ZM94.6735 35.8864C95.2275 31.0378 98.5564 26.7579 102.996 24.7619L106.327 23.6199H116.314L119.367 24.7619C124.082 26.7579 127.135 31.0378 127.689 35.8864C117.146 40.164 105.495 40.164 94.6735 35.8864Z" fill="black"/>
</g>
<mask id="mask3_204_368" style="mask-type:luminance" maskUnits="userSpaceOnUse" x="89" y="91" width="45" height="45">
<path d="M89.0552 91.4971H134V136H89.0552V91.4971Z" fill="white"/>
</mask>
<g mask="url(#mask3_204_368)">
<path d="M121.585 110.901L120.199 110.33C121.585 108.334 122.417 106.05 122.417 103.483C122.417 97.2092 117.424 92.0752 111.32 92.0752C105.216 92.0752 100.223 97.2092 100.223 103.483C100.223 106.05 101.055 108.334 102.442 110.33L101.055 110.901C93.8412 113.751 89.1238 121.169 89.1238 129.155C89.1238 130.295 89.6801 131.437 90.7882 131.722C97.1701 134.573 104.384 136 111.32 136C118.256 136 125.192 134.573 131.85 131.722C132.96 131.151 133.514 130.295 133.514 129.155C133.514 121.169 128.799 113.751 121.585 110.901ZM111.32 97.7802C114.371 97.7802 116.868 100.347 116.868 103.483C116.868 106.621 114.371 109.188 111.32 109.188C108.267 109.188 105.771 106.621 105.771 103.483C105.771 100.347 108.267 97.7802 111.32 97.7802ZM94.6735 127.157C95.2275 122.308 98.5564 118.031 102.996 116.035L106.049 114.893H116.035L119.088 116.035C123.806 118.031 126.857 122.308 127.411 127.157C117.146 131.437 105.495 131.437 94.6735 127.157Z" fill="black"/>
</g>
<path d="M97.4482 69.2576C97.4482 54.9951 84.4085 43.5874 68.3158 43.5874C52.2231 43.5874 39.1833 54.9951 39.1833 69.2576C39.1833 77.5296 43.9008 85.5138 51.669 90.3647L48.8942 99.2054C48.3401 100.916 48.8942 102.629 50.2827 103.768C51.1149 104.339 51.669 104.625 52.5012 104.625C53.3335 104.625 54.1657 104.339 54.722 103.768L66.6513 94.9278C67.2054 94.9278 67.7617 94.9278 68.3158 94.9278C84.4085 94.9278 97.4482 83.5178 97.4482 69.2576ZM68.3158 89.2228C67.4836 89.2228 66.9295 89.2228 66.0973 89.2228C65.5409 89.2228 64.7087 89.2228 64.1547 89.7937L55.5542 96.0674L57.4946 89.7937C58.0509 88.3663 57.2187 86.9412 56.1083 86.3703C48.8942 82.6637 44.733 76.1022 44.733 69.2576C44.733 58.1331 55.2761 49.2901 68.3158 49.2901C81.3555 49.2901 91.8985 58.1331 91.8985 69.2576C91.8985 80.3798 81.3555 89.2228 68.3158 89.2228Z" fill="black"/>
<path d="M9.49688 48.436C7.0002 54.9952 5.89209 62.1252 5.89209 69.2577C5.89209 76.3878 7.0002 83.5178 9.49688 90.0793L14.7684 88.0809C12.5499 82.0928 11.4395 75.8168 11.4395 69.2577C11.4395 62.6962 12.5499 56.4226 14.4925 50.1466L9.49688 48.436Z" fill="black"/>
<path d="M51.1149 124.021L49.4504 129.439C54.9978 131.152 60.8257 132.006 66.9294 132.006C73.0332 132.006 78.8588 131.152 84.4084 129.439L82.744 124.021C72.4768 127.157 61.3798 127.157 51.1149 124.021Z" fill="black"/>
<path d="M124.36 90.0793C126.857 83.5178 127.967 76.3878 127.967 69.2577C127.967 62.1252 126.857 54.9952 124.36 48.436L119.088 50.4321C121.307 56.4226 122.139 62.9817 122.139 69.5432C122.139 76.1023 121.031 82.3783 119.088 88.6519L124.36 90.0793Z" fill="black"/>
<path d="M93.2849 19.0569L96.0597 13.9229C87.1811 9.07434 77.1944 6.50732 66.9295 6.50732C56.6624 6.50732 46.6757 9.07434 37.7971 14.2084L40.572 19.3424C56.6624 10.2163 77.1944 10.2163 93.2849 19.0569Z" fill="black"/>
</svg>
