<svg width="205" height="192" viewBox="0 0 205 192" fill="none" xmlns="http://www.w3.org/2000/svg">
<path d="M9.50421 137.741C9.50421 137.741 1.52637 127.414 1.52637 118.12H12.6953V63.9044C13.7591 59.7736 18.5458 59.7736 19.6095 63.9044V118.12C18.5458 118.12 16.4183 119.152 16.4183 120.185C16.4183 121.218 16.4183 137.741 16.4183 137.741M9.50421 137.741C9.50421 137.741 15.8865 137.741 16.4183 137.741M9.50421 137.741H16.4183M31.8422 85.0742C29.7147 85.0742 29.1829 87.4837 29.1829 88.6885V118.12H41.9474C41.9474 103.146 42.4793 73.1983 41.9474 73.1983C39.3945 73.1983 37.6926 74.5753 37.6926 75.2637V85.0742M31.8422 85.0742C33.9696 85.0742 36.6289 85.0742 37.6926 85.0742M31.8422 85.0742H37.6926M62.6898 69.5839V63.9042C62.8671 63.0437 63.5408 61.3225 64.8172 61.3225M62.6898 69.5839C63.9308 69.5839 66.7319 69.5839 68.0084 69.5839M62.6898 69.5839H68.0084M64.8172 61.3225C66.0937 61.3225 78.1136 61.3225 83.964 61.3225M64.8172 61.3225H83.964M83.964 61.3225C84.8505 61.3225 86.6233 61.8389 86.6233 63.9042M86.6233 63.9042C86.6233 65.9696 86.6233 76.8127 86.6233 81.4597M86.6233 63.9042V81.4597M86.6233 81.4597H80.7729C79.8865 81.6318 79.7092 82.4924 79.7092 83.5251M79.7092 83.5251C79.7092 85.5904 79.7092 99.5315 79.7092 105.728M79.7092 83.5251V105.728M79.7092 105.728H70.1358V72.1656C70.1358 70.6166 69.2848 69.5839 68.0084 69.5839M140.873 36.022C140.873 31.8912 132.895 31.8912 132.895 36.022V57.1918H140.873M140.873 36.022C140.873 37.0546 140.873 52.0284 140.873 57.1918M140.873 36.022V57.1918M187.144 42.218C187.144 38.5004 194.59 38.6036 194.59 42.218V118.12C195.016 118.12 200.795 118.12 203.632 118.12C202.568 121.734 199.909 128.446 198.845 130.512H169.593V89.2048M187.144 42.218C187.144 45.9356 187.144 91.2701 187.144 113.473M187.144 42.218V113.473M187.144 113.473H178.103V91.7865C177.925 90.9259 177.145 89.2048 175.443 89.2048M175.443 89.2048C173.741 89.2048 170.302 89.2048 169.593 89.2048M175.443 89.2048H169.593M46.2023 69.5839V56.1592C43.1884 55.4708 37.1607 52.2351 37.1607 44.7998C37.1607 37.3645 43.1884 34.1288 46.2023 33.4404V4.52533C46.2023 1.94374 52.0527 -0.12168 53.6483 4.52534C53.8363 5.0731 53.6483 22.5974 53.6483 33.4404C56.4848 33.9567 62.6898 36.9514 62.6898 44.7998C62.6898 52.6482 56.4848 55.6429 53.6483 56.1592V69.5839H46.2023Z" stroke="#2969BD" stroke-width="2" stroke-linecap="round" stroke-linejoin="round"/>
<path d="M162.147 130.512H169.593C169.593 111.924 169.593 73.3015 169.593 71.6492C169.593 69.9969 168.174 69.5838 167.465 69.5838H153.637C153.637 67.1742 153.637 61.8388 153.637 59.7734C153.637 57.708 152.219 57.1917 151.51 57.1917C143 57.1917 125.449 57.1917 123.321 57.1917C121.194 57.1917 120.662 58.9128 120.662 59.7734V81.4596C121.017 81.4596 122.045 81.4596 123.321 81.4596C124.598 81.4596 124.917 82.8365 124.917 83.525V105.727C127.834 105.727 133.512 105.727 136.618 105.727M162.147 130.512C162.147 130.512 162.147 83.525 162.147 78.3616C162.147 73.1982 153.637 73.1982 153.637 78.3616C153.637 83.525 153.637 130.512 153.637 130.512M162.147 130.512H153.637M153.637 130.512H145.127M145.127 130.512H140.872V107.277C140.872 106.76 140.341 105.727 138.213 105.727C137.836 105.727 137.287 105.727 136.618 105.727M145.127 130.512C145.127 130.512 145.127 83.525 145.127 78.3616C145.127 73.1982 136.618 73.1982 136.618 78.3616C136.618 83.525 136.618 105.727 136.618 105.727M41.9473 118.12V72.1655C41.9473 71.305 42.4791 69.5838 44.6065 69.5838C46.734 69.5838 60.7395 69.5838 67.4764 69.5838C69.0719 69.5838 70.1356 70.5132 70.1356 72.1655C70.1356 73.8178 70.1356 95.5728 70.1356 105.727H64.2852C63.2215 105.727 62.6896 106.76 62.6896 107.793C62.6896 110.271 62.6896 116.054 62.6896 118.12H41.9473Z" stroke="#2969BD" stroke-width="2" stroke-linecap="round" stroke-linejoin="round"/>
<path d="M53.6489 179.048C53.6489 167 53.6489 142.388 53.6489 140.323C53.6489 138.257 51.5215 137.741 50.4578 137.741H49.3941M53.6489 179.048C48.7205 177.168 42.86 173.649 37.0315 169.238M53.6489 179.048L57.9038 181.113M14.3406 146.002C12.4482 143.149 10.4344 140.358 9.50488 137.741H16.419M14.3406 146.002C14.3406 146.002 38.2251 146.002 42.48 146.002C46.7348 146.002 46.7348 153.231 42.48 153.231C38.2251 153.231 19.8669 153.231 19.8669 153.231M14.3406 146.002C15.9233 148.389 17.7931 150.82 19.8669 153.231M19.8669 153.231C22.6049 156.414 25.6985 159.561 28.9566 162.525M28.9566 162.525C28.9566 162.525 38.757 162.525 42.48 162.525C46.2029 162.525 46.2029 169.238 42.48 169.238C38.757 169.238 37.0315 169.238 37.0315 169.238M28.9566 162.525C31.5751 164.907 34.2998 167.17 37.0315 169.238M16.419 137.741V120.701C16.419 118.636 18.0146 118.12 20.142 118.12C21.583 118.12 45.4929 118.12 62.6905 118.12M16.419 137.741H24.9287M73.8595 186.793C73.8595 186.793 73.8595 122.767 73.8595 120.702C73.8595 118.636 72.0866 118.12 71.2002 118.12C68.6993 118.12 65.805 118.12 62.6905 118.12M73.8595 186.793C105.771 194.228 131.832 188.17 140.873 183.695M73.8595 186.793L65.7045 183.99L57.9038 181.113M66.3476 184.211C66.3476 184.211 66.4135 135.159 66.4135 128.963C66.4135 122.767 57.9038 122.767 57.9038 128.963C57.9038 135.159 57.9038 181.113 57.9038 181.113M49.3941 137.741C49.3941 137.741 49.3941 135.159 49.3941 128.963C49.3941 122.767 40.8844 122.767 40.8844 128.963C40.8844 135.159 40.8844 137.741 40.8844 137.741M49.3941 137.741H40.8844M40.8844 137.741H33.4384M33.4384 137.741C33.4384 137.741 33.4384 135.159 33.4384 128.963C33.4384 122.767 24.9287 122.767 24.9287 128.963C24.9287 135.159 24.9287 137.741 24.9287 137.741M33.4384 137.741H24.9287M62.6905 118.12V108.31C62.6905 107.449 63.116 105.728 64.8179 105.728C66.5198 105.728 75.455 105.728 79.7099 105.728V83.5255C79.7099 82.837 80.1354 81.4601 81.8373 81.4601C83.5392 81.4601 93.1836 81.4601 97.793 81.4601C97.793 81.4601 97.793 57.708 97.793 52.5452C97.793 47.3824 105.771 47.3818 105.771 52.5452C105.771 57.7086 105.771 81.4601 105.771 81.4601H122.79C123.499 81.288 124.918 81.6666 124.918 84.5581C124.918 87.4496 124.918 99.8762 124.918 105.728H137.15C140.341 105.727 140.873 106.244 140.873 108.31C140.873 109.177 140.873 118.363 140.873 130.512M140.873 183.695C140.873 181.927 140.873 180.024 140.873 178.015M140.873 183.695C144.942 182.214 149.048 180.29 153.105 178.015M140.873 130.512H198.846C197.805 132.888 196.552 135.307 195.113 137.74M140.873 130.512C140.873 132.826 140.873 135.248 140.873 137.74M140.873 137.74H195.113M140.873 137.74C140.873 140.428 140.873 143.197 140.873 146.002M195.113 137.74C193.487 140.489 191.623 143.257 189.56 146.002M140.873 146.002H189.56M140.873 146.002C140.873 148.395 140.873 150.814 140.873 153.231M189.56 146.002C187.729 148.438 185.741 150.857 183.622 153.231M140.873 153.231H183.622M140.873 153.231C140.873 156.354 140.873 159.473 140.873 162.525M183.622 153.231C180.761 156.435 177.663 159.556 174.391 162.525M140.873 162.525H174.391M140.873 162.525C140.873 164.629 140.873 166.701 140.873 168.721M174.391 162.525C172.017 164.679 169.553 166.753 167.022 168.721M140.873 168.721H167.022M140.873 168.721C140.873 171.984 140.873 175.111 140.873 178.015M167.022 168.721C162.543 172.203 157.858 175.35 153.105 178.015M140.873 178.015H153.105" stroke="#2969BD" stroke-width="2" stroke-linecap="round" stroke-linejoin="round"/>
<rect x="119.068" y="177.498" width="13.8283" height="8.26141" rx="4" fill="#2969BD"/>
<rect x="97.7939" y="177.498" width="14.892" height="8.26141" rx="4" fill="#2969BD"/>
<rect x="77.584" y="177.498" width="13.8283" height="8.26141" rx="4" fill="#2969BD"/>
<rect x="119.068" y="162.008" width="13.8283" height="8.26141" rx="4" fill="#2969BD"/>
<rect x="97.7939" y="162.008" width="14.892" height="8.26141" rx="4" fill="#2969BD"/>
<rect x="77.584" y="162.008" width="13.8283" height="8.26141" rx="4" fill="#2969BD"/>
<rect x="119.068" y="145.486" width="13.8283" height="8.26141" rx="4" fill="#2969BD"/>
<rect x="97.7939" y="145.486" width="14.892" height="8.26141" rx="4" fill="#2969BD"/>
<rect x="77.584" y="145.486" width="13.8283" height="8.26141" rx="4" fill="#2969BD"/>
<rect x="119.068" y="129.995" width="13.8283" height="8.26141" rx="4" fill="#2969BD"/>
<rect x="97.7939" y="129.995" width="14.892" height="8.26141" rx="4" fill="#2969BD"/>
<rect x="77.584" y="129.995" width="13.8283" height="8.26141" rx="4" fill="#2969BD"/>
<rect x="119.068" y="113.473" width="13.8283" height="8.26141" rx="4" fill="#2969BD"/>
<rect x="97.7939" y="113.473" width="14.892" height="8.26141" rx="4" fill="#2969BD"/>
<rect x="77.584" y="113.473" width="13.8283" height="8.26141" rx="4" fill="#2969BD"/>
<path d="M111.754 32.3759C105.581 28.6205 98.5122 28.6205 92.3391 32.3759C91.4167 32.9434 90.6997 34.0464 90.3826 35.4236C90.0543 36.8263 90.1525 38.3852 90.6997 39.7465C91.3564 41.4042 92.578 42.3383 93.86 42.3383C94.3491 42.3383 94.836 42.198 95.3028 41.9143C99.5865 39.3352 104.507 39.3352 108.793 41.9143C110.521 42.9472 112.489 42.0131 113.425 39.6604C113.941 38.3693 114.041 36.8263 113.713 35.4077C113.393 34.0464 112.679 32.9434 111.754 32.3759ZM111.287 38.0154C110.979 38.7678 110.331 39.0642 109.746 38.7104C107.301 37.2503 104.676 36.5139 102.052 36.5139C99.4279 36.5139 96.8037 37.2503 94.3581 38.7104C93.7617 39.0642 93.1163 38.7678 92.788 37.9453C92.6182 37.5213 92.578 36.9953 92.6875 36.5266C92.7478 36.2716 92.9064 35.8062 93.295 35.5798C98.8517 32.191 105.233 32.191 110.789 35.5798C111.178 35.8189 111.336 36.2875 111.397 36.5426C111.515 36.9953 111.486 37.5213 111.287 38.0154Z" fill="#2969BD"/>
<path d="M117.895 20.7398C107.827 13.9081 96.2754 13.9081 86.205 20.7398C85.3116 21.3487 84.6148 22.4837 84.3177 23.8417C84.0095 25.2189 84.1279 26.7204 84.646 28.0371C85.3116 29.698 86.5444 30.6448 87.8063 30.6448C88.3222 30.6448 88.8493 30.4886 89.3474 30.1507C97.4189 24.6801 106.674 24.6801 114.746 30.1507C116.445 31.3111 118.511 30.377 119.476 27.9669C119.974 26.7204 120.084 25.203 119.784 23.829C119.476 22.4677 118.79 21.3487 117.895 20.7398ZM117.33 26.3092C117.022 27.0743 116.345 27.3708 115.798 27.0042C107.061 21.0778 97.0415 21.0778 88.3021 27.0042C87.746 27.3867 87.0715 27.0743 86.7432 26.2391C86.5735 25.8119 86.5444 25.3305 86.6427 24.8619C86.7432 24.4092 86.9621 24.0553 87.2502 23.8577C96.6529 17.4786 107.438 17.4786 116.843 23.8577C117.14 24.0553 117.35 24.4092 117.448 24.8619C117.558 25.3464 117.517 25.8278 117.33 26.3092Z" fill="#2969BD"/>
<path d="M125.82 12.2345C125.532 10.8605 124.847 9.71288 123.942 9.07529C110.233 -0.676626 93.8601 -0.676626 80.1425 9.07529C79.2491 9.71288 78.5635 10.8605 78.2754 12.2345C77.9761 13.6085 78.0967 15.0559 78.6126 16.3597C79.2782 18.0334 80.5021 18.9802 81.764 18.9802C82.3 18.9802 82.8472 18.8113 83.3631 18.4447C95.064 10.0954 109.03 10.0954 120.719 18.4447C122.439 19.6625 124.527 18.7539 125.501 16.3024C125.999 15.0559 126.117 13.6085 125.82 12.2345ZM123.364 14.6446C123.055 15.4257 122.381 15.7349 121.823 15.3396C109.447 6.509 94.6664 6.509 82.2799 15.3396C81.7238 15.7349 81.047 15.4257 80.7098 14.5872C80.5512 14.176 80.511 13.7106 80.6115 13.2547C80.7098 12.7892 80.9376 12.4194 81.2369 12.1931C94.2689 2.92256 109.825 2.92256 122.857 12.1931C123.165 12.4067 123.395 12.7892 123.484 13.2547C123.582 13.6946 123.542 14.176 123.364 14.6446Z" fill="#2969BD"/>
</svg>
