<svg width="205" height="191" viewBox="0 0 205 191" fill="none" xmlns="http://www.w3.org/2000/svg">
<path d="M8.97784 136.979C8.97784 136.979 1 126.652 1 117.359H12.169V63.143C13.2327 59.0123 18.0194 59.0123 19.0831 63.143V117.358C18.0194 117.358 15.892 118.391 15.892 119.424C15.892 120.456 15.892 136.979 15.892 136.979M8.97784 136.979C8.97784 136.979 15.3601 136.979 15.892 136.979M8.97784 136.979H15.892M31.3158 84.3128C29.1884 84.3128 28.6565 86.7224 28.6565 87.9272V117.359H41.4211C41.4211 102.385 41.9529 72.4369 41.4211 72.4369C38.8681 72.4369 37.1662 73.8139 37.1662 74.5024V84.3128M31.3158 84.3128C33.4432 84.3128 36.1025 84.3128 37.1662 84.3128M31.3158 84.3128H37.1662M62.1634 68.8226V63.1429C62.3407 62.2823 63.0144 60.5612 64.2909 60.5612M62.1634 68.8226C63.4044 68.8226 66.2055 68.8226 67.482 68.8226M62.1634 68.8226H67.482M64.2909 60.5612C65.5673 60.5612 77.5873 60.5612 83.4377 60.5612M64.2909 60.5612H83.4377M83.4377 60.5612C84.3241 60.5612 86.097 61.0775 86.097 63.1429M86.097 63.1429C86.097 65.2082 86.097 76.0513 86.097 80.6984M86.097 63.1429V80.6984M86.097 80.6984H80.2465C79.3601 80.8705 79.1828 81.731 79.1828 82.7637M79.1828 82.7637C79.1828 84.8291 79.1828 98.7702 79.1828 104.966M79.1828 82.7637V104.966M79.1828 104.966H69.6094V71.4043C69.6094 69.8553 68.7585 68.8226 67.482 68.8226M140.346 35.2606C140.346 31.1299 132.368 31.1299 132.368 35.2606V56.4305H140.346M140.346 35.2606C140.346 36.2933 140.346 51.2671 140.346 56.4305M140.346 35.2606V56.4305M186.618 41.4567C186.618 37.739 194.064 37.8423 194.064 41.4567V117.358C194.489 117.358 200.269 117.358 203.105 117.358C202.042 120.973 199.382 127.685 198.319 129.75H169.066V88.4434M186.618 41.4567C186.618 45.1743 186.618 90.5088 186.618 112.711M186.618 41.4567V112.711M186.618 112.711H177.576V91.0251C177.399 90.1646 176.619 88.4434 174.917 88.4434M174.917 88.4434C173.215 88.4434 169.776 88.4434 169.066 88.4434M174.917 88.4434H169.066M45.6759 68.8226V55.3979C42.6621 54.7094 36.6344 51.4737 36.6344 44.0384C36.6344 36.6032 42.6621 33.3675 45.6759 32.679V3.76397C45.6759 1.18238 51.5263 -0.883033 53.1219 3.76399C53.31 4.31175 53.1219 21.836 53.1219 32.679C55.9585 33.1953 62.1634 36.1901 62.1634 44.0384C62.1634 51.8868 55.9585 54.8816 53.1219 55.3979V68.8226H45.6759Z" stroke="#AFAFAF" stroke-width="2" stroke-linecap="round" stroke-linejoin="round"/>
<path d="M161.62 129.75H169.066C169.066 111.162 169.066 72.54 169.066 70.8878C169.066 69.2355 167.648 68.8224 166.939 68.8224H153.111C153.111 66.4128 153.111 61.0773 153.111 59.012C153.111 56.9466 151.692 56.4303 150.983 56.4303C142.474 56.4303 124.922 56.4303 122.795 56.4303C120.667 56.4303 120.136 58.1514 120.136 59.012V80.6982C120.49 80.6982 121.518 80.6982 122.795 80.6982C124.071 80.6982 124.39 82.0751 124.39 82.7635V104.966C127.308 104.966 132.986 104.966 136.091 104.966M161.62 129.75C161.62 129.75 161.62 82.7635 161.62 77.6002C161.62 72.4368 153.111 72.4368 153.111 77.6002C153.111 82.7635 153.111 129.75 153.111 129.75M161.62 129.75H153.111M153.111 129.75H144.601M144.601 129.75H140.346V106.515C140.346 105.999 139.814 104.966 137.687 104.966C137.31 104.966 136.76 104.966 136.091 104.966M144.601 129.75C144.601 129.75 144.601 82.7635 144.601 77.6002C144.601 72.4368 136.091 72.4368 136.091 77.6002C136.091 82.7635 136.091 104.966 136.091 104.966M41.4209 117.358V71.4041C41.4209 70.5435 41.9528 68.8224 44.0802 68.8224C46.2076 68.8224 60.2131 68.8224 66.95 68.8224C68.5456 68.8224 69.6093 69.7518 69.6093 71.4041C69.6093 73.0564 69.6093 94.8114 69.6093 104.966H63.7588C62.6951 104.966 62.1633 105.999 62.1633 107.031C62.1633 109.51 62.1633 115.293 62.1633 117.358H41.4209Z" stroke="#AFAFAF" stroke-width="2" stroke-linecap="round" stroke-linejoin="round"/>
<path d="M53.1226 178.287C53.1226 166.239 53.1226 141.627 53.1226 139.561C53.1226 137.496 50.9951 136.98 49.9314 136.98H48.8677M53.1226 178.287C48.1941 176.407 42.3337 172.887 36.5051 168.476M53.1226 178.287L57.3774 180.352M13.8142 145.241C11.9219 142.387 9.90807 139.597 8.97852 136.98H15.8926M13.8142 145.241C13.8142 145.241 37.6987 145.241 41.9536 145.241C46.2084 145.241 46.2084 152.47 41.9536 152.47C37.6987 152.47 19.3405 152.47 19.3405 152.47M13.8142 145.241C15.3969 147.628 17.2667 150.059 19.3405 152.47M19.3405 152.47C22.0785 155.653 25.1721 158.8 28.4302 161.764M28.4302 161.764C28.4302 161.764 38.2306 161.764 41.9536 161.764C45.6766 161.764 45.6766 168.476 41.9536 168.476C38.2306 168.476 36.5051 168.476 36.5051 168.476M28.4302 161.764C31.0487 164.146 33.7734 166.409 36.5051 168.476M15.8926 136.98V119.94C15.8926 117.875 17.4882 117.358 19.6156 117.359C21.0566 117.359 44.9665 117.359 62.1641 117.359M15.8926 136.98H24.4023M73.3331 186.032C73.3331 186.032 73.3331 122.006 73.3331 119.94C73.3331 117.875 71.5602 117.359 70.6738 117.359C68.1729 117.359 65.2786 117.359 62.1641 117.359M73.3331 186.032C105.244 193.467 131.305 187.409 140.347 182.934M73.3331 186.032L65.1782 183.229L57.3774 180.352M65.8213 183.45C65.8213 183.45 65.8871 134.398 65.8871 128.202C65.8871 122.006 57.3774 122.006 57.3774 128.202C57.3774 134.398 57.3774 180.352 57.3774 180.352M48.8677 136.98C48.8677 136.98 48.8677 134.398 48.8677 128.202C48.8677 122.006 40.358 122.006 40.358 128.202C40.358 134.398 40.358 136.98 40.358 136.98M48.8677 136.98H40.358M40.358 136.98H32.912M32.912 136.98C32.912 136.98 32.912 134.398 32.912 128.202C32.912 122.006 24.4023 122.006 24.4023 128.202C24.4023 134.398 24.4023 136.98 24.4023 136.98M32.912 136.98H24.4023M62.1641 117.359V107.548C62.1641 106.688 62.5896 104.967 64.2915 104.967C65.9935 104.967 74.9287 104.967 79.1835 104.967V82.7641C79.1835 82.0757 79.609 80.6987 81.3109 80.6987C83.0129 80.6987 92.6572 80.6987 97.2666 80.6987C97.2666 80.6987 97.2666 56.9466 97.2666 51.7838C97.2666 46.621 105.244 46.6204 105.244 51.7838C105.244 56.9472 105.244 80.6987 105.244 80.6987H122.264C122.973 80.5266 124.391 80.9053 124.391 83.7968C124.391 86.6883 124.391 99.1148 124.391 104.967H136.624C139.815 104.966 140.347 105.483 140.347 107.548C140.347 108.416 140.347 117.601 140.347 129.75M140.347 182.934C140.347 181.166 140.347 179.263 140.347 177.253M140.347 182.934C144.416 181.453 148.522 179.529 152.579 177.253M140.347 129.75H198.319C197.279 132.127 196.026 134.546 194.587 136.979M140.347 129.75C140.347 132.065 140.347 134.487 140.347 136.979M140.347 136.979H194.587M140.347 136.979C140.347 139.666 140.347 142.436 140.347 145.24M194.587 136.979C192.961 139.728 191.097 142.495 189.034 145.24M140.347 145.24H189.034M140.347 145.24C140.347 147.634 140.347 150.053 140.347 152.469M189.034 145.24C187.203 147.677 185.214 150.096 183.095 152.469M140.347 152.469H183.095M140.347 152.469C140.347 155.593 140.347 158.712 140.347 161.763M183.095 152.469C180.235 155.673 177.136 158.795 173.865 161.763M140.347 161.763H173.865M140.347 161.763C140.347 163.867 140.347 165.94 140.347 167.959M173.865 161.763C171.491 163.918 169.026 165.992 166.495 167.959M140.347 167.959H166.495M140.347 167.959C140.347 171.223 140.347 174.349 140.347 177.253M166.495 167.959C162.017 171.441 157.331 174.588 152.579 177.253M140.347 177.253H152.579" stroke="#AFAFAF" stroke-width="2" stroke-linecap="round" stroke-linejoin="round"/>
<rect x="118.542" y="176.737" width="13.8283" height="8.26141" rx="4" fill="#AFAFAF"/>
<rect x="97.2676" y="176.737" width="14.892" height="8.26141" rx="4" fill="#AFAFAF"/>
<rect x="77.0576" y="176.737" width="13.8283" height="8.26141" rx="4" fill="#AFAFAF"/>
<rect x="118.542" y="161.247" width="13.8283" height="8.26141" rx="4" fill="#AFAFAF"/>
<rect x="97.2676" y="161.247" width="14.892" height="8.26141" rx="4" fill="#AFAFAF"/>
<rect x="77.0576" y="161.247" width="13.8283" height="8.26141" rx="4" fill="#AFAFAF"/>
<rect x="118.542" y="144.724" width="13.8283" height="8.26141" rx="4" fill="#AFAFAF"/>
<rect x="97.2676" y="144.724" width="14.892" height="8.26141" rx="4" fill="#AFAFAF"/>
<rect x="77.0576" y="144.724" width="13.8283" height="8.26141" rx="4" fill="#AFAFAF"/>
<rect x="118.542" y="129.234" width="13.8283" height="8.26141" rx="4" fill="#AFAFAF"/>
<rect x="97.2676" y="129.234" width="14.892" height="8.26141" rx="4" fill="#AFAFAF"/>
<rect x="77.0576" y="129.234" width="13.8283" height="8.26141" rx="4" fill="#AFAFAF"/>
<rect x="118.542" y="112.711" width="13.8283" height="8.26141" rx="4" fill="#AFAFAF"/>
<rect x="97.2676" y="112.711" width="14.892" height="8.26141" rx="4" fill="#AFAFAF"/>
<rect x="77.0576" y="112.711" width="13.8283" height="8.26141" rx="4" fill="#AFAFAF"/>
<path d="M111.228 31.6145C105.055 27.8591 97.9859 27.8591 91.8127 31.6145C90.8903 32.182 90.1734 33.285 89.8562 34.6622C89.5279 36.0649 89.6262 37.6238 90.1734 38.985C90.83 40.6428 92.0517 41.5768 93.3337 41.5768C93.8228 41.5768 94.3097 41.4366 94.7764 41.1528C99.0601 38.5738 103.98 38.5738 108.266 41.1528C109.995 42.1857 111.963 41.2517 112.898 38.899C113.414 37.6079 113.515 36.0649 113.186 34.6463C112.867 33.285 112.152 32.182 111.228 31.6145ZM110.761 37.254C110.453 38.0063 109.805 38.3028 109.22 37.949C106.774 36.4889 104.15 35.7525 101.526 35.7525C98.9016 35.7525 96.2773 36.4889 93.8317 37.949C93.2354 38.3028 92.5899 38.0063 92.2616 37.1839C92.0919 36.7599 92.0517 36.2339 92.1611 35.7652C92.2214 35.5102 92.38 35.0447 92.7686 34.8184C98.3253 31.4296 104.706 31.4296 110.263 34.8184C110.652 35.0575 110.81 35.5261 110.87 35.7812C110.989 36.2339 110.96 36.7599 110.761 37.254Z" fill="#AFAFAF"/>
<path d="M117.369 19.9786C107.3 13.1468 95.7491 13.1468 85.6786 19.9786C84.7852 20.5875 84.0884 21.7224 83.7913 23.0804C83.4831 24.4576 83.6015 25.9591 84.1197 27.2758C84.7852 28.9367 86.0181 29.8835 87.2799 29.8835C87.7959 29.8835 88.3229 29.7273 88.821 29.3894C96.8926 23.9189 106.148 23.9189 114.219 29.3894C115.919 30.5498 117.985 29.6157 118.95 27.2056C119.448 25.9591 119.557 24.4417 119.258 23.0677C118.95 21.7064 118.264 20.5875 117.369 19.9786ZM116.803 25.5479C116.495 26.313 115.819 26.6095 115.271 26.2429C106.534 20.3165 96.5151 20.3165 87.7758 26.2429C87.2196 26.6254 86.5451 26.313 86.2168 25.4778C86.0471 25.0506 86.0181 24.5692 86.1163 24.1006C86.2168 23.6479 86.4357 23.294 86.7238 23.0964C96.1265 16.7173 106.912 16.7173 116.317 23.0964C116.614 23.294 116.824 23.6479 116.922 24.1006C117.031 24.5851 116.991 25.0665 116.803 25.5479Z" fill="#AFAFAF"/>
<path d="M125.294 11.4732C125.006 10.0992 124.32 8.95153 123.416 8.31394C109.707 -1.43798 93.3338 -1.43798 79.6161 8.31394C78.7228 8.95153 78.0371 10.0992 77.749 11.4732C77.4497 12.8472 77.5703 14.2945 78.0863 15.5984C78.7518 17.2721 79.9757 18.2189 81.2376 18.2189C81.7736 18.2189 82.3208 18.0499 82.8367 17.6833C94.5376 9.33408 108.503 9.33408 120.193 17.6833C121.913 18.9011 124.001 17.9925 124.975 15.541C125.473 14.2945 125.591 12.8472 125.294 11.4732ZM122.837 13.8833C122.529 14.6643 121.855 14.9736 121.296 14.5782C108.921 5.74765 94.14 5.74765 81.7535 14.5782C81.1974 14.9736 80.5207 14.6643 80.1834 13.8259C80.0249 13.4146 79.9847 12.9492 80.0852 12.4933C80.1834 12.0279 80.4112 11.6581 80.7105 11.4317C93.7425 2.16121 109.298 2.16121 122.33 11.4317C122.638 11.6453 122.868 12.0279 122.958 12.4933C123.056 12.9333 123.016 13.4146 122.837 13.8833Z" fill="#AFAFAF"/>
</svg>
