<svg width="169" height="170" viewBox="0 0 169 170" fill="none" xmlns="http://www.w3.org/2000/svg">
<path d="M42.4261 79.9478C43.2107 80.9058 44.3981 81.41 45.5961 81.41C46.4442 81.41 47.303 81.1579 48.0345 80.6335C49.7838 79.3629 50.1125 77.0032 48.7661 75.3494C42.723 67.9476 39.5212 59.0936 39.5212 49.7556C39.5212 40.5991 42.6063 31.8864 48.448 24.5652C49.7732 22.9013 49.4128 20.5416 47.6529 19.2911C45.8823 18.0407 43.3803 18.3836 42.055 20.0374C35.1744 28.6796 31.5273 38.9554 31.5273 49.7556C31.5273 60.7676 35.3016 71.2048 42.4261 79.9478Z" fill="#2969BD"/>
<mask id="mask0_195_991" style="mask-type:luminance" maskUnits="userSpaceOnUse" x="0" y="21" width="25" height="81">
<path d="M0.0292969 21.2979H24.9226V101.326H0.0292969V21.2979Z" fill="white"/>
</mask>
<g mask="url(#mask0_195_991)">
<path d="M4.63181 24.8071C1.79049 32.8342 0.348633 41.2343 0.348633 49.7555C0.348633 67.2214 6.31751 83.81 17.6086 97.7262C18.3931 98.6943 19.5805 99.2086 20.7891 99.2086C21.6267 99.2086 22.4854 98.9565 23.2064 98.4321C24.9663 97.1716 25.2949 94.8119 23.9591 93.1581C13.7495 80.5629 8.35308 65.5575 8.35308 49.7555C8.35308 42.0411 9.64652 34.4477 12.2228 27.1971C12.9225 25.2206 11.7881 23.0827 9.68892 22.4273C7.60034 21.7718 5.33153 22.8407 4.63181 24.8071Z" fill="#2969BD"/>
</g>
<path d="M12.603 20.2188C14.0766 20.2188 15.4973 19.4524 16.1864 18.1213C18.275 14.1481 20.7876 10.3362 23.629 6.77651C24.9542 5.11261 24.6043 2.7529 22.8444 1.50246C21.0739 0.252011 18.5718 0.584788 17.2466 2.23861C14.0978 6.17145 11.3307 10.3867 9.03012 14.7834C8.04414 16.649 8.84989 18.8978 10.8324 19.8255C11.4049 20.0877 12.0093 20.2188 12.603 20.2188Z" fill="#2969BD"/>
<path d="M120.84 19.0894C119.08 20.3499 118.73 22.7096 120.066 24.3635C125.982 31.735 129.109 40.5184 129.109 49.7556C129.109 59.0633 125.78 68.2097 119.726 75.5107C118.369 77.1443 118.677 79.5141 120.426 80.7948C121.147 81.3293 122.016 81.5915 122.875 81.5915C124.063 81.5915 125.239 81.0873 126.035 80.1394C133.17 71.5173 137.103 60.7272 137.103 49.7556C137.103 38.8646 133.413 28.5182 126.448 19.8255C125.112 18.1717 122.61 17.839 120.84 19.0894Z" fill="#2969BD"/>
<mask id="mask1_195_991" style="mask-type:luminance" maskUnits="userSpaceOnUse" x="141" y="0" width="28" height="79">
<path d="M141.629 0H168.6V78.0923H141.629V0Z" fill="white"/>
</mask>
<g mask="url(#mask1_195_991)">
<path d="M145.625 1.33105C143.865 2.59158 143.515 4.95129 144.851 6.6051C154.955 19.1398 160.287 34.0645 160.287 49.7555C160.287 57.7019 158.899 65.5172 156.163 72.9795C155.442 74.946 156.556 77.0838 158.644 77.7595C159.079 77.9006 159.513 77.9712 159.948 77.9712C161.602 77.9712 163.15 76.993 163.722 75.43C166.744 67.171 168.281 58.5288 168.281 49.7555C168.281 32.4006 162.376 15.9028 151.223 2.05711C149.887 0.403299 147.385 0.07052 145.625 1.33105Z" fill="#2969BD"/>
</g>
<path d="M147.693 99.3801C148.891 99.3801 150.079 98.8758 150.863 97.9178C153.938 94.1463 156.662 90.1126 158.963 85.9075C159.981 84.0621 159.207 81.7831 157.246 80.8352C155.284 79.8872 152.878 80.6032 151.86 82.4587C149.782 86.2605 147.312 89.911 144.534 93.3194C143.187 94.9732 143.516 97.333 145.255 98.6036C145.986 99.128 146.845 99.3801 147.693 99.3801Z" fill="#2969BD"/>
<mask id="mask2_195_991" style="mask-type:luminance" maskUnits="userSpaceOnUse" x="24" y="29" width="121" height="141">
<path d="M24.9219 29.0426H144.342V170H24.9219V29.0426Z" fill="white"/>
</mask>
<g mask="url(#mask2_195_991)">
<path d="M52.6756 150.729H64.4861C66.7019 150.729 68.4936 149.045 68.4936 146.968C68.4936 144.89 66.7019 143.206 64.4861 143.206H58.9731C62.6202 138.477 65.928 133.475 68.9389 128.271H80.654C82.8592 128.271 84.6509 126.587 84.6509 124.51C84.6509 122.433 82.8592 120.738 80.654 120.738H73.01C77.8975 110.977 81.7248 100.58 84.3011 89.7496C86.8667 100.57 90.7046 110.977 95.5921 120.738H92.1359C89.9307 120.738 88.139 122.433 88.139 124.51C88.139 126.587 89.9307 128.271 92.1359 128.271H99.6527C102.664 133.475 105.982 138.477 109.618 143.206H75.6499C73.4447 143.206 71.653 144.89 71.653 146.968C71.653 149.045 73.4447 150.729 75.6499 150.729H115.927C122.118 157.647 128.999 163.889 136.526 169.234C137.247 169.748 138.085 170 138.933 170C140.141 170 141.339 169.486 142.124 168.507C143.449 166.844 143.099 164.484 141.339 163.233C112.057 142.399 92.7402 107.609 89.0507 69.6013C98.6879 67.5542 105.918 59.4364 105.918 49.7555C105.918 38.5318 96.2176 29.3955 84.3011 29.3955C72.3845 29.3955 62.6838 38.5318 62.6838 49.7555C62.6838 59.4364 69.9037 67.5441 79.5408 69.5912C75.862 107.609 56.5347 142.389 27.2522 163.233C25.4923 164.484 25.1424 166.844 26.4676 168.497C27.2628 169.486 28.4502 170 29.6694 170C30.507 170 31.3551 169.748 32.076 169.234C39.5928 163.889 46.4734 157.647 52.6756 150.729ZM70.6776 49.7555C70.6776 42.6764 76.7949 36.9284 84.3011 36.9284C91.8072 36.9284 97.9245 42.6764 97.9245 49.7555C97.9245 56.1994 92.8356 61.5339 86.2518 62.4314C85.6899 62.1995 85.075 62.0785 84.4283 62.1188C84.3859 62.1188 84.3435 62.1289 84.3011 62.139C84.2481 62.1289 84.2057 62.1188 84.1633 62.1188C83.5165 62.0785 82.891 62.1995 82.3397 62.4314C75.7559 61.5339 70.6776 56.1994 70.6776 49.7555Z" fill="#2969BD"/>
</g>
</svg>
