<svg width="206" height="173" viewBox="0 0 206 173" fill="none" xmlns="http://www.w3.org/2000/svg">
<mask id="mask0_195_1041" style="mask-type:luminance" maskUnits="userSpaceOnUse" x="0" y="0" width="206" height="173">
<path d="M0.601562 0.879395H205.415V172.29H0.601562V0.879395Z" fill="white"/>
</mask>
<g mask="url(#mask0_195_1041)">
<path d="M23.7894 159.627C24.6095 159.921 25.4441 160.076 26.3077 160.091C27.5124 160.091 28.5139 159.712 29.2323 158.947C31.5982 156.425 29.958 150.724 25.5094 145.975C21.0534 141.226 15.7049 139.485 13.339 142.007C10.9732 144.528 12.606 150.229 17.062 154.979C19.1521 157.206 21.5397 158.862 23.7894 159.627ZM13.9123 142.626C14.4784 142.022 15.284 141.744 16.2419 141.744C18.6658 141.744 22.0695 143.538 24.9288 146.594C28.9275 150.848 30.6257 156.232 28.6517 158.336C27.7156 159.333 26.0754 159.504 24.0434 158.8C22.2073 158.173 20.2769 156.92 18.4916 155.226C19.319 155.953 20.2914 156.379 21.1696 156.379C21.83 156.402 22.396 156.17 22.8677 155.675L25.0522 153.354C26.1698 152.163 25.8359 149.935 24.2829 148.288C23.3975 147.336 22.2509 146.772 21.2349 146.772C20.5745 146.748 20.0084 146.98 19.5367 147.468L17.3523 149.796C16.7789 150.407 16.5685 151.335 16.7717 152.341C16.9894 153.308 17.4321 154.143 18.0998 154.839C17.9474 154.685 17.7877 154.53 17.6425 154.367C13.6438 150.105 11.9384 144.73 13.9196 142.626H13.9123ZM19.0432 150.26C19.7471 150.26 20.6253 150.678 21.3365 151.436C21.8662 151.97 22.2146 152.619 22.3888 153.377C22.5121 154.004 22.4105 154.53 22.0985 154.863C21.7937 155.187 21.3002 155.303 20.7124 155.164C20.0011 154.979 19.3915 154.607 18.8908 154.043C17.8095 152.89 17.4611 151.328 18.1215 150.616C18.3828 150.361 18.6876 150.237 19.0432 150.26ZM19.0069 149.672L20.3059 148.288C20.9664 147.584 22.4396 147.955 23.5209 149.108C24.595 150.252 24.9506 151.823 24.2829 152.534L22.9839 153.919C22.9839 153.695 22.9693 153.478 22.9185 153.254C22.7226 152.387 22.3235 151.645 21.7211 151.026C20.8793 150.121 19.8633 149.649 19.0069 149.672ZM22.9476 136.755C22.0622 135.819 21.7138 134.658 22.1711 134.171C22.621 133.692 23.7096 134.063 24.595 135.006C25.4803 135.95 25.8287 137.103 25.3715 137.59C24.9215 138.077 23.833 137.698 22.9476 136.762V136.755ZM28.1365 166.427C29.0219 167.37 29.3702 168.531 28.913 169.01C28.4558 169.497 27.3745 169.126 26.4891 168.182C25.6037 167.239 25.2554 166.086 25.7053 165.599C26.1625 165.112 27.2511 165.483 28.1365 166.427ZM43.0428 97.847C44.6902 97.847 45.9747 96.8801 45.9747 95.6424V93.2678C45.9747 92.0301 44.6902 91.0633 43.0428 91.0633C41.4027 91.0633 40.1181 92.0379 40.1181 93.2678V95.6424C40.1181 96.8801 41.4027 97.847 43.0428 97.847ZM43.0428 91.9296C44.1894 91.9296 45.1619 92.5484 45.1619 93.2678C45.1619 93.9949 44.1894 94.6059 43.0428 94.6059C41.9034 94.6059 40.931 93.9949 40.931 93.2678C40.931 92.5484 41.8962 91.9296 43.0428 91.9296ZM40.931 94.4435C41.4099 94.8999 42.1719 95.1861 43.0428 95.1861C43.9209 95.1861 44.6757 94.8999 45.1619 94.4435V95.6424C45.1619 96.3696 44.1894 96.9806 43.0428 96.9806C41.9034 96.9806 40.931 96.3696 40.931 95.6424V94.4435ZM38.0208 111.716C39.1239 111.716 39.9875 111.066 39.9875 110.239V108.97C39.9875 108.142 39.1239 107.493 38.0208 107.493C36.925 107.493 36.0614 108.142 36.0614 108.97V110.239C36.0614 111.066 36.925 111.716 38.0208 111.716ZM38.0208 108.073C38.7901 108.073 39.4432 108.483 39.4432 108.97C39.4432 109.457 38.7901 109.867 38.0208 109.867C37.2588 109.867 36.6057 109.457 36.6057 108.97C36.6057 108.483 37.2588 108.073 38.0208 108.073ZM36.6057 109.759C37.0266 110.092 37.4983 110.254 38.0208 110.254C38.5506 110.254 39.0223 110.092 39.4432 109.759V110.239C39.4432 110.726 38.7901 111.136 38.0208 111.136C37.2588 111.136 36.6057 110.726 36.6057 110.239V109.759ZM75.1923 119.559C75.0471 119.521 74.9165 119.559 74.8076 119.668L71.1137 123.605C71.0049 123.729 70.9686 123.876 71.0121 124.038C71.941 127.318 72.2531 130.451 71.9555 133.351C71.9338 133.56 72.0136 133.707 72.1805 133.792C72.2386 133.823 72.2966 133.838 72.3619 133.838C72.4708 133.838 72.5651 133.792 72.645 133.707L76.3389 129.778C76.4042 129.7 76.4478 129.615 76.455 129.515C76.7671 126.498 76.4405 123.249 75.4826 119.853C75.439 119.699 75.3447 119.598 75.1923 119.559ZM75.664 129.267L72.8554 132.261C72.9788 129.662 72.645 126.9 71.8612 124.038L74.8947 120.805C75.6567 123.775 75.918 126.614 75.664 129.267ZM110.005 65.6766C109.853 65.6766 109.7 65.7075 109.562 65.7694L107.77 66.5661C106.957 66.9374 106.732 68.1905 107.24 69.4823C107.654 70.5188 108.409 71.2149 109.12 71.2149C109.279 71.2149 109.425 71.184 109.57 71.1144L111.362 70.3177C111.79 70.1243 112.073 69.6602 112.139 69.0491C112.19 68.4767 112.102 67.9275 111.885 67.4015C111.478 66.365 110.724 65.6766 110.005 65.6766ZM109.25 70.3177C109.098 70.3795 108.888 70.3177 108.67 70.1398C108.365 69.869 108.14 69.5364 107.995 69.1497C107.777 68.6005 107.726 68.0049 107.864 67.6413C107.901 67.5175 107.973 67.4247 108.082 67.3706L109.069 66.9297C109.062 66.9761 109.054 67.0225 109.047 67.0766C109.011 67.5949 109.083 68.0977 109.287 68.5695C109.483 69.111 109.802 69.5441 110.237 69.8768L109.25 70.3177ZM111.043 69.5209C110.731 69.6602 110.128 69.2193 109.787 68.3452C109.628 67.9662 109.562 67.564 109.591 67.1385C109.62 66.8446 109.729 66.6357 109.874 66.5661C109.918 66.5507 109.962 66.5429 110.005 66.5429C110.179 66.5584 110.332 66.628 110.462 66.7518C110.767 67.0148 110.992 67.3474 111.137 67.7419C111.478 68.6082 111.362 69.374 111.043 69.5132V69.5209ZM113.59 61.4764L111.798 62.2731C111.362 62.4665 111.079 62.9306 111.014 63.5494C110.97 64.1218 111.05 64.671 111.268 65.1893C111.682 66.2258 112.436 66.9219 113.147 66.9219C113.307 66.9219 113.452 66.891 113.597 66.8291L115.39 66.0247C115.818 65.8313 116.101 65.3672 116.167 64.7561C116.217 64.1837 116.13 63.6345 115.912 63.1085C115.506 62.072 114.744 61.3836 114.033 61.3836C113.88 61.3836 113.728 61.4145 113.59 61.4764ZM113.278 66.0247C113.126 66.0865 112.915 66.0247 112.698 65.8468C112.393 65.576 112.168 65.2434 112.023 64.8567C111.674 63.9826 111.79 63.2168 112.11 63.0776L113.104 62.6367C113.017 63.2091 113.089 63.7505 113.314 64.2765C113.496 64.7638 113.779 65.1738 114.156 65.5064C114.193 65.5374 114.229 65.5606 114.258 65.5838L113.278 66.0247ZM115.165 63.4489C115.325 63.8356 115.39 64.2301 115.361 64.6556C115.325 64.9495 115.223 65.1583 115.071 65.228C114.926 65.2898 114.708 65.228 114.49 65.0423C114.185 64.7793 113.96 64.4467 113.815 64.0522C113.467 63.1859 113.583 62.4201 113.902 62.2731C113.946 62.2577 113.989 62.2499 114.033 62.2499C114.367 62.2499 114.86 62.6831 115.165 63.4489ZM135.391 39.0678C136.204 38.7042 136.429 37.4511 135.913 36.1516C135.507 35.1229 134.752 34.4267 134.034 34.4267C133.881 34.4267 133.729 34.4576 133.591 34.5195L131.799 35.324C130.986 35.6875 130.761 36.9406 131.269 38.2401C131.682 39.2689 132.437 39.965 133.148 39.965C133.308 39.965 133.453 39.9341 133.598 39.8722L135.391 39.0678ZM133.903 35.324C133.947 35.3008 133.99 35.293 134.034 35.293C134.208 35.3085 134.36 35.3781 134.491 35.5019C134.789 35.7726 135.013 36.1052 135.166 36.492C135.507 37.3583 135.391 38.1241 135.072 38.2711C134.759 38.4103 134.157 37.9694 133.816 37.1031C133.468 36.229 133.584 35.4632 133.903 35.324ZM132.024 37.8998C131.675 37.0334 131.791 36.2677 132.111 36.1207L133.105 35.6798C133.032 36.2444 133.105 36.7936 133.315 37.3196C133.519 37.8456 133.838 38.2865 134.266 38.6346L133.279 39.0678C132.967 39.207 132.365 38.7661 132.024 37.8998ZM102.392 69.8845C102.487 69.8845 102.566 69.8458 102.632 69.7762L114.309 57.3227C114.447 57.1757 114.461 57.021 114.345 56.8586C113.525 55.6983 112.639 54.6076 111.682 53.5866C109.947 51.7302 108.017 50.1367 105.89 48.8218C105.745 48.7289 105.615 48.7521 105.491 48.8836L93.807 61.3372C93.7344 61.4145 93.6982 61.5151 93.7127 61.6311C93.7272 61.7471 93.7852 61.8322 93.8796 61.8941C95.9552 63.1781 97.8348 64.7252 99.5257 66.5352C100.462 67.5407 101.333 68.6082 102.131 69.7375C102.196 69.8303 102.283 69.8768 102.392 69.8845ZM94.5835 61.5151L105.781 49.5798C107.77 50.8406 109.577 52.3412 111.21 54.0894C112.073 55.0176 112.886 56 113.634 57.0442L102.429 68.9872C101.674 67.9507 100.868 66.9684 99.9974 66.0401C98.3646 64.292 96.5648 62.7837 94.5835 61.5151ZM205.35 92.3937C205.285 92.0998 205.118 91.9064 204.85 91.8136L130.703 66.2412C131.102 63.5572 130.862 60.5637 130.028 57.4928L133.997 53.2617C134.781 53.5247 135.565 53.749 136.349 53.9269C137.735 54.2518 139.15 54.422 140.573 54.4297C140.986 54.4297 141.385 54.4143 141.784 54.3833C142.931 54.569 144.092 54.6695 145.253 54.6772C149.6 54.6772 153.323 53.1921 156.001 50.3378C163.425 42.4248 160.312 26.2275 149.071 14.238C137.822 2.24859 122.633 -1.06204 115.216 6.85099C111.819 10.471 110.499 15.8624 111.442 22.1511C111.29 24.7036 111.653 27.4728 112.487 30.2884L108.525 34.5195C107.966 34.3493 107.407 34.1946 106.848 34.0709C101.492 32.8565 96.8696 33.9626 93.8361 37.1959L82.2681 49.5334L27.0624 30.4895C26.7721 30.389 26.5109 30.4586 26.2931 30.6906L6.69867 51.5755C6.60432 51.676 6.54627 51.792 6.50998 51.9313C6.47369 52.0628 6.46644 52.202 6.50272 52.3412C6.53175 52.4805 6.58981 52.5965 6.68415 52.6971C6.77124 52.8053 6.8801 52.875 7.00347 52.9214L61.7374 71.8028L59.7707 73.899C57.2016 76.6295 55.3293 79.8241 54.1536 83.4828C48.3986 82.4618 43.1371 83.6917 39.6247 87.4432L9.87733 119.149C7.34456 121.849 6.03826 125.523 5.86409 129.662L4.65939 130.946C-1.71245 137.745 0.936439 151.629 10.574 161.902C15.1896 166.821 20.7124 170.209 26.1262 171.439C27.5196 171.764 28.9275 171.926 30.3499 171.942C33.5939 171.942 36.4315 170.983 38.6377 169.118C38.761 169.559 38.9425 169.962 39.1892 170.333L38.9788 170.557C38.8191 170.727 38.7393 170.928 38.7393 171.168C38.7393 171.408 38.8191 171.617 38.9788 171.787C39.1384 171.957 39.3271 172.042 39.5521 172.042C39.7771 172.042 39.973 171.957 40.1327 171.787L40.3431 171.563C40.9237 172.011 41.5696 172.251 42.2881 172.282C42.8469 172.298 43.3258 172.104 43.725 171.694L45.5611 169.729C46.3739 168.863 46.2723 167.339 45.3941 166.048C47.4044 165.359 49.1679 164.222 50.6701 162.636L80.4102 130.93C83.9299 127.179 85.0766 121.571 84.1259 115.437C87.5513 114.184 90.5485 112.188 93.1103 109.45L97.2687 105.017C97.5082 105.017 97.7114 104.925 97.8856 104.739L112.393 89.2687L184.783 114.238C184.863 114.269 184.936 114.276 185.016 114.276C185.226 114.276 185.408 114.199 185.553 114.044L205.147 93.1517C205.35 92.9429 205.416 92.6876 205.35 92.3937ZM131.755 52.9446L129.396 55.4585C127.916 51.2738 125.361 47.0195 121.842 43.2679C119.599 40.8546 117.081 38.8048 114.301 37.134L118.939 32.1912C121.842 32.9416 124.795 34.8057 127.285 37.4666C129.89 40.2435 131.682 43.5464 132.321 46.7642C132.8 49.1698 132.597 51.297 131.755 52.9446ZM127.408 61.43L128.787 59.9603C129.157 61.84 129.229 63.7428 128.997 65.6534L127.901 65.2744C127.836 63.9826 127.662 62.714 127.379 61.4532C127.386 61.4455 127.401 61.4377 127.408 61.43ZM127.139 60.4863C126.348 57.5857 125.18 54.8706 123.627 52.3412L125.165 50.7014C126.798 53.4396 127.952 56.2475 128.576 58.9548L127.139 60.4863ZM127.887 36.8246C125.238 34.0013 122.081 32.0365 118.975 31.2708C118.946 31.263 118.917 31.2553 118.895 31.2553C118.837 31.2398 118.786 31.2244 118.736 31.2166C117.088 30.8376 115.55 30.8299 114.207 31.1702L114.896 30.4276C115.833 29.4298 116.892 28.5944 118.061 27.9292C119.229 27.264 120.47 26.7921 121.769 26.5137C123.075 26.2352 124.382 26.1656 125.702 26.3048C127.031 26.444 128.301 26.7844 129.527 27.3259C130.754 27.8673 131.878 28.5867 132.909 29.484C133.932 30.389 134.818 31.4255 135.551 32.6012C136.291 33.7769 136.85 35.0455 137.241 36.3992C137.626 37.7528 137.815 39.1374 137.815 40.5529C137.815 41.2104 137.771 41.8679 137.691 42.5176L133.265 47.2361C133.235 47.0195 133.192 46.8029 133.148 46.5786C132.473 43.1906 130.601 39.7253 127.887 36.8246ZM116.079 26.9546C116.137 24.4561 116.885 22.2516 118.387 20.6504C119.918 19.0183 122.059 18.1829 124.578 18.1829C125.572 18.1829 126.552 18.299 127.517 18.5233C131.37 19.3974 135.318 21.8262 138.635 25.3611C145.442 32.6167 147.423 42.3011 143.062 46.9499C141.552 48.551 139.491 49.3555 137.147 49.4096C137.619 48.6361 138.025 47.8239 138.374 46.9808C138.715 46.1299 138.983 45.2559 139.186 44.3586C139.39 43.4613 139.52 42.5486 139.578 41.6281C139.636 40.7076 139.622 39.7871 139.527 38.8667C139.44 37.9539 139.273 37.0489 139.041 36.1594C138.809 35.2698 138.504 34.4035 138.127 33.5758C137.757 32.7404 137.321 31.9437 136.821 31.1934C136.32 30.4354 135.768 29.7315 135.151 29.0817C134.542 28.4242 133.881 27.8364 133.17 27.3027C132.466 26.7689 131.719 26.3048 130.935 25.9026C130.158 25.5081 129.346 25.1832 128.511 24.9357C127.676 24.6804 126.835 24.5103 125.971 24.4097C125.107 24.3169 124.244 24.3014 123.38 24.3633C122.517 24.4252 121.66 24.5567 120.818 24.7733C119.977 24.9898 119.156 25.2838 118.365 25.6473C117.567 26.0109 116.805 26.4518 116.079 26.9546ZM133.881 50.6782L133.192 51.413C133.402 50.392 133.468 49.371 133.388 48.3344L137.416 44.0415C136.813 46.6018 135.638 48.814 133.881 50.6782ZM136.719 52.055C136.291 51.9622 135.863 51.8462 135.427 51.7224C135.855 51.2429 136.254 50.7401 136.625 50.2063C136.704 50.2063 136.792 50.2141 136.871 50.2141C139.527 50.2141 141.893 49.34 143.599 47.5223C148.258 42.5563 146.277 32.3537 139.172 24.7887C135.754 21.1455 131.675 18.6393 127.676 17.7266C123.62 16.8061 120.129 17.6415 117.85 20.0703C116.094 21.9499 115.281 24.5644 115.332 27.5038C114.831 27.906 114.352 28.3314 113.902 28.7878C112.451 23.2185 113.097 18.0437 116.152 14.7872C118.169 12.6291 120.985 11.6004 124.171 11.6004C129.926 11.6004 136.9 14.9574 142.648 21.0836C147.024 25.7479 150.029 31.3017 151.11 36.7163C152.162 41.9762 151.255 46.4625 148.555 49.34C145.863 52.2097 141.654 53.1766 136.719 52.0628V52.055ZM116.486 8.20463C118.888 5.63657 122.219 4.41442 126 4.41442C132.8 4.41442 141.022 8.36707 147.801 15.5917C158.345 26.8385 161.459 41.8137 154.731 48.9842C152.859 50.9799 150.377 52.202 147.474 52.6042C148.338 52.0782 149.122 51.4362 149.825 50.6859C152.968 47.3443 154.049 42.2392 152.866 36.3141C151.712 30.5437 148.534 24.6572 143.918 19.73C134.288 9.46546 121.261 6.6344 114.882 13.4336C114.171 14.1916 113.576 15.0347 113.082 15.963C113.46 12.8534 114.606 10.2003 116.486 8.20463ZM112.77 32.694C114.178 31.8818 115.971 31.6266 117.988 31.9824L113.554 36.7008C112.538 36.1362 111.5 35.6334 110.426 35.2002L112.77 32.694ZM106.478 35.9428C111.355 37.0489 116.37 40.1275 120.579 44.6216C122.117 46.2537 123.496 48.0328 124.716 49.9588L123.17 51.6064C121.943 49.6881 120.557 47.9167 119.019 46.2769C114.635 41.6049 109.396 38.3871 104.265 37.2268C101.471 36.5925 98.8871 36.608 96.6373 37.2423C99.1701 35.5251 102.588 35.061 106.478 35.9428ZM94.7505 38.9285C97.2832 37.5672 100.498 37.2578 104.098 38.0699C109.069 39.1993 114.164 42.332 118.445 46.8957C123.692 52.4882 126.711 59.21 127.089 64.9959L125.151 64.3229C124.824 62.7682 124.374 61.2521 123.787 59.7824C123.801 59.6509 123.758 59.5349 123.67 59.4421C123.663 59.4266 123.649 59.4189 123.641 59.4111C122.139 55.7292 119.802 52.0396 116.704 48.7444C112.32 44.0647 107.08 40.8546 101.957 39.6866C101.195 39.5164 100.433 39.3849 99.6636 39.3076C99.591 39.2844 99.5184 39.2766 99.4459 39.2844C97.5663 39.091 95.7157 39.2766 93.9014 39.8335L94.7505 38.9285ZM76.8251 67.5562C80.7513 68.4458 84.75 70.6116 88.3568 73.7521L86.216 76.0416C82.4204 72.7078 78.1895 70.4105 74.0238 69.4668C71.2589 68.8402 68.6971 68.848 66.4691 69.4591L67.1222 68.7629C69.6405 67.1231 73.0006 66.6822 76.8251 67.5562ZM69.7348 65.5992L71.6725 63.534C73.4215 62.5903 75.5043 62.1494 77.8121 62.2422L74.9383 65.3053C73.1893 65.0965 71.4548 65.197 69.7348 65.5992ZM88.9882 74.3167C89.6486 74.9201 90.2945 75.5621 90.9259 76.235C93.1829 78.6252 95.077 81.3093 96.6083 84.2873L94.4892 86.5459C92.9362 83.5834 91.0348 80.9148 88.7778 78.5169C88.1464 77.8517 87.5005 77.2097 86.8401 76.5986L88.9882 74.3167ZM92.1959 74.8814C87.74 70.132 82.4132 66.8678 77.1953 65.6843C76.7816 65.5838 76.3679 65.5064 75.9615 65.4445L78.8934 62.3195C79.6047 62.3969 80.3159 62.5207 81.0198 62.6831C85.991 63.8047 91.0856 66.9374 95.3601 71.5011C96.7027 72.9244 97.9219 74.4637 99.025 76.1035L95.8681 79.476C94.7577 77.8362 93.5312 76.3046 92.1959 74.8814ZM95.9406 70.8823C91.55 66.2103 86.3103 62.9925 81.1867 61.8322C80.6569 61.7085 80.1344 61.6157 79.6264 61.5383L99.6563 40.1816C104.969 40.7386 111.043 43.9332 116.13 49.3555C119.135 52.5578 121.406 56.1237 122.872 59.6741L102.697 81.1314C101.935 79.3523 101.028 77.6506 99.9829 76.0416C99.9757 75.8715 99.8958 75.7554 99.7507 75.6936C98.6113 73.9764 97.3413 72.3752 95.9406 70.8823ZM123.213 60.5405C123.641 61.6775 123.997 62.8301 124.266 64.0213L124.033 63.9362C123.743 63.8356 123.482 63.9052 123.264 64.1373L103.96 84.7205C103.699 83.7922 103.394 82.8795 103.045 81.99L123.213 60.5405ZM92.4354 41.396C94.2207 40.4369 96.3108 40.0192 98.575 40.1043L78.5814 61.4223C76.7308 61.2366 74.9165 61.4223 73.1312 61.9792L92.4354 41.396ZM8.65086 51.7843L27.0406 32.1835L41.9832 37.3428L23.5935 56.9436L8.65086 51.7843ZM24.4063 57.2221L42.7961 37.6213L58.1451 42.9121L39.7553 62.5207L24.4063 57.2221ZM40.5681 62.7991L58.9579 43.1906L74.3069 48.4891L55.9171 68.0899L40.5681 62.7991ZM56.7299 68.3684L75.1197 48.7676L81.0633 50.8174L64.1831 68.8093C64.0162 68.995 63.9291 69.2115 63.9218 69.4745L62.9421 70.511L56.7299 68.3684ZM39.7771 89.9881C44.995 86.9636 52.5498 87.8687 59.8505 92.0998L52.8763 99.5332C52.7892 99.5719 52.7239 99.6338 52.6804 99.7189C52.6731 99.7343 52.6659 99.7498 52.6586 99.7653L50.8733 101.676C50.7863 101.715 50.7137 101.776 50.6701 101.861C50.6629 101.877 50.6556 101.892 50.6484 101.908L48.8631 103.818C48.776 103.857 48.7107 103.919 48.6599 104.004C48.6526 104.02 48.6454 104.035 48.6454 104.051L47.4479 105.327C44.6974 103.679 41.7873 102.496 38.7102 101.769C34.8494 100.895 31.3297 101.042 28.3615 102.148L39.7771 89.9881ZM50.3581 125.562L58.791 116.581C63.7912 123.033 66.5489 130.296 66.6796 136.538C66.6723 136.546 66.665 136.546 66.665 136.554L58.4571 145.302C58.3846 144.018 58.2176 142.757 57.9636 141.504C56.8751 136.058 54.2189 130.52 50.3581 125.562ZM54.4076 133.599L51.1273 137.095C49.1534 133.189 46.6932 129.669 43.7395 126.544C38.3401 120.782 31.8812 116.821 25.5602 115.39C24.5804 115.166 23.6007 115.003 22.6065 114.911L25.6255 111.693C26.9463 111.747 28.2453 111.925 29.5371 112.219C35.6114 113.603 41.8381 117.425 47.0633 122.994C50.0242 126.127 52.4699 129.662 54.4076 133.599ZM56.6428 112.776C54.1028 110.053 51.287 107.717 48.1809 105.775L49.1171 104.778C52.2304 106.704 55.0607 109.032 57.6008 111.755C60.7867 115.15 63.4283 119.049 65.2644 123.04L64.3282 124.038C62.3397 119.838 59.7779 116.086 56.6428 112.776ZM58.1814 111.144C55.6413 108.421 52.8183 106.085 49.7122 104.143L51.1273 102.635C54.2407 104.561 57.071 106.889 59.611 109.612C62.7969 113.008 65.4386 116.906 67.2746 120.905L65.874 122.398C63.871 118.206 61.3092 114.454 58.1814 111.144ZM60.1916 109.001C57.6516 106.278 54.8285 103.942 51.7224 102.001L53.1303 100.492C56.2509 102.418 59.0812 104.747 61.6213 107.469C64.8072 110.865 67.4488 114.764 69.2849 118.763L67.8842 120.256C65.8813 116.063 63.3195 112.312 60.1916 109.001ZM62.2018 106.858C59.6618 104.136 56.8388 101.8 53.7254 99.8581L60.5908 92.5407C63.7114 94.4667 66.5417 96.795 69.0817 99.5177C72.3184 102.968 74.9237 106.827 76.7453 110.803L69.8945 118.113C67.8915 113.921 65.3297 110.169 62.2018 106.858ZM26.7576 103.857C34.2688 99.51 46.5843 103.277 56.0695 113.395C56.8388 114.214 57.5717 115.058 58.2612 115.916L49.8283 124.897C49.1389 124.038 48.4059 123.203 47.6366 122.383C42.3026 116.697 35.938 112.791 29.704 111.376C25.8432 110.494 22.3235 110.641 19.3553 111.755L26.7576 103.857ZM17.7587 113.456C19.6891 112.335 21.9606 111.739 24.4788 111.677L21.5252 114.833C19.602 114.725 17.7151 114.942 15.8573 115.483L17.7587 113.456ZM33.6955 137.242C26.373 129.437 17.091 125.933 10.2547 127.689L11.8005 126.034C17.4756 119.985 29.363 122.808 38.3038 132.338C42.6799 137.002 45.6844 142.556 46.7658 147.971C47.8108 153.23 46.9036 157.709 44.2112 160.587L42.6654 162.234C44.3128 154.955 41.0253 145.054 33.6955 137.242ZM13.9559 129.112C19.6093 129.112 26.4456 132.353 32.1425 138.294L27.8027 142.912C24.878 139.88 21.4889 137.722 18.2231 136.816C17.7296 136.677 17.2289 136.569 16.7209 136.492L16.8152 136.391C17.9328 135.2 17.599 132.972 16.0532 131.325C15.1606 130.373 14.0139 129.808 12.9979 129.808C12.3375 129.785 11.7715 130.017 11.2997 130.505L9.11532 132.833C8.72343 133.266 8.50571 133.784 8.46943 134.388L6.22695 131.998C8.22268 130.048 10.9224 129.112 13.9559 129.112ZM28.3832 143.531L30.6693 141.086C37.7741 148.852 40.1689 158.73 36.2718 164.029L33.5939 161.174C35.8654 156.858 33.7753 149.448 28.3832 143.531ZM10.8135 133.289C10.9732 133.289 11.1256 133.312 11.278 133.343C11.9892 133.529 12.5988 133.908 13.0995 134.473C13.6293 135.006 13.9777 135.656 14.1591 136.414C14.2825 137.041 14.1809 137.567 13.8688 137.899C13.2011 138.603 11.7279 138.232 10.6539 137.079C9.57253 135.927 9.22418 134.364 9.88459 133.653C10.1458 133.39 10.4579 133.274 10.8135 133.289ZM10.77 132.717L12.069 131.325C12.7294 130.621 14.2026 130.992 15.284 132.144C16.358 133.297 16.7136 134.86 16.046 135.571L14.7469 136.956C14.7542 136.731 14.7324 136.515 14.6889 136.291C14.4857 135.424 14.0865 134.682 13.4842 134.063C12.9036 133.421 12.2069 132.988 11.3941 132.779C11.1836 132.732 10.9804 132.709 10.77 132.717ZM9.88459 137.899C9.97893 138 10.0733 138.093 10.1676 138.186C10.095 138.255 10.0225 138.325 9.9499 138.394C6.25598 142.339 8.16462 150.809 14.1881 157.431L12.8673 158.838C9.29675 154.932 6.80753 150.368 5.84957 145.928C4.87711 141.419 5.59557 137.598 7.88159 135.161C7.91062 135.13 7.93965 135.107 7.96142 135.076L8.65086 135.803C8.90486 136.608 9.31852 137.304 9.88459 137.899ZM10.7192 139.214C10.8353 139.091 10.9587 138.975 11.0893 138.866C11.6626 139.214 12.2795 139.4 12.9399 139.415C13.6003 139.439 14.1591 139.207 14.6381 138.712L15.7339 137.544C16.4887 137.598 17.2289 137.737 17.9546 137.938C21.1405 138.828 24.4716 140.986 27.3309 144.033C33.1512 150.245 35.1832 158.189 31.8522 161.739C28.5139 165.297 21.068 163.131 15.2404 156.92C9.41287 150.717 7.3881 142.773 10.7192 139.214ZM5.64637 132.609L7.59131 134.682C7.56953 134.713 7.54051 134.736 7.51148 134.767C5.09482 137.342 4.32556 141.349 5.34157 146.052C6.32129 150.593 8.86132 155.257 12.4972 159.233L11.5537 160.238C2.99749 150.91 0.406662 138.712 5.64637 132.609ZM26.5036 169.567C21.5324 168.445 16.4451 165.351 12.1343 160.85L14.7614 158.049C18.8255 162.25 23.6297 164.57 27.5051 164.57C29.5516 164.57 31.3369 163.92 32.6142 162.559C32.8029 162.358 32.977 162.141 33.1367 161.917L38.0426 167.146C35.3429 169.784 31.2571 170.65 26.5036 169.567ZM38.6232 166.535L36.6419 164.423C40.7495 158.916 38.3474 148.682 31.0394 140.692L32.7158 138.905C41.272 148.234 43.8629 160.432 38.6232 166.535ZM43.0718 170.998C42.8106 171.276 42.3969 171.377 41.9034 171.261C41.5768 171.184 41.2793 171.044 41.0035 170.859L41.468 170.356C41.6276 170.194 41.7075 169.985 41.7075 169.745C41.7075 169.505 41.6276 169.304 41.468 169.134C41.3083 168.964 41.1196 168.879 40.8947 168.879C40.6697 168.879 40.4738 168.964 40.3141 169.134L39.8496 169.629C39.3634 168.794 39.2763 167.888 39.719 167.417C39.9367 167.2 40.198 167.1 40.4955 167.115C41.0906 167.115 41.8308 167.471 42.4259 168.113C43.3403 169.08 43.6379 170.402 43.0718 170.998ZM44.9152 169.033L43.8193 170.201C43.8338 169.428 43.4637 168.523 42.7525 167.765C42.0413 167.007 41.185 166.604 40.4665 166.62L41.5551 165.46C41.8236 165.181 42.2373 165.088 42.7307 165.197C43.3331 165.351 43.8411 165.669 44.2693 166.148C45.1764 167.115 45.474 168.438 44.9152 169.033ZM49.4001 161.283C47.8979 162.892 45.9965 163.998 43.7976 164.578C43.6161 164.477 43.4274 164.4 43.2387 164.33L45.4812 161.94C48.6236 158.591 49.6977 153.486 48.522 147.568C47.3681 141.798 44.1894 135.911 39.5739 130.984C29.9363 120.712 16.9168 117.881 10.5305 124.688L7.84531 127.55C8.30251 124.804 9.38384 122.383 11.1473 120.503C13.4842 118.012 16.7644 116.728 20.6398 116.728C22.1711 116.736 23.6878 116.914 25.1828 117.262C31.17 118.623 37.3096 122.398 42.4695 127.898C47.6221 133.398 51.1636 139.934 52.4409 146.323C53.6819 152.557 52.6078 157.872 49.4001 161.283ZM54.1101 156.263C54.9084 153.23 54.9519 149.719 54.1971 145.921C53.6238 143.128 52.7312 140.46 51.5192 137.915L54.7922 134.419C55.859 136.739 56.6501 139.16 57.1653 141.682C58.1378 146.547 57.7242 150.879 56.0114 154.236L54.1101 156.263ZM57.608 152.534C58.2322 150.577 58.5297 148.558 58.4934 146.493L66.6723 137.776C66.5779 140.297 66.0337 142.633 65.0104 144.637L57.608 152.534ZM66.5925 142.958C68.2689 137.853 67.5432 131.34 64.7056 124.873L77.1154 111.639C78.0371 113.743 78.7265 115.932 79.191 118.206C80.1562 123.071 79.7425 127.403 78.0298 130.76L66.5925 142.958ZM79.6482 128.996C80.6715 125.848 80.8021 122.112 79.982 118.028C79.474 115.537 78.7048 113.155 77.6742 110.857C77.6742 110.741 77.6379 110.641 77.5581 110.556C77.5509 110.54 77.5363 110.533 77.5291 110.525C75.664 106.425 72.9861 102.449 69.6623 98.9067C67.0061 96.0601 64.0452 93.6468 60.7794 91.6666C60.7431 91.6279 60.6996 91.6047 60.6561 91.5892C53.8633 87.5438 46.7948 86.2984 41.4027 88.2863C48.3043 81.7966 61.9188 85.2232 72.2095 96.1839C82.4785 107.137 85.6935 121.625 79.6482 128.996ZM73.4796 94.8303C68.3777 89.4002 62.4704 85.7492 56.846 84.1171C61.8172 79.9943 71.0774 82.4309 78.0951 89.9107C85.1129 97.3906 87.3989 107.268 83.5308 112.567C81.9995 106.572 78.5741 100.268 73.4796 94.8303ZM93.2845 106.557L91.8403 108.096C89.5325 110.563 86.8401 112.381 83.763 113.542C83.7558 113.511 83.7485 113.48 83.7413 113.456C88.2698 107.965 86.0345 97.3364 78.5814 89.3925C71.1282 81.4408 61.1641 79.0661 56.0114 83.8851L55.9171 83.8619C57.0129 80.5822 58.7184 77.7124 61.0334 75.2527L62.4776 73.7134C68.5664 70.4646 78.3346 73.5432 85.8894 81.6032C90.1204 86.1128 93.0232 91.4809 94.0683 96.7254C94.823 100.508 94.54 103.896 93.2845 106.557ZM95.9769 103.687L94.7359 105.01C95.4326 102.542 95.4907 99.6724 94.8666 96.5475C93.7852 91.1329 90.8025 85.61 86.4627 80.9844C79.3579 73.4117 70.3082 70.1397 63.9073 72.1896L65.1773 70.8437C67.594 69.7607 70.5622 69.5674 73.8569 70.3177C78.8281 71.447 83.9227 74.572 88.2045 79.1357C95.5778 87.0023 98.5605 97.0966 95.9769 103.687ZM97.9364 101.598L97.2542 102.333C98.2992 97.9939 97.4429 92.6103 94.8883 87.3504L97.0002 85.0995C99.8813 91.218 100.339 97.4138 97.9364 101.598ZM102.835 96.764L100.861 98.8603C102.044 93.4147 100.397 86.4763 96.3108 80.149L99.4677 76.7842C103.96 83.8232 105.295 91.5506 102.835 96.764ZM104.272 95.2248C105.005 92.6412 105.034 89.6477 104.395 86.515L110.477 88.6112L104.272 95.2248ZM105.622 85.2387L124.012 65.6302L138.954 70.7895L120.572 90.3903L105.622 85.2387ZM121.377 90.6688L139.767 71.068L155.116 76.3588L136.733 95.9673L121.377 90.6688ZM137.539 96.2458L155.929 76.6373L171.278 81.9358L152.888 101.537L137.539 96.2458ZM153.701 101.823L172.091 82.2143L187.44 87.5128L169.057 107.114L153.701 101.823ZM184.812 112.551L169.863 107.392L188.252 87.7913L203.195 92.9429L184.812 112.551Z" fill="#2969BD"/>
</g>
</svg>
