<svg width="159" height="194" viewBox="0 0 159 194" fill="none" xmlns="http://www.w3.org/2000/svg">
<path d="M33.6 44.36L7.74828 79.8114M7.74828 79.8114L27.7966 99.1486M7.74828 79.8114V117.949M7.74828 191H151.252M7.74828 191V174.886M7.74828 191H3M151.252 191V174.886M151.252 191H156M151.252 80.3486L131.203 52.1979M151.252 80.3486L140.7 90.5543M151.252 80.3486V117.949M125.4 44.36L131.203 52.1979M7.74828 174.886H27.7966M7.74828 174.886V155.549M120.652 174.886L94.8 174.886M27.7966 174.886V137.286M27.7966 174.886L7.74828 155.549M27.7966 174.886H63.6724M27.7966 73.3657V99.1486M27.7966 99.1486L7.74828 117.949M27.7966 99.1486V137.286M7.74828 117.949L27.7966 137.286M7.74828 117.949V155.549M27.7966 137.286L7.74828 155.549M151.252 174.886H131.203M151.252 174.886V156.086M131.203 174.886V137.286M131.203 174.886L151.252 156.086M131.203 52.1979V99.1486M131.203 99.1486L151.252 117.949M131.203 99.1486V137.286M151.252 117.949L131.203 137.286M151.252 117.949V156.086M131.203 137.286L151.252 156.086M63.6724 174.886L66.2624 160.383M63.6724 174.886L94.8 174.886M68.9483 145.343H49.9552M68.9483 145.343L66.2624 160.383M68.9483 145.343H88.9966M68.9483 145.343V130.303M49.9552 145.343L45.7345 160.383H66.2624M49.9552 145.343V130.303M109.045 145.343L113.266 160.383H92.6897M109.045 145.343H90.0517M109.045 145.343C109.045 145.343 109.045 138.993 109.045 130.303M92.6897 160.383L88.9966 145.343M92.6897 160.383L94.8 174.886M88.9966 145.343H90.0517M90.0517 145.343V130.303M68.9483 28.2457V17.5029C71.5862 -1.8343 87.4138 -1.8343 90.0517 17.5029V28.2457M68.9483 28.2457H90.0517M68.9483 28.2457V41.1371M90.0517 28.2457V41.1371M68.9483 41.1371H90.0517M68.9483 41.1371C68.9483 41.1371 68.9483 56.1964 68.9483 65.8457M90.0517 41.1371V65.8457M68.9483 65.8457C57.869 73.3657 49.9552 76.5885 49.9552 81.96C49.9552 87.3314 49.9552 130.303 49.9552 130.303M68.9483 65.8457C68.9483 91.0178 68.9483 130.303 68.9483 130.303M49.9552 130.303H68.9483M90.0517 65.8457C98.4931 71.2171 109.045 77.1257 109.045 81.96C109.045 85.2022 109.045 112.605 109.045 130.303M90.0517 65.8457V130.303M90.0517 130.303H109.045" stroke="#2969BD" stroke-width="6" stroke-linecap="round" stroke-linejoin="round"/>
</svg>
