<svg width="153" height="190" viewBox="0 0 153 190" fill="none" xmlns="http://www.w3.org/2000/svg">
<path d="M76.4278 89.776C74.7623 89.776 73.2008 89.1436 72.0297 88.0052C70.8456 86.8667 70.195 85.3362 70.195 83.7171V29.1493C70.195 28.7066 70.0258 28.3018 69.7005 27.9856C69.0629 27.3658 67.9569 27.3658 67.3193 27.9856C66.994 28.3018 66.8248 28.7066 66.8248 29.1493V70.8405C66.8248 72.4469 66.1742 73.9648 65.0031 75.1158C62.6479 77.4053 58.5491 77.4053 56.1939 75.1158C55.0228 73.9648 54.3722 72.4469 54.3722 70.8405V46.1749C54.3722 45.7322 54.203 45.3148 53.8907 45.0112C53.2401 44.3787 52.1341 44.3914 51.4965 45.0112C51.1712 45.3148 51.002 45.7322 51.002 46.1749V57.0277C51.002 58.6342 50.3514 60.152 49.1803 61.3031C46.8251 63.5799 42.7393 63.5799 40.3841 61.3031C39.2 60.152 38.5493 58.6342 38.5493 57.0277C38.5493 56.585 38.3802 56.1676 38.0549 55.864C37.7426 55.5478 37.3132 55.3834 36.8708 55.3834H0.631836V50.9689H36.8578C38.5233 50.9689 40.0848 51.6013 41.2559 52.7397C42.44 53.8908 43.0776 55.4087 43.0776 57.0277C43.0776 57.4578 43.2598 57.8752 43.572 58.1915C44.2096 58.7986 45.3287 58.8113 45.9663 58.1788C46.2786 57.8752 46.4608 57.4578 46.4608 57.0277V46.1749C46.4608 44.5558 47.1114 43.0379 48.2825 41.8869C50.6377 39.6101 54.7365 39.6101 57.0787 41.8995C58.2498 43.0253 58.9004 44.5558 58.9004 46.1749V70.8405C58.9004 71.2832 59.0826 71.6879 59.4079 72.0042C60.0455 72.624 61.1515 72.624 61.7891 72.0042C62.1144 71.6879 62.2836 71.2832 62.2836 70.8405V29.1493C62.2836 27.5303 62.9342 26.0124 64.1053 24.8613C66.4475 22.5845 70.5593 22.5845 72.9015 24.874C74.0856 26.0124 74.7362 27.5303 74.7362 29.1493V83.7298C74.7362 84.1599 74.9054 84.5773 75.2177 84.8809C75.8683 85.5133 76.9743 85.5133 77.6119 84.8809C77.9372 84.5773 78.1064 84.1599 78.1064 83.7298V52.2338C78.1064 50.6147 78.757 49.0968 79.9281 47.9584C82.2833 45.6563 86.3821 45.6689 88.7243 47.9458C89.9084 49.0968 90.5591 50.6147 90.5591 52.2338V61.0248C90.5591 61.4675 90.7282 61.8723 91.0405 62.1885C91.6781 62.8083 92.7971 62.8083 93.4347 62.1885C93.76 61.8723 93.9292 61.4675 93.9292 61.0248V42.3549C93.9292 40.7358 94.5798 39.2179 95.7509 38.0795C98.1061 35.7901 102.205 35.7901 104.56 38.0795C105.731 39.2179 106.382 40.7485 106.382 42.3549V66.2995C106.382 66.7422 106.551 67.1469 106.863 67.4505C107.514 68.083 108.62 68.083 109.258 67.4505C109.583 67.1469 109.752 66.7422 109.752 66.2995V57.0151C109.752 55.4087 110.403 53.8908 111.574 52.7397C112.745 51.6013 114.319 50.9689 115.972 50.9689H152.211V55.3834H115.985C115.529 55.3834 115.113 55.5478 114.788 55.8514C114.475 56.1676 114.293 56.585 114.293 57.0151V66.2995C114.293 67.9185 113.643 69.4364 112.472 70.5748C110.116 72.8517 106.031 72.8643 103.675 70.5748C102.504 69.4364 101.854 67.9185 101.854 66.2995V42.3549C101.854 41.9122 101.671 41.5074 101.359 41.1912C100.722 40.584 99.6025 40.5714 98.9649 41.1912C98.6396 41.5074 98.4705 41.9122 98.4705 42.3549V61.0248C98.4705 62.6439 97.8198 64.1618 96.6488 65.3002C94.2935 67.5897 90.1947 67.5897 87.8525 65.3002C86.6814 64.1618 86.0308 62.6439 86.0308 61.0248V52.2338C86.0308 51.7911 85.8486 51.3736 85.5363 51.0701C84.8988 50.4503 83.7797 50.4376 83.1421 51.0701C82.8168 51.3736 82.6476 51.7911 82.6476 52.2338V83.7171C82.6476 85.3362 81.997 86.8541 80.8259 88.0052C79.6418 89.1436 78.0804 89.776 76.4278 89.776Z" fill="#2969BD"/>
<path d="M70.8975 111.33H81.9578V124.156H70.8975V111.33Z" fill="#2969BD"/>
<path d="M76.4143 0.714233C44.6385 0.714233 18.9004 25.7466 18.9004 56.6229C18.9004 87.5244 44.6385 112.557 76.4143 112.557C108.19 112.557 133.954 87.5244 133.954 56.6229C133.954 25.7466 108.19 0.714233 76.4143 0.714233ZM76.4143 101.375C51.0015 101.375 30.3902 81.3517 30.3902 56.6229C30.3902 31.9193 51.0015 11.896 76.4143 11.896C101.84 11.896 122.451 31.9193 122.451 56.6229C122.451 81.3517 101.84 101.375 76.4143 101.375Z" fill="#2969BD"/>
<path d="M87.3062 129.241V178.724C87.3062 184.555 82.4396 189.286 76.428 189.286C70.4164 189.286 65.5498 184.555 65.5498 178.724V129.253H87.3062V129.241Z" fill="#2969BD"/>
<path d="M87.2932 129.241H65.5498V127.938C65.5498 126.977 65.9272 126.003 66.6819 125.269C67.4496 124.535 68.4385 124.156 69.4274 124.156H83.4285C84.4175 124.156 85.4064 124.535 86.1611 125.269C86.9158 126.003 87.3062 126.977 87.3062 127.938V129.241H87.2932Z" fill="#2969BD"/>
</svg>
