<svg width="161" height="181" viewBox="0 0 161 181" fill="none" xmlns="http://www.w3.org/2000/svg">
<mask id="mask0_195_1215" style="mask-type:luminance" maskUnits="userSpaceOnUse" x="0" y="0" width="161" height="181">
<path d="M0.369141 0.285645H160.369V180.286H0.369141V0.285645Z" fill="white"/>
</mask>
<g mask="url(#mask0_195_1215)">
<path d="M154.323 99.4942C154.323 100.694 154.074 101.866 153.577 102.967L146.49 118.864C145.678 120.7 145.268 122.641 145.268 124.625V136.738H121.117V125.331C121.117 122.803 120.421 120.297 119.111 118.081L110.246 103.158C109.47 101.831 109.045 100.32 109.045 98.7954V61.2551C114.045 61.2551 118.101 65.1517 118.101 69.966V87.6561C118.101 93.9034 123.394 98.993 129.887 98.993C134.975 98.993 139.462 95.88 141.066 91.2422L143.423 84.4442C144.638 80.9288 145.268 77.2581 145.268 73.545C145.268 70.2343 143.342 67.2553 140.268 65.7588L129.228 60.4574L135.187 54.7325L149.484 62.0598C151.161 62.921 152.508 64.2482 153.357 65.8929C153.994 67.1071 154.323 68.4695 154.323 69.8248V99.4942ZM151.3 154.16H133.189C129.865 154.16 127.156 156.765 127.156 159.962V174.483H6.41698V6.08823H127.156V36.8235L122.273 41.5178L112.061 36.28C110.575 35.5176 108.913 35.1223 107.244 35.1223C101.578 35.1223 96.9734 39.5554 96.9734 44.9909V45.3298C96.9734 49.0993 99.1403 52.4736 102.64 54.1678L106.483 56.0172C104.858 56.7514 103.642 58.1562 103.211 59.8715L91.7977 70.8343C84.4477 57.8385 70.3335 49.6429 54.7113 49.6429H51.6952V49.7911C33.1227 51.2735 18.4887 66.2459 18.4887 84.4795C18.4887 102.713 33.1227 117.686 51.6952 119.175V130.935H54.7113C77.5736 130.935 96.19 113.379 96.9001 91.5598L103.006 85.6796V98.7954C103.006 101.323 103.701 103.829 105.011 106.038L113.877 120.961C114.66 122.288 115.085 123.799 115.085 125.331V136.738H109.045V159.962H121.117V154.16H115.085V142.548H151.3V154.16ZM111.461 51.9088L105.341 48.9723C103.906 48.2805 103.006 46.8828 103.006 45.3298V44.9909C103.006 42.7532 104.909 40.9319 107.244 40.9319C107.925 40.9319 108.606 41.1014 109.221 41.4049L117.815 45.8168L111.461 51.9088ZM57.7347 93.1905H76.5048L74.7113 100.087L90.3701 96.3176C87.5517 111.735 74.2061 123.7 57.7347 124.999V93.1905ZM78.0129 87.3808H57.7347V55.5584C70.5019 56.582 81.7244 63.987 87.3247 75.1333L79.1549 82.9971L78.0129 87.3808ZM51.6952 113.365C36.4609 111.904 24.5282 99.5084 24.5282 84.4795C24.5282 69.4507 36.4609 57.0549 51.6952 55.5937V113.365ZM103.006 77.4698L89.3892 90.5715L83.0129 92.1034L84.6015 85.969L103.006 68.2648V77.4698ZM123.489 65.9847L124.741 64.7917L137.566 70.9614C138.591 71.4484 139.228 72.4438 139.228 73.545C139.228 76.6298 138.723 79.6793 137.698 82.6089L135.348 89.3997C134.558 91.6728 132.369 93.1905 129.887 93.1905C126.717 93.1905 124.14 90.7057 124.14 87.6561V69.966C124.14 68.5824 123.862 67.2553 123.489 65.9847ZM148.54 24.4631C149.17 23.863 150.055 23.5101 150.934 23.5101C152.801 23.5101 154.323 24.9713 154.323 26.7643C154.323 27.6397 153.965 28.4585 153.328 29.0656L120.502 60.6268C119.023 58.9538 117.193 57.5702 115.055 56.6737L148.54 24.4631ZM152.325 56.9349L139.653 50.4335L157.596 33.174C159.382 31.4586 160.355 29.1927 160.355 26.7643C160.355 21.7665 156.124 17.7075 150.934 17.7075C148.452 17.7075 146.029 18.6675 144.272 20.3617L133.189 31.021V0.285645H0.384766V180.286H133.189V159.962H157.339V136.738H151.3V124.625C151.3 123.425 151.549 122.26 152.047 121.159L159.133 105.254C159.946 103.419 160.355 101.478 160.355 99.4942V69.8248C160.355 67.573 159.806 65.3 158.752 63.2811C157.339 60.5633 155.114 58.375 152.325 56.9349Z" fill="#2969BD"/>
</g>
<path d="M63.7656 107.704H69.8052V101.902H63.7656V107.704Z" fill="#2969BD"/>
<path d="M81.8764 101.902H75.8369V107.704H81.8764V101.902Z" fill="#2969BD"/>
<path d="M30.5664 81.5784H45.6543V75.7688H30.5664V81.5784Z" fill="#2969BD"/>
<path d="M30.5664 93.1905H45.6543V87.3809H30.5664V93.1905Z" fill="#2969BD"/>
<path d="M54.7089 148.35H48.6766V162.871H42.6371V142.548H36.5976V162.871H30.5654V133.837H24.5258V162.871H18.4863V125.126H12.4541V168.674H60.7484V162.871H54.7089V148.35Z" fill="#2969BD"/>
<path d="M87.9169 136.738H92.7046L84.8934 144.249L78.8612 138.439L61.6357 155.007L65.9037 159.116L78.8612 146.649L84.8934 152.459L96.9725 140.847V145.449H103.005V130.936H87.9169V136.738Z" fill="#2969BD"/>
<path d="M18.4863 11.8981H12.4541V17.7077H18.4863V11.8981Z" fill="#2969BD"/>
<path d="M66.7811 11.8981H24.5264V17.7077H66.7811V11.8981Z" fill="#2969BD"/>
<path d="M18.4863 23.5101H12.4541V29.3198H18.4863V23.5101Z" fill="#2969BD"/>
<path d="M66.7811 23.5101H24.5264V29.3198H66.7811V23.5101Z" fill="#2969BD"/>
<path d="M18.4863 35.1223H12.4541V40.932H18.4863V35.1223Z" fill="#2969BD"/>
<path d="M66.7811 35.1223H24.5264V40.932H66.7811V35.1223Z" fill="#2969BD"/>
<path d="M96.9721 11.8981H90.9326V17.7077H96.9721V11.8981Z" fill="#2969BD"/>
<path d="M109.043 11.8981H103.004V17.7077H109.043V11.8981Z" fill="#2969BD"/>
<path d="M121.114 11.8981H115.082V17.7077H121.114V11.8981Z" fill="#2969BD"/>
</svg>
