<svg width="100" height="100" viewBox="0 0 100 100" fill="none" xmlns="http://www.w3.org/2000/svg">
<path d="M88.6667 28.3333V11.3333H71.6667C70.0611 11.3333 68.7144 10.7893 67.6264 9.70134C66.5384 8.61334 65.9962 7.26846 66 5.66668C66 4.06113 66.544 2.71435 67.632 1.62635C68.72 0.538352 70.0649 -0.00375817 71.6667 1.96078e-05H88.6667C91.7833 1.96078e-05 94.4523 1.11069 96.6737 3.33202C98.895 5.55335 100.004 8.22046 100 11.3333V28.3333C100 29.9389 99.456 31.2857 98.368 32.3737C97.28 33.4617 95.9351 34.0038 94.3333 34C92.7278 34 91.381 33.456 90.293 32.368C89.205 31.28 88.6629 29.9351 88.6667 28.3333Z" fill="#F2BD1D"/>
<path d="M11.3333 71.6667L11.3333 88.6667H28.3333C29.9389 88.6667 31.2856 89.2107 32.3736 90.2987C33.4616 91.3867 34.0038 92.7315 34 94.3333C34 95.9389 33.456 97.2857 32.368 98.3736C31.28 99.4616 29.9351 100.004 28.3333 100H11.3333C8.21667 100 5.54767 98.8893 3.32634 96.668C1.10501 94.4467 -0.00376773 91.7795 1.00454e-05 88.6667V71.6667C1.00454e-05 70.0611 0.544009 68.7143 1.63201 67.6263C2.72001 66.5383 4.0649 65.9962 5.66668 66C7.27223 66 8.619 66.544 9.707 67.632C10.795 68.72 11.3371 70.0649 11.3333 71.6667Z" fill="#F2BD1D"/>
<path d="M71.6667 88.6667H88.6667V71.6667C88.6667 70.0611 89.2107 68.7144 90.2987 67.6264C91.3867 66.5384 92.7315 65.9962 94.3333 66C95.9389 66 97.2857 66.544 98.3736 67.632C99.4616 68.72 100.004 70.0649 100 71.6667V88.6667C100 91.7833 98.8893 94.4523 96.668 96.6737C94.4467 98.895 91.7795 100.004 88.6667 100H71.6667C70.0611 100 68.7143 99.456 67.6263 98.368C66.5383 97.28 65.9962 95.9351 66 94.3333C66 92.7278 66.544 91.381 67.632 90.293C68.72 89.205 70.0649 88.6629 71.6667 88.6667Z" fill="#F2BD1D"/>
<path d="M28.3333 11.3333H11.3333L11.3333 28.3333C11.3333 29.9389 10.7893 31.2856 9.70134 32.3736C8.61334 33.4616 7.26846 34.0038 5.66668 34C4.06113 34 2.71435 33.456 1.62635 32.368C0.538352 31.28 -0.00375817 29.9351 1.96078e-05 28.3333L1.96078e-05 11.3333C1.96078e-05 8.21667 1.11069 5.54767 3.33202 3.32634C5.55335 1.10501 8.22046 -0.00376773 11.3333 1.00454e-05H28.3333C29.9389 1.00454e-05 31.2857 0.544009 32.3737 1.63201C33.4617 2.72001 34.0038 4.0649 34 5.66668C34 7.27223 33.456 8.619 32.368 9.707C31.28 10.795 29.9351 11.3371 28.3333 11.3333Z" fill="#F2BD1D"/>
<path d="M35.3333 73.5944C39.6852 76.2352 44.5 77.5555 49.7778 77.5555C57.4593 77.5592 64.0093 74.8518 69.4278 69.4333C74.8463 64.0148 77.5556 57.463 77.5556 49.7778C77.5593 42.0963 74.8519 35.5463 69.4333 30.1278C64.0148 24.7093 57.463 22 49.7778 22C46.1667 22 42.6945 22.6944 39.3611 24.0833C36.0278 25.4722 33.0185 27.4167 30.3333 29.9167V26.1667C30.3296 24.9667 29.9352 23.9722 29.15 23.1833C28.3648 22.3944 27.3704 22 26.1667 22C24.9667 22.0037 23.9722 22.3981 23.1833 23.1833C22.3945 23.9685 22 24.963 22 26.1667V38.6667C21.9963 40.237 22.5278 41.5555 23.5945 42.6222C24.6611 43.6889 25.9815 44.2222 27.5556 44.2222H40.0556C41.2556 44.2185 42.25 43.8241 43.0389 43.0389C43.8278 42.2537 44.2222 41.2593 44.2222 40.0555C44.2185 38.8556 43.8241 37.8611 43.0389 37.0722C42.2537 36.2833 41.2593 35.8889 40.0556 35.8889H36.1667C38.0185 34.037 40.1019 32.6481 42.4167 31.7222C44.7315 30.7963 47.1852 30.3333 49.7778 30.3333C55.1482 30.3333 59.7315 32.2315 63.5278 36.0278C67.3241 39.8241 69.2222 44.4074 69.2222 49.7778C69.2222 55.1481 67.3241 59.7315 63.5278 63.5278C59.7315 67.3241 55.1482 69.2222 49.7778 69.2222C46.1667 69.2222 42.8333 68.2963 39.7778 66.4444C36.7222 64.5926 34.3611 62.1389 32.6945 59.0833C32.1389 58.0648 31.3519 57.3241 30.3333 56.8611C29.3148 56.3981 28.2963 56.3981 27.2778 56.8611C26.0704 57.3204 25.2593 58.1759 24.8445 59.4278C24.4296 60.6796 24.5463 61.8611 25.1945 62.9722C27.6019 67.4129 30.9815 70.9537 35.3333 73.5944Z" fill="#2969BD"/>
</svg>
