<svg width="178" height="189" viewBox="0 0 178 189" fill="none" xmlns="http://www.w3.org/2000/svg">
<mask id="mask0_195_1241" style="mask-type:luminance" maskUnits="userSpaceOnUse" x="0" y="0" width="178" height="189">
<path d="M0.316406 0.142822H177.159V188.714H0.316406V0.142822Z" fill="white"/>
</mask>
<g mask="url(#mask0_195_1241)">
<path d="M166.262 63.6955L163.937 52.6364L162.713 53.0686C160.059 54.0225 157.734 55.5279 155.731 57.5698C153.728 59.6192 152.24 62.0113 151.267 64.7463C150.251 68.0253 150.166 71.3415 150.988 74.6801L149.65 76.3792C143.791 71.3415 137.196 67.7645 129.863 65.6555V39.8707C129.863 31.4199 125.95 27.3063 117.859 27.3063H97.9785C96.2473 19.8913 93.0495 17.3724 85.5595 17.3724L84.8012 17.3501C84.1788 17.3203 83.5564 17.3352 82.934 17.4022C82.6407 17.4619 82.3546 17.432 82.0827 17.3054C81.9897 17.2308 81.8538 16.9924 81.7823 16.2769C81.675 15.2709 81.489 14.2797 81.2171 13.3035C80.9453 12.3347 80.6019 11.3957 80.1727 10.4866C79.7434 9.57738 79.2427 8.71293 78.6704 7.90063C78.0909 7.08089 77.4542 6.32076 76.7532 5.62025C76.0521 4.91228 75.3009 4.27884 74.4926 3.71993C73.6842 3.15356 72.8329 2.66171 71.9458 2.25184C71.0516 1.84196 70.1359 1.51406 69.1916 1.26814C68.2473 1.02222 67.2887 0.865718 66.3158 0.791197C65.3428 0.716674 64.3771 0.73903 63.4042 0.843363C62.4384 0.947693 61.4869 1.134 60.5498 1.40973C59.6126 1.69292 58.7041 2.05062 57.8313 2.49031C56.9514 2.92999 56.1216 3.45165 55.3275 4.04037C54.5406 4.63655 53.8037 5.29235 53.1241 6.02267C52.4517 6.74554 51.8364 7.52802 51.2856 8.36267C50.7419 9.19732 50.2698 10.0767 49.8691 11.0008C49.4685 11.9248 49.1466 12.8787 48.9105 13.855C48.7961 14.3319 48.7102 14.8089 48.653 15.2933C48.5385 16.0608 48.4026 17.0892 48.1022 17.3054C47.3439 17.5736 46.5784 17.6258 45.7986 17.4469C45.3479 17.3501 44.8973 17.3277 44.4394 17.3724C37.2928 17.3724 33.8661 20.1745 32.3852 27.3063H12.1614C4.51401 27.3137 0.457797 31.5391 0.457797 39.5577V176.411C0.386258 177.208 0.400568 178.005 0.50072 178.803C0.600874 179.593 0.779717 180.368 1.04441 181.12C1.30194 181.873 1.63817 182.589 2.0531 183.267C2.46802 183.945 2.94732 184.563 3.49101 185.13C4.04185 185.696 4.63562 186.195 5.28662 186.628C5.93761 187.052 6.62438 187.403 7.35407 187.678C8.0766 187.947 8.8206 188.14 9.58606 188.237C10.3515 188.342 11.117 188.357 11.8824 188.282H118.116C125.807 188.282 129.884 184.072 129.884 176.105V165.665C132.331 164.971 134.706 164.092 137.024 163.019C139.335 161.946 141.559 160.701 143.691 159.278C145.823 157.855 147.833 156.267 149.736 154.523C151.632 152.78 153.392 150.902 155.016 148.875C156.633 146.855 158.099 144.716 159.408 142.466C160.717 140.208 161.855 137.868 162.813 135.431C163.779 132.994 164.559 130.497 165.16 127.941C165.754 125.385 166.161 122.792 166.376 120.176C166.662 116.726 166.626 113.29 166.269 109.847C165.911 106.412 165.231 103.043 164.237 99.742C163.243 96.4407 161.955 93.2735 160.36 90.2404C158.772 87.1999 156.919 84.3531 154.787 81.6927L156.175 80.4929C160.066 81.2754 163.801 80.7612 167.37 78.9652C169.674 77.7132 171.641 76.0364 173.265 73.9275C174.889 71.8185 176.034 69.4636 176.699 66.8553L176.999 65.581L166.262 63.6955ZM40.4547 35.8987C40.4261 33.5289 40.4261 31.1367 40.4547 28.7669C40.4762 26.5387 41.256 25.7487 43.3806 25.704C44.8973 25.6519 46.4425 25.6817 47.9591 25.6817H51.6719C54.9913 25.6295 56.3004 24.2434 56.3934 20.7706L56.4149 19.7646C56.4006 18.8778 56.4363 17.991 56.5293 17.1116C56.6581 16.0236 56.9586 14.9877 57.445 14.0115C57.9315 13.0352 58.5682 12.1782 59.3551 11.4404C60.142 10.7101 61.0291 10.1438 62.0163 9.74133C63.0035 9.34637 64.0194 9.1377 65.0781 9.13025H65.1497C66.2156 9.13025 67.2529 9.32401 68.2544 9.71898C69.2488 10.1139 70.1502 10.6803 70.9514 11.4255C71.7455 12.1633 72.3965 13.0278 72.8901 14.0115C73.3837 14.9952 73.6913 16.0385 73.8129 17.1414C73.9059 17.9835 73.9059 18.8182 73.9274 19.6603C73.9274 20.2117 73.9274 20.7334 73.9489 21.2625C73.8988 21.8661 73.9703 22.4474 74.1778 23.0212C74.3781 23.5876 74.6857 24.0794 75.0935 24.5117C75.5084 24.9364 75.9949 25.2494 76.5385 25.4507C77.0894 25.6519 77.6545 25.7264 78.234 25.6668C79.8221 25.7115 81.3888 25.6891 82.9555 25.6891C84.2217 25.6891 85.488 25.6891 86.7613 25.7115C89.1292 25.7338 89.8661 26.5014 89.8947 29.0128C89.8947 31.8149 89.9162 34.6169 89.8947 37.4189C89.8661 39.7589 89.1078 40.5712 86.8543 40.5712C81.6464 40.6011 76.4384 40.5712 71.209 40.5712H43.8599C41.0986 40.5712 40.4547 39.8782 40.4547 36.9346V35.8987ZM121.822 176.306C121.822 179.228 121.178 179.921 118.388 179.921H11.954C10.9453 180.055 10.0224 179.816 9.1926 179.205C8.59883 178.333 8.36991 177.365 8.49868 176.306L8.52014 140.126C8.5416 122.702 8.54875 105.279 8.5416 87.8557C8.5416 78.0635 8.53444 68.2638 8.52014 58.4417V39.4385C8.3556 38.3207 8.57737 37.2923 9.1926 36.3533C10.1154 35.7347 11.117 35.5037 12.2043 35.6602H32.3852V35.9732C32.3852 36.7631 32.3852 37.5009 32.4139 38.2461C32.4139 38.9392 32.4711 39.6323 32.607 40.3104C32.7358 40.996 32.9218 41.6593 33.1793 42.3076C33.4369 42.9485 33.7445 43.5596 34.1165 44.1409C34.4885 44.7221 34.9105 45.2587 35.3827 45.758C35.8548 46.2499 36.3699 46.6895 36.9279 47.077C37.4859 47.472 38.0725 47.7999 38.6877 48.0682C39.3101 48.3365 39.9468 48.5377 40.605 48.6793C41.2631 48.8209 41.9213 48.8879 42.5937 48.8954C57.2233 48.9625 72.4036 48.9625 87.7271 48.8954C88.3996 48.8879 89.0649 48.8209 89.723 48.6867C90.3812 48.5451 91.0178 48.3439 91.6402 48.0756C92.2555 47.8074 92.8492 47.4795 93.4001 47.0845C93.9581 46.697 94.4731 46.2573 94.9524 45.7655C95.4246 45.2662 95.8467 44.7296 96.2187 44.1483C96.5907 43.567 96.9054 42.956 97.163 42.3076C97.4134 41.6667 97.6065 41.0035 97.7424 40.3179C97.8712 39.6323 97.9356 38.9392 97.9356 38.2461C97.957 37.5754 97.9356 36.8824 97.9356 36.0626V35.6602H117.673C121.407 35.6602 121.822 36.0924 121.822 39.8707V64.0458C118.338 63.6359 114.854 63.6136 111.363 63.9787C107.879 64.3439 104.467 65.0891 101.133 66.2144C97.7997 67.3471 94.6162 68.8227 91.5902 70.6559C88.5569 72.4892 85.7526 74.6354 83.163 77.0947H63.211C62.6602 77.0798 62.1093 77.1096 61.5585 77.1692C61.072 77.2139 60.6142 77.3555 60.1778 77.5791C59.7414 77.8101 59.3623 78.1082 59.0332 78.4808C58.7113 78.8534 58.4537 79.2707 58.2749 79.7402C58.096 80.2097 58.003 80.7015 58.003 81.2008C57.9959 81.7076 58.0746 82.1994 58.2463 82.6689C58.4108 83.1459 58.654 83.5707 58.9759 83.9507C59.2907 84.3308 59.6699 84.6438 60.0991 84.8748C60.5283 85.1133 60.979 85.2623 61.4655 85.3294C61.9162 85.3965 62.3668 85.4263 62.8247 85.4263H76.095C73.584 89.0928 71.5738 93.0275 70.0572 97.2455C68.5477 101.463 67.5891 105.808 67.1742 110.287H63.1681C62.6029 110.272 62.0449 110.302 61.4869 110.361C61.0005 110.421 60.5426 110.563 60.1134 110.794C59.677 111.032 59.305 111.338 58.9759 111.718C58.654 112.09 58.4108 112.523 58.2391 112.992C58.0674 113.469 57.9816 113.953 57.9816 114.46C57.9887 114.967 58.0746 115.459 58.2534 115.928C58.4323 116.398 58.6826 116.823 59.0117 117.195C59.3336 117.575 59.7199 117.873 60.1563 118.104C60.5856 118.328 61.0505 118.469 61.5299 118.522C61.8518 118.566 62.1737 118.596 62.5028 118.596H67.0168C67.5033 127.576 70.0643 135.87 74.6857 143.479H62.9392C62.8247 143.479 62.6816 143.457 62.5457 143.457C61.8732 143.308 61.258 143.442 60.7 143.867L60.3781 144.18C59.3265 144.97 58.561 145.998 58.096 147.265C57.8528 148.144 57.9601 148.971 58.4251 149.754C59.0189 150.73 59.863 151.334 60.9576 151.572C61.6872 151.729 62.4241 151.796 63.1681 151.766H81.024C83.3347 154.255 85.8671 156.476 88.6142 158.443C91.3612 160.403 94.2657 162.058 97.3347 163.414C100.404 164.77 103.566 165.791 106.835 166.484C110.097 167.177 113.395 167.528 116.729 167.535C118.431 167.535 120.134 167.438 121.822 167.244V176.306ZM148.642 144.821C143.512 150.887 137.26 155.187 129.884 157.72C127.259 158.637 124.576 159.256 121.822 159.591C120.778 159.755 119.726 159.859 118.667 159.896C113.931 160.165 109.289 159.591 104.746 158.197C100.196 156.804 96.0112 154.658 92.1696 151.766C90.8247 150.767 89.537 149.679 88.328 148.509C86.6969 146.944 85.1875 145.268 83.7853 143.479C81.0097 139.939 78.8063 136.042 77.1824 131.794C75.5513 127.554 74.5784 123.149 74.2493 118.596C74.1778 117.896 74.1563 117.18 74.1349 116.487C74.0848 114.415 74.1778 112.351 74.4067 110.287C74.9289 105.622 76.1451 101.165 78.0623 96.9102C79.9795 92.6549 82.4905 88.8245 85.6096 85.4263C85.8027 85.1729 86.0102 84.9344 86.2319 84.7034C89.0362 81.7076 92.1839 79.1738 95.675 77.0947C102.192 73.2046 109.21 71.2596 116.729 71.2521C118.438 71.2447 120.134 71.3564 121.822 71.5875C125.986 72.1091 129.977 73.2419 133.812 75.008C137.646 76.7668 141.145 79.077 144.307 81.9312L136.473 89.756C134.413 88.1314 132.209 86.7453 129.863 85.6126C127.302 84.3606 124.619 83.4961 121.822 83.0266C119.089 82.5646 116.349 82.505 113.595 82.8403C112.229 82.967 110.884 83.1906 109.546 83.511C107.615 83.9507 105.755 84.5767 103.945 85.3965C98.6367 87.811 94.3301 91.4924 91.0178 96.4332C88.1277 100.599 86.282 105.219 85.488 110.287C85.0444 113.044 84.9514 115.809 85.2161 118.596C85.6167 122.658 86.697 126.518 88.4568 130.169C90.2166 133.821 92.5488 137.033 95.4461 139.798C96.8554 141.184 98.3934 142.406 100.053 143.457C104.26 146.229 108.845 147.839 113.803 148.293C116.493 148.577 119.161 148.487 121.822 148.033C127.316 147.146 132.209 144.88 136.523 141.236C138.119 139.895 139.571 138.412 140.894 136.78C142.21 135.148 143.369 133.404 144.364 131.541C145.358 129.678 146.174 127.733 146.81 125.706C147.447 123.679 147.891 121.614 148.141 119.498C148.391 117.381 148.449 115.265 148.313 113.141C148.17 111.017 147.833 108.923 147.311 106.866C146.782 104.81 146.066 102.82 145.172 100.905C144.278 98.9893 143.212 97.1784 141.982 95.4719L149.536 87.5501C151.153 89.5548 152.584 91.6861 153.828 93.9516C155.073 96.2171 156.117 98.5795 156.954 101.039C157.799 103.498 158.421 106.009 158.822 108.588C159.229 111.159 159.415 113.752 159.372 116.361C159.33 118.969 159.065 121.555 158.578 124.118C158.092 126.674 157.391 129.171 156.475 131.6C155.559 134.03 154.444 136.355 153.127 138.576C151.811 140.796 150.316 142.876 148.642 144.821ZM101.09 134.864C98.7368 132.808 96.8339 130.363 95.3817 127.554C93.9223 124.737 93.0138 121.741 92.6561 118.566C92.6132 118.142 92.5631 117.709 92.5416 117.255C92.3842 114.907 92.5488 112.582 93.0495 110.287C93.9652 105.801 95.9111 101.858 98.8799 98.4677C101.04 96.0084 103.58 94.0709 106.492 92.6624C109.403 91.2614 112.465 90.4863 115.67 90.3522C116.063 90.3298 116.457 90.3298 116.872 90.3298C118.539 90.3149 120.191 90.5012 121.822 90.8813C124.734 91.4775 127.416 92.6549 129.863 94.3988C130.371 94.7565 130.85 95.1365 131.337 95.5464L129.863 97.0816L124.426 102.723C123.589 102.268 122.724 101.881 121.822 101.575C120.098 100.912 118.31 100.592 116.471 100.606C114.625 100.621 112.851 100.979 111.134 101.672C110.369 102.015 109.639 102.417 108.945 102.887C108.244 103.349 107.593 103.878 106.985 104.467C106.37 105.048 105.812 105.681 105.311 106.367C104.803 107.053 104.36 107.783 103.981 108.543C103.594 109.311 103.272 110.101 103.022 110.92C102.764 111.74 102.586 112.582 102.471 113.432C102.357 114.289 102.314 115.146 102.335 116.01C102.364 116.875 102.464 117.724 102.628 118.566C103.108 121.1 104.159 123.343 105.79 125.296C106.756 126.458 107.865 127.449 109.124 128.262C110.376 129.074 111.721 129.678 113.152 130.065C114.582 130.453 116.042 130.617 117.516 130.542C118.996 130.475 120.434 130.177 121.822 129.648C122.602 129.357 123.346 128.992 124.054 128.552C125.521 127.524 126.751 126.257 127.753 124.752C128.754 123.239 129.455 121.599 129.863 119.811C130.371 117.814 130.543 115.787 130.371 113.73C130.206 111.666 129.706 109.698 128.876 107.82L135.922 100.562C142.117 107.649 143.269 121.935 135.414 131.63C133.812 133.612 131.966 135.319 129.884 136.75C127.402 138.419 124.712 139.589 121.822 140.245C120.742 140.506 119.655 140.677 118.553 140.767C115.377 141.042 112.272 140.67 109.246 139.649C106.213 138.62 103.494 137.026 101.09 134.857V134.864ZM110.97 111.174L111.385 110.6C112 109.832 112.744 109.244 113.617 108.826C114.489 108.402 115.405 108.2 116.364 108.208C116.986 108.208 117.601 108.282 118.202 108.446L114.54 112.515C114.425 112.642 114.275 112.821 114.11 113.037C114.11 113.037 113.91 113.305 113.76 113.544C113.173 114.512 113.023 115.548 113.302 116.651C113.509 117.285 113.853 117.821 114.332 118.261C114.511 118.432 114.697 118.596 114.89 118.738C115.133 118.902 115.391 119.043 115.663 119.14C115.691 119.155 115.713 119.17 115.749 119.185C115.777 119.2 115.82 119.185 115.856 119.2C116.163 119.304 116.478 119.356 116.8 119.371C117.966 119.259 118.925 118.745 119.683 117.814C120.42 117.001 121.128 116.137 121.822 115.325C122.03 115.086 122.216 114.87 122.402 114.632L123.367 113.626C123.782 114.87 123.847 116.129 123.568 117.411C123.289 118.693 122.709 119.796 121.822 120.735C121.565 121.011 121.286 121.264 120.992 121.503C120.313 122.017 119.576 122.397 118.767 122.643C117.959 122.889 117.136 122.986 116.299 122.933C115.455 122.881 114.654 122.687 113.881 122.337C113.109 121.994 112.415 121.525 111.8 120.929C111.106 120.243 110.576 119.446 110.212 118.537C109.725 117.314 109.546 116.055 109.682 114.751C109.818 113.439 110.247 112.247 110.97 111.166V111.174ZM163.085 72.5935C161.504 73.4207 159.873 73.5325 158.199 72.9289C157.255 68.8376 157.598 67.1608 159.444 65.5139L160.503 69.9629L164.902 70.9689C164.409 71.6471 163.801 72.1836 163.085 72.5861V72.5935ZM17.6198 84.1668C17.0546 83.5781 16.6898 82.8776 16.5324 82.0579C16.375 81.2456 16.4466 80.4482 16.747 79.6806C17.0475 78.9056 17.5268 78.287 18.1921 77.8101C18.8502 77.3406 19.5871 77.1021 20.3883 77.0872C21.5544 77.117 22.5559 77.5642 23.3786 78.4286C24.9954 80.0979 26.5406 81.8268 28.1502 83.6154L29.5809 85.1952L41.306 70.5963C41.8354 69.9331 42.3648 69.2624 42.9371 68.6364C43.2662 68.2116 43.6596 67.8688 44.1175 67.608C44.5753 67.3471 45.0618 67.1906 45.5769 67.131C46.0991 67.0714 46.607 67.1161 47.1078 67.2726C47.6085 67.4291 48.0664 67.675 48.467 68.0178C49.3398 68.7183 49.8477 69.635 49.9908 70.7677C50.0981 71.9824 49.7761 73.063 49.025 73.9945C47.1793 76.3941 45.2692 78.764 43.3806 81.104L38.7951 86.8049C36.9994 89.0257 35.1967 91.2539 33.4512 93.5045C32.6785 94.6447 31.6269 95.3005 30.2892 95.4644C30.2248 95.4868 30.1533 95.4942 30.0817 95.4868C28.9729 95.4495 28.0357 95.0098 27.2774 94.1752C24.4159 91.3508 21.4471 88.2581 17.6198 84.1668ZM49.4614 106.531C49.1895 107.06 48.8462 107.537 48.4455 107.969L48.1952 108.275C43.4236 114.237 38.652 120.184 33.8875 126.108C33.0291 127.517 31.8058 128.344 30.2248 128.597H30.0817C28.5365 128.418 27.2774 127.688 26.3045 126.421C23.4716 123.5 20.7531 120.675 18.0347 117.829C17.5697 117.456 17.1977 117.009 16.9187 116.472C16.6397 115.936 16.4823 115.362 16.4394 114.758C16.4036 114.147 16.4895 113.558 16.6969 112.985C16.9044 112.418 17.212 111.919 17.6269 111.487C18.049 111.062 18.5283 110.742 19.0792 110.533C19.63 110.317 20.1952 110.235 20.7818 110.279C21.3684 110.324 21.9192 110.496 22.4271 110.794C22.9422 111.084 23.3786 111.472 23.7291 111.964C25.2243 113.521 26.698 115.101 28.2646 116.748L29.6668 118.283L41.5564 103.49C42.1001 102.775 42.6796 102.097 43.3091 101.456C43.6525 101.069 44.0459 100.763 44.5038 100.547C44.9616 100.323 45.4481 100.204 45.9489 100.182C46.4568 100.167 46.9432 100.249 47.4154 100.428C47.8875 100.614 48.3096 100.882 48.6745 101.24C49.0465 101.553 49.3469 101.926 49.583 102.35C49.8191 102.783 49.9765 103.245 50.048 103.729C50.1195 104.221 50.1052 104.705 50.0051 105.19C49.9049 105.674 49.7189 106.121 49.4614 106.531ZM48.6315 134.529C50.4486 136.183 50.4057 138.673 48.5385 141.042C47.2723 142.645 46.0061 144.224 44.7399 145.782L40.2473 151.401C38.0582 154.106 35.8691 156.826 33.6801 159.561C32.8431 160.835 31.6913 161.573 30.2248 161.767C30.1676 161.782 30.1175 161.789 30.0603 161.789C28.701 161.67 27.585 161.074 26.698 159.993C23.7721 156.983 20.8461 153.964 17.9703 150.924C16.9902 149.97 16.4966 148.8 16.468 147.407C16.5038 146.274 16.9259 145.32 17.7342 144.56C18.1563 144.172 18.6285 143.882 19.1579 143.695C19.6944 143.509 20.2381 143.434 20.7961 143.479C21.3541 143.524 21.8835 143.68 22.3771 143.956C22.8778 144.224 23.2999 144.59 23.6576 145.037C25.2028 146.639 26.698 148.271 28.2646 149.97L29.6668 151.498L41.5135 136.735C41.7639 136.4 42.0429 136.064 42.3147 135.729C43.209 134.462 44.3965 133.717 45.8916 133.478C46.9504 133.426 47.8589 133.776 48.6315 134.529Z" fill="#2969BD"/>
</g>
</svg>
