<svg width="169" height="172" viewBox="0 0 169 172" fill="none" xmlns="http://www.w3.org/2000/svg">
<path d="M111.585 116.273C95.1064 116.273 81.7004 102.627 81.7004 85.8528C81.7004 69.0791 95.1064 55.441 111.585 55.441C128.064 55.441 141.462 69.0791 141.462 85.8528C141.462 102.627 128.064 116.273 111.585 116.273ZM111.585 49.908C92.1117 49.908 76.2725 66.0387 76.2725 85.8528C76.2725 105.675 92.1117 121.798 111.585 121.798C131.058 121.798 146.898 105.675 146.898 85.8528C146.898 66.0387 131.058 49.908 111.585 49.908Z" fill="#2969BD"/>
<path d="M40.9591 154.98C39.4617 154.98 38.2373 156.226 38.2373 157.75C38.2373 159.267 39.4617 160.513 40.9591 160.513C42.4564 160.513 43.673 159.267 43.673 157.75C43.673 156.226 42.4564 154.98 40.9591 154.98Z" fill="#2969BD"/>
<mask id="mask0_196_1391" style="mask-type:luminance" maskUnits="userSpaceOnUse" x="0" y="0" width="169" height="172">
<path d="M0.209961 0.142822H168.631V171.571H0.209961V0.142822Z" fill="white"/>
</mask>
<g mask="url(#mask0_196_1391)">
<path d="M153.611 105.215C156.254 99.3007 157.76 92.7595 157.76 85.8531C157.76 59.9344 137.046 38.8502 111.583 38.8502C86.1128 38.8502 65.4072 59.9344 65.4072 85.8531C65.4072 92.7595 66.9124 99.3007 69.5561 105.215H5.64567V27.7921H163.195V105.215H153.611ZM111.583 127.331C89.1075 127.331 70.8351 108.731 70.8351 85.8531C70.8351 62.9907 89.1075 44.3832 111.583 44.3832C134.059 44.3832 152.332 62.9907 152.332 85.8531C152.332 108.731 134.059 127.331 111.583 127.331ZM76.2708 128.95L69.2442 121.798L75.6313 115.296C77.7214 117.924 80.0766 120.321 82.658 122.449L76.2708 128.95ZM70.8351 140.009L58.3806 127.331L62.6855 122.949L75.1478 135.627L70.8351 140.009ZM47.8445 163.419C46.1756 165.11 43.9686 166.038 41.6133 166.038C36.7547 166.038 32.8086 162.022 32.8086 157.076C32.8086 154.679 33.721 152.432 35.3822 150.741L54.5358 131.245L66.9982 143.922L47.8445 163.419ZM163.195 5.66791V22.2591H5.64567V5.66791H163.195ZM168.631 0.142822H0.209961V110.74H72.4261L65.4072 117.892L62.6855 115.13L31.5452 146.828C28.8468 149.574 27.3729 153.202 27.3729 157.076C27.3729 165.07 33.76 171.571 41.6133 171.571C45.4269 171.571 48.9987 170.063 51.6815 167.324L82.8296 135.627L80.1078 132.864L87.1656 125.68C94.2547 130.205 102.615 132.864 111.583 132.864C128.062 132.864 142.513 123.997 150.686 110.74H168.631V0.142822Z" fill="#2969BD"/>
</g>
<path d="M16.5099 11.2012H11.0742V16.7263H16.5099V11.2012Z" fill="#2969BD"/>
<path d="M27.3742 11.2012H21.9463V16.7263H27.3742V11.2012Z" fill="#2969BD"/>
<path d="M38.2365 11.2012H32.8086V16.7263H38.2365V11.2012Z" fill="#2969BD"/>
<path d="M92.5693 99.6821H130.596V94.149H92.5693V99.6821Z" fill="#2969BD"/>
<path d="M97.9972 83.0906H92.5693V88.6236H97.9972V83.0906Z" fill="#2969BD"/>
<path d="M103.434 83.0906V88.6236H108.869V83.0906H103.434Z" fill="#2969BD"/>
<path d="M114.299 83.0906V88.6236H119.735V83.0906H114.299Z" fill="#2969BD"/>
<path d="M125.17 88.6236H130.598V83.0906H125.17V88.6236Z" fill="#2969BD"/>
<path d="M92.5693 77.5573H130.596V72.0322H92.5693V77.5573Z" fill="#2969BD"/>
<path d="M59.9722 38.8502H54.5365V72.0325H49.1086V44.3833H43.6729V72.0325H38.2371V49.9083H32.8092V72.0325H27.3735V55.4414H21.9456V72.0325H16.5099V33.3172H11.0742V77.5576H65.4079V72.0325H59.9722V38.8502Z" fill="#2969BD"/>
</svg>
