<svg width="180" height="180" viewBox="0 0 180 180" fill="none" xmlns="http://www.w3.org/2000/svg">
<mask id="mask0_178_362" style="mask-type:luminance" maskUnits="userSpaceOnUse" x="0" y="62" width="50" height="82">
<path d="M0.5 63.2589H48.8115V143.09H0.5V63.2589Z" fill="white" stroke="white"/>
</mask>
<g mask="url(#mask0_178_362)">
<path d="M24.5366 141.043L24.5375 141.043C25.0528 141.203 25.5663 141.278 26.0796 141.278C28.5781 141.278 30.9352 139.453 31.6799 136.6L46.7926 78.6941L46.7926 78.694C47.2356 76.9983 47.052 75.2294 46.2746 73.6953L46.2742 73.6946C45.5046 72.1699 44.2481 71.0871 42.7495 70.6233L23.199 64.6079C20.1755 63.6814 16.9484 65.6195 16.0553 69.0582L16.0551 69.0588L0.94242 126.957L0.942394 126.957C0.499419 128.652 0.683018 130.421 1.46046 131.955L1.46082 131.956C2.2303 133.48 3.48654 134.563 4.98474 135.027L24.5366 141.043ZM24.5366 141.043L4.98555 135.027L24.5366 141.043ZM22.3969 67.9979L41.9434 74.0121C41.9442 74.0123 41.9449 74.0126 41.9457 74.0128C42.676 74.231 43.2589 74.7556 43.6068 75.4463C43.9536 76.1349 44.0436 76.9334 43.8388 77.6938C43.8386 77.6946 43.8384 77.6953 43.8382 77.696L28.7269 135.597L22.3969 67.9979ZM22.3969 67.9979C22.3968 67.9979 22.3967 67.9979 22.3966 67.9978M22.3969 67.9979L22.3966 67.9978M22.3966 67.9978C20.9046 67.5355 19.4072 68.5153 19.0084 70.0526L22.3966 67.9978ZM25.3381 137.653C26.8303 138.115 28.3278 137.135 28.7266 135.598L19.0082 70.0535L3.8968 127.955C3.8966 127.955 3.8964 127.956 3.89619 127.957C3.69149 128.717 3.78142 129.516 4.12825 130.204C4.47605 130.895 5.05881 131.419 5.78899 131.638C5.78987 131.638 5.79075 131.638 5.79163 131.639L25.3381 137.653Z" fill="#2969BD" stroke="#2969BD"/>
</g>
<path d="M17.2352 130.449L17.2381 130.45C17.7968 130.625 18.3696 130.709 18.9361 130.709C20.0034 130.709 21.0611 130.405 22.0207 129.805L17.2352 130.449ZM17.2352 130.449C15.6176 129.952 14.255 128.778 13.4097 127.126L13.4093 127.125M17.2352 130.449L13.4093 127.125M13.4093 127.125C12.5647 125.482 12.352 123.564 12.8182 121.736L12.8186 121.734M13.4093 127.125L12.8186 121.734M12.8186 121.734C13.2775 119.906 14.3532 118.398 15.8285 117.474C17.2925 116.561 18.9905 116.334 20.6149 116.831C22.2322 117.328 23.5947 118.501 24.4399 120.153L24.4403 120.154M12.8186 121.734L24.4403 120.154M24.4403 120.154C25.2849 121.797 25.4976 123.715 25.0314 125.543L25.031 125.545M24.4403 120.154L25.031 125.545M25.031 125.545C24.572 127.373 23.4964 128.881 22.021 129.805L25.031 125.545ZM15.7771 122.695L15.7767 122.697C15.5532 123.6 15.6556 124.545 16.071 125.369L16.0721 125.371C16.4886 126.187 17.1837 126.799 18.0368 127.059C18.8887 127.328 19.7895 127.194 20.5442 126.723C21.311 126.25 21.84 125.479 22.0715 124.588L22.0715 124.588L22.0729 124.582C22.2964 123.679 22.1939 122.734 21.7786 121.91L21.7786 121.91L21.7756 121.905C21.3528 121.093 20.6666 120.479 19.8095 120.22L19.8091 120.219C19.522 120.133 19.2252 120.082 18.921 120.082C17.458 120.082 16.1647 121.151 15.7771 122.695Z" fill="#2969BD" stroke="#2969BD"/>
<mask id="mask1_178_362" style="mask-type:luminance" maskUnits="userSpaceOnUse" x="131" y="62" width="49" height="82">
<path d="M132.495 63.2589H179.5V143.09H132.495V63.2589Z" fill="white" stroke="white"/>
</mask>
<g mask="url(#mask1_178_362)">
<path d="M148.276 136.592L148.276 136.592C149.021 139.452 151.385 141.278 153.884 141.278C154.39 141.278 154.91 141.203 155.417 141.044L155.419 141.043L174.971 135.027C174.971 135.027 174.971 135.027 174.971 135.027C176.477 134.563 177.733 133.481 178.502 131.957C179.274 130.421 179.464 128.651 179.021 126.957L179.021 126.957L163.908 69.0511L148.276 136.592ZM148.276 136.592L133.163 78.6941L133.163 78.694C132.721 76.9999 132.911 75.2303 133.682 73.6942M148.276 136.592L133.682 73.6942M133.682 73.6942C134.451 72.17 135.707 71.0875 137.213 70.6236C137.213 70.6236 137.213 70.6235 137.213 70.6235L156.765 64.6079L133.682 73.6942ZM136.351 75.4417L136.351 75.4418C136.706 74.7558 137.286 74.2317 138.009 74.0131C138.01 74.013 138.01 74.0128 138.011 74.0127L157.556 67.9989C157.816 67.9142 158.071 67.8842 158.308 67.8842C159.534 67.8842 160.618 68.7664 160.955 70.0521L160.955 70.0527L176.068 127.959L176.068 127.96C176.263 128.714 176.184 129.511 175.835 130.204L175.833 130.209C175.478 130.895 174.897 131.419 174.174 131.638C174.174 131.638 174.174 131.638 174.173 131.638L154.624 137.653C153.126 138.114 151.628 137.137 151.229 135.598L136.351 75.4417ZM136.351 75.4417L136.349 75.4463C136 76.1393 135.922 76.937 136.116 77.6907L136.117 77.692L151.229 135.597L136.351 75.4417ZM156.765 64.6078C159.78 63.6818 163.008 65.6191 163.908 69.0505L156.765 64.6078Z" fill="#2969BD" stroke="#2969BD"/>
</g>
<path d="M150.262 80.984L150.262 80.984L150.26 80.9845C149.413 81.2437 148.719 81.8562 148.295 82.6691L148.295 82.6691L148.292 82.6749C147.877 83.4976 147.774 84.4433 147.998 85.3397L147.998 85.3397L147.999 85.3428C148.231 86.2431 148.76 87.0143 149.528 87.4884C150.293 87.9611 151.185 88.0824 152.039 87.8241L152.04 87.8236C152.886 87.5647 153.582 86.9521 153.999 86.1362C154.423 85.3116 154.526 84.364 154.294 83.4586C154.069 82.562 153.53 81.7938 152.776 81.3218C152.276 81.0065 151.719 80.8463 151.15 80.8463C150.846 80.8463 150.549 80.8974 150.262 80.984ZM151.15 91.4654C148.406 91.4654 145.831 89.4515 145.04 86.3097C144.581 84.4811 144.793 82.5613 145.631 80.9091C146.477 79.2657 147.839 78.0921 149.456 77.595C151.08 77.0983 152.778 77.3255 154.251 78.2393C155.725 79.1628 156.794 80.6619 157.26 82.499C158.211 86.2904 156.183 90.1794 152.837 91.2128C152.275 91.3817 151.708 91.4654 151.15 91.4654Z" fill="#2969BD" stroke="#2969BD"/>
<path d="M129.708 138.065L129.718 138.065L129.729 138.064C129.712 138.065 129.924 138.053 130.215 138.028C130.523 138.001 130.963 137.957 131.513 137.886C132.611 137.742 134.146 137.489 135.927 137.045C139.484 136.159 144.045 134.508 148.057 131.44C148.734 130.923 149.677 131.087 150.168 131.88L150.169 131.881C150.68 132.699 150.484 133.811 149.773 134.35L149.771 134.352C141.071 141.012 130.385 141.548 129.83 141.569H129.83H129.83H129.83H129.83H129.829H129.829H129.829H129.829H129.829H129.829H129.829H129.829H129.828H129.828H129.828H129.828H129.828H129.828H129.828H129.827H129.827H129.827H129.827H129.827H129.827H129.827H129.827H129.826H129.826H129.826H129.826H129.826H129.826H129.826H129.825H129.825H129.825H129.825H129.825H129.825H129.825H129.825H129.824H129.824H129.824H129.824H129.824H129.824H129.824H129.823H129.823H129.823H129.823H129.823H129.823H129.823H129.822H129.822H129.822H129.822H129.822H129.822H129.822H129.822H129.821H129.821H129.821H129.821H129.821H129.821H129.821H129.82H129.82H129.82H129.82H129.82H129.82H129.82H129.82H129.819H129.819H129.819H129.819H129.819H129.819H129.819H129.818H129.818H129.818H129.818H129.818H129.818H129.818H129.817H129.817H129.817H129.817H129.817H129.817H129.817H129.817H129.816H129.816H129.816H129.816H129.816H129.816H129.816H129.815H129.815H129.815H129.815H129.815H129.815H129.815H129.814H129.814H129.814H129.814H129.814H129.814H129.814H129.813H129.813H129.813H129.813H129.813H129.813H129.813H129.813H129.812H129.812H129.812H129.812H129.812H129.812H129.812H129.811H129.811H129.811H129.811H129.811H129.811H129.811H129.81H129.81H129.81H129.81H129.81H129.81H129.81H129.809H129.809H129.809H129.809H129.809H129.809H129.809H129.808H129.808H129.808H129.808H129.808H129.808H129.808H129.807H129.807H129.807H129.807H129.807H129.807H129.807H129.806H129.806H129.806H129.806H129.806H129.806H129.806H129.805H129.805H129.805H129.805H129.805H129.805H129.805H129.804H129.804H129.804H129.804H129.804H129.804H129.804H129.803H129.803H129.803H129.803H129.803H129.803H129.803H129.802H129.802H129.802H129.802H129.802H129.802H129.802H129.801H129.801H129.801H129.801H129.801H129.801H129.801H129.8H129.8H129.8H129.8H129.8H129.8H129.8H129.799H129.799H129.799H129.799H129.799H129.799H129.799H129.798H129.798H129.798H129.798H129.798H129.798H129.798H129.797H129.797H129.797H129.797H129.797H129.797H129.796H129.796H129.796H129.796H129.796H129.796H129.796H129.795H129.795H129.795H129.795H129.795H129.795H129.795H129.794H129.794H129.794H129.794H129.794H129.794H129.793H129.793H129.793H129.793H129.793H129.793H129.793H129.792H129.792H129.792H129.792H129.792H129.792H129.792H129.791H129.791H129.791H129.791H129.791H129.791H129.79H129.79H129.79H129.79H129.79H129.79H129.79H129.789H129.789H129.789H129.789H129.789H129.789H129.788H129.788H129.788H129.788H129.788H129.788H129.788H129.787H129.787H129.787H129.787H129.787H129.787H129.786H129.786H129.786H129.786H129.786H129.786H129.785H129.785H129.785H129.785H129.785H129.785H129.785H129.784H129.784H129.784H129.784H129.784H129.784H129.783H129.783H129.783H129.783H129.783H129.783H129.782H129.782H129.782H129.782H129.782H129.782H129.782H129.781H129.781H129.781H129.781H129.781H129.781H129.78H129.78H129.78H129.78H129.78H129.78H129.779H129.779H129.779H129.779H129.779H129.779H129.778H129.778H129.778H129.778H129.778H129.778H129.777H129.777H129.777H129.777H129.777H129.777H129.777H129.776H129.776H129.776H129.776H129.776H129.776H129.775H129.775H129.775H129.775H129.775H129.775H129.774H129.774H129.774H129.774H129.774H129.774H129.773H129.773H129.773H129.773H129.773H129.773H129.772H129.772H129.772H129.772H129.772H129.772H129.771H129.771H129.771H129.771H129.771H129.77H129.77H129.77H129.77H129.77H129.77H129.769H129.769H129.769H129.769H129.769H129.769H129.768H129.768H129.768H129.768H129.768H129.768H129.767H129.767H129.767H129.767H129.767H129.767H129.766H129.766H129.766H129.766H129.766H129.765H129.765H129.765H129.765H129.765H129.765H129.764H129.764C128.986 141.569 128.259 140.871 128.228 139.885C128.198 138.862 128.912 138.095 129.708 138.065Z" fill="#2969BD" stroke="#2969BD"/>
<path d="M36.6425 138.46L36.6428 138.46C36.9465 138.796 37.3302 138.952 37.714 138.952C38.0914 138.952 38.4822 138.795 38.7853 138.46C39.4093 137.77 39.4093 136.63 38.7855 135.94L36.6425 138.46ZM36.6425 138.46L30.5887 131.771C29.9648 131.081 29.9646 129.951 30.5879 129.26C31.1931 128.598 32.1344 128.598 32.7396 129.26C32.7398 129.261 32.74 129.261 32.7403 129.261L38.7853 135.94L36.6425 138.46Z" fill="#2969BD" stroke="#2969BD"/>
<mask id="mask2_178_362" style="mask-type:luminance" maskUnits="userSpaceOnUse" x="64" y="154" width="45" height="26">
<path d="M65.1948 154.725H108.421V179.5H65.1948V154.725Z" fill="white" stroke="white"/>
</mask>
<g mask="url(#mask2_178_362)">
<path d="M67.2949 172.326L67.2964 172.328L70.7742 176.175C72.7083 178.314 75.2404 179.367 77.7568 179.367C80.2806 179.367 82.8049 178.314 84.7313 176.175L84.7334 176.173C86.3042 174.451 87.2846 172.248 87.5733 169.845L87.7043 168.754L88.4407 169.569L90.3407 171.671L67.2949 172.326ZM67.2949 172.326C66.6654 171.636 66.6654 170.499 67.2949 169.809L67.2964 169.808M67.2949 172.326L67.2964 169.808M67.2964 169.808C67.8941 169.146 68.8413 169.146 69.439 169.808L69.8099 169.472M67.2964 169.808L69.8099 169.472M69.8099 169.472L69.439 169.808L72.9167 173.655C75.5787 176.599 79.9341 176.6 82.5964 173.655C83.8794 172.245 84.5738 170.369 84.5738 168.384C84.5738 167.419 84.4057 166.482 84.0863 165.59L84.0853 165.587M69.8099 169.472L84.0853 165.587M84.0853 165.587C83.7479 164.662 83.2488 163.834 82.5969 163.113C81.9728 162.422 81.9728 161.283 82.5969 160.593L82.226 160.257M84.0853 165.587L82.226 160.257M82.226 160.257L82.5969 160.593C83.1946 159.932 84.1417 159.932 84.7394 160.593L84.7396 160.593M82.226 160.257L84.7396 160.593M84.7396 160.593L92.4837 169.151L92.4841 169.152M84.7396 160.593L92.4841 169.152M92.4841 169.152C95.1534 172.096 99.5013 172.096 102.164 169.151C103.445 167.734 104.148 165.86 104.148 163.88C104.148 161.893 103.445 160.018 102.163 158.609C101.54 157.918 101.54 156.779 102.164 156.089C102.761 155.428 103.709 155.428 104.306 156.089L104.307 156.09M92.4841 169.152L104.307 156.09M104.307 156.09C106.187 158.162 107.227 160.923 107.227 163.88C107.227 166.829 106.187 169.599 104.307 171.671L104.306 171.671M104.307 156.09L104.306 171.671M104.306 171.671C100.457 175.93 94.1989 175.931 90.341 171.671L104.306 171.671Z" fill="#2969BD" stroke="#2969BD"/>
</g>
<path d="M105.566 162.365L105.567 162.365C107.445 164.443 109.927 165.566 112.549 165.566C115.18 165.566 117.661 164.443 119.531 162.366L119.532 162.365C123.416 158.077 123.416 151.08 119.532 146.792L119.532 146.792L100.498 125.753L100.498 125.753C99.9006 125.092 98.9534 125.092 98.3557 125.753C97.7317 126.443 97.7317 127.582 98.3556 128.273C98.3556 128.273 98.3557 128.273 98.3557 128.273L117.389 149.303L117.389 149.303C120.025 152.219 120.025 156.938 117.389 159.853L117.388 159.854C116.106 161.264 114.39 162.062 112.549 162.062C110.717 162.062 108.992 161.264 107.717 159.853L88.6846 138.816C88.6844 138.816 88.6841 138.816 88.6839 138.816C88.0775 138.152 87.1295 138.155 86.533 138.815C85.909 139.505 85.9089 140.644 86.5328 141.335L105.566 162.365ZM105.566 162.365L86.533 141.335L105.566 162.365Z" fill="#2969BD" stroke="#2969BD"/>
<path d="M126.358 133.084L126.358 133.084C127.64 134.502 128.335 136.377 128.335 138.355C128.335 138.747 128.311 139.139 128.247 139.542C128.03 141.091 127.372 142.504 126.358 143.626C125.075 145.044 123.359 145.843 121.518 145.843C119.678 145.843 117.961 145.045 116.679 143.627M126.358 133.084L117.049 143.29M126.358 133.084L96.14 99.6895C96.14 99.6894 96.1399 99.6894 96.1399 99.6893C93.816 97.1187 90.3864 96.121 87.2004 97.1128L87.1996 97.1131C85.5636 97.6251 84.1015 98.6208 82.9616 99.987L82.9613 99.9873L73.5615 111.273L73.559 111.276L73.5464 111.288C73.5335 111.301 73.5096 111.326 73.4835 111.36C69.2485 116.014 62.397 116.006 58.178 111.339L58.1777 111.338C54.7587 107.564 53.9787 101.851 56.2522 97.1256C59.2667 90.8701 64.4484 82.3388 72.0787 77.0285L72.0961 77.0164L72.1056 77.0085L72.1084 77.0068L72.1253 76.9974L72.1472 76.9853L72.1678 76.971C78.4215 72.6422 85.2544 71.1947 92.5087 72.6464L92.5169 72.648L92.5252 72.6494C93.6181 72.8303 108.888 75.425 120.848 84.4783L121.091 84.6619L121.365 84.5308L134.433 78.2915L134.219 77.8395L134.435 78.2907L134.434 78.291C135.179 77.9395 136.084 78.2936 136.434 79.1996L136.436 79.2034C136.801 80.1251 136.4 81.1605 135.628 81.5254L135.626 81.5263L121.505 88.2733C121.022 88.5041 120.467 88.4418 120.027 88.0926M126.358 133.084L86.3933 93.7303M116.679 143.627C116.678 143.626 116.678 143.626 116.678 143.626L117.049 143.29M116.679 143.627C116.679 143.627 116.679 143.627 116.679 143.627L117.049 143.29M116.679 143.627C116.081 142.972 115.132 142.972 114.534 143.626M117.049 143.29C116.252 142.418 114.96 142.418 114.164 143.29M114.534 143.626C114.535 143.626 114.535 143.626 114.535 143.626L114.164 143.29M114.534 143.626C113.911 144.317 113.911 145.456 114.535 146.146C116.414 148.224 118.888 149.346 121.518 149.346C124.148 149.346 126.629 148.224 128.507 146.147M114.534 143.626C114.534 143.627 114.534 143.627 114.534 143.627L114.164 143.29M114.164 143.29L128.507 146.147M128.507 146.147C128.507 146.147 128.506 146.147 128.506 146.147L128.879 146.481L128.508 146.146C128.508 146.146 128.507 146.146 128.507 146.147ZM128.507 146.147C129.994 144.486 130.959 142.401 131.283 140.121L131.284 140.116C131.371 139.54 131.421 138.95 131.421 138.355C131.421 135.406 130.381 132.644 128.5 130.564M128.507 146.147L131.778 140.191C131.868 139.593 131.921 138.978 131.921 138.355C131.921 135.289 130.839 132.405 128.871 130.228M128.5 130.564L128.501 130.564L128.871 130.228M128.5 130.564L128.871 130.228M128.5 130.564L98.2829 97.1698L98.6534 96.8341M128.871 130.228L98.6534 96.8341M98.6534 96.8341L98.2827 97.1696M98.6534 96.8341C95.4086 93.2529 90.6539 91.8819 86.2448 93.2529C83.9764 93.9592 81.9408 95.3385 80.3485 97.2496L98.2827 97.1696M98.2827 97.1696C95.1608 93.7243 90.6058 92.4205 86.3933 93.7303M98.2827 97.1696L86.3933 93.7303M86.3933 93.7303C84.2213 94.4066 82.2662 95.729 80.7326 97.5696L80.7326 97.5696L71.3435 108.837L71.3362 108.846L71.3285 108.854C68.29 112.18 63.3427 112.161 60.3211 108.819C57.8967 106.146 57.3536 102.121 58.9567 98.8104C61.7474 93.0035 66.5616 85.0182 73.6058 80.0748C73.6449 80.0466 73.687 80.0221 73.7144 80.0068C79.3156 76.1122 85.4856 74.7973 92.0071 76.1113L92.0245 76.1148L92.0293 76.1161L92.0299 76.1162C92.0401 76.1178 92.0625 76.1213 92.0904 76.1277C92.7701 76.2393 108.551 78.9203 120.027 88.0926M120.027 88.0926C120.027 88.0927 120.027 88.0928 120.027 88.0929L119.715 88.4835L120.026 88.0919C120.026 88.0921 120.027 88.0924 120.027 88.0926Z" fill="#2969BD" stroke="#2969BD"/>
<path d="M43.0643 81.7628L43.0643 81.7628L43.0634 81.7583C42.8558 80.7724 43.4261 79.8533 44.2298 79.6454C57.3078 76.3607 72.0208 76.7455 72.9019 76.7686L72.9196 76.7691C72.9199 76.7691 72.9202 76.7691 72.9206 76.7691C73.7128 76.7935 74.4252 77.5269 74.4252 78.521C74.4252 79.5608 73.6643 80.3035 72.8465 80.2814C72.1744 80.2548 57.7208 79.8514 44.8935 83.0714L44.8935 83.0713L44.882 83.0744C44.7838 83.1016 44.6722 83.1145 44.5571 83.1145C43.8894 83.1145 43.2329 82.6022 43.0643 81.7628Z" fill="#2969BD" stroke="#2969BD"/>
<mask id="mask3_178_362" style="mask-type:luminance" maskUnits="userSpaceOnUse" x="49" y="0" width="82" height="82">
<path d="M49.8115 0.5H129.573V81.4028H49.8115V0.5Z" fill="white" stroke="white"/>
</mask>
<g mask="url(#mask3_178_362)">
<path d="M108.384 78.1174L108.385 78.1165C119.279 70.9618 126.022 57.8523 126.022 43.9138C126.022 22.1928 110.029 4.30782 90.2718 4.14501L90.2416 4.13665H90.1737H90.1733H90.1729H90.1725H90.1721H90.1717H90.1713H90.1709H90.1706H90.1702H90.1698H90.1694H90.169H90.1686H90.1682H90.1678H90.1674H90.167H90.1666H90.1662H90.1658H90.1654H90.165H90.1647H90.1643H90.1639H90.1635H90.1631H90.1627H90.1623H90.1619H90.1615H90.1611H90.1607H90.1603H90.16H90.1596H90.1592H90.1588H90.1584H90.158H90.1576H90.1572H90.1568H90.1565H90.1561H90.1557H90.1553H90.1549H90.1545H90.1541H90.1537H90.1533H90.153H90.1526H90.1522H90.1518H90.1514H90.151H90.1506H90.1502H90.1499H90.1495H90.1491H90.1487H90.1483H90.1479H90.1475H90.1472H90.1468H90.1464H90.146H90.1456H90.1452H90.1449H90.1445H90.1441H90.1437H90.1433H90.1429H90.1426H90.1422H90.1418H90.1414H90.141H90.1406H90.1403H90.1399H90.1395H90.1391H90.1387H90.1383H90.138H90.1376H90.1372H90.1368H90.1364H90.1361H90.1357H90.1353H90.1349H90.1345H90.1342H90.1338H90.1334H90.133H90.1326H90.1323H90.1319H90.1315H90.1311H90.1307H90.1304H90.13H90.1296H90.1292H90.1288H90.1285H90.1281H90.1277H90.1273H90.1269H90.1266H90.1262H90.1258H90.1254H90.1251H90.1247H90.1243H90.1239H90.1236H90.1232H90.1228H90.1224H90.1221H90.1217H90.1213H90.1209H90.1205H90.1202H90.1198H90.1194H90.119H90.1187H90.1183H90.1179H90.1175H90.1172H90.1168H90.1164H90.116H90.1157H90.1153H90.1149H90.1146H90.1142H90.1138H90.1134H90.1131H90.1127H90.1123H90.1119H90.1116H90.1112H90.1108H90.1105H90.1101H90.1097H90.1093H90.109H90.1086H90.1082H90.1078H90.1075H90.1071H90.1067H90.1064H90.106H90.1056H90.1053H90.1049H90.1045H90.1041H90.1038H90.1034H90.103H90.1027H90.1023H90.1019H90.1015H90.1012H90.1008H90.1004H90.1001H90.0997H90.0993H90.099H90.0986H90.0982H90.0979H90.0975H90.0971H90.0968H90.0964H90.096H90.0956H90.0953H90.0949H90.0945H90.0942H90.0938H90.0934H90.0931H90.0927H90.0923H90.092H90.0916H90.0912H90.0909H90.0905H90.0901H90.0898H90.0894H90.089H90.0887H90.0883H90.0879H90.0876H90.0872H90.0868H90.0865H90.0861H90.0858H90.0854H90.085H90.0847H90.0843H90.0839H90.0836H90.0832H90.0828H90.0825H90.0821H90.0817H90.0814H90.081H90.0806H90.0803H90.0799H90.0796H90.0792H90.0788H90.0785H90.0781H90.0777H90.0774H90.077H90.0766H90.0763H90.0759H90.0756H90.0752H90.0748H90.0745H90.0741H90.0737H90.0734H90.073H90.0727H90.0723H90.0719H90.0716H90.0712H90.0709H90.0705H90.0701H90.0698H90.0694H90.069H90.0687H90.0683H90.068H90.0676H90.0672H90.0669H90.0665H90.0662H90.0658H90.0654H90.0651H90.0647H90.0644H90.064H90.0636H90.0633H90.0629H90.0626H90.0622H90.0618H90.0615H90.0611H90.0608H90.0604H90.06H90.0597H90.0593H90.059H90.0586H90.0582H90.0579H90.0575H90.0572H90.0568H90.0564H90.0561H90.0557H90.0554H90.055H90.0546H90.0543H90.0539H90.0536H90.0532H90.0529H90.0525H90.0521H90.0518H90.0514H90.0511H90.0507H90.0504H90.05H90.0496H90.0493H90.0489H90.0486H90.0482H90.0479H90.0475H90.0471H90.0468H90.0464H90.0461H90.0457H90.0454H90.045H90.0446H90.0443H90.0439H90.0436H90.0432H90.0429H90.0425H90.0421H90.0418H90.0414H90.0411H90.0407H90.0404H90.04H90.0396H90.0393H90.0389H90.0386H90.0382H90.0379H90.0375H90.0372H90.0368H90.0364H90.0361H90.0357H90.0354H90.035H90.0347H90.0343H90.034H90.0336H90.0333H90.0329H90.0325H90.0322H90.0318H90.0315H90.0311H90.0308H90.0304H90.0301H90.0297H90.0293H90.029H90.0286H90.0283H90.0279H90.0276H90.0272H90.0269H90.0265H90.0262H90.0258H90.0254H90.0251H90.0247H90.0244H90.024H90.0237H90.0233H90.023H90.0226H90.0223H90.0219H90.0216H90.0212H90.0208H90.0205H90.0201H90.0198H90.0194H90.0191H90.0187H90.0184H90.018H90.0177H90.0173H90.017H90.0166H90.0163H90.0159H90.0155H90.0152H90.0148H90.0145H90.0141H90.0138H90.0134H90.0131H90.0127H90.0124H90.012H90.0117H90.0113H90.011H90.0106H90.0103H90.0099H90.0095H90.0092H90.0088H90.0085H90.0081H90.0078H90.0074H90.0071H90.0067H90.0064H90.006H90.0057H90.0053H90.005H90.0046H90.0043H90.0039H90.0035H90.0032H90.0028H90.0025H90.0021H90.0018H90.0014H90.0011H90.0007H90.0004H90H89.9997H89.9993H89.999H89.9986H89.9983H89.9979H89.9976H89.9972H89.9969H89.9965H89.9961H89.9958H89.9954H89.9951H89.9947H89.9944H89.994H89.9937H89.9933H89.993H89.9926H89.9923H89.9919H89.9916H89.9912H89.9909H89.9905H89.9902H89.9898H89.9895H89.9891H89.9888H89.9884H89.988H89.9877H89.9873H89.987H89.9866H89.9863H89.9859H89.9855H89.9851H89.9847H89.9844H89.984H89.9836H89.9832H89.9828H89.9824H89.982H89.9816H89.9812H89.9808H89.9804H89.98H89.9796H89.9792H89.9788H89.9784H89.978H89.9777H89.9773H89.9769H89.9765H89.9761H89.9757H89.9753H89.9749H89.9745H89.9741H89.9737H89.9733H89.973H89.9726H89.9722H89.9718H89.9714H89.971H89.9706H89.9702H89.9698H89.9694H89.9691H89.9687H89.9683H89.9679H89.9675H89.9671H89.9667H89.9663H89.966H89.9656H89.9652H89.9648H89.9644H89.964H89.9636H89.9632H89.9629H89.9625H89.9621H89.9617H89.9613H89.9609H89.9605H89.9602H89.9598H89.9594H89.959H89.9586H89.9582H89.9578H89.9575H89.9571H89.9567H89.9563H89.9559H89.9555H89.9552H89.9548H89.9544H89.954H89.9536H89.9532H89.9529H89.9525H89.9521H89.9517H89.9513H89.9509H89.9506H89.9502H89.9498H89.9494H89.949H89.9487H89.9483H89.9479H89.9475H89.9471H89.9468H89.9464H89.946H89.9456H89.9452H89.9448H89.9445H89.9441H89.9437H89.9433H89.943H89.9426H89.9422H89.9418H89.9414H89.9411H89.9407H89.9403H89.9399H89.9395H89.9392H89.9388H89.9384H89.938H89.9377H89.9373H89.9369H89.9365H89.9361H89.9358H89.9354H89.935H89.9346H89.9343H89.9339H89.9335H89.9331H89.9328H89.9324H89.932H89.9316H89.9313H89.9309H89.9305H89.9301H89.9298H89.9294H89.929H89.9286H89.9283H89.9279H89.9275H89.9271H89.9268H89.9264H89.926H89.9257H89.9253H89.9249H89.9245H89.9242H89.9238H89.9234H89.923H89.9227H89.9223H89.9219H89.9216H89.9212H89.9208H89.9204H89.9201H89.9197H89.9193H89.9189H89.9186H89.9182H89.9178H89.9175H89.9171H89.9167H89.9164H89.916H89.9156H89.9152H89.9149H89.9145H89.9141H89.9138H89.9134H89.913H89.9127H89.9123H89.9119H89.9115H89.9112H89.9108H89.9104H89.9101H89.9097H89.9093H89.909H89.9086H89.9082H89.9079H89.9075H89.9071H89.9068H89.9064H89.906H89.9057H89.9053H89.9049H89.9046H89.9042H89.9038H89.9035H89.9031H89.9027H89.9024H89.902H89.9016H89.9013H89.9009H89.9005H89.9002H89.8998H89.8994H89.8991H89.8987H89.8983H89.898H89.8976H89.8972H89.8969H89.8965H89.8961H89.8958H89.8954H89.8951H89.8947H89.8943H89.894H89.8936H89.8932H89.8929H89.8925H89.8921H89.8918H89.8914H89.891H89.8907H89.8903H89.89H89.8896H89.8892H89.8889H89.8885H89.8881H89.8878H89.8874H89.8871H89.8867H89.8863H89.886H89.8856H89.8852H89.8849H89.8845H89.8842H89.8838H89.8834H89.8831H89.8827H89.8823H89.882H89.8816H89.8813H89.8809H89.8805H89.8802H89.8798H89.8795H89.8791H89.8787H89.8784H89.878H89.8777H89.8773H89.8769H89.8766H89.8762H89.8759H89.8755H89.8751H89.8748H89.8744H89.8741H89.8737H89.8733H89.873H89.8726H89.8723H89.8719H89.8715H89.8712H89.8708H89.8705H89.8701H89.8697H89.8694H89.869H89.8687H89.8683H89.8679H89.8676H89.8672H89.8669H89.8665H89.8662H89.8658H89.8654H89.8651H89.8647H89.8644H89.864H89.8636H89.8633H89.8629H89.8626H89.8622H89.8619H89.8615H89.8611H89.8608H89.8604H89.8601H89.8597H89.8594H89.859H89.8586H89.8583H89.8579H89.8576H89.8572H89.8569H89.8565H89.8561H89.8558H89.8554H89.8551H89.8547H89.8544H89.854H89.8536H89.8533H89.8529H89.8526H89.8522H89.8519H89.8515H89.8512H89.8508H89.8504H89.8501H89.8497H89.8494H89.849H89.8487H89.8483H89.848H89.8476H89.8472H89.8469H89.8465H89.8462H89.8458H89.8455H89.8451H89.8448H89.8444H89.844H89.8437H89.8433H89.843H89.8426H89.8423H89.8419H89.8416H89.8412H89.8409H89.8405H89.8401H89.8398H89.8394H89.8391H89.8387H89.8384H89.838H89.8377H89.8373H89.837H89.8366H89.8363H89.8359H89.8355H89.8352H89.8348H89.8345H89.8341H89.8338H89.8334H89.8331H89.8327H89.8324H89.832H89.8316H89.8313H89.8309H89.8306H89.8302H89.8299H89.8295H89.8292H89.8288H89.8285H89.8281H89.8278H89.8274H89.8271H89.8267H89.8264H89.826H89.8256H89.8253H89.8249H89.8246H89.8242H89.8239H89.8235H89.8232H89.8228H89.8225H89.8221H89.8218H89.8214H89.8211H89.8207H89.8204H89.82H89.8196H89.8193H89.8189H89.8186H89.8182H89.8179H89.8175H89.8172H89.8168H89.8165H89.8161H89.8158H89.8154H89.8151H89.8147H89.8144H89.814H89.8137H89.8133H89.8129H89.8126H89.8122H89.8119H89.8115H89.8112H89.8108H89.8105H89.8101H89.8098H89.8094H89.8091H89.8087H89.8084H89.808H89.8077H89.8073H89.807H89.8066H89.8063H89.8059H89.8055H89.8052H89.8048H89.8045H89.8041H89.8038H89.8034H89.8031H89.8027H89.8024H89.802H89.8017H89.8013H89.801H89.8006H89.8003H89.7999H89.7996H89.7992H89.7989H89.7985H89.7982H89.7303L89.7005 4.14495L89.7003 4.14495L89.6964 4.14498C69.9298 4.30545 53.9351 22.1913 53.9351 43.9138C53.9351 50.8967 55.5984 57.7651 58.7543 63.7718C61.5145 69.0625 65.4019 73.6422 70.0103 77.0296L70.0104 77.0296C70.7286 77.5572 70.9473 78.6626 70.4486 79.4936C69.9655 80.2984 69.0334 80.4821 68.349 79.9794L68.3489 79.9794C63.3432 76.3042 59.1109 71.3203 56.1025 65.5682L56.1022 65.5676C52.6708 59.0276 50.8564 51.5381 50.8564 43.9138C50.8564 32.3896 54.9012 21.559 62.2356 13.3963L61.8637 13.0621L62.2356 13.3963C69.5537 5.25164 79.2854 0.7314 89.6377 0.633101V0.633272L89.6507 0.632806C89.8717 0.624921 90.0927 0.624921 90.3136 0.632806L90.3136 0.632977L90.3267 0.633101C100.679 0.7314 110.411 5.25164 117.729 13.3963L118.101 13.0621L117.729 13.3963C125.063 21.559 129.108 32.3896 129.108 43.9138C129.108 59.1318 121.745 73.3924 109.924 81.1526C109.677 81.3144 109.412 81.3863 109.155 81.3863C108.656 81.3863 108.137 81.1039 107.838 80.5528C107.378 79.6888 107.652 78.5945 108.384 78.1174Z" fill="#2969BD" stroke="#2969BD"/>
</g>
<mask id="mask4_178_362" style="mask-type:luminance" maskUnits="userSpaceOnUse" x="70" y="0" width="41" height="80">
<path d="M70.9629 0.5H110.344V79.2757H70.9629V0.5Z" fill="white" stroke="white"/>
</mask>
<g mask="url(#mask4_178_362)">
<path d="M99.8224 77.9573L99.8202 77.9559C99.074 77.4896 98.7793 76.4096 99.2269 75.533C100.842 72.3897 102.183 68.5779 103.219 64.2206L103.219 64.2193C104.664 58.0704 105.433 51.052 105.433 43.9138C105.433 36.7926 104.671 29.7739 103.219 23.6244L103.219 23.6242C101.862 17.8877 99.9398 13.1046 97.7161 9.71751C95.5116 6.35959 92.933 4.26166 90.229 4.14594C90.1229 4.1367 90.0481 4.1367 89.9873 4.1367H89.9859H89.9855H89.9851H89.9847H89.9843H89.9839H89.9835H89.9831H89.9827H89.9824H89.982H89.9816H89.9812H89.9808H89.9804H89.98H89.9796H89.9792H89.9788H89.9784H89.978H89.9776H89.9772H89.9768H89.9765H89.9761H89.9757H89.9753H89.9749H89.9745H89.9741H89.9737H89.9733H89.9729H89.9725H89.9722H89.9718H89.9714H89.971H89.9706H89.9702H89.9698H89.9694H89.969H89.9686H89.9683H89.9679H89.9675H89.9671H89.9667H89.9663H89.9659H89.9655H89.9652H89.9648H89.9644H89.964H89.9636H89.9632H89.9628H89.9624H89.9621H89.9617H89.9613H89.9609H89.9605H89.9601H89.9597H89.9594H89.959H89.9586H89.9582H89.9578H89.9574H89.957H89.9567H89.9563H89.9559H89.9555H89.9551H89.9547H89.9544H89.954H89.9536H89.9532H89.9528H89.9524H89.9521H89.9517H89.9513H89.9509H89.9505H89.9502H89.9498H89.9494H89.949H89.9486H89.9482H89.9479H89.9475H89.9471H89.9467H89.9463H89.946H89.9456H89.9452H89.9448H89.9444H89.9441H89.9437H89.9433H89.9429H89.9425H89.9422H89.9418H89.9414H89.941H89.9407H89.9403H89.9399H89.9395H89.9391H89.9388H89.9384H89.938H89.9376H89.9373H89.9369H89.9365H89.9361H89.9357H89.9354H89.935H89.9346H89.9342H89.9339H89.9335H89.9331H89.9327H89.9324H89.932H89.9316H89.9312H89.9309H89.9305H89.9301H89.9297H89.9294H89.929H89.9286H89.9282H89.9279H89.9275H89.9271H89.9267H89.9264H89.926H89.9256H89.9253H89.9249H89.9245H89.9241H89.9238H89.9234H89.923H89.9226H89.9223H89.9219H89.9215H89.9212H89.9208H89.9204H89.92H89.9197H89.9193H89.9189H89.9186H89.9182H89.9178H89.9174H89.9171H89.9167H89.9163H89.916H89.9156H89.9152H89.9149H89.9145H89.9141H89.9137H89.9134H89.913H89.9126H89.9123H89.9119H89.9115H89.9112H89.9108H89.9104H89.91H89.9097H89.9093H89.9089H89.9086H89.9082H89.9078H89.9075H89.9071H89.9067H89.9064H89.906H89.9056H89.9053H89.9049H89.9045H89.9042H89.9038H89.9034H89.9031H89.9027H89.9023H89.902H89.9016H89.9012H89.9009H89.9005H89.9001H89.8998H89.8994H89.899H89.8987H89.8983H89.8979H89.8976H89.8972H89.8968H89.8965H89.8961H89.8958H89.8954H89.895H89.8947H89.8943H89.8939H89.8936H89.8932H89.8928H89.8925H89.8921H89.8917H89.8914H89.891H89.8907H89.8903H89.8899H89.8896H89.8892H89.8888H89.8885H89.8881H89.8878H89.8874H89.887H89.8867H89.8863H89.8859H89.8856H89.8852H89.8849H89.8845H89.8841H89.8838H89.8834H89.883H89.8827H89.8823H89.882H89.8816H89.8812H89.8809H89.8805H89.8802H89.8798H89.8794H89.8791H89.8787H89.8783H89.878H89.8776H89.8773H89.8769H89.8765H89.8762H89.8758H89.8755H89.8751H89.8747H89.8744H89.874H89.8737H89.8733H89.8729H89.8726H89.8722H89.8719H89.8715H89.8711H89.8708H89.8704H89.8701H89.8697H89.8694H89.869H89.8686H89.8683H89.8679H89.8676H89.8672H89.8668H89.8665H89.8661H89.8658H89.8654H89.8651H89.8647H89.8643H89.864H89.8636H89.8633H89.8629H89.8625H89.8622H89.8618H89.8615H89.8611H89.8608H89.8604H89.86H89.8597H89.8593H89.859H89.8586H89.8583H89.8579H89.8575H89.8572H89.8568H89.8565H89.8561H89.8558H89.8554H89.855H89.8547H89.8543H89.854H89.8536H89.8533H89.8529H89.8526H89.8522H89.8518H89.8515H89.8511H89.8508H89.8504H89.8501H89.8497H89.8494H89.849H89.8486H89.8483H89.8479H89.8476H89.8472H89.8469H89.8465H89.8462H89.8458H89.8454H89.8451H89.8447H89.8444H89.844H89.8437H89.8433H89.843H89.8426H89.8422H89.8419H89.8415H89.8412H89.8408H89.8405H89.8401H89.8398H89.8394H89.8391H89.8387H89.8384H89.838H89.8376H89.8373H89.8369H89.8366H89.8362H89.8359H89.8355H89.8352H89.8348H89.8345H89.8341H89.8337H89.8334H89.833H89.8327H89.8323H89.832H89.8316H89.8313H89.8309H89.8306H89.8302H89.8299H89.8295H89.8292H89.8288H89.8284H89.8281H89.8277H89.8274H89.827H89.8267H89.8263H89.826H89.8256H89.8253H89.8249H89.8246H89.8242H89.8239H89.8235H89.8231H89.8228H89.8224H89.8221H89.8217H89.8214H89.821H89.8207H89.8203H89.82H89.8196H89.8193H89.8189H89.8186H89.8182H89.8179H89.8175H89.8172H89.8168H89.8164H89.8161H89.8157H89.8154H89.815H89.8147H89.8143H89.814H89.8136H89.8133H89.8129H89.8126H89.8122H89.8119H89.8115H89.8112H89.8108H89.8105H89.8101H89.8097H89.8094H89.809H89.8087H89.8083H89.808H89.8076H89.8073H89.8069H89.8066H89.8062H89.8059H89.8055H89.8052H89.8048H89.8045H89.8041H89.8038H89.8034H89.8031H89.8027H89.8024H89.802H89.8016H89.8013H89.8009H89.8006H89.8002H89.7999H89.7995H89.7992H89.7988H89.7985H89.7981H89.7876L89.7772 4.13714C87.0549 4.25139 84.4644 6.35122 82.2512 9.71612C80.0227 13.1044 78.0984 17.8875 76.7377 23.6239L76.7375 23.625C75.2931 29.7738 74.5234 36.7922 74.5234 43.9138C74.5234 51.052 75.2931 58.0706 76.7451 64.2198L76.7452 64.2201C77.6679 68.1188 78.8426 71.5848 80.2351 74.5227L80.2361 74.5246C80.6587 75.4063 80.3344 76.4778 79.5791 76.9175C78.8617 77.3352 77.9402 77.0513 77.5254 76.1873C76.0262 73.0262 74.7599 69.3052 73.7674 65.1282C72.2525 58.6972 71.4448 51.3577 71.4448 43.9138C71.4448 36.4782 72.2525 29.1469 73.7675 22.7158C75.3881 15.8671 77.7086 10.3913 80.4614 6.60392C83.2163 2.8136 86.3594 0.769608 89.6307 0.632761C89.8263 0.625053 90.102 0.625095 90.3533 0.640541L90.3533 0.640647L90.3637 0.641068C93.6193 0.773733 96.753 2.81283 99.5037 6.60162C102.252 10.387 104.572 15.8628 106.197 22.7156C107.712 29.1465 108.512 36.4778 108.512 43.9138C108.512 51.3583 107.712 58.6977 106.189 65.1281C105.077 69.8099 103.632 73.908 101.89 77.304C101.595 77.877 101.071 78.1708 100.562 78.1708C100.306 78.1708 100.054 78.1039 99.8224 77.9573Z" fill="#2969BD" stroke="#2969BD"/>
</g>
<path d="M127.564 45.6654H52.3985C51.5931 45.6654 50.8555 44.923 50.8555 43.9136C50.8555 42.8947 51.5943 42.1536 52.3985 42.1536H127.564C128.368 42.1536 129.107 42.8947 129.107 43.9136C129.107 44.923 128.369 45.6654 127.564 45.6654Z" fill="#2969BD" stroke="#2969BD"/>
<path d="M122.531 66.4298H57.4237C56.6195 66.4298 55.8882 65.697 55.8882 64.6781C55.8882 63.6567 56.6217 62.918 57.4237 62.918H122.531C123.336 62.918 124.075 63.6592 124.075 64.6781C124.075 65.6945 123.338 66.4298 122.531 66.4298Z" fill="#2969BD" stroke="#2969BD"/>
<path d="M122.546 24.9177H57.4161C56.6096 24.9177 55.873 24.1823 55.873 23.1659C55.873 22.1495 56.6096 21.4141 57.4161 21.4141H122.546C123.353 21.4141 124.089 22.1495 124.089 23.1659C124.089 24.1823 123.353 24.9177 122.546 24.9177Z" fill="#2969BD" stroke="#2969BD"/>
<path d="M51.6745 130.037L51.6746 130.037L51.6716 130.034C50.1438 128.353 47.6449 128.353 46.117 130.034L46.1162 130.034L39.6791 137.147L39.6789 137.147C38.946 137.958 38.5508 139.018 38.5508 140.141C38.5508 141.262 38.9443 142.331 39.6789 143.136C40.4074 143.95 41.3964 144.405 42.4534 144.405C43.5114 144.405 44.4989 143.949 45.2335 143.146L45.2354 143.144C45.8332 142.483 46.7812 142.483 47.3787 143.137C48.002 143.827 48.0017 144.966 47.3779 145.656C46.0548 147.119 44.3016 147.917 42.4534 147.917C40.6058 147.917 38.8599 147.12 37.5364 145.656C36.2114 144.19 35.4722 142.234 35.4722 140.141C35.4722 138.049 36.2111 136.102 37.5364 134.635L43.9735 127.515C46.6894 124.51 51.0992 124.51 53.8151 127.515C55.1401 128.98 55.8793 130.936 55.8793 133.029C55.8793 135.121 55.1401 137.077 53.8151 138.543C53.2174 139.204 52.2703 139.204 51.6726 138.543C51.0485 137.853 51.0485 136.713 51.6726 136.023C52.3975 135.221 52.8007 134.153 52.8007 133.029C52.8007 131.903 52.3964 130.845 51.6745 130.037Z" fill="#2969BD" stroke="#2969BD"/>
<path d="M51.6727 136.023L51.6729 136.023C54.3887 133.019 58.7986 133.019 61.5144 136.023L61.8853 135.688L61.5144 136.023C62.8394 137.489 63.5786 139.445 63.5786 141.537C63.5786 143.63 62.8394 145.586 61.5144 147.052C60.9168 147.713 59.9696 147.713 59.3719 147.052C58.7481 146.361 58.7478 145.223 59.371 144.532C60.1062 143.728 60.5 142.658 60.5 141.537C60.5 140.414 60.1048 139.354 59.3719 138.543C57.8426 136.851 55.3428 136.863 53.8163 138.542L53.8157 138.543L45.08 148.19L45.08 148.19L45.0778 148.192C44.3535 149.003 43.9592 150.07 43.9592 151.192C43.9592 152.307 44.3538 153.374 45.0778 154.184L45.0778 154.184L45.0807 154.188C46.608 155.868 49.1152 155.869 50.6363 154.187C51.234 153.525 52.1811 153.525 52.7788 154.187L52.7804 154.188C53.4099 154.878 53.4099 156.007 52.7804 156.697L52.7788 156.698C51.415 158.207 49.6337 158.952 47.8618 158.952C46.0904 158.952 44.3088 158.207 42.937 156.698C41.612 155.232 40.873 153.276 40.873 151.192C40.873 149.1 41.6123 147.144 42.9373 145.678L51.6727 136.023Z" fill="#2969BD" stroke="#2969BD"/>
<path d="M69.2137 144.531L69.2146 144.532C70.5455 145.997 71.2779 147.952 71.2779 150.046C71.2779 152.139 70.5455 154.094 69.2146 155.559L69.2138 155.56L57.9469 168.015L57.9468 168.015C56.5831 169.524 54.8019 170.268 53.0222 170.268C51.2506 170.268 49.4695 169.524 48.1057 168.016C46.7796 166.541 46.041 164.592 46.041 162.501C46.041 160.408 46.7802 158.452 48.1051 156.987C48.1051 156.987 48.1052 156.987 48.1052 156.987L59.3717 144.532C62.0954 141.526 66.4981 141.527 69.2137 144.531ZM50.2477 165.495L50.2487 165.496C51.7765 167.177 54.2755 167.177 55.8033 165.496L55.8042 165.495L67.0692 153.042C67.0695 153.042 67.0698 153.041 67.0701 153.041C67.8054 152.237 68.1993 151.167 68.1993 150.046C68.1993 148.924 67.8055 147.855 67.0703 147.05C65.5422 145.361 63.0424 145.361 61.5146 147.051L50.2497 159.505C50.2494 159.505 50.2491 159.505 50.2488 159.506C49.5135 160.31 49.1196 161.38 49.1196 162.501C49.1196 163.624 49.5149 164.684 50.2477 165.495Z" fill="#2969BD" stroke="#2969BD"/>
<path d="M61.2135 164.401L61.5845 164.736L61.2135 164.401C60.487 165.205 60.093 166.273 60.093 167.395C60.093 168.518 60.488 169.577 61.2116 170.387L61.2116 170.387L61.2145 170.39C62.7424 172.071 65.2413 172.071 66.7692 170.39L66.7699 170.389L74.7677 161.551C74.7679 161.55 74.7682 161.55 74.7685 161.55C75.5038 160.745 75.8977 159.676 75.8977 158.554C75.8977 157.433 75.5039 156.363 74.7688 155.559C73.2407 153.87 70.7408 153.87 69.2131 155.56C68.6154 156.221 67.6682 156.221 67.0706 155.56L66.6996 155.895L67.0706 155.56C66.4466 154.87 66.4465 153.731 67.0703 153.04C69.7939 150.035 74.1966 150.036 76.9121 153.04C78.2371 154.506 78.9763 156.462 78.9763 158.554C78.9763 160.647 78.2371 162.603 76.9121 164.069L68.9128 172.909L68.9126 172.909C67.5488 174.418 65.7675 175.163 63.9956 175.163C62.2231 175.163 60.4345 174.418 59.071 172.909C57.746 171.444 57.0068 169.488 57.0068 167.395C57.0068 165.303 57.746 163.347 59.071 161.881C59.6687 161.22 60.6159 161.22 61.2135 161.881C61.8376 162.571 61.8376 163.711 61.2135 164.401Z" fill="#2969BD" stroke="#2969BD"/>
</svg>
