<svg width="180" height="180" viewBox="0 0 180 180" fill="none" xmlns="http://www.w3.org/2000/svg">
<mask id="mask0_331_433" style="mask-type:luminance" maskUnits="userSpaceOnUse" x="0" y="62" width="50" height="82">
<path d="M0.5 63.2586H48.8114V143.09H0.5V63.2586Z" fill="white" stroke="white"/>
</mask>
<g mask="url(#mask0_331_433)">
<path d="M24.5366 141.043L24.5375 141.043C25.0528 141.203 25.5663 141.278 26.0795 141.278C28.578 141.278 30.9351 139.452 31.6799 136.6L46.7925 78.6938L46.7926 78.6937C47.2355 76.998 47.0519 75.2291 46.2745 73.695L46.2741 73.6943C45.5046 72.1698 44.2483 71.0871 42.75 70.6232C42.7498 70.6231 42.7496 70.6231 42.7494 70.623L23.1989 64.6076C20.1755 63.6811 16.9484 65.6192 16.0552 69.0579L16.0551 69.0585L0.94242 126.956L0.942394 126.956C0.49942 128.652 0.683018 130.421 1.46046 131.955L1.46082 131.956C2.2303 133.48 3.48653 134.563 4.98474 135.027L24.5366 141.043ZM24.5366 141.043L4.98554 135.027L24.5366 141.043ZM28.7268 135.597C28.3283 137.135 26.8305 138.115 25.3381 137.652L5.79162 131.638C5.79073 131.638 5.78984 131.638 5.78895 131.637C5.05878 131.419 4.47603 130.895 4.12824 130.204C3.78141 129.515 3.69148 128.717 3.8962 127.957C3.8964 127.956 3.8966 127.955 3.8968 127.954L19.0082 70.0532L28.7268 135.597ZM28.7268 135.597L43.8382 77.6957C43.8383 77.6952 43.8385 77.6946 43.8386 77.694C44.0435 76.9335 43.9536 76.1348 43.6067 75.446C43.2589 74.7553 42.676 74.2308 41.9456 74.0125C41.9449 74.0123 41.9441 74.0121 41.9433 74.0118L22.3969 67.9977C22.3967 67.9976 22.3965 67.9975 22.3963 67.9975C20.9044 67.5353 19.4071 68.5151 19.0084 70.0523L28.7268 135.597Z" fill="#AFAFAF" stroke="#AFAFAF"/>
</g>
<path d="M17.2351 130.449L17.2381 130.45C17.7968 130.625 18.3696 130.709 18.9361 130.709C20.0033 130.709 21.061 130.405 22.0207 129.805L17.2351 130.449ZM17.2351 130.449C15.6176 129.952 14.255 128.778 13.4097 127.126L13.4093 127.125M17.2351 130.449L13.4093 127.125M13.4093 127.125C12.5647 125.482 12.352 123.564 12.8182 121.736L12.8186 121.734M13.4093 127.125L12.8186 121.734M12.8186 121.734C13.2775 119.906 14.3532 118.398 15.8286 117.474C17.2925 116.561 18.9904 116.334 20.6147 116.83C22.2321 117.327 23.5946 118.501 24.4399 120.153L24.4403 120.154M12.8186 121.734L24.4403 120.154M24.4403 120.154C25.2848 121.797 25.4975 123.715 25.0314 125.543L25.031 125.545M24.4403 120.154L25.031 125.545M25.031 125.545C24.572 127.373 23.4964 128.881 22.021 129.805L25.031 125.545ZM15.7771 122.695L15.7767 122.697C15.5532 123.6 15.6556 124.545 16.071 125.369L16.0721 125.371C16.4886 126.187 17.1837 126.799 18.0368 127.058C18.8888 127.328 19.7896 127.194 20.5443 126.723C21.3111 126.249 21.84 125.479 22.0715 124.588L22.0715 124.588L22.0729 124.582C22.2964 123.679 22.1939 122.734 21.7785 121.91L21.7786 121.91L21.7755 121.904C21.3528 121.093 20.6666 120.479 19.8095 120.22L19.8091 120.219C19.522 120.133 19.2252 120.082 18.921 120.082C17.458 120.082 16.1647 121.151 15.7771 122.695Z" fill="#AFAFAF" stroke="#AFAFAF"/>
<mask id="mask1_331_433" style="mask-type:luminance" maskUnits="userSpaceOnUse" x="131" y="62" width="49" height="82">
<path d="M132.496 63.2586H179.5V143.09H132.496V63.2586Z" fill="white" stroke="white"/>
</mask>
<g mask="url(#mask1_331_433)">
<path d="M148.276 136.592L148.276 136.592C149.021 139.452 151.385 141.278 153.884 141.278C154.39 141.278 154.91 141.202 155.417 141.044L155.419 141.043L174.971 135.027C174.971 135.027 174.971 135.027 174.971 135.027C176.477 134.563 177.733 133.481 178.502 131.957C179.274 130.42 179.463 128.651 179.021 126.956L179.021 126.956L163.908 69.0509L148.276 136.592ZM148.276 136.592L133.163 78.6939L133.163 78.6938M148.276 136.592L133.163 78.6938M133.163 78.6938C132.721 76.9996 132.911 75.2301 133.682 73.6939M133.163 78.6938L133.682 73.6939M136.351 75.4415L136.351 75.4415C136.706 74.7555 137.286 74.2314 138.009 74.0128C138.01 74.0127 138.01 74.0126 138.011 74.0124L157.556 67.9987C157.816 67.9139 158.071 67.8839 158.308 67.8839C159.534 67.8839 160.618 68.7661 160.955 70.0518L160.955 70.0524L176.068 127.959L176.068 127.96C176.263 128.714 176.184 129.511 175.835 130.204L175.833 130.209C175.478 130.895 174.898 131.419 174.174 131.637C174.174 131.638 174.174 131.638 174.173 131.638L154.624 137.653C154.624 137.653 154.624 137.653 154.624 137.653C153.126 138.114 151.628 137.137 151.229 135.598L136.351 75.4415ZM136.351 75.4415L136.349 75.4461C136 76.139 135.922 76.9367 136.116 77.6905L136.117 77.6917L151.229 135.597L136.351 75.4415ZM133.682 73.6939C134.451 72.1698 135.707 71.0873 137.213 70.6233C137.213 70.6233 137.213 70.6233 137.213 70.6233L156.765 64.6076C159.78 63.6815 163.008 65.6188 163.908 69.0503L133.682 73.6939Z" fill="#AFAFAF" stroke="#AFAFAF"/>
</g>
<path d="M150.261 80.9837L150.261 80.9837L150.259 80.9843C149.412 81.2434 148.718 81.856 148.295 82.6688L148.294 82.6688L148.292 82.6747C147.876 83.4974 147.773 84.443 147.997 85.3394L147.997 85.3394L147.998 85.3426C148.23 86.2429 148.759 87.0141 149.527 87.4882C150.292 87.9608 151.184 88.0822 152.038 87.8238L152.039 87.8234C152.885 87.5644 153.581 86.9518 153.998 86.1358C154.422 85.3112 154.525 84.3637 154.293 83.4584C154.068 82.5617 153.529 81.7935 152.775 81.3216C152.275 81.0062 151.718 80.8461 151.149 80.8461C150.845 80.8461 150.548 80.8971 150.261 80.9837ZM151.149 91.4651C148.405 91.4651 145.83 89.4512 145.039 86.3095C144.58 84.4809 144.792 82.5611 145.63 80.9088C146.476 79.2655 147.838 78.0919 149.455 77.5948C151.079 77.098 152.777 77.3252 154.25 78.2391C155.724 79.1626 156.793 80.6618 157.259 82.499C158.21 86.2904 156.182 90.1793 152.836 91.2126C152.273 91.3815 151.707 91.4651 151.149 91.4651Z" fill="#AFAFAF" stroke="#AFAFAF"/>
<path d="M129.707 138.065L129.718 138.065L129.728 138.064C129.712 138.065 129.923 138.053 130.215 138.028C130.522 138.002 130.963 137.957 131.512 137.886C132.611 137.742 134.146 137.489 135.927 137.045C139.483 136.159 144.044 134.508 148.057 131.44C148.734 130.923 149.676 131.087 150.167 131.88L150.168 131.881C150.679 132.699 150.484 133.811 149.772 134.35L149.77 134.352C141.07 141.012 130.385 141.548 129.83 141.569H129.829H129.829H129.829H129.829H129.829H129.829H129.829H129.829H129.828H129.828H129.828H129.828H129.828H129.828H129.828H129.827H129.827H129.827H129.827H129.827H129.827H129.827H129.827H129.826H129.826H129.826H129.826H129.826H129.826H129.826H129.825H129.825H129.825H129.825H129.825H129.825H129.825H129.825H129.824H129.824H129.824H129.824H129.824H129.824H129.824H129.823H129.823H129.823H129.823H129.823H129.823H129.823H129.823H129.822H129.822H129.822H129.822H129.822H129.822H129.822H129.821H129.821H129.821H129.821H129.821H129.821H129.821H129.821H129.82H129.82H129.82H129.82H129.82H129.82H129.82H129.819H129.819H129.819H129.819H129.819H129.819H129.819H129.818H129.818H129.818H129.818H129.818H129.818H129.818H129.818H129.817H129.817H129.817H129.817H129.817H129.817H129.817H129.816H129.816H129.816H129.816H129.816H129.816H129.816H129.815H129.815H129.815H129.815H129.815H129.815H129.815H129.815H129.814H129.814H129.814H129.814H129.814H129.814H129.814H129.813H129.813H129.813H129.813H129.813H129.813H129.813H129.812H129.812H129.812H129.812H129.812H129.812H129.812H129.811H129.811H129.811H129.811H129.811H129.811H129.811H129.81H129.81H129.81H129.81H129.81H129.81H129.81H129.81H129.809H129.809H129.809H129.809H129.809H129.809H129.809H129.808H129.808H129.808H129.808H129.808H129.808H129.808H129.807H129.807H129.807H129.807H129.807H129.807H129.807H129.806H129.806H129.806H129.806H129.806H129.806H129.806H129.805H129.805H129.805H129.805H129.805H129.805H129.805H129.804H129.804H129.804H129.804H129.804H129.804H129.804H129.803H129.803H129.803H129.803H129.803H129.803H129.803H129.802H129.802H129.802H129.802H129.802H129.802H129.802H129.801H129.801H129.801H129.801H129.801H129.801H129.801H129.8H129.8H129.8H129.8H129.8H129.8H129.8H129.799H129.799H129.799H129.799H129.799H129.799H129.798H129.798H129.798H129.798H129.798H129.798H129.798H129.797H129.797H129.797H129.797H129.797H129.797H129.797H129.796H129.796H129.796H129.796H129.796H129.796H129.796H129.795H129.795H129.795H129.795H129.795H129.795H129.794H129.794H129.794H129.794H129.794H129.794H129.794H129.793H129.793H129.793H129.793H129.793H129.793H129.793H129.792H129.792H129.792H129.792H129.792H129.792H129.791H129.791H129.791H129.791H129.791H129.791H129.791H129.79H129.79H129.79H129.79H129.79H129.79H129.79H129.789H129.789H129.789H129.789H129.789H129.789H129.788H129.788H129.788H129.788H129.788H129.788H129.787H129.787H129.787H129.787H129.787H129.787H129.787H129.786H129.786H129.786H129.786H129.786H129.786H129.785H129.785H129.785H129.785H129.785H129.785H129.785H129.784H129.784H129.784H129.784H129.784H129.784H129.783H129.783H129.783H129.783H129.783H129.783H129.782H129.782H129.782H129.782H129.782H129.782H129.782H129.781H129.781H129.781H129.781H129.781H129.781H129.78H129.78H129.78H129.78H129.78H129.78H129.779H129.779H129.779H129.779H129.779H129.779H129.778H129.778H129.778H129.778H129.778H129.778H129.777H129.777H129.777H129.777H129.777H129.777H129.777H129.776H129.776H129.776H129.776H129.776H129.776H129.775H129.775H129.775H129.775H129.775H129.775H129.774H129.774H129.774H129.774H129.774H129.774H129.773H129.773H129.773H129.773H129.773H129.773H129.772H129.772H129.772H129.772H129.772H129.772H129.771H129.771H129.771H129.771H129.771H129.771H129.77H129.77H129.77H129.77H129.77H129.769H129.769H129.769H129.769H129.769H129.769H129.768H129.768H129.768H129.768H129.768H129.768H129.767H129.767H129.767H129.767H129.767H129.767H129.766H129.766H129.766H129.766H129.766H129.766H129.765H129.765H129.765H129.765H129.765H129.764H129.764H129.764H129.764H129.764C128.986 141.569 128.259 140.871 128.228 139.885C128.197 138.862 128.911 138.095 129.707 138.065Z" fill="#AFAFAF" stroke="#AFAFAF"/>
<path d="M36.6427 138.46L36.6425 138.46L30.5887 131.771C30.5886 131.771 30.5885 131.771 30.5885 131.771C29.9648 131.081 29.9646 129.95 30.5879 129.26C31.1931 128.598 32.1344 128.598 32.7396 129.26C32.7398 129.261 32.74 129.261 32.7402 129.261L38.7852 135.94C39.4093 136.63 39.4093 137.769 38.7852 138.46C38.4822 138.795 38.0913 138.952 37.714 138.952C37.3302 138.952 36.9464 138.796 36.6427 138.46Z" fill="#AFAFAF" stroke="#AFAFAF"/>
<mask id="mask2_331_433" style="mask-type:luminance" maskUnits="userSpaceOnUse" x="64" y="154" width="45" height="26">
<path d="M65.1943 154.725H108.421V179.5H65.1943V154.725Z" fill="white" stroke="white"/>
</mask>
<g mask="url(#mask2_331_433)">
<path d="M67.296 172.328L67.2944 172.326C66.6649 171.636 66.6649 170.499 67.2944 169.809L67.296 169.808C67.8936 169.146 68.8408 169.146 69.4385 169.808L72.9162 173.655C75.5782 176.6 79.9336 176.6 82.5959 173.655C83.8789 172.245 84.5733 170.369 84.5733 168.384C84.5733 167.419 84.4052 166.482 84.0858 165.59L84.0848 165.587C83.7474 164.663 83.2483 163.834 82.5964 163.113C81.9723 162.423 81.9723 161.283 82.5964 160.593L82.2255 160.258L82.5964 160.593C83.1941 159.932 84.1412 159.932 84.7389 160.593L84.7391 160.593L92.4832 169.151L92.4835 169.152C95.1529 172.096 99.5007 172.097 102.163 169.151C103.444 167.734 104.148 165.86 104.148 163.88C104.148 161.893 103.445 160.018 102.163 158.609C101.539 157.918 101.539 156.779 102.163 156.089C102.761 155.428 103.708 155.428 104.306 156.089L104.306 156.09C106.186 158.162 107.226 160.923 107.226 163.88C107.226 166.829 106.186 169.599 104.306 171.671L104.306 171.671C100.456 175.93 94.198 175.931 90.3402 171.671L88.4402 169.569L87.7038 168.754L87.5728 169.845C87.2841 172.248 86.3037 174.451 84.7329 176.173L84.7308 176.176C82.8044 178.314 80.2801 179.367 77.7563 179.367C75.2399 179.367 72.7078 178.314 70.7737 176.175L67.296 172.328Z" fill="#AFAFAF" stroke="#AFAFAF"/>
</g>
<path d="M105.566 162.365L105.566 162.365C107.444 164.443 109.926 165.566 112.549 165.566C115.179 165.566 117.66 164.443 119.531 162.366L119.532 162.365C123.415 158.077 123.415 151.08 119.532 146.792L119.531 146.792L100.498 125.753L100.498 125.753C99.9001 125.092 98.9529 125.092 98.3552 125.753C97.7312 126.443 97.7312 127.583 98.3552 128.273L117.389 149.303L117.389 149.303C120.025 152.219 120.025 156.938 117.389 159.853L117.388 159.854C116.105 161.264 114.389 162.062 112.549 162.062C110.716 162.062 108.992 161.264 107.716 159.853L88.6841 138.816C88.6839 138.816 88.6836 138.816 88.6834 138.816C88.077 138.152 87.129 138.155 86.5325 138.815C85.9085 139.505 85.9084 140.644 86.5323 141.335L105.566 162.365ZM105.566 162.365L86.5325 141.335L105.566 162.365Z" fill="#AFAFAF" stroke="#AFAFAF"/>
<path d="M126.357 133.084L126.357 133.084C127.639 134.502 128.334 136.377 128.334 138.355C128.334 138.747 128.311 139.139 128.246 139.542C128.029 141.091 127.371 142.504 126.357 143.626C125.075 145.044 123.358 145.843 121.517 145.843C119.677 145.843 117.961 145.045 116.678 143.627M126.357 133.084L117.048 143.29M126.357 133.084L96.1395 99.6896C93.8156 97.1189 90.386 96.1211 87.1998 97.1129L87.1991 97.1131C85.563 97.6252 84.101 98.6209 82.961 99.987L82.9607 99.9874L73.5609 111.274L73.5585 111.276L73.5459 111.288C73.533 111.301 73.5091 111.326 73.483 111.36C69.248 116.014 62.3965 116.006 58.1775 111.339L58.1772 111.339C54.7582 107.564 53.9782 101.852 56.2515 97.126C59.266 90.8704 64.4477 82.339 72.0782 77.0285L72.0956 77.0165L72.1051 77.0085L72.1079 77.0069L72.1247 76.9975L72.1467 76.9854L72.1673 76.9711C78.421 72.6423 85.2539 71.1948 92.5082 72.6464L92.5164 72.6481L92.5246 72.6495C93.6176 72.8304 108.888 75.4251 120.847 84.4784L121.09 84.662L121.365 84.5309L134.432 78.2916L134.219 77.8404L134.434 78.2908L134.433 78.2914C135.178 77.9394 136.084 78.2934 136.434 79.1997L136.435 79.2035C136.8 80.1252 136.399 81.1606 135.627 81.5255L135.626 81.5264L121.504 88.2734C121.021 88.5044 120.466 88.4418 120.026 88.0921M126.357 133.084L86.3927 93.7304C84.2208 94.4067 82.2657 95.7291 80.7321 97.5697L80.732 97.5697L71.343 108.837L71.3357 108.846L71.328 108.854C68.2895 112.18 63.3422 112.161 60.3206 108.819C57.8962 106.146 57.3531 102.121 58.9561 98.8107C61.7468 93.0037 66.5609 85.0184 73.6051 80.075C73.6443 80.0468 73.6865 80.0223 73.7139 80.0069C79.3151 76.1123 85.4851 74.7974 92.0065 76.1114L92.0239 76.1149L92.0288 76.1162C92.0386 76.1178 92.0613 76.1213 92.0899 76.1278C92.7696 76.2394 108.55 78.9202 120.026 88.0921M116.678 143.627C116.678 143.627 116.677 143.626 116.677 143.626L117.048 143.29M116.678 143.627C116.678 143.627 116.679 143.627 116.679 143.627L117.048 143.29M116.678 143.627C116.081 142.972 115.132 142.972 114.534 143.627M117.048 143.29C116.252 142.418 114.96 142.418 114.164 143.29M114.534 143.627C114.534 143.626 114.534 143.626 114.535 143.626L114.164 143.29M114.534 143.627C113.91 144.317 113.911 145.456 114.535 146.146C116.413 148.224 118.887 149.346 121.517 149.346C124.147 149.346 126.628 148.224 128.506 146.147M114.534 143.627C114.533 143.627 114.533 143.627 114.533 143.627L114.164 143.29M114.164 143.29L128.506 146.147M128.506 146.147C128.506 146.147 128.506 146.147 128.506 146.148L128.878 146.481L128.507 146.146C128.507 146.146 128.507 146.147 128.506 146.147ZM128.506 146.147C129.993 144.486 130.958 142.401 131.283 140.121L131.283 140.117C131.37 139.54 131.42 138.95 131.42 138.355C131.42 135.406 130.381 132.644 128.5 130.564M128.506 146.147L98.2821 97.1697L98.6529 96.8342L98.2823 97.1699L128.5 130.564M128.5 130.564L128.5 130.564L128.871 130.228L128.5 130.564ZM120.026 88.0921C120.026 88.0924 120.026 88.0927 120.027 88.093L119.715 88.4826L120.025 88.092C120.025 88.092 120.025 88.0921 120.026 88.0921Z" fill="#AFAFAF" stroke="#AFAFAF"/>
<path d="M43.0638 81.7628L43.0638 81.7628L43.0629 81.7583C42.8553 80.7724 43.4257 79.8533 44.2293 79.6454C57.3074 76.3607 72.0202 76.7455 72.9014 76.7686L72.9191 76.7691C72.9194 76.7691 72.9197 76.7691 72.92 76.7691C73.7123 76.7935 74.4246 77.5269 74.4246 78.521C74.4246 79.5608 73.6637 80.3035 72.846 80.2814C72.1744 80.2548 57.7205 79.8513 44.893 83.0714L44.893 83.0713L44.8815 83.0744C44.7833 83.1016 44.6717 83.1145 44.5566 83.1145C43.8889 83.1145 43.2324 82.6022 43.0638 81.7628Z" fill="#AFAFAF" stroke="#AFAFAF"/>
<mask id="mask3_331_433" style="mask-type:luminance" maskUnits="userSpaceOnUse" x="49" y="0" width="82" height="82">
<path d="M49.812 0.5H129.573V81.4028H49.812V0.5Z" fill="white" stroke="white"/>
</mask>
<g mask="url(#mask3_331_433)">
<path d="M108.384 78.1173L108.385 78.1163C119.279 70.9617 126.022 57.8521 126.022 43.9136C126.022 22.1926 110.029 4.30766 90.2717 4.14486L90.2415 4.1365H90.1736H90.1733H90.1729H90.1725H90.1721H90.1717H90.1713H90.1709H90.1705H90.1701H90.1697H90.1693H90.1689H90.1685H90.1681H90.1677H90.1673H90.1669H90.1665H90.1662H90.1658H90.1654H90.165H90.1646H90.1642H90.1638H90.1634H90.163H90.1626H90.1622H90.1618H90.1614H90.1611H90.1607H90.1603H90.1599H90.1595H90.1591H90.1587H90.1583H90.1579H90.1576H90.1572H90.1568H90.1564H90.156H90.1556H90.1552H90.1548H90.1544H90.1541H90.1537H90.1533H90.1529H90.1525H90.1521H90.1517H90.1513H90.151H90.1506H90.1502H90.1498H90.1494H90.149H90.1486H90.1483H90.1479H90.1475H90.1471H90.1467H90.1463H90.1459H90.1456H90.1452H90.1448H90.1444H90.144H90.1436H90.1432H90.1429H90.1425H90.1421H90.1417H90.1413H90.1409H90.1406H90.1402H90.1398H90.1394H90.139H90.1387H90.1383H90.1379H90.1375H90.1371H90.1367H90.1364H90.136H90.1356H90.1352H90.1348H90.1345H90.1341H90.1337H90.1333H90.1329H90.1326H90.1322H90.1318H90.1314H90.131H90.1307H90.1303H90.1299H90.1295H90.1292H90.1288H90.1284H90.128H90.1276H90.1273H90.1269H90.1265H90.1261H90.1257H90.1254H90.125H90.1246H90.1242H90.1239H90.1235H90.1231H90.1227H90.1224H90.122H90.1216H90.1212H90.1209H90.1205H90.1201H90.1197H90.1194H90.119H90.1186H90.1182H90.1179H90.1175H90.1171H90.1167H90.1164H90.116H90.1156H90.1152H90.1149H90.1145H90.1141H90.1137H90.1134H90.113H90.1126H90.1122H90.1119H90.1115H90.1111H90.1108H90.1104H90.11H90.1096H90.1093H90.1089H90.1085H90.1082H90.1078H90.1074H90.107H90.1067H90.1063H90.1059H90.1056H90.1052H90.1048H90.1044H90.1041H90.1037H90.1033H90.103H90.1026H90.1022H90.1018H90.1015H90.1011H90.1007H90.1004H90.1H90.0996H90.0993H90.0989H90.0985H90.0982H90.0978H90.0974H90.097H90.0967H90.0963H90.0959H90.0956H90.0952H90.0948H90.0945H90.0941H90.0937H90.0934H90.093H90.0926H90.0923H90.0919H90.0915H90.0912H90.0908H90.0904H90.0901H90.0897H90.0893H90.089H90.0886H90.0882H90.0879H90.0875H90.0871H90.0868H90.0864H90.086H90.0857H90.0853H90.085H90.0846H90.0842H90.0839H90.0835H90.0831H90.0828H90.0824H90.082H90.0817H90.0813H90.0809H90.0806H90.0802H90.0798H90.0795H90.0791H90.0788H90.0784H90.078H90.0777H90.0773H90.0769H90.0766H90.0762H90.0759H90.0755H90.0751H90.0748H90.0744H90.074H90.0737H90.0733H90.073H90.0726H90.0722H90.0719H90.0715H90.0711H90.0708H90.0704H90.0701H90.0697H90.0693H90.069H90.0686H90.0683H90.0679H90.0675H90.0672H90.0668H90.0664H90.0661H90.0657H90.0654H90.065H90.0646H90.0643H90.0639H90.0636H90.0632H90.0628H90.0625H90.0621H90.0618H90.0614H90.061H90.0607H90.0603H90.06H90.0596H90.0592H90.0589H90.0585H90.0582H90.0578H90.0575H90.0571H90.0567H90.0564H90.056H90.0557H90.0553H90.0549H90.0546H90.0542H90.0539H90.0535H90.0532H90.0528H90.0524H90.0521H90.0517H90.0514H90.051H90.0506H90.0503H90.0499H90.0496H90.0492H90.0489H90.0485H90.0481H90.0478H90.0474H90.0471H90.0467H90.0464H90.046H90.0456H90.0453H90.0449H90.0446H90.0442H90.0439H90.0435H90.0431H90.0428H90.0424H90.0421H90.0417H90.0414H90.041H90.0406H90.0403H90.0399H90.0396H90.0392H90.0389H90.0385H90.0382H90.0378H90.0374H90.0371H90.0367H90.0364H90.036H90.0357H90.0353H90.035H90.0346H90.0342H90.0339H90.0335H90.0332H90.0328H90.0325H90.0321H90.0318H90.0314H90.0311H90.0307H90.0303H90.03H90.0296H90.0293H90.0289H90.0286H90.0282H90.0279H90.0275H90.0272H90.0268H90.0264H90.0261H90.0257H90.0254H90.025H90.0247H90.0243H90.024H90.0236H90.0233H90.0229H90.0225H90.0222H90.0218H90.0215H90.0211H90.0208H90.0204H90.0201H90.0197H90.0194H90.019H90.0187H90.0183H90.018H90.0176H90.0172H90.0169H90.0165H90.0162H90.0158H90.0155H90.0151H90.0148H90.0144H90.0141H90.0137H90.0134H90.013H90.0126H90.0123H90.0119H90.0116H90.0112H90.0109H90.0105H90.0102H90.0098H90.0095H90.0091H90.0088H90.0084H90.0081H90.0077H90.0074H90.007H90.0067H90.0063H90.0059H90.0056H90.0052H90.0049H90.0045H90.0042H90.0038H90.0035H90.0031H90.0028H90.0024H90.0021H90.0017H90.0014H90.001H90.0007H90.0003H90H89.9996H89.9992H89.9989H89.9985H89.9982H89.9978H89.9975H89.9971H89.9968H89.9964H89.9961H89.9957H89.9954H89.995H89.9947H89.9943H89.994H89.9936H89.9933H89.9929H89.9926H89.9922H89.9919H89.9915H89.9911H89.9908H89.9904H89.9901H89.9897H89.9894H89.989H89.9887H89.9883H89.988H89.9876H89.9873H89.9869H89.9866H89.9862H89.9859H89.9855H89.9851H89.9847H89.9843H89.9839H89.9835H89.9831H89.9827H89.9823H89.9819H89.9815H89.9811H89.9807H89.9803H89.9799H89.9796H89.9792H89.9788H89.9784H89.978H89.9776H89.9772H89.9768H89.9764H89.976H89.9756H89.9752H89.9748H89.9745H89.9741H89.9737H89.9733H89.9729H89.9725H89.9721H89.9717H89.9713H89.9709H89.9705H89.9702H89.9698H89.9694H89.969H89.9686H89.9682H89.9678H89.9674H89.967H89.9667H89.9663H89.9659H89.9655H89.9651H89.9647H89.9643H89.9639H89.9636H89.9632H89.9628H89.9624H89.962H89.9616H89.9612H89.9609H89.9605H89.9601H89.9597H89.9593H89.9589H89.9585H89.9582H89.9578H89.9574H89.957H89.9566H89.9562H89.9559H89.9555H89.9551H89.9547H89.9543H89.9539H89.9536H89.9532H89.9528H89.9524H89.952H89.9516H89.9513H89.9509H89.9505H89.9501H89.9497H89.9493H89.949H89.9486H89.9482H89.9478H89.9474H89.9471H89.9467H89.9463H89.9459H89.9455H89.9452H89.9448H89.9444H89.944H89.9436H89.9433H89.9429H89.9425H89.9421H89.9417H89.9414H89.941H89.9406H89.9402H89.9399H89.9395H89.9391H89.9387H89.9383H89.938H89.9376H89.9372H89.9368H89.9365H89.9361H89.9357H89.9353H89.935H89.9346H89.9342H89.9338H89.9334H89.9331H89.9327H89.9323H89.9319H89.9316H89.9312H89.9308H89.9304H89.9301H89.9297H89.9293H89.9289H89.9286H89.9282H89.9278H89.9274H89.9271H89.9267H89.9263H89.926H89.9256H89.9252H89.9248H89.9245H89.9241H89.9237H89.9233H89.923H89.9226H89.9222H89.9219H89.9215H89.9211H89.9207H89.9204H89.92H89.9196H89.9193H89.9189H89.9185H89.9181H89.9178H89.9174H89.917H89.9167H89.9163H89.9159H89.9155H89.9152H89.9148H89.9144H89.9141H89.9137H89.9133H89.913H89.9126H89.9122H89.9118H89.9115H89.9111H89.9107H89.9104H89.91H89.9096H89.9093H89.9089H89.9085H89.9082H89.9078H89.9074H89.9071H89.9067H89.9063H89.906H89.9056H89.9052H89.9049H89.9045H89.9041H89.9038H89.9034H89.903H89.9027H89.9023H89.9019H89.9016H89.9012H89.9008H89.9005H89.9001H89.8997H89.8994H89.899H89.8986H89.8983H89.8979H89.8975H89.8972H89.8968H89.8964H89.8961H89.8957H89.8953H89.895H89.8946H89.8943H89.8939H89.8935H89.8932H89.8928H89.8924H89.8921H89.8917H89.8913H89.891H89.8906H89.8903H89.8899H89.8895H89.8892H89.8888H89.8884H89.8881H89.8877H89.8873H89.887H89.8866H89.8863H89.8859H89.8855H89.8852H89.8848H89.8844H89.8841H89.8837H89.8834H89.883H89.8826H89.8823H89.8819H89.8816H89.8812H89.8808H89.8805H89.8801H89.8797H89.8794H89.879H89.8787H89.8783H89.8779H89.8776H89.8772H89.8769H89.8765H89.8761H89.8758H89.8754H89.8751H89.8747H89.8743H89.874H89.8736H89.8733H89.8729H89.8725H89.8722H89.8718H89.8715H89.8711H89.8707H89.8704H89.87H89.8697H89.8693H89.869H89.8686H89.8682H89.8679H89.8675H89.8672H89.8668H89.8664H89.8661H89.8657H89.8654H89.865H89.8647H89.8643H89.8639H89.8636H89.8632H89.8629H89.8625H89.8621H89.8618H89.8614H89.8611H89.8607H89.8604H89.86H89.8596H89.8593H89.8589H89.8586H89.8582H89.8579H89.8575H89.8571H89.8568H89.8564H89.8561H89.8557H89.8554H89.855H89.8546H89.8543H89.8539H89.8536H89.8532H89.8529H89.8525H89.8522H89.8518H89.8514H89.8511H89.8507H89.8504H89.85H89.8497H89.8493H89.849H89.8486H89.8482H89.8479H89.8475H89.8472H89.8468H89.8465H89.8461H89.8458H89.8454H89.845H89.8447H89.8443H89.844H89.8436H89.8433H89.8429H89.8426H89.8422H89.8419H89.8415H89.8411H89.8408H89.8404H89.8401H89.8397H89.8394H89.839H89.8387H89.8383H89.838H89.8376H89.8372H89.8369H89.8365H89.8362H89.8358H89.8355H89.8351H89.8348H89.8344H89.8341H89.8337H89.8334H89.833H89.8326H89.8323H89.8319H89.8316H89.8312H89.8309H89.8305H89.8302H89.8298H89.8295H89.8291H89.8288H89.8284H89.828H89.8277H89.8273H89.827H89.8266H89.8263H89.8259H89.8256H89.8252H89.8249H89.8245H89.8242H89.8238H89.8235H89.8231H89.8228H89.8224H89.822H89.8217H89.8213H89.821H89.8206H89.8203H89.8199H89.8196H89.8192H89.8189H89.8185H89.8182H89.8178H89.8175H89.8171H89.8168H89.8164H89.8161H89.8157H89.8153H89.815H89.8146H89.8143H89.8139H89.8136H89.8132H89.8129H89.8125H89.8122H89.8118H89.8115H89.8111H89.8108H89.8104H89.8101H89.8097H89.8094H89.809H89.8087H89.8083H89.8079H89.8076H89.8072H89.8069H89.8065H89.8062H89.8058H89.8055H89.8051H89.8048H89.8044H89.8041H89.8037H89.8034H89.803H89.8027H89.8023H89.802H89.8016H89.8013H89.8009H89.8006H89.8002H89.7998H89.7995H89.7991H89.7988H89.7984H89.7981H89.7302L89.7004 4.14479L89.7002 4.1448L89.6964 4.14483C69.9298 4.3053 53.9351 22.1911 53.9351 43.9136C53.9351 50.8965 55.5984 57.765 58.7542 63.7716C61.5145 69.0624 65.4019 73.6421 70.0102 77.0294L70.0104 77.0295C70.7286 77.557 70.9473 78.6624 70.4485 79.4934C69.9655 80.2982 69.0334 80.482 68.349 79.9793L68.3489 79.9792C63.3432 76.304 59.1109 71.3201 56.1025 65.568L56.1022 65.5675C52.6708 59.0274 50.8564 51.5379 50.8564 43.9136C50.8564 32.3895 54.9012 21.5589 62.2356 13.3961L61.8988 13.0935L62.2356 13.3961C69.5537 5.25149 79.2853 0.731248 89.6376 0.632948L89.6376 0.63312L89.6507 0.632653C89.8716 0.624768 90.0926 0.624768 90.3136 0.632653L90.3135 0.632824L90.3266 0.632948C100.679 0.731248 110.411 5.25149 117.729 13.3961L118.101 13.0619L117.729 13.3961C125.063 21.5589 129.108 32.3895 129.108 43.9136C129.108 59.1317 121.745 73.3923 109.924 81.1525C109.676 81.3142 109.412 81.3862 109.155 81.3862C108.655 81.3862 108.137 81.1037 107.837 80.5527C107.378 79.6886 107.652 78.5943 108.384 78.1173Z" fill="#AFAFAF" stroke="#AFAFAF"/>
</g>
<mask id="mask4_331_433" style="mask-type:luminance" maskUnits="userSpaceOnUse" x="70" y="0" width="41" height="80">
<path d="M70.9634 0.5H110.344V79.2756H70.9634V0.5Z" fill="white" stroke="white"/>
</mask>
<g mask="url(#mask4_331_433)">
<path d="M99.8207 77.9558L99.8229 77.9571C100.055 78.1037 100.307 78.1706 100.562 78.1706C101.071 78.1706 101.596 77.8768 101.89 77.304C103.633 73.9078 105.078 69.8096 106.19 65.1275C107.712 58.6972 108.512 51.358 108.512 43.9137C108.512 36.4779 107.712 29.1468 106.197 22.7161C104.573 15.863 102.252 10.3869 99.5041 6.60147C96.7534 2.81268 93.6198 0.77358 90.3641 0.640915L90.3538 0.640495L90.3538 0.640388C90.1024 0.624942 89.8267 0.624901 89.6311 0.632609C86.3598 0.769465 83.2168 2.81346 80.4619 6.60376C77.7091 10.3911 75.3886 15.8668 73.768 22.7155L99.8207 77.9558ZM99.8207 77.9558C99.0748 77.4897 98.78 76.4103 99.2268 75.5339C100.842 72.3904 102.184 68.5782 103.219 64.2204L103.22 64.2191C104.664 58.0703 105.434 51.0519 105.434 43.9137C105.434 36.7924 104.672 29.7738 103.22 23.6243L103.22 23.6241C101.863 17.8876 99.9403 13.1045 97.7166 9.71736C95.512 6.35944 92.9334 4.26151 90.2294 4.14579C90.1234 4.13655 90.0486 4.13655 89.9877 4.13655H89.9864H89.986H89.9856H89.9852H89.9848H89.9844H89.984H89.9836H89.9832H89.9828H89.9824H89.982H89.9816H89.9812H89.9808H89.9804H89.9801H89.9797H89.9793H89.9789H89.9785H89.9781H89.9777H89.9773H89.9769H89.9765H89.9761H89.9757H89.9753H89.975H89.9746H89.9742H89.9738H89.9734H89.973H89.9726H89.9722H89.9718H89.9714H89.971H89.9707H89.9703H89.9699H89.9695H89.9691H89.9687H89.9683H89.9679H89.9675H89.9672H89.9668H89.9664H89.966H89.9656H89.9652H89.9648H89.9644H89.9641H89.9637H89.9633H89.9629H89.9625H89.9621H89.9617H89.9614H89.961H89.9606H89.9602H89.9598H89.9594H89.959H89.9587H89.9583H89.9579H89.9575H89.9571H89.9567H89.9564H89.956H89.9556H89.9552H89.9548H89.9544H89.9541H89.9537H89.9533H89.9529H89.9525H89.9521H89.9518H89.9514H89.951H89.9506H89.9502H89.9498H89.9495H89.9491H89.9487H89.9483H89.9479H89.9476H89.9472H89.9468H89.9464H89.946H89.9457H89.9453H89.9449H89.9445H89.9441H89.9438H89.9434H89.943H89.9426H89.9422H89.9419H89.9415H89.9411H89.9407H89.9404H89.94H89.9396H89.9392H89.9388H89.9385H89.9381H89.9377H89.9373H89.937H89.9366H89.9362H89.9358H89.9354H89.9351H89.9347H89.9343H89.9339H89.9336H89.9332H89.9328H89.9324H89.9321H89.9317H89.9313H89.9309H89.9306H89.9302H89.9298H89.9294H89.9291H89.9287H89.9283H89.9279H89.9276H89.9272H89.9268H89.9265H89.9261H89.9257H89.9253H89.925H89.9246H89.9242H89.9238H89.9235H89.9231H89.9227H89.9224H89.922H89.9216H89.9212H89.9209H89.9205H89.9201H89.9198H89.9194H89.919H89.9186H89.9183H89.9179H89.9175H89.9172H89.9168H89.9164H89.916H89.9157H89.9153H89.9149H89.9146H89.9142H89.9138H89.9135H89.9131H89.9127H89.9123H89.912H89.9116H89.9112H89.9109H89.9105H89.9101H89.9098H89.9094H89.909H89.9087H89.9083H89.9079H89.9076H89.9072H89.9068H89.9065H89.9061H89.9057H89.9054H89.905H89.9046H89.9043H89.9039H89.9035H89.9032H89.9028H89.9024H89.9021H89.9017H89.9013H89.901H89.9006H89.9002H89.8999H89.8995H89.8991H89.8988H89.8984H89.898H89.8977H89.8973H89.8969H89.8966H89.8962H89.8958H89.8955H89.8951H89.8948H89.8944H89.894H89.8937H89.8933H89.8929H89.8926H89.8922H89.8918H89.8915H89.8911H89.8907H89.8904H89.89H89.8897H89.8893H89.8889H89.8886H89.8882H89.8878H89.8875H89.8871H89.8868H89.8864H89.886H89.8857H89.8853H89.8849H89.8846H89.8842H89.8839H89.8835H89.8831H89.8828H89.8824H89.8821H89.8817H89.8813H89.881H89.8806H89.8802H89.8799H89.8795H89.8792H89.8788H89.8784H89.8781H89.8777H89.8774H89.877H89.8766H89.8763H89.8759H89.8756H89.8752H89.8748H89.8745H89.8741H89.8738H89.8734H89.873H89.8727H89.8723H89.872H89.8716H89.8712H89.8709H89.8705H89.8702H89.8698H89.8694H89.8691H89.8687H89.8684H89.868H89.8677H89.8673H89.8669H89.8666H89.8662H89.8659H89.8655H89.8651H89.8648H89.8644H89.8641H89.8637H89.8634H89.863H89.8626H89.8623H89.8619H89.8616H89.8612H89.8609H89.8605H89.8601H89.8598H89.8594H89.8591H89.8587H89.8584H89.858H89.8576H89.8573H89.8569H89.8566H89.8562H89.8559H89.8555H89.8551H89.8548H89.8544H89.8541H89.8537H89.8534H89.853H89.8527H89.8523H89.8519H89.8516H89.8512H89.8509H89.8505H89.8502H89.8498H89.8495H89.8491H89.8487H89.8484H89.848H89.8477H89.8473H89.847H89.8466H89.8463H89.8459H89.8455H89.8452H89.8448H89.8445H89.8441H89.8438H89.8434H89.8431H89.8427H89.8424H89.842H89.8416H89.8413H89.8409H89.8406H89.8402H89.8399H89.8395H89.8392H89.8388H89.8385H89.8381H89.8377H89.8374H89.837H89.8367H89.8363H89.836H89.8356H89.8353H89.8349H89.8346H89.8342H89.8338H89.8335H89.8331H89.8328H89.8324H89.8321H89.8317H89.8314H89.831H89.8307H89.8303H89.83H89.8296H89.8293H89.8289H89.8285H89.8282H89.8278H89.8275H89.8271H89.8268H89.8264H89.8261H89.8257H89.8254H89.825H89.8247H89.8243H89.824H89.8236H89.8232H89.8229H89.8225H89.8222H89.8218H89.8215H89.8211H89.8208H89.8204H89.8201H89.8197H89.8194H89.819H89.8187H89.8183H89.818H89.8176H89.8173H89.8169H89.8165H89.8162H89.8158H89.8155H89.8151H89.8148H89.8144H89.8141H89.8137H89.8134H89.813H89.8127H89.8123H89.812H89.8116H89.8113H89.8109H89.8106H89.8102H89.8099H89.8095H89.8091H89.8088H89.8084H89.8081H89.8077H89.8074H89.807H89.8067H89.8063H89.806H89.8056H89.8053H89.8049H89.8046H89.8042H89.8039H89.8035H89.8032H89.8028H89.8025H89.8021H89.8018H89.8014H89.801H89.8007H89.8003H89.8H89.7996H89.7993H89.7989H89.7986H89.7881L89.7776 4.13699C87.0553 4.25124 84.4649 6.35106 82.2517 9.71597C80.0232 13.1042 78.0989 17.8874 76.7382 23.6238L76.738 23.6248C75.2935 29.7736 74.5239 36.792 74.5239 43.9137C74.5239 51.0518 75.2935 58.0704 76.7456 64.2197L76.7457 64.2199C77.6684 68.1186 78.8431 71.5847 80.2356 74.5225L80.2366 74.5245C80.6592 75.4061 80.3348 76.4776 79.5796 76.9174C78.8621 77.3351 77.9407 77.0511 77.5259 76.1871M99.8207 77.9558L77.5259 76.1871M77.5259 76.1871C76.0267 73.026 74.7604 69.305 73.7679 65.1281C72.253 58.6971 71.4453 51.3576 71.4453 43.9137C71.4453 36.4782 72.253 29.147 73.7679 22.716L77.5259 76.1871Z" fill="#AFAFAF" stroke="#AFAFAF"/>
</g>
<path d="M127.563 45.6654H52.398C51.5927 45.6654 50.855 44.923 50.855 43.9136C50.855 42.8947 51.5938 42.1536 52.398 42.1536H127.563C128.368 42.1536 129.106 42.8947 129.106 43.9136C129.106 44.923 128.369 45.6654 127.563 45.6654Z" fill="#AFAFAF" stroke="#AFAFAF"/>
<path d="M122.532 66.4298H57.4242C56.62 66.4298 55.8887 65.6969 55.8887 64.678C55.8887 63.6566 56.6222 62.9179 57.4242 62.9179H122.532C123.336 62.9179 124.075 63.6591 124.075 64.678C124.075 65.6944 123.338 66.4298 122.532 66.4298Z" fill="#AFAFAF" stroke="#AFAFAF"/>
<path d="M122.547 24.9176H57.4166C56.6101 24.9176 55.8735 24.1822 55.8735 23.1658C55.8735 22.1494 56.6101 21.414 57.4166 21.414H122.547C123.353 21.414 124.09 22.1494 124.09 23.1658C124.09 24.1822 123.353 24.9176 122.547 24.9176Z" fill="#AFAFAF" stroke="#AFAFAF"/>
<path d="M51.675 130.037L51.675 130.037L51.6721 130.033C50.1442 128.353 47.6453 128.353 46.1175 130.033L46.1167 130.034L39.6796 137.147L39.6794 137.147C38.9465 137.958 38.5513 139.018 38.5513 140.141C38.5513 141.262 38.9448 142.331 39.6793 143.135C40.4079 143.95 41.3968 144.405 42.4539 144.405C43.5118 144.405 44.4993 143.949 45.2339 143.146L45.2359 143.144C45.8337 142.482 46.7817 142.482 47.3793 143.136C48.0025 143.827 48.0022 144.966 47.3784 145.656C46.0552 147.119 44.302 147.917 42.4539 147.917C40.6063 147.917 38.8604 147.12 37.5369 145.656C36.2119 144.19 35.4727 142.234 35.4727 140.141C35.4727 138.049 36.2115 136.101 37.5369 134.635L43.974 127.514C46.6899 124.51 51.0997 124.51 53.8156 127.514C55.1405 128.98 55.8798 130.936 55.8798 133.029C55.8798 135.121 55.1405 137.077 53.8156 138.543C53.2179 139.204 52.2707 139.204 51.6731 138.543C51.049 137.853 51.049 136.713 51.6731 136.023C52.3979 135.221 52.8011 134.153 52.8011 133.029C52.8011 131.903 52.3969 130.845 51.675 130.037Z" fill="#AFAFAF" stroke="#AFAFAF"/>
<path d="M51.6727 136.023L51.6728 136.023C54.3887 133.019 58.7985 133.019 61.5144 136.023C62.8394 137.489 63.5786 139.445 63.5786 141.537C63.5786 143.63 62.8394 145.586 61.5144 147.051C60.9167 147.713 59.9696 147.713 59.3719 147.051C58.7481 146.361 58.7478 145.223 59.371 144.532C60.1062 143.728 60.5 142.658 60.5 141.537C60.5 140.414 60.1048 139.354 59.3719 138.543C57.8425 136.851 55.3428 136.863 53.8163 138.542L53.8156 138.543L45.08 148.189L45.08 148.189L45.0778 148.192C44.3535 149.003 43.9592 150.07 43.9592 151.192C43.9592 152.307 44.3538 153.374 45.0778 154.184L45.0778 154.184L45.0807 154.188C46.608 155.868 49.1152 155.869 50.6363 154.187C51.234 153.525 52.1811 153.525 52.7788 154.187L52.7804 154.188C53.4099 154.878 53.4099 156.007 52.7804 156.697L52.7788 156.698C51.415 158.207 49.6337 158.952 47.8618 158.952C46.0903 158.952 44.3087 158.207 42.937 156.698C41.612 155.232 40.873 153.276 40.873 151.192C40.873 149.1 41.6123 147.144 42.9372 145.678L51.6727 136.023Z" fill="#AFAFAF" stroke="#AFAFAF"/>
<path d="M69.2137 144.531L69.2145 144.532C70.5455 145.997 71.2779 147.952 71.2779 150.046C71.2779 152.139 70.5455 154.095 69.2145 155.559L69.2138 155.56L57.9469 168.015L57.9468 168.015C56.5831 169.524 54.8019 170.269 53.0222 170.269C51.2506 170.269 49.4695 169.524 48.1058 168.016C46.7796 166.541 46.041 164.593 46.041 162.501C46.041 160.409 46.7802 158.453 48.1051 156.987C48.1051 156.987 48.1052 156.987 48.1052 156.987L59.3717 144.532C62.0954 141.527 66.4981 141.527 69.2137 144.531ZM50.2477 165.495L50.2487 165.496C51.7765 167.177 54.2754 167.177 55.8033 165.496L55.8042 165.495L67.0692 153.042C67.0695 153.042 67.0698 153.041 67.0701 153.041C67.8054 152.237 68.1992 151.167 68.1992 150.046C68.1992 148.924 67.8054 147.855 67.0703 147.051C65.5422 145.361 63.0425 145.361 61.5147 147.051C61.5147 147.051 61.5147 147.051 61.5146 147.051L50.2497 159.505C50.2493 159.505 50.249 159.505 50.2486 159.506C49.5135 160.31 49.1196 161.38 49.1196 162.501C49.1196 163.625 49.5148 164.685 50.2477 165.495Z" fill="#AFAFAF" stroke="#AFAFAF"/>
<path d="M61.2121 170.387L61.215 170.39C62.7428 172.071 65.2417 172.071 66.7696 170.39L66.7704 170.389L74.7681 161.551C74.7684 161.55 74.7686 161.55 74.7689 161.55C75.5042 160.745 75.8982 159.676 75.8982 158.554C75.8982 157.433 75.5043 156.363 74.769 155.559C73.2409 153.87 70.7412 153.87 69.2135 155.56C68.6158 156.221 67.6687 156.221 67.071 155.56C66.4469 154.87 66.4469 153.73 67.071 153.04C69.7947 150.035 74.1971 150.036 76.9126 153.04C78.2376 154.506 78.9768 156.462 78.9768 158.554C78.9768 160.647 78.2376 162.603 76.9127 164.068C76.9127 164.068 76.9126 164.068 76.9126 164.068L68.9132 172.909L68.9131 172.909C67.5492 174.418 65.7679 175.163 63.9961 175.163C62.2236 175.163 60.435 174.418 59.0715 172.909C57.7465 171.444 57.0073 169.488 57.0073 167.395C57.0073 165.303 57.7465 163.346 59.0715 161.881C59.6692 161.22 60.6164 161.22 61.214 161.881C61.8381 162.571 61.8381 163.71 61.214 164.401C60.4875 165.205 60.0935 166.273 60.0935 167.395C60.0935 168.518 60.4885 169.577 61.2121 170.387L61.2121 170.387Z" fill="#AFAFAF" stroke="#AFAFAF"/>
</svg>
