<svg width="182" height="182" viewBox="0 0 182 182" fill="none" xmlns="http://www.w3.org/2000/svg">
<mask id="mask0_331_433" style="mask-type:luminance" maskUnits="userSpaceOnUse" x="0" y="63" width="51" height="83">
<path d="M1 63.7586H50.3114V144.59H1V63.7586Z" fill="white" stroke="white"/>
</mask>
<g mask="url(#mask0_331_433)">
<path d="M27.0796 142.778C26.5162 142.778 25.9529 142.695 25.3895 142.521L5.8377 136.505C4.20024 135.998 2.8407 134.818 2.01446 133.181C1.18071 131.536 0.985419 129.641 1.45863 127.83L16.5713 69.9322C17.5252 66.2596 21.0104 64.1076 24.3455 65.1296L43.8973 71.1454C45.5347 71.6522 46.8943 72.8321 47.7205 74.469C48.5543 76.1142 48.7495 78.0087 48.2763 79.8201L33.1637 137.726C32.3675 140.776 29.8287 142.778 27.0796 142.778ZM26.4862 138.175C27.6654 138.54 28.9048 137.776 29.2428 136.471L44.3555 78.5654C44.5282 77.9256 44.4531 77.2526 44.1602 76.6709C43.8672 76.0893 43.3865 75.6655 42.8006 75.491L23.2488 69.4752C22.0695 69.1096 20.8302 69.8741 20.4922 71.1786L5.37951 129.085C5.20675 129.724 5.28186 130.398 5.5748 130.979C5.86774 131.561 6.34846 131.985 6.93434 132.159L26.4862 138.175Z" fill="#AFAFAF" stroke="#AFAFAF"/>
</g>
<path d="M19.9361 132.209C19.3201 132.209 18.6967 132.118 18.0883 131.927C16.3306 131.386 14.8659 130.115 13.9646 128.354C13.0632 126.6 12.8379 124.556 13.3336 122.612C13.8219 120.668 14.9711 119.047 16.5635 118.05C18.1484 117.062 19.9961 116.812 21.7613 117.352C23.5189 117.892 24.9836 119.164 25.885 120.925C26.7863 122.679 27.0117 124.723 26.5159 126.667C26.0277 128.611 24.8785 130.231 23.2861 131.229C22.2495 131.877 21.1003 132.209 19.9361 132.209ZM19.921 121.582C18.7117 121.582 17.6 122.471 17.262 123.817C17.0667 124.606 17.1569 125.429 17.5174 126.143C17.878 126.85 18.4714 127.365 19.1849 127.581C19.891 127.805 20.6421 127.697 21.2806 127.298C21.9265 126.9 22.3847 126.243 22.5875 125.462C22.7828 124.673 22.6927 123.85 22.3321 123.136C21.9641 122.429 21.3782 121.914 20.6646 121.698C20.4168 121.623 20.1689 121.582 19.921 121.582Z" fill="#AFAFAF" stroke="#AFAFAF"/>
<mask id="mask1_331_433" style="mask-type:luminance" maskUnits="userSpaceOnUse" x="132" y="63" width="50" height="83">
<path d="M132.996 63.7586H181V144.59H132.996V63.7586Z" fill="white" stroke="white"/>
</mask>
<g mask="url(#mask1_331_433)">
<path d="M154.884 142.778C152.135 142.778 149.588 140.776 148.792 137.718L133.679 79.8201C133.206 78.0088 133.409 76.1143 134.235 74.4691C135.062 72.8322 136.421 71.6523 138.066 71.1454L157.618 65.1297C160.945 64.1076 164.431 66.2597 165.392 69.924L180.505 127.83C180.978 129.641 180.775 131.536 179.949 133.181C179.123 134.818 177.763 135.998 176.118 136.505L156.566 142.521C156.01 142.695 155.44 142.778 154.884 142.778ZM159.308 69.3839C159.113 69.3839 158.91 69.4088 158.707 69.4753L139.155 75.4911C138.577 75.6656 138.096 76.0894 137.796 76.671C137.503 77.2526 137.435 77.9257 137.6 78.5655L152.713 136.472C153.051 137.776 154.29 138.541 155.477 138.175L175.029 132.159C175.607 131.985 176.088 131.561 176.388 130.979C176.681 130.398 176.749 129.725 176.584 129.085L161.471 71.1787C161.186 70.0902 160.284 69.3839 159.308 69.3839Z" fill="#AFAFAF" stroke="#AFAFAF"/>
</g>
<path d="M152.149 92.9651C149.152 92.9651 146.395 90.7715 145.554 87.4313C145.066 85.4869 145.291 83.4429 146.185 81.6814C147.086 79.9281 148.551 78.6569 150.309 78.1168C152.074 77.5767 153.922 77.8259 155.514 78.8147C157.106 79.8118 158.248 81.4238 158.744 83.3764C159.75 87.3897 157.617 91.5692 153.982 92.6909C153.373 92.8737 152.757 92.9651 152.149 92.9651ZM152.149 82.3461C151.901 82.3461 151.653 82.3876 151.405 82.4624C150.699 82.6785 150.106 83.1936 149.738 83.8999C149.377 84.6145 149.287 85.4371 149.483 86.2181C149.685 87.0075 150.144 87.6639 150.789 88.0628C151.435 88.4616 152.179 88.5613 152.893 88.3453C153.599 88.1292 154.192 87.6141 154.553 86.9078C154.921 86.1932 155.011 85.3706 154.808 84.5812C154.613 83.8002 154.147 83.1438 153.509 82.7449C153.088 82.479 152.622 82.3461 152.149 82.3461Z" fill="#AFAFAF" stroke="#AFAFAF"/>
<path d="M130.764 143.069C129.675 143.069 128.766 142.113 128.728 140.9C128.691 139.654 129.569 138.607 130.689 138.565C130.794 138.557 140.874 138.067 148.753 132.043C149.677 131.337 150.954 131.586 151.592 132.616C152.231 133.638 152.006 135.042 151.074 135.749C142.196 142.546 131.305 143.052 130.839 143.069C130.816 143.069 130.794 143.069 130.764 143.069Z" fill="#AFAFAF" stroke="#AFAFAF"/>
<path d="M38.714 140.452C38.1882 140.452 37.6699 140.236 37.2718 139.795L31.2178 133.106C30.4216 132.226 30.4216 130.805 31.2178 129.924C32.0215 129.043 33.3059 129.043 34.1096 129.924L40.1562 136.604C40.9523 137.485 40.9523 138.914 40.1562 139.795C39.7581 140.236 39.2323 140.452 38.714 140.452Z" fill="#AFAFAF" stroke="#AFAFAF"/>
<mask id="mask2_331_433" style="mask-type:luminance" maskUnits="userSpaceOnUse" x="65" y="154" width="46" height="28">
<path d="M65.6943 155.225H109.921V181H65.6943V155.225Z" fill="white" stroke="white"/>
</mask>
<g mask="url(#mask2_331_433)">
<path d="M78.7563 180.867C76.0973 180.867 73.4308 179.754 71.4028 177.51L67.925 173.663C67.1213 172.782 67.1213 171.353 67.925 170.472C68.7212 169.592 70.0132 169.592 70.8094 170.472L74.2871 174.319C76.7508 177.045 80.7618 177.045 83.2255 174.319C84.4198 173.007 85.0733 171.253 85.0733 169.384C85.0733 168.478 84.9155 167.597 84.6151 166.758C84.2996 165.894 83.8339 165.121 83.2255 164.448C82.4293 163.567 82.4293 162.138 83.2255 161.258C84.0217 160.377 85.3136 160.377 86.1098 161.258L93.8539 169.816C96.3251 172.541 100.329 172.541 102.792 169.816C103.987 168.495 104.648 166.742 104.648 164.88C104.648 163.011 103.987 161.258 102.792 159.945C101.996 159.064 101.996 157.635 102.792 156.754C103.589 155.873 104.88 155.873 105.677 156.754C107.645 158.923 108.726 161.806 108.726 164.88C108.726 167.946 107.645 170.838 105.677 173.007C101.628 177.485 95.0257 177.485 90.9696 173.007L89.0693 170.904C88.7688 173.405 87.7473 175.707 86.1023 177.51C84.0818 179.754 81.4228 180.867 78.7563 180.867Z" fill="#AFAFAF" stroke="#AFAFAF"/>
</g>
<path d="M113.549 167.066C110.777 167.066 108.163 165.877 106.195 163.7L87.1616 142.67C86.3654 141.789 86.3654 140.36 87.1616 139.479C87.9578 138.599 89.2497 138.599 90.0534 139.479L109.087 160.518C110.274 161.831 111.866 162.562 113.549 162.562C115.239 162.562 116.824 161.831 118.018 160.518C120.482 157.793 120.482 153.364 118.018 150.638L98.9843 129.608C98.1881 128.727 98.1881 127.298 98.9843 126.417C99.7805 125.537 101.072 125.537 101.869 126.417L120.902 147.456C124.958 151.935 124.958 159.222 120.902 163.7C118.942 165.877 116.328 167.066 113.549 167.066Z" fill="#AFAFAF" stroke="#AFAFAF"/>
<path d="M122.517 150.846C119.738 150.846 117.132 149.658 115.164 147.481C114.367 146.6 114.367 145.171 115.164 144.29C115.96 143.418 117.252 143.418 118.048 144.29C119.242 145.611 120.827 146.343 122.517 146.343C124.207 146.343 125.792 145.611 126.986 144.29C127.933 143.243 128.549 141.922 128.752 140.468C128.812 140.094 128.834 139.729 128.834 139.355C128.834 137.494 128.181 135.74 126.986 134.419L96.7685 101.025C94.5677 98.5903 91.3379 97.6597 88.3484 98.5903C86.8086 99.0722 85.4265 100.011 84.3449 101.307L74.9333 112.608C74.9108 112.633 74.8882 112.649 74.8732 112.674C70.4416 117.568 63.2308 117.568 58.8066 112.674C55.2463 108.744 54.4426 102.811 56.8011 97.909C59.8282 91.6273 65.056 83.0024 72.7926 77.6182C72.8226 77.5932 72.8527 77.5766 72.8827 77.56C79.2448 73.1562 86.2152 71.6771 93.6063 73.1562C94.7105 73.339 110.086 75.948 122.149 85.0797L135.219 78.8396C136.255 78.3494 137.457 78.8728 137.9 80.0195C138.351 81.1578 137.878 82.4873 136.841 82.9775L122.72 89.7245C122.059 90.0403 121.3 89.9489 120.714 89.4835C109.155 80.2438 93.1481 77.6431 92.9904 77.6182C92.9603 77.6098 92.9378 77.6098 92.9078 77.6015C86.5157 76.3136 80.4766 77.6015 74.9784 81.432C74.9483 81.4486 74.9183 81.4653 74.8957 81.4819C67.9553 86.351 63.1857 94.2447 60.4065 100.028C58.8892 103.16 59.4075 106.966 61.6909 109.484C64.5152 112.608 69.1196 112.624 71.9588 109.517L81.3479 98.2496C82.9403 96.3385 84.9759 94.9592 87.2443 94.253C91.6534 92.882 96.408 94.253 99.6529 97.8342L129.871 131.228C131.839 133.405 132.92 136.289 132.92 139.355C132.92 139.978 132.868 140.593 132.778 141.191C132.44 143.567 131.433 145.744 129.878 147.481C127.91 149.658 125.296 150.846 122.517 150.846Z" fill="#AFAFAF" stroke="#AFAFAF"/>
<path d="M45.5566 84.6145C44.6252 84.6145 43.7839 83.9082 43.5736 82.8613C43.3182 81.6482 44.0093 80.4434 45.1059 80.1608C58.3708 76.8289 73.2882 77.2527 73.9341 77.2693C75.0383 77.3025 75.9246 78.2996 75.9246 79.521C75.9246 80.7923 74.9782 81.8144 73.829 81.7811C73.2131 81.7562 58.7914 81.349 46.0148 84.5564C45.8645 84.5979 45.7068 84.6145 45.5566 84.6145Z" fill="#AFAFAF" stroke="#AFAFAF"/>
<mask id="mask3_331_433" style="mask-type:luminance" maskUnits="userSpaceOnUse" x="49" y="0" width="83" height="84">
<path d="M50.312 1H131.073V82.9028H50.312V1Z" fill="white" stroke="white"/>
</mask>
<g mask="url(#mask3_331_433)">
<path d="M110.155 82.8862C109.464 82.8862 108.78 82.4957 108.397 81.7894C107.826 80.7175 108.142 79.3299 109.111 78.6984C119.852 71.644 126.522 58.6984 126.522 44.9136C126.522 23.418 110.703 5.80268 91.2638 5.64481C91.2337 5.64481 91.2037 5.64481 91.1736 5.6365C91.106 5.6365 91.046 5.6365 90.9859 5.6365C90.9183 5.6365 90.8582 5.6365 90.7981 5.6365C90.768 5.64481 90.738 5.64481 90.7004 5.64481C71.2538 5.80268 55.4351 23.418 55.4351 44.9136C55.4351 51.8185 57.08 58.607 60.1972 64.5397C62.9238 69.7661 66.762 74.2863 71.3064 77.6265C72.2453 78.3162 72.5006 79.7121 71.8772 80.7507C71.2538 81.7894 69.9919 82.0719 69.053 81.3822C63.9829 77.6598 59.7015 72.6161 56.6594 66.7998C53.1892 60.1857 51.3564 52.6161 51.3564 44.9136C51.3564 33.2726 55.4426 22.3212 62.8637 14.0619C70.2698 5.8193 80.1321 1.23268 90.6328 1.13297C90.8657 1.12466 91.0985 1.12466 91.3314 1.13297C101.832 1.23268 111.694 5.8193 119.101 14.0619C126.522 22.3212 130.608 33.2726 130.608 44.9136C130.608 60.2854 123.172 74.71 111.199 82.5704C110.868 82.7865 110.508 82.8862 110.155 82.8862Z" fill="#AFAFAF" stroke="#AFAFAF"/>
</g>
<mask id="mask4_331_433" style="mask-type:luminance" maskUnits="userSpaceOnUse" x="70" y="0" width="43" height="82">
<path d="M71.4634 1H111.844V80.7756H71.4634V1Z" fill="white" stroke="white"/>
</mask>
<g mask="url(#mask4_331_433)">
<path d="M101.562 79.6706C101.217 79.6706 100.871 79.5792 100.556 79.3798C99.5717 78.7649 99.2262 77.3939 99.7821 76.3054C101.374 73.2061 102.704 69.4338 103.733 65.1048C105.168 58.9976 105.934 52.0179 105.934 44.9137C105.934 37.826 105.175 30.8464 103.733 24.7392C101.036 13.3391 96.1166 5.84428 91.1967 5.64486C91.1065 5.63655 91.0465 5.63655 90.9864 5.63655C90.9188 5.63655 90.8587 5.63655 90.7986 5.63655C85.8487 5.84428 80.9288 13.3391 78.2247 24.7392C76.7901 30.8464 76.0239 37.826 76.0239 44.9137C76.0239 52.0179 76.7901 58.9976 78.2322 65.1048C79.1486 68.9768 80.3129 72.4085 81.6874 75.3083C82.2132 76.4051 81.8301 77.7678 80.8311 78.3495C79.8321 78.9311 78.6003 78.499 78.0745 77.4022C76.5572 74.2032 75.2803 70.4475 74.2813 66.2431C72.7565 59.7703 71.9453 52.3918 71.9453 44.9137C71.9453 37.4438 72.7565 30.0736 74.2813 23.6008C77.5412 9.82433 83.6479 1.42384 90.6108 1.13302C90.8211 1.12471 91.1141 1.12471 91.3845 1.14133C98.3174 1.42384 104.417 9.81603 107.684 23.6008C109.209 30.0736 110.012 37.4438 110.012 44.9137C110.012 52.3918 109.209 59.7703 107.676 66.2431C106.557 70.9544 105.1 75.0923 103.335 78.5323C102.959 79.2635 102.268 79.6706 101.562 79.6706Z" fill="#AFAFAF" stroke="#AFAFAF"/>
</g>
<path d="M128.563 47.1654H53.398C52.2714 47.1654 51.355 46.1517 51.355 44.9136C51.355 43.6673 52.2714 42.6536 53.398 42.6536H128.563C129.69 42.6536 130.606 43.6673 130.606 44.9136C130.606 46.1517 129.69 47.1654 128.563 47.1654Z" fill="#AFAFAF" stroke="#AFAFAF"/>
<path d="M123.532 67.9298H58.4242C57.2975 67.9298 56.3887 66.9244 56.3887 65.678C56.3887 64.4316 57.2975 63.4179 58.4242 63.4179H123.532C124.659 63.4179 125.575 64.4316 125.575 65.678C125.575 66.9244 124.659 67.9298 123.532 67.9298Z" fill="#AFAFAF" stroke="#AFAFAF"/>
<path d="M123.547 26.4176H58.4166C57.2899 26.4176 56.3735 25.4122 56.3735 24.1658C56.3735 22.9194 57.2899 21.914 58.4166 21.914H123.547C124.673 21.914 125.59 22.9194 125.59 24.1658C125.59 25.4122 124.673 26.4176 123.547 26.4176Z" fill="#AFAFAF" stroke="#AFAFAF"/>
<path d="M43.4539 149.417C41.4559 149.417 39.5781 148.553 38.1659 146.991C36.7538 145.429 35.9727 143.351 35.9727 141.141C35.9727 138.931 36.7538 136.862 38.1659 135.3L44.6031 128.179C47.5175 124.955 52.2721 124.955 55.1865 128.179C56.5986 129.741 57.3798 131.818 57.3798 134.029C57.3798 136.239 56.5986 138.316 55.1865 139.878C54.3903 140.759 53.0983 140.759 52.3021 139.878C51.5059 138.998 51.5059 137.568 52.3021 136.688C52.9406 135.981 53.3011 135.034 53.3011 134.029C53.3011 133.023 52.9406 132.084 52.3021 131.37C50.9726 129.907 48.8169 129.907 47.4874 131.37L41.0503 138.482C40.4043 139.197 40.0513 140.136 40.0513 141.141C40.0513 142.147 40.4043 143.094 41.0503 143.8C41.6887 144.515 42.545 144.905 43.4539 144.905C44.3627 144.905 45.219 144.515 45.865 143.808C46.6612 142.928 47.9531 142.928 48.7493 143.8C49.5455 144.681 49.5455 146.11 48.7493 146.991C47.3372 148.553 45.4519 149.417 43.4539 149.417Z" fill="#AFAFAF" stroke="#AFAFAF"/>
<path d="M48.8618 160.452C46.9464 160.452 45.031 159.646 43.5663 158.034C42.1542 156.472 41.373 154.394 41.373 152.192C41.373 149.982 42.1542 147.905 43.5663 146.343L52.3019 136.688C55.2163 133.464 59.9709 133.464 62.8853 136.688C64.2974 138.25 65.0786 140.327 65.0786 142.537C65.0786 144.747 64.2974 146.825 62.8853 148.387C62.0891 149.268 60.7972 149.268 60.001 148.387C59.2048 147.506 59.2048 146.077 60.001 145.196C60.6469 144.49 61 143.543 61 142.537C61 141.532 60.6469 140.593 60.001 139.878C58.6715 138.408 56.5158 138.416 55.1863 139.878L46.4507 149.525C45.8122 150.24 45.4592 151.187 45.4592 152.192C45.4592 153.189 45.8122 154.137 46.4507 154.851C47.7802 156.314 49.9434 156.314 51.2654 154.851C52.0616 153.97 53.3535 153.97 54.1497 154.851C54.9534 155.732 54.9534 157.153 54.1497 158.034C52.6925 159.646 50.7771 160.452 48.8618 160.452Z" fill="#AFAFAF" stroke="#AFAFAF"/>
<path d="M54.0222 171.769C52.1069 171.769 50.1915 170.963 48.7343 169.351C47.3222 167.78 46.541 165.711 46.541 163.501C46.541 161.291 47.3222 159.214 48.7343 157.651L60.0012 145.196C62.9231 141.972 67.6702 141.972 70.5846 145.196C72.0042 146.758 72.7779 148.835 72.7779 151.046C72.7779 153.256 72.0042 155.333 70.5846 156.895L59.3177 169.351C57.8605 170.963 55.9451 171.769 54.0222 171.769ZM51.6186 166.16C52.9481 167.622 55.1039 167.622 56.4334 166.16L67.7002 153.705C68.3462 152.998 68.6992 152.051 68.6992 151.046C68.6992 150.04 68.3462 149.093 67.7002 148.387C66.3708 146.916 64.215 146.916 62.8855 148.387L51.6186 160.842C50.9727 161.548 50.6196 162.496 50.6196 163.501C50.6196 164.506 50.9727 165.445 51.6186 166.16Z" fill="#AFAFAF" stroke="#AFAFAF"/>
<path d="M64.9961 176.663C63.0807 176.663 61.1578 175.857 59.7006 174.245C58.2885 172.683 57.5073 170.605 57.5073 168.395C57.5073 166.185 58.2885 164.108 59.7006 162.545C60.4968 161.665 61.7887 161.665 62.5849 162.545C63.3811 163.426 63.3811 164.855 62.5849 165.736C61.9465 166.442 61.5935 167.39 61.5935 168.395C61.5935 169.4 61.9465 170.339 62.5849 171.054C63.9144 172.516 66.0702 172.516 67.3997 171.054L75.3992 162.213C76.0451 161.507 76.3982 160.56 76.3982 159.554C76.3982 158.549 76.0451 157.602 75.3992 156.895C74.0697 155.425 71.9139 155.425 70.5844 156.895C69.7882 157.776 68.4963 157.776 67.7001 156.895C66.9039 156.014 66.9039 154.585 67.7001 153.705C70.622 150.481 75.3691 150.481 78.2835 153.705C79.6956 155.267 80.4768 157.344 80.4768 159.554C80.4768 161.764 79.6956 163.842 78.2835 165.404L70.284 174.245C68.8268 175.857 66.9114 176.663 64.9961 176.663Z" fill="#AFAFAF" stroke="#AFAFAF"/>
</svg>
