<svg width="182" height="182" viewBox="0 0 182 182" fill="none" xmlns="http://www.w3.org/2000/svg">
<mask id="mask0_178_362" style="mask-type:luminance" maskUnits="userSpaceOnUse" x="0" y="63" width="51" height="83">
<path d="M1 63.7589H50.3115V144.59H1V63.7589Z" fill="white" stroke="white"/>
</mask>
<g mask="url(#mask0_178_362)">
<path d="M27.0796 142.778C26.5162 142.778 25.9529 142.695 25.3896 142.521L5.8377 136.505C4.20024 135.998 2.84071 134.818 2.01446 133.181C1.18071 131.536 0.985419 129.642 1.45863 127.83L16.5713 69.9325C17.5253 66.2599 21.0105 64.1078 24.3455 65.1299L43.8973 71.1456C45.5348 71.6525 46.8943 72.8324 47.7206 74.4693C48.5543 76.1145 48.7496 78.009 48.2764 79.8203L33.1637 137.726C32.3675 140.776 29.8287 142.778 27.0796 142.778ZM26.4862 138.175C27.6655 138.541 28.9048 137.776 29.2428 136.472L44.3555 78.5657C44.5283 77.9259 44.4532 77.2528 44.1602 76.6712C43.8673 76.0896 43.3866 75.6658 42.8007 75.4913L23.2488 69.4755C22.0696 69.1099 20.8302 69.8744 20.4922 71.1789L5.37952 129.085C5.20676 129.725 5.28187 130.398 5.57481 130.979C5.86775 131.561 6.34847 131.985 6.93435 132.159L26.4862 138.175Z" fill="#2969BD" stroke="#2969BD"/>
</g>
<path d="M19.9361 132.209C19.3201 132.209 18.6967 132.118 18.0883 131.927C16.3306 131.387 14.866 130.115 13.9646 128.354C13.0632 126.601 12.8379 124.556 13.3337 122.612C13.8219 120.668 14.9711 119.048 16.5635 118.05C18.1484 117.062 19.9962 116.812 21.7613 117.352C23.5189 117.893 24.9836 119.164 25.885 120.925C26.7863 122.679 27.0117 124.723 26.5159 126.667C26.0277 128.611 24.8785 130.232 23.2861 131.229C22.2495 131.877 21.1003 132.209 19.9361 132.209ZM19.921 121.582C18.7117 121.582 17.6001 122.471 17.262 123.817C17.0668 124.606 17.1569 125.429 17.5174 126.144C17.878 126.85 18.4714 127.365 19.1849 127.581C19.891 127.805 20.6421 127.697 21.2806 127.298C21.9266 126.9 22.3847 126.243 22.5875 125.462C22.7828 124.673 22.6927 123.85 22.3322 123.136C21.9641 122.429 21.3782 121.914 20.6647 121.698C20.4168 121.623 20.1689 121.582 19.921 121.582Z" fill="#2969BD" stroke="#2969BD"/>
<mask id="mask1_178_362" style="mask-type:luminance" maskUnits="userSpaceOnUse" x="132" y="63" width="50" height="83">
<path d="M132.995 63.7589H181V144.59H132.995V63.7589Z" fill="white" stroke="white"/>
</mask>
<g mask="url(#mask1_178_362)">
<path d="M154.884 142.778C152.135 142.778 149.588 140.776 148.792 137.718L133.679 79.8204C133.206 78.009 133.409 76.1145 134.235 74.4693C135.062 72.8324 136.421 71.6525 138.066 71.1457L157.618 65.1299C160.945 64.1079 164.431 66.2599 165.392 69.9242L180.505 127.83C180.978 129.642 180.775 131.536 179.949 133.181C179.123 134.818 177.763 135.998 176.118 136.505L156.566 142.521C156.01 142.695 155.44 142.778 154.884 142.778ZM159.308 69.3842C159.113 69.3842 158.91 69.4091 158.707 69.4756L139.155 75.4913C138.577 75.6658 138.096 76.0896 137.796 76.6712C137.503 77.2529 137.435 77.9259 137.6 78.5657L152.713 136.472C153.051 137.776 154.29 138.541 155.477 138.175L175.029 132.159C175.607 131.985 176.088 131.561 176.389 130.98C176.682 130.398 176.749 129.725 176.584 129.085L161.471 71.1789C161.186 70.0904 160.284 69.3842 159.308 69.3842Z" fill="#2969BD" stroke="#2969BD"/>
</g>
<path d="M152.15 92.9654C149.153 92.9654 146.396 90.7718 145.555 87.4315C145.067 85.4872 145.292 83.4431 146.186 81.6816C147.087 79.9284 148.552 78.6571 150.31 78.117C152.075 77.5769 153.923 77.8262 155.515 78.815C157.107 79.8121 158.249 81.424 158.745 83.3767C159.751 87.39 157.618 91.5694 153.983 92.6912C153.374 92.874 152.758 92.9654 152.15 92.9654ZM152.15 82.3463C151.902 82.3463 151.654 82.3879 151.406 82.4627C150.7 82.6787 150.107 83.1939 149.739 83.9001C149.378 84.6147 149.288 85.4373 149.484 86.2184C149.686 87.0077 150.145 87.6642 150.79 88.063C151.436 88.4618 152.18 88.5615 152.894 88.3455C153.6 88.1295 154.193 87.6143 154.554 86.908C154.922 86.1935 155.012 85.3709 154.809 84.5815C154.614 83.8004 154.148 83.144 153.51 82.7452C153.089 82.4793 152.623 82.3463 152.15 82.3463Z" fill="#2969BD" stroke="#2969BD"/>
<path d="M130.764 143.069C129.675 143.069 128.766 142.113 128.729 140.9C128.691 139.654 129.57 138.607 130.689 138.565C130.794 138.557 140.874 138.067 148.754 132.043C149.678 131.337 150.955 131.586 151.593 132.616C152.231 133.638 152.006 135.042 151.075 135.749C142.196 142.546 131.305 143.052 130.839 143.069C130.817 143.069 130.794 143.069 130.764 143.069Z" fill="#2969BD" stroke="#2969BD"/>
<path d="M38.714 140.452C38.1882 140.452 37.6699 140.236 37.2718 139.795L31.2178 133.106C30.4216 132.226 30.4216 130.805 31.2178 129.924C32.0215 129.043 33.3059 129.043 34.1096 129.924L40.1562 136.605C40.9524 137.485 40.9524 138.914 40.1562 139.795C39.7581 140.236 39.2323 140.452 38.714 140.452Z" fill="#2969BD" stroke="#2969BD"/>
<mask id="mask2_178_362" style="mask-type:luminance" maskUnits="userSpaceOnUse" x="65" y="154" width="46" height="28">
<path d="M65.6948 155.225H109.921V181H65.6948V155.225Z" fill="white" stroke="white"/>
</mask>
<g mask="url(#mask2_178_362)">
<path d="M78.7568 180.867C76.0978 180.867 73.4313 179.754 71.4033 177.51L67.9255 173.663C67.1218 172.782 67.1218 171.353 67.9255 170.472C68.7217 169.591 70.0137 169.591 70.8099 170.472L74.2876 174.319C76.7513 177.045 80.7623 177.045 83.226 174.319C84.4203 173.007 85.0738 171.253 85.0738 169.384C85.0738 168.478 84.916 167.597 84.6156 166.758C84.3001 165.894 83.8344 165.121 83.226 164.448C82.4298 163.567 82.4298 162.138 83.226 161.257C84.0222 160.377 85.3141 160.377 86.1103 161.257L93.8545 169.816C96.3257 172.541 100.329 172.541 102.793 169.816C103.987 168.495 104.648 166.741 104.648 164.88C104.648 163.011 103.987 161.257 102.793 159.945C101.997 159.064 101.997 157.635 102.793 156.754C103.589 155.873 104.881 155.873 105.677 156.754C107.645 158.923 108.727 161.806 108.727 164.88C108.727 167.946 107.645 170.838 105.677 173.007C101.629 177.485 95.0262 177.485 90.9701 173.007L89.0698 170.904C88.7693 173.405 87.7478 175.707 86.1028 177.51C84.0823 179.754 81.4233 180.867 78.7568 180.867Z" fill="#2969BD" stroke="#2969BD"/>
</g>
<path d="M113.549 167.066C110.778 167.066 108.164 165.877 106.196 163.7L87.1621 142.67C86.3659 141.789 86.3659 140.36 87.1621 139.479C87.9583 138.599 89.2502 138.599 90.0539 139.479L109.088 160.518C110.274 161.831 111.867 162.562 113.549 162.562C115.239 162.562 116.824 161.831 118.018 160.518C120.482 157.793 120.482 153.364 118.018 150.638L98.9848 129.608C98.1886 128.727 98.1886 127.298 98.9848 126.417C99.781 125.537 101.073 125.537 101.869 126.417L120.903 147.456C124.959 151.935 124.959 159.222 120.903 163.7C118.942 165.877 116.328 167.066 113.549 167.066Z" fill="#2969BD" stroke="#2969BD"/>
<path d="M122.518 150.846C119.739 150.846 117.132 149.658 115.164 147.481C114.368 146.6 114.368 145.171 115.164 144.29C115.96 143.418 117.252 143.418 118.049 144.29C119.243 145.611 120.828 146.343 122.518 146.343C124.208 146.343 125.793 145.611 126.987 144.29C127.933 143.243 128.549 141.922 128.752 140.468C128.812 140.094 128.835 139.729 128.835 139.355C128.835 137.493 128.181 135.74 126.987 134.419L96.7691 101.025C94.5683 98.5902 91.3385 97.6596 88.349 98.5902C86.8092 99.0722 85.4271 100.011 84.3455 101.307L74.9338 112.608C74.9113 112.633 74.8888 112.649 74.8737 112.674C70.4421 117.568 63.2313 117.568 58.8071 112.674C55.2468 108.744 54.4431 102.811 56.8016 97.9089C59.8286 91.6272 65.0565 83.0024 72.7931 77.6181C72.8232 77.5931 72.8532 77.5765 72.8832 77.5599C79.2453 73.1561 86.2158 71.6771 93.6069 73.1561C94.711 73.3389 110.087 75.9479 122.15 85.0796L135.219 78.8395C136.256 78.3493 137.458 78.8727 137.901 80.0194C138.352 81.1577 137.878 82.4872 136.842 82.9774L122.721 89.7244C122.06 90.0402 121.301 89.9488 120.715 89.4835C109.155 80.2437 93.1487 77.643 92.9909 77.6181C92.9609 77.6098 92.9384 77.6098 92.9083 77.6014C86.5162 76.3135 80.4771 77.6014 74.9789 81.4319C74.9488 81.4486 74.9188 81.4652 74.8963 81.4818C67.9558 86.3509 63.1862 94.2446 60.407 100.028C58.8897 103.16 59.408 106.966 61.6914 109.483C64.5157 112.608 69.1201 112.624 71.9594 109.517L81.3485 98.2496C82.9408 96.3385 84.9764 94.9592 87.2448 94.2529C91.6539 92.8819 96.4086 94.2529 99.6534 97.8341L129.871 131.228C131.839 133.405 132.921 136.289 132.921 139.355C132.921 139.978 132.868 140.593 132.778 141.191C132.44 143.567 131.434 145.744 129.879 147.481C127.911 149.658 125.297 150.846 122.518 150.846Z" fill="#2969BD" stroke="#2969BD"/>
<path d="M45.5571 84.6145C44.6257 84.6145 43.7844 83.9082 43.5741 82.8613C43.3187 81.6482 44.0097 80.4434 45.1064 80.1608C58.3713 76.8289 73.2887 77.2527 73.9347 77.2693C75.0388 77.3025 75.9252 78.2996 75.9252 79.521C75.9252 80.7923 74.9787 81.8144 73.8295 81.7811C73.2136 81.7562 58.7919 81.349 46.0153 84.5564C45.865 84.5979 45.7073 84.6145 45.5571 84.6145Z" fill="#2969BD" stroke="#2969BD"/>
<mask id="mask3_178_362" style="mask-type:luminance" maskUnits="userSpaceOnUse" x="49" y="0" width="83" height="84">
<path d="M50.3115 1H131.073V82.9028H50.3115V1Z" fill="white" stroke="white"/>
</mask>
<g mask="url(#mask3_178_362)">
<path d="M110.155 82.8863C109.464 82.8863 108.78 82.4958 108.397 81.7895C107.826 80.7177 108.142 79.33 109.111 78.6986C119.852 71.6441 126.522 58.6986 126.522 44.9138C126.522 23.4181 110.703 5.80283 91.2639 5.64496C91.2338 5.64496 91.2038 5.64497 91.1737 5.63665C91.1061 5.63665 91.046 5.63665 90.9859 5.63665C90.9183 5.63665 90.8582 5.63665 90.7982 5.63665C90.7681 5.64497 90.7381 5.64496 90.7005 5.64496C71.2538 5.80283 55.4351 23.4181 55.4351 44.9138C55.4351 51.8186 57.08 58.6072 60.1972 64.5399C62.9238 69.7663 66.7621 74.2864 71.3064 77.6267C72.2453 78.3163 72.5007 79.7123 71.8773 80.7509C71.2538 81.7895 69.9919 82.072 69.053 81.3824C63.9829 77.6599 59.7015 72.6163 56.6594 66.7999C53.1892 60.1859 51.3564 52.6163 51.3564 44.9138C51.3564 33.2727 55.4426 22.3213 62.8637 14.0621C70.2698 5.81946 80.1321 1.23283 90.6329 1.13312C90.8658 1.12481 91.0986 1.12481 91.3315 1.13312C101.832 1.23283 111.695 5.81946 119.101 14.0621C126.522 22.3213 130.608 33.2727 130.608 44.9138C130.608 60.2856 123.172 74.7102 111.199 82.5706C110.868 82.7866 110.508 82.8863 110.155 82.8863Z" fill="#2969BD" stroke="#2969BD"/>
</g>
<mask id="mask4_178_362" style="mask-type:luminance" maskUnits="userSpaceOnUse" x="70" y="0" width="43" height="82">
<path d="M71.4629 1H111.844V80.7757H71.4629V1Z" fill="white" stroke="white"/>
</mask>
<g mask="url(#mask4_178_362)">
<path d="M101.562 79.6708C101.216 79.6708 100.871 79.5794 100.555 79.38C99.5713 78.7651 99.2258 77.3941 99.7816 76.3056C101.374 73.2063 102.704 69.434 103.733 65.1049C105.167 58.9977 105.933 52.0181 105.933 44.9138C105.933 37.8262 105.175 30.8465 103.733 24.7393C101.036 13.3392 96.1161 5.84443 91.1962 5.64501C91.1061 5.6367 91.046 5.63671 90.9859 5.63671C90.9183 5.63671 90.8582 5.63671 90.7981 5.63671C85.8482 5.84443 80.9283 13.3392 78.2243 24.7393C76.7896 30.8465 76.0234 37.8262 76.0234 44.9138C76.0234 52.0181 76.7896 58.9977 78.2318 65.1049C79.1481 68.977 80.3124 72.4086 81.687 75.3085C82.2127 76.4053 81.8297 77.768 80.8307 78.3496C79.8317 78.9313 78.5998 78.4992 78.074 77.4024C76.5567 74.2034 75.2798 70.4477 74.2808 66.2433C72.756 59.7705 71.9448 52.392 71.9448 44.9138C71.9448 37.4439 72.756 30.0738 74.2808 23.601C77.5407 9.82449 83.6474 1.42399 90.6103 1.13317C90.8207 1.12486 91.1136 1.12487 91.384 1.14148C98.3169 1.42399 104.416 9.81618 107.683 23.601C109.208 30.0738 110.012 37.4439 110.012 44.9138C110.012 52.392 109.208 59.7705 107.676 66.2433C106.557 70.9545 105.1 75.0925 103.334 78.5324C102.959 79.2636 102.268 79.6708 101.562 79.6708Z" fill="#2969BD" stroke="#2969BD"/>
</g>
<path d="M128.564 47.1654H53.3985C52.2718 47.1654 51.3555 46.1517 51.3555 44.9136C51.3555 43.6673 52.2718 42.6536 53.3985 42.6536H128.564C129.691 42.6536 130.607 43.6673 130.607 44.9136C130.607 46.1517 129.691 47.1654 128.564 47.1654Z" fill="#2969BD" stroke="#2969BD"/>
<path d="M123.531 67.9298H58.4237C57.297 67.9298 56.3882 66.9244 56.3882 65.6781C56.3882 64.4317 57.297 63.418 58.4237 63.418H123.531C124.658 63.418 125.575 64.4317 125.575 65.6781C125.575 66.9244 124.658 67.9298 123.531 67.9298Z" fill="#2969BD" stroke="#2969BD"/>
<path d="M123.546 26.4177H58.4161C57.2894 26.4177 56.373 25.4123 56.373 24.1659C56.373 22.9195 57.2894 21.9141 58.4161 21.9141H123.546C124.673 21.9141 125.589 22.9195 125.589 24.1659C125.589 25.4123 124.673 26.4177 123.546 26.4177Z" fill="#2969BD" stroke="#2969BD"/>
<path d="M43.4534 149.417C41.4554 149.417 39.5776 148.553 38.1655 146.991C36.7533 145.429 35.9722 143.352 35.9722 141.141C35.9722 138.931 36.7533 136.862 38.1655 135.3L44.6026 128.179C47.517 124.955 52.2716 124.955 55.186 128.179C56.5981 129.741 57.3793 131.819 57.3793 134.029C57.3793 136.239 56.5981 138.316 55.186 139.878C54.3898 140.759 53.0979 140.759 52.3017 139.878C51.5055 138.998 51.5055 137.569 52.3017 136.688C52.9401 135.981 53.3007 135.034 53.3007 134.029C53.3007 133.023 52.9401 132.085 52.3017 131.37C50.9722 129.908 48.8164 129.908 47.487 131.37L41.0498 138.483C40.4038 139.197 40.0508 140.136 40.0508 141.141C40.0508 142.147 40.4038 143.094 41.0498 143.8C41.6882 144.515 42.5445 144.905 43.4534 144.905C44.3623 144.905 45.2185 144.515 45.8645 143.809C46.6607 142.928 47.9527 142.928 48.7488 143.8C49.545 144.681 49.545 146.11 48.7488 146.991C47.3367 148.553 45.4514 149.417 43.4534 149.417Z" fill="#2969BD" stroke="#2969BD"/>
<path d="M48.8618 160.452C46.9464 160.452 45.031 159.646 43.5663 158.034C42.1542 156.472 41.373 154.394 41.373 152.192C41.373 149.982 42.1542 147.905 43.5663 146.343L52.302 136.688C55.2163 133.464 59.971 133.464 62.8853 136.688C64.2975 138.25 65.0786 140.327 65.0786 142.537C65.0786 144.747 64.2975 146.825 62.8853 148.387C62.0891 149.268 60.7972 149.268 60.001 148.387C59.2048 147.506 59.2048 146.077 60.001 145.196C60.647 144.49 61 143.543 61 142.537C61 141.532 60.647 140.593 60.001 139.878C58.6715 138.408 56.5158 138.416 55.1863 139.878L46.4507 149.525C45.8122 150.24 45.4592 151.187 45.4592 152.192C45.4592 153.189 45.8122 154.137 46.4507 154.851C47.7802 156.314 49.9434 156.314 51.2654 154.851C52.0616 153.971 53.3535 153.971 54.1497 154.851C54.9534 155.732 54.9534 157.153 54.1497 158.034C52.6925 159.646 50.7772 160.452 48.8618 160.452Z" fill="#2969BD" stroke="#2969BD"/>
<path d="M54.0222 171.768C52.1069 171.768 50.1915 170.962 48.7343 169.351C47.3222 167.78 46.541 165.711 46.541 163.501C46.541 161.291 47.3222 159.213 48.7343 157.651L60.0012 145.196C62.9231 141.972 67.6702 141.972 70.5846 145.196C72.0042 146.758 72.7779 148.835 72.7779 151.046C72.7779 153.256 72.0042 155.333 70.5846 156.895L59.3177 169.351C57.8605 170.962 55.9451 171.768 54.0222 171.768ZM51.6186 166.16C52.9481 167.622 55.1039 167.622 56.4334 166.16L67.7003 153.704C68.3463 152.998 68.6993 152.051 68.6993 151.046C68.6993 150.04 68.3463 149.093 67.7003 148.387C66.3708 146.916 64.2151 146.916 62.8856 148.387L51.6186 160.842C50.9727 161.548 50.6196 162.496 50.6196 163.501C50.6196 164.506 50.9727 165.445 51.6186 166.16Z" fill="#2969BD" stroke="#2969BD"/>
<path d="M64.9956 176.663C63.0802 176.663 61.1573 175.857 59.7001 174.245C58.288 172.683 57.5068 170.605 57.5068 168.395C57.5068 166.185 58.288 164.108 59.7001 162.545C60.4963 161.665 61.7883 161.665 62.5845 162.545C63.3807 163.426 63.3807 164.855 62.5845 165.736C61.946 166.442 61.593 167.39 61.593 168.395C61.593 169.4 61.946 170.339 62.5845 171.054C63.914 172.516 66.0697 172.516 67.3992 171.054L75.3987 162.213C76.0447 161.507 76.3977 160.56 76.3977 159.554C76.3977 158.549 76.0447 157.602 75.3987 156.895C74.0692 155.425 71.9135 155.425 70.584 156.895C69.7878 157.776 68.4958 157.776 67.6996 156.895C66.9034 156.015 66.9034 154.585 67.6996 153.705C70.6215 150.481 75.3687 150.481 78.283 153.705C79.6951 155.267 80.4763 157.344 80.4763 159.554C80.4763 161.764 79.6951 163.842 78.283 165.404L70.2835 174.245C68.8263 175.857 66.911 176.663 64.9956 176.663Z" fill="#2969BD" stroke="#2969BD"/>
</svg>
