<svg width="170" height="170" viewBox="0 0 170 170" fill="none" xmlns="http://www.w3.org/2000/svg">
<mask id="mask0_178_480" style="mask-type:luminance" maskUnits="userSpaceOnUse" x="0" y="0" width="170" height="170">
<path d="M0 0H170V170H0V0Z" fill="white"/>
</mask>
<g mask="url(#mask0_178_480)">
<path d="M169.4 165.514L162.191 156.493C160.13 153.922 157.437 151.95 154.423 150.726C158.652 148.031 161.165 144.334 161.329 144.096C161.764 143.439 161.895 142.625 161.698 141.869C161.493 141.105 160.976 140.473 160.27 140.119C154.456 137.211 150.835 131.361 150.835 124.846V101.826C150.835 94.6617 146.418 88.4013 139.89 85.8462V60.4021H145.367C146.878 60.4021 148.101 59.1697 148.101 57.658V49.4423H150.835C152.354 49.4423 153.578 48.2182 153.578 46.7065V35.7467C153.578 35.4181 153.496 35.1059 153.389 34.8019C153.356 34.7115 153.315 34.6376 153.282 34.5554C153.167 34.3254 153.028 34.1118 152.855 33.9228C152.814 33.8817 152.781 33.8242 152.74 33.7831C152.543 33.5942 152.321 33.4298 152.067 33.2984L86.3627 0.427239C85.5909 0.0410993 84.6877 0.0410993 83.9158 0.427239L18.2116 33.2984C17.9571 33.4216 17.7354 33.5942 17.5383 33.7831C17.4973 33.8324 17.4644 33.8817 17.4234 33.9228C17.2509 34.12 17.1114 34.3254 16.9964 34.5636C16.9554 34.6376 16.9225 34.7197 16.8897 34.8019C16.7829 35.1059 16.7008 35.4181 16.7008 35.7467V46.7065C16.7008 48.2182 17.9242 49.4423 19.4351 49.4423H22.1775V57.658C22.1775 59.1697 23.401 60.4021 24.9118 60.4021H30.3885V83.743C23.7048 89.2722 19.4351 97.6276 19.4351 106.969V124.846C19.4351 131.361 15.8222 137.211 10.0007 140.128C9.29451 140.473 8.78543 141.113 8.58016 141.869C8.37489 142.633 8.51447 143.447 8.94965 144.096C9.10566 144.342 11.6182 148.031 15.8551 150.726C12.8334 151.958 10.1402 153.922 8.0875 156.502L0.870055 165.522C0.213177 166.344 0.0900121 167.47 0.541616 168.414C1.00143 169.359 1.9539 169.967 3.01312 169.967H167.265C168.316 169.967 169.277 169.359 169.729 168.414C170.189 167.461 170.057 166.336 169.4 165.514ZM154.908 143.282C152.921 145.328 149.505 148.056 145.367 148.056C144.956 148.056 144.57 148.154 144.225 148.319L131.679 145.805V145.312C131.679 145.246 131.638 145.18 131.638 145.115C136.721 142.173 140.514 137.252 141.959 131.411C143.404 131.131 144.743 130.573 145.925 129.792C147.14 135.239 150.302 140.045 154.908 143.282ZM24.9118 120.665C24.9118 118.643 26.0203 116.893 27.646 115.94V125.372C26.0203 124.427 24.9118 122.677 24.9118 120.665ZM33.1228 115.053C39.2235 114.494 44.9301 112.046 49.5529 108.004C51.2197 109.458 53.0754 110.65 55.0214 111.685V120.665C55.0214 125.997 58.856 130.433 63.9057 131.411C64.0535 132.002 64.2177 132.586 64.4148 133.161C64.4066 133.169 64.3984 133.177 64.3984 133.185C61.6887 138.887 55.8589 142.576 49.5529 142.576C40.488 142.576 33.1228 135.206 33.1228 126.136V115.053ZM85.1393 82.3135C98.7284 82.3135 109.772 93.3718 109.772 106.969V111.225C108.926 110.732 108.015 110.346 107.038 110.091V106.969C107.038 105.457 105.815 104.225 104.304 104.225H65.9749C64.4641 104.225 63.2406 105.457 63.2406 106.969V110.091C62.2635 110.346 61.3521 110.732 60.4981 111.225V106.969C60.4981 93.3718 71.5501 82.3135 85.1393 82.3135ZM90.616 77.3594C88.8342 77.0307 87.0114 76.8336 85.1393 76.8336C83.2672 76.8336 81.4443 77.0307 79.6626 77.3594V71.3537H90.616V77.3594ZM120.726 108.004C125.348 112.046 131.055 114.494 137.148 115.053V126.136C137.148 135.206 129.782 142.576 120.726 142.576C114.288 142.576 108.59 138.871 105.888 133.095C106.077 132.544 106.233 131.978 106.373 131.411C111.423 130.433 115.249 125.997 115.249 120.665V111.685C117.203 110.641 119.059 109.458 120.726 108.004ZM145.367 120.665C145.367 122.677 144.258 124.427 142.624 125.38V115.949C144.258 116.893 145.367 118.643 145.367 120.665ZM85.1393 142.576C76.0826 142.576 68.7091 135.206 68.7091 126.136V109.705H101.561V126.136C101.561 135.206 94.196 142.576 85.1393 142.576ZM60.4981 120.665C60.4981 118.643 61.6066 116.893 63.2406 115.94V125.372C61.6066 124.427 60.4981 122.677 60.4981 120.665ZM107.038 115.94C108.664 116.893 109.772 118.643 109.772 120.665C109.772 122.677 108.664 124.427 107.038 125.38V115.94ZM47.3606 153.059C45.4064 152.205 44.0762 150.249 44.0762 148.056V147.333C45.8333 147.785 47.6562 148.056 49.5529 148.056C51.425 148.056 53.2561 147.776 55.0214 147.308V148.056C55.0214 148.623 54.9065 149.173 54.734 149.715C52.0408 150.274 49.5529 151.457 47.3606 153.059ZM60.4489 145.073C63.1421 143.521 65.4986 141.409 67.3297 138.854C69.1607 141.401 71.5173 143.545 74.2433 145.123C74.2269 145.345 74.2105 145.566 74.2515 145.796L60.4653 148.557C60.4735 148.384 60.4981 148.22 60.4981 148.056V145.312C60.4981 145.23 60.4571 145.156 60.4489 145.073ZM85.1393 148.056C86.3545 148.056 87.5451 147.924 88.7028 147.735L85.1393 153.684L81.5675 147.735C82.7335 147.924 83.9241 148.056 85.1393 148.056ZM96.027 145.123C98.7613 143.545 101.118 141.401 102.941 138.854C104.78 141.434 107.12 143.545 109.813 145.098C109.813 145.172 109.772 145.238 109.772 145.312V148.056C109.772 148.22 109.797 148.384 109.805 148.557L96.027 145.796C96.0681 145.566 96.0435 145.353 96.027 145.123ZM115.536 149.715C115.364 149.173 115.249 148.623 115.249 148.056V147.316C117.014 147.768 118.837 148.056 120.726 148.056C122.622 148.056 124.445 147.785 126.202 147.333V148.056C126.202 150.249 124.872 152.205 122.918 153.059C120.717 151.457 118.23 150.274 115.536 149.715ZM145.367 101.826V111.225C143.749 110.288 141.894 109.705 139.89 109.705C133.559 109.705 127.606 107.24 123.131 102.754L122.655 102.286C121.588 101.218 119.863 101.218 118.796 102.286L118.32 102.762C117.343 103.732 116.292 104.611 115.175 105.4C114.797 98.0877 111.817 91.4658 107.12 86.4378C111.135 83.7759 115.865 82.3135 120.726 82.3135H121.809C127.073 82.3135 131.958 84.9261 134.873 89.3133C134.922 89.3954 135.013 89.4447 135.07 89.5187C135.177 89.6419 135.284 89.7569 135.407 89.8555C135.546 89.9787 135.694 90.0691 135.85 90.1595C135.99 90.2334 136.129 90.3074 136.285 90.3567C136.359 90.3813 136.417 90.4306 136.491 90.447C141.713 91.7616 145.367 96.4363 145.367 101.826ZM123.46 76.9322C122.91 76.8911 122.36 76.8336 121.809 76.8336H120.726C117.926 76.8336 115.167 77.2361 112.515 77.992V71.3537H123.46V76.9322ZM85.1393 5.94L139.241 33.0108H109.772C108.261 33.0108 107.038 34.235 107.038 35.7467C107.038 37.2584 108.261 38.4907 109.772 38.4907H148.101V43.9624H97.349C99.9601 41.054 101.561 37.2255 101.561 33.0108C101.561 23.9489 94.196 16.5712 85.1393 16.5712C76.0826 16.5712 68.7091 23.9489 68.7091 33.0108C68.7091 37.2255 70.3185 41.054 72.9296 43.9624H22.1775V38.4907H60.4981C62.0172 38.4907 63.2406 37.2584 63.2406 35.7467C63.2406 34.235 62.0172 33.0108 60.4981 33.0108H31.0372L85.1393 5.94ZM74.1858 33.0108C74.1858 26.9641 79.096 22.0511 85.1393 22.0511C91.1743 22.0511 96.0845 26.9641 96.0845 33.0108C96.0845 39.0494 91.1743 43.9624 85.1393 43.9624C79.096 43.9624 74.1858 39.0494 74.1858 33.0108ZM27.646 49.4423H142.624V54.9222H27.646V49.4423ZM35.8652 60.4021H134.413V81.04C132.738 79.7912 130.907 78.7807 128.937 78.0824V68.6178C128.937 67.1061 127.713 65.882 126.202 65.882H109.772C108.261 65.882 107.038 67.1061 107.038 68.6178V79.5776C107.038 79.7584 107.112 79.9227 107.145 80.1034C105.667 80.8511 104.246 81.7055 102.908 82.6914C100.822 81.1633 98.5396 79.8898 96.0845 78.9286V68.6178C96.0845 67.1061 94.8611 65.882 93.3503 65.882H76.9283C75.4093 65.882 74.1858 67.1061 74.1858 68.6178V78.9286C71.739 79.8898 69.4563 81.1633 67.3707 82.6996C66.0241 81.7137 64.6118 80.8511 63.1339 80.1034C63.1667 79.9227 63.2406 79.7584 63.2406 79.5776V68.6178C63.2406 67.1061 62.0172 65.882 60.4981 65.882H44.0762C42.5572 65.882 41.3337 67.1061 41.3337 68.6178V78.0002C39.4288 78.5424 37.5977 79.2736 35.8652 80.1609V60.4021ZM57.7639 77.992C55.1117 77.2361 52.3447 76.8336 49.5529 76.8336C48.6251 76.8336 47.7137 76.8911 46.8105 76.9732V71.3537H57.7639V77.992ZM49.5529 82.3135C54.4138 82.3135 59.1433 83.7759 63.1585 86.4378C58.4618 91.4658 55.4812 98.0877 55.1035 105.4C53.9868 104.611 52.9276 103.732 51.9505 102.754L51.4825 102.286C50.4151 101.218 48.6908 101.218 47.6151 102.286L47.1471 102.762C42.6639 107.24 36.7192 109.705 30.3885 109.705C28.385 109.705 26.5293 110.288 24.9118 111.225V106.969C24.9118 93.3718 35.9638 82.3135 49.5529 82.3135ZM24.3452 129.792C25.5276 130.573 26.8742 131.131 28.3111 131.411C29.7645 137.252 33.5497 142.173 38.6405 145.115C38.6323 145.18 38.5995 145.246 38.5995 145.312V145.805L26.0531 148.319C25.7 148.154 25.3223 148.056 24.9118 148.056C20.7652 148.056 17.3577 145.328 15.3706 143.282C19.977 140.045 23.1382 135.239 24.3452 129.792ZM12.3654 159.919C14.3689 157.405 17.2099 155.672 20.3711 155.039L39.125 151.293C39.8475 153.601 41.3173 155.598 43.2797 156.986L37.2857 164.487H8.71154L12.3654 159.919ZM44.2979 164.487L47.9518 159.919C49.9553 157.405 52.7963 155.672 55.9575 155.039L77.035 150.824L82.7909 160.42C83.2836 161.242 84.1786 161.751 85.1393 161.751C86.1 161.751 86.995 161.242 87.4876 160.42L93.2353 150.824L114.321 155.039C117.474 155.672 120.315 157.405 122.327 159.919L125.981 164.487H44.2979ZM132.993 164.487L126.999 156.986C128.961 155.598 130.431 153.601 131.154 151.285L149.907 155.039C153.06 155.672 155.901 157.405 157.913 159.911L161.567 164.487H132.993Z" fill="#2969BD"/>
</g>
</svg>
