<?xml version="1.0"?>
<svg width="140" height="170" xmlns="http://www.w3.org/2000/svg" xmlns:svg="http://www.w3.org/2000/svg">
 <mask height="170" id="mask0_331_514" maskUnits="userSpaceOnUse" width="140" x="0" y="0">
  <path d="m0,0l140,0l0,170l-140,0l0,-170z" fill="white" id="svg_1"/>
 </mask>
 <g class="layer">
  <title>Layer 1</title>
  <g id="svg_2" mask="url(#mask0_331_514)">
   <path d="m138.52,10.25l-14.62,0l0,-8.9c0,-0.74 -0.63,-1.35 -1.4,-1.35l-121.08,0c-0.77,0 -1.4,0.61 -1.4,1.35l0,157.06c0,0.74 0.63,1.34 1.4,1.34l14.63,0l0,8.89c0,0.75 0.62,1.36 1.4,1.36l121.07,0c0.77,0 1.4,-0.61 1.4,-1.36l0,-157.05c0,-0.74 -0.63,-1.34 -1.4,-1.34zm-135.7,-7.55l118.28,0l0,154.36l-118.28,0l0,-154.36zm134.3,164.6l-118.27,0l0,-7.55l103.65,0c0.77,0 1.4,-0.6 1.4,-1.34l0,-145.47l13.22,0l0,154.36z" fill="#306cbc" id="svg_3"/>
  </g>
  <path d="m18.85,25.25c0,-0.03 -0.02,-0.06 -0.02,-0.09c-0.01,-0.09 -0.03,-0.18 -0.06,-0.26c-0.03,-0.09 -0.05,-0.18 -0.09,-0.26c-0.02,-0.03 -0.02,-0.06 -0.04,-0.09l-4.46,-7.14l8.22,-2.96c0.64,0.8 1.53,1.39 2.55,1.69l0,14.7c-3.31,0.52 -6.11,2.83 -7.07,5.98c-0.12,0.41 -0.03,0.85 0.22,1.19c0.27,0.34 0.69,0.54 1.13,0.54l14.24,0c0.44,0 0.86,-0.2 1.12,-0.54c0.26,-0.34 0.35,-0.78 0.23,-1.19c-0.96,-3.15 -3.77,-5.46 -7.07,-5.98l0,-14.7c1.02,-0.3 1.91,-0.89 2.55,-1.69l8.22,2.96l-4.47,7.14c-0.01,0.03 -0.01,0.06 -0.03,0.09c-0.04,0.08 -0.06,0.17 -0.09,0.26c-0.03,0.08 -0.05,0.17 -0.06,0.26c0,0.03 -0.01,0.06 -0.01,0.09c0,3.57 3.02,6.47 6.73,6.47c3.72,0 6.74,-2.9 6.74,-6.47c0,-0.03 -0.01,-0.06 -0.02,-0.09c0,-0.09 -0.03,-0.18 -0.05,-0.26c-0.02,-0.09 -0.06,-0.18 -0.09,-0.26c-0.02,-0.03 -0.02,-0.06 -0.04,-0.09l-5.34,-8.54c-0.03,-0.05 -0.08,-0.08 -0.12,-0.12c-0.05,-0.07 -0.1,-0.13 -0.17,-0.18c-0.09,-0.08 -0.19,-0.14 -0.29,-0.19c-0.05,-0.02 -0.08,-0.06 -0.13,-0.07l-9.8,-3.53c0,-0.11 0.03,-0.22 0.03,-0.33c0,-2.63 -2.22,-4.76 -4.96,-4.76c-2.74,0 -4.96,2.13 -4.96,4.76c0,0.11 0.02,0.22 0.04,0.33l-9.81,3.53c-0.05,0.01 -0.08,0.05 -0.12,0.07c-0.11,0.05 -0.21,0.11 -0.31,0.19c-0.06,0.05 -0.11,0.11 -0.16,0.18c-0.04,0.04 -0.09,0.08 -0.12,0.13l-5.35,8.53c-0.01,0.03 -0.01,0.06 -0.03,0.09c-0.04,0.08 -0.07,0.17 -0.09,0.26c-0.03,0.08 -0.05,0.17 -0.05,0.26c-0.01,0.03 -0.02,0.06 -0.02,0.09c0,3.57 3.02,6.47 6.74,6.47c3.71,0 6.74,-2.9 6.74,-6.47zm21.74,-5.92l2.87,4.57l-5.73,0l2.86,-4.57zm0,9.69c-1.67,0 -3.11,-1 -3.68,-2.42l7.36,0c-0.57,1.42 -2,2.42 -3.68,2.42zm-9.34,6.83l-9.8,0c1.11,-1.49 2.92,-2.42 4.9,-2.42c1.97,0 3.79,0.93 4.9,2.42zm-4.9,-26.32c1.19,0 2.16,0.93 2.16,2.06c0,1.14 -0.97,2.07 -2.16,2.07c-1.19,0 -2.17,-0.93 -2.17,-2.07c0,-1.13 0.98,-2.06 2.17,-2.06zm-11.38,14.37l-5.72,0l2.86,-4.57l2.86,4.57zm-6.55,2.7l7.36,0c-0.56,1.42 -2,2.42 -3.67,2.42c-1.68,0 -3.11,-1 -3.69,-2.42z" fill="#306cbc" id="svg_4"/>
  <path d="m61.96,18.06l35.61,0c0.77,0 1.4,-0.6 1.4,-1.34c0,-0.75 -0.63,-1.35 -1.4,-1.35l-35.61,0c-0.78,0 -1.4,0.6 -1.4,1.35c0,0.74 0.62,1.34 1.4,1.34z" fill="#306cbc" id="svg_5"/>
  <path d="m56.62,30.01l55.19,0c0.78,0 1.4,-0.6 1.4,-1.35c0,-0.74 -0.62,-1.35 -1.4,-1.35l-55.19,0c-0.77,0 -1.4,0.61 -1.4,1.35c0,0.75 0.62,1.35 1.4,1.35z" fill="#306cbc" id="svg_6"/>
  <path d="m37.03,47.8l-21.36,0c-0.78,0 -1.4,0.6 -1.4,1.35c0,0.74 0.62,1.35 1.4,1.35l21.36,0c0.78,0 1.4,-0.61 1.4,-1.35c0,-0.75 -0.62,-1.35 -1.4,-1.35z" fill="#306cbc" id="svg_7"/>
  <path d="m23.17,59.39c0,0.75 0.63,1.35 1.4,1.35l83.68,0c0.77,0 1.4,-0.6 1.4,-1.35c0,-0.74 -0.63,-1.35 -1.4,-1.35l-83.69,0c-0.76,0 -1.39,0.61 -1.39,1.35z" fill="#306cbc" id="svg_8"/>
  <path d="m15.67,74.4l92.58,0c0.78,0 1.4,-0.61 1.4,-1.35c0,-0.75 -0.62,-1.35 -1.4,-1.35l-92.58,0c-0.78,0 -1.4,0.6 -1.4,1.35c0,0.74 0.62,1.35 1.4,1.35z" fill="#306cbc" id="svg_9"/>
  <path d="m15.67,89.76l92.58,0c0.78,0 1.4,-0.6 1.4,-1.35c0,-0.74 -0.62,-1.35 -1.4,-1.35l-92.58,0c-0.78,0 -1.4,0.61 -1.4,1.35c0,0.75 0.62,1.35 1.4,1.35z" fill="#306cbc" id="svg_10"/>
  <path d="m53.06,103.42l55.19,0c0.78,0 1.4,-0.61 1.4,-1.35c0,-0.75 -0.62,-1.35 -1.4,-1.35l-55.19,0c-0.77,0 -1.4,0.6 -1.4,1.35c0,0.74 0.63,1.35 1.4,1.35z" fill="#306cbc" id="svg_11"/>
  <path d="m54.46,129.38c0,-12.04 -10.22,-21.83 -22.77,-21.83c-12.55,0 -22.76,9.79 -22.76,21.83c0,12.05 10.21,21.84 22.76,21.84c12.55,0 22.77,-9.79 22.77,-21.84zm-42.73,0c0,-10.55 8.95,-19.13 19.96,-19.13c11.01,0 19.97,8.58 19.97,19.13c0,10.56 -8.96,19.14 -19.97,19.14c-11.01,0 -19.96,-8.58 -19.96,-19.14z" fill="#306cbc" id="svg_12"/>
  <path d="m47.33,129.38c0,-8.27 -7.01,-15 -15.64,-15c-8.62,0 -15.64,6.73 -15.64,15c0,8.28 7.02,15.01 15.64,15.01c8.63,0 15.64,-6.73 15.64,-15.01zm-28.48,0c0,-6.78 5.76,-12.31 12.84,-12.31c7.08,0 12.84,5.53 12.84,12.31c0,6.79 -5.76,12.31 -12.84,12.31c-7.08,0 -12.84,-5.52 -12.84,-12.31z" fill="#306cbc" id="svg_13"/>
  <path d="m37.93,123.23c-0.6,-0.48 -1.47,-0.4 -1.97,0.17l-7.7,8.86l-2.53,-3.63c-0.43,-0.62 -1.29,-0.78 -1.94,-0.37c-0.64,0.42 -0.82,1.26 -0.38,1.88l3.56,5.11c0.24,0.36 0.65,0.58 1.09,0.61c0.02,0 0.04,0 0.07,0c0.41,0 0.8,-0.18 1.07,-0.49l8.9,-10.24c0.5,-0.57 0.42,-1.42 -0.17,-1.9z" fill="#306cbc" id="svg_14"/>
  <path d="m111.31,129.58c-1.63,0.6 -3.3,1.14 -4.99,1.59c-1.8,0.49 -3.64,0.9 -5.5,1.21c0.17,-0.39 0.31,-0.8 0.41,-1.21c0.36,-1.34 0.85,-3.16 -0.26,-4.48c-1.14,-1.34 -3.38,-1.49 -6.64,-0.43c-2.45,0.8 -4.49,2.12 -6.12,3.5c0.06,-1.19 -0.15,-2.35 -0.95,-3.15c-1.76,-1.77 -5.04,-0.84 -10.11,1.35c-5.29,2.28 -10.52,5.08 -15.55,8.33c-0.64,0.41 -0.81,1.24 -0.39,1.87c0.28,0.39 0.72,0.6 1.18,0.6c0.26,0 0.53,-0.07 0.77,-0.23c4.9,-3.16 9.99,-5.88 15.14,-8.11c5.75,-2.49 6.76,-2.11 6.94,-1.94c0.02,0.02 0.57,0.62 -0.34,3.62c-0.35,1.18 -0.97,2.06 -1.3,2.53c-0.81,1.16 -0.4,1.84 0.09,2.2c0.29,0.22 0.68,0.32 1.05,0.27c0.64,-0.09 0.92,-0.44 1.47,-1.16c1.18,-1.53 4.3,-5.59 9.01,-7.12c2.48,-0.81 3.47,-0.53 3.58,-0.42c0.21,0.28 -0.15,1.64 -0.27,2.09c-0.27,1.01 -0.76,1.95 -1.45,2.79c-0.35,0.43 -0.4,1.02 -0.12,1.5c0.27,0.48 0.82,0.74 1.38,0.68c2.95,-0.34 5.89,-0.92 8.74,-1.68c1.77,-0.49 3.53,-1.05 5.24,-1.69c0.72,-0.27 1.08,-1.06 0.79,-1.75c-0.27,-0.69 -1.08,-1.03 -1.8,-0.76z" fill="#306cbc" id="svg_15"/>
  <path d="m106.33,139.99l-35.61,3.42c-0.76,0.07 -1.33,0.73 -1.25,1.47c0.07,0.7 0.68,1.21 1.39,1.21c0.05,0 0.09,0 0.14,0l35.61,-3.41c0.77,-0.08 1.33,-0.74 1.25,-1.48c-0.07,-0.74 -0.76,-1.29 -1.53,-1.21z" fill="#306cbc" id="svg_16"/>
 </g>
</svg>