<svg width="140" height="170" viewBox="0 0 140 170" fill="none" xmlns="http://www.w3.org/2000/svg">
<mask id="mask0_331_514" style="mask-type:luminance" maskUnits="userSpaceOnUse" x="0" y="0" width="140" height="170">
<path d="M0 0H140V170H0V0Z" fill="white"/>
</mask>
<g mask="url(#mask0_331_514)">
<path d="M138.524 10.2453H123.897V1.34845C123.897 0.608269 123.266 0 122.497 0H1.42318C0.646963 0 0.0229492 0.608269 0.0229492 1.34845V158.406C0.0229492 159.146 0.646963 159.755 1.42318 159.755H16.0495V168.644C16.0495 169.392 16.6735 170 17.4497 170H138.524C139.292 170 139.916 169.392 139.916 168.644V11.5937C139.916 10.8462 139.292 10.2453 138.524 10.2453ZM2.82341 2.6969H121.097V157.058H2.82341V2.6969ZM137.124 167.296H18.8499V159.755H122.497C123.266 159.755 123.897 159.146 123.897 158.406V12.9422H137.124V167.296Z" fill="#AFAFAF"/>
</g>
<path d="M18.85 25.247C18.85 25.2177 18.8272 25.1884 18.8272 25.159C18.8196 25.0711 18.7968 24.9832 18.7739 24.8952C18.7435 24.8073 18.7207 24.7193 18.675 24.6387C18.6598 24.6094 18.6598 24.5801 18.6446 24.5508L14.1775 17.4128L22.4039 14.4521C23.0355 15.2509 23.9259 15.8445 24.9532 16.1376V30.8387C21.6429 31.359 18.8424 33.6675 17.8836 36.8187C17.7618 37.2291 17.8455 37.6689 18.1043 38.006C18.3706 38.3504 18.7892 38.5483 19.2305 38.5483H33.4687C33.9101 38.5483 34.3287 38.3504 34.5874 38.006C34.8537 37.6689 34.9374 37.2291 34.8157 36.8187C33.8568 33.6675 31.0488 31.359 27.7461 30.8387V16.1376C28.7734 15.8445 29.6638 15.2509 30.2954 14.4521L38.5217 17.4128L34.0547 24.5508C34.0395 24.5801 34.0395 24.6094 34.0243 24.6387C33.9786 24.7193 33.9558 24.8073 33.9253 24.8952C33.9025 24.9832 33.8797 25.0711 33.8721 25.159C33.8721 25.1884 33.8568 25.2177 33.8568 25.247C33.8568 28.816 36.878 31.7181 40.5916 31.7181C44.3053 31.7181 47.334 28.816 47.334 25.247C47.334 25.2177 47.3188 25.1884 47.3112 25.159C47.3112 25.0711 47.2808 24.9832 47.2579 24.8952C47.2351 24.8073 47.2047 24.7193 47.1666 24.6387C47.1514 24.6094 47.1514 24.5801 47.1286 24.5508L41.794 16.013C41.756 15.9617 41.7103 15.9324 41.6722 15.8885C41.619 15.8225 41.5657 15.7639 41.5048 15.7126C41.4135 15.632 41.3146 15.5733 41.208 15.522C41.1624 15.5 41.1319 15.4634 41.0787 15.4487L31.2771 11.9237C31.2847 11.8138 31.3075 11.7039 31.3075 11.5939C31.3075 8.96299 29.0854 6.83038 26.3534 6.83038C23.6139 6.83038 21.3918 8.96299 21.3918 11.5939C21.3918 11.7039 21.4146 11.8138 21.4298 11.9237L11.6206 15.4487C11.5749 15.4634 11.5445 15.5 11.4988 15.522C11.3923 15.5733 11.2858 15.632 11.1944 15.7126C11.1336 15.7639 11.0803 15.8225 11.027 15.8885C10.989 15.9324 10.9433 15.9691 10.9053 16.0204L5.56309 24.5508C5.54787 24.5801 5.54787 24.6094 5.53265 24.6387C5.48699 24.7193 5.46416 24.8073 5.44133 24.8952C5.41089 24.9832 5.38806 25.0711 5.38806 25.159C5.38045 25.1884 5.36523 25.2177 5.36523 25.247C5.36523 28.816 8.38638 31.7181 12.1076 31.7181C15.8213 31.7181 18.85 28.816 18.85 25.247ZM40.5916 19.3255L43.4606 23.8985H37.7303L40.5916 19.3255ZM40.5916 29.0212C38.9174 29.0212 37.4792 28.0172 36.9084 26.5954H44.2748C43.7041 28.0172 42.2734 29.0212 40.5916 29.0212ZM31.2466 35.8514H21.445C22.5561 34.3637 24.3749 33.4256 26.3458 33.4256C28.3244 33.4256 30.1356 34.3637 31.2466 35.8514ZM26.3458 9.52728C27.5406 9.52728 28.5071 10.458 28.5071 11.5939C28.5071 12.7299 27.5406 13.6606 26.3458 13.6606C25.1587 13.6606 24.1846 12.7299 24.1846 11.5939C24.1846 10.458 25.1587 9.52728 26.3458 9.52728ZM14.969 23.8985H9.2463L12.1076 19.3255L14.969 23.8985ZM8.42443 26.5954H15.7832C15.2201 28.0172 13.7818 29.0212 12.1076 29.0212C10.4258 29.0212 8.99517 28.0172 8.42443 26.5954Z" fill="#AFAFAF"/>
<path d="M61.9588 18.0649H97.5657C98.3419 18.0649 98.9659 17.4566 98.9659 16.7164C98.9659 15.9689 98.3419 15.368 97.5657 15.368H61.9588C61.1826 15.368 60.5586 15.9689 60.5586 16.7164C60.5586 17.4566 61.1826 18.0649 61.9588 18.0649Z" fill="#AFAFAF"/>
<path d="M56.617 30.0103H111.812C112.588 30.0103 113.212 29.4094 113.212 28.6619C113.212 27.9217 112.588 27.3134 111.812 27.3134H56.617C55.8484 27.3134 55.2168 27.9217 55.2168 28.6619C55.2168 29.4094 55.8408 30.0103 56.617 30.0103Z" fill="#AFAFAF"/>
<path d="M37.0299 47.8038H15.6688C14.8926 47.8038 14.2686 48.4048 14.2686 49.1523C14.2686 49.8925 14.8926 50.5007 15.6688 50.5007H37.0299C37.8061 50.5007 38.4301 49.8925 38.4301 49.1523C38.4301 48.4048 37.8061 47.8038 37.0299 47.8038Z" fill="#AFAFAF"/>
<path d="M23.1724 59.3903C23.1724 60.1378 23.7964 60.7388 24.565 60.7388H108.251C109.02 60.7388 109.652 60.1378 109.652 59.3903C109.652 58.6501 109.02 58.0419 108.251 58.0419H24.565C23.7964 58.0419 23.1724 58.6501 23.1724 59.3903Z" fill="#AFAFAF"/>
<path d="M15.6688 74.3991H108.251C109.027 74.3991 109.651 73.7908 109.651 73.0507C109.651 72.3032 109.027 71.7022 108.251 71.7022H15.6688C14.8926 71.7022 14.2686 72.3032 14.2686 73.0507C14.2686 73.7908 14.8926 74.3991 15.6688 74.3991Z" fill="#AFAFAF"/>
<path d="M15.6688 89.7599H108.251C109.027 89.7599 109.651 89.1589 109.651 88.4114C109.651 87.6713 109.027 87.063 108.251 87.063H15.6688C14.8926 87.063 14.2686 87.6713 14.2686 88.4114C14.2686 89.1589 14.8926 89.7599 15.6688 89.7599Z" fill="#AFAFAF"/>
<path d="M53.0555 103.42H108.25C109.027 103.42 109.651 102.812 109.651 102.072C109.651 101.324 109.027 100.723 108.25 100.723H53.0555C52.2869 100.723 51.6553 101.324 51.6553 102.072C51.6553 102.812 52.2869 103.42 53.0555 103.42Z" fill="#AFAFAF"/>
<path d="M54.4565 129.385C54.4565 117.345 44.244 107.546 31.6876 107.546C19.1388 107.546 8.92627 117.345 8.92627 129.385C8.92627 141.426 19.1388 151.217 31.6876 151.217C44.244 151.217 54.4565 141.426 54.4565 129.385ZM11.7267 129.385C11.7267 118.832 20.6836 110.251 31.6876 110.251C42.6992 110.251 51.6561 118.832 51.6561 129.385C51.6561 139.939 42.6992 148.52 31.6876 148.52C20.6836 148.52 11.7267 139.939 11.7267 129.385Z" fill="#AFAFAF"/>
<path d="M47.3338 129.385C47.3338 121.111 40.3174 114.376 31.6877 114.376C23.0657 114.376 16.0493 121.111 16.0493 129.385C16.0493 137.659 23.0657 144.394 31.6877 144.394C40.3174 144.394 47.3338 137.659 47.3338 129.385ZM18.8498 129.385C18.8498 122.599 24.6105 117.073 31.6877 117.073C38.7726 117.073 44.5333 122.599 44.5333 129.385C44.5333 136.171 38.7726 141.69 31.6877 141.69C24.6105 141.69 18.8498 136.171 18.8498 129.385Z" fill="#AFAFAF"/>
<path d="M37.928 123.229C37.3344 122.746 36.4593 122.826 35.957 123.398L28.2557 132.258L25.7292 128.63C25.3031 128.015 24.4356 127.846 23.7887 128.264C23.1495 128.682 22.9745 129.517 23.4082 130.14L26.9697 135.255C27.2132 135.607 27.6165 135.834 28.0579 135.856C28.0807 135.856 28.1035 135.856 28.1264 135.856C28.5373 135.856 28.933 135.68 29.1994 135.373L38.103 125.127C38.5977 124.556 38.5216 123.706 37.928 123.229Z" fill="#AFAFAF"/>
<path d="M111.311 129.576C109.682 130.177 108.008 130.719 106.319 131.174C104.515 131.665 102.681 132.068 100.824 132.375C100.992 131.987 101.129 131.584 101.235 131.166C101.593 129.832 102.08 128.008 100.969 126.688C99.8273 125.347 97.59 125.201 94.3253 126.263C91.8826 127.055 89.8431 128.381 88.207 129.759C88.2678 128.572 88.0624 127.414 87.2557 126.608C85.4978 124.842 82.2179 125.765 77.1497 127.956C71.8608 130.243 66.6252 133.042 61.6026 136.289C60.9634 136.699 60.7884 137.535 61.2145 138.158C61.4885 138.546 61.9298 138.759 62.3864 138.759C62.6528 138.759 62.9191 138.685 63.1627 138.531C68.0558 135.373 73.1469 132.647 78.2988 130.419C84.0519 127.927 85.0641 128.308 85.2391 128.477C85.2619 128.499 85.8098 129.1 84.9042 132.097C84.5466 133.277 83.9302 134.156 83.5953 134.633C82.7887 135.79 83.1996 136.472 83.6867 136.831C83.9834 137.051 84.3715 137.154 84.7444 137.102C85.3837 137.014 85.6576 136.655 86.2055 135.944C87.3851 134.413 90.5052 130.353 95.2157 128.821C97.6965 128.015 98.6858 128.286 98.8 128.396C99.0131 128.682 98.6478 130.045 98.526 130.492C98.2597 131.496 97.765 132.441 97.0801 133.284C96.7301 133.709 96.6768 134.303 96.9584 134.779C97.2323 135.256 97.7803 135.519 98.3434 135.461C101.288 135.116 104.226 134.545 107.08 133.775C108.853 133.291 110.611 132.727 112.323 132.09C113.038 131.818 113.396 131.034 113.114 130.345C112.84 129.649 112.026 129.305 111.311 129.576Z" fill="#AFAFAF"/>
<path d="M106.333 139.99L70.7183 143.405C69.9573 143.478 69.3942 144.138 69.4703 144.885C69.5388 145.581 70.1476 146.094 70.8553 146.094C70.9085 146.094 70.9542 146.094 70.9999 146.087L106.607 142.679C107.375 142.599 107.938 141.939 107.862 141.199C107.786 140.459 107.101 139.909 106.333 139.99Z" fill="#AFAFAF"/>
</svg>
