<svg width="200" height="180" viewBox="0 0 200 180" fill="none" xmlns="http://www.w3.org/2000/svg">
<path d="M84.2294 102.619C81.1764 102.619 78.7056 105.264 78.7056 108.515V112.314C78.7056 121.775 85.646 129.524 94.3654 130.106V136.48C94.3654 139.742 96.8363 142.376 99.8892 142.376C102.942 142.376 105.413 139.742 105.413 136.48V130.106C114.132 129.535 121.073 121.787 121.073 112.314V104.181C121.073 98.7974 117.844 93.6588 111.98 89.7205C111.673 89.5224 111.365 89.3476 111.025 89.2194L109.937 88.765C109.817 88.6951 109.707 88.6135 109.564 88.5669L98.9997 84.244L94.7937 82.4962C94.7388 82.4846 94.6839 82.4729 94.629 82.4496L93.0806 81.8204C91.016 80.3406 89.7422 78.8142 89.7422 77.7655V69.6674C89.7422 66.3349 92.2789 63.62 95.3867 63.62H104.392C107.5 63.62 110.025 66.3349 110.025 69.6674V73.4426C110.025 76.7052 112.496 79.3385 115.549 79.3385C118.602 79.3385 121.073 76.7052 121.073 73.4426V69.6674C121.073 60.206 114.132 52.4574 105.413 51.8865V45.0817C105.413 41.8308 102.931 39.1975 99.8892 39.1975C96.8363 39.1975 94.3654 41.8308 94.3654 45.0817V51.8865C85.646 52.4574 78.7056 60.1943 78.7056 69.6674V77.7655C78.7056 81.5524 80.243 87.1104 87.6117 92.0742C87.9192 92.2839 88.2377 92.4587 88.5781 92.5985L95.1451 95.2901L106.511 99.9859C108.927 101.699 110.025 103.342 110.025 104.181V112.314C110.025 115.658 107.5 118.373 104.392 118.373H95.4197C92.2899 118.373 89.7422 115.658 89.7422 112.314V108.515C89.7422 105.264 87.2713 102.619 84.2294 102.619Z" fill="#2969BD"/>
<mask id="mask0_195_402" style="mask-type:luminance" maskUnits="userSpaceOnUse" x="0" y="68" width="171" height="112">
<path d="M0 68.6071H170.172V180H0V68.6071Z" fill="white"/>
</mask>
<g mask="url(#mask0_195_402)">
<path d="M167.174 131.726C164.626 129.943 161.2 130.701 159.531 133.427C141.016 163.571 104.644 176.202 73.0501 163.443C44.5636 151.954 25.9606 122.264 26.0595 90.3963L35.1523 105.101C36.2175 106.814 37.9746 107.746 39.7646 107.746C40.8079 107.746 41.8621 107.432 42.8065 106.767C45.3433 104.973 46.0461 101.314 44.3659 98.5993L28.3327 72.6853C27.3443 71.089 25.6971 70.1102 23.8961 70.052C22.139 69.9937 20.3929 70.8676 19.3167 72.394L17.922 74.3748C17.1753 75.0041 16.5823 75.8313 16.2089 76.7985L1.9986 96.9564C0.164658 99.5548 0.658835 103.248 3.08579 105.206C5.52372 107.164 8.98295 106.651 10.8169 104.041L15.2864 97.7021C17.8452 131.551 38.5566 162.126 69.1406 174.465C78.6727 178.322 88.5782 180.163 98.3958 180.163C126.07 180.163 153.019 165.517 168.766 139.894C170.436 137.167 169.722 133.52 167.174 131.726Z" fill="#2969BD"/>
</g>
<mask id="mask1_195_402" style="mask-type:luminance" maskUnits="userSpaceOnUse" x="26" y="0" width="174" height="117">
<path d="M26.7969 0H200V116.333H26.7969V0Z" fill="white"/>
</mask>
<g mask="url(#mask1_195_402)">
<path d="M196.727 79.8395C194.3 77.8586 190.83 78.348 188.985 80.9348L182.495 90C182.133 53.7623 160.828 20.193 128.399 7.09614C92.0061 -7.58535 50.1 6.95632 28.7735 41.6792C27.0933 44.4058 27.8071 48.0645 30.3549 49.8473C32.9026 51.63 36.3289 50.8726 37.9981 48.1577C56.5242 18.0024 92.9066 5.3833 124.49 18.1306C152.845 29.5728 171.415 59.0523 171.47 90.769L164.683 79.6064C163.014 76.8799 159.598 76.0992 157.04 77.8703C154.481 79.6414 153.756 83.3001 155.414 86.0267L171.283 112.115C172.26 113.723 173.907 114.714 175.697 114.795C175.774 114.795 175.84 114.795 175.917 114.795C177.63 114.795 179.256 113.945 180.299 112.488L197.76 88.1007C199.605 85.514 199.143 81.8087 196.727 79.8395Z" fill="#2969BD"/>
</g>
</svg>
